<svg xmlns="http://www.w3.org/2000/svg" xmlns:xlink="http://www.w3.org/1999/xlink" contentStyleType="text/css" data-diagram-type="SEQUENCE" height="1165px" preserveAspectRatio="none" style="width:1231px;height:1165px;background:#FFFFFF;" version="1.1" viewBox="0 0 1231 1165" width="1231px" zoomAndPan="magnify"><defs/><g><g><title>User</title><rect fill="#FFFFFF" height="29.1328" style="stroke:#181818;stroke-width:1;" width="10" x="43.9551" y="298.4922"/></g><g><title>User</title><rect fill="#FFFFFF" height="53.2656" style="stroke:#181818;stroke-width:1;" width="10" x="43.9551" y="443.1563"/></g><g><title>User</title><rect fill="#FFFFFF" height="29.1328" style="stroke:#181818;stroke-width:1;" width="10" x="43.9551" y="525.5547"/></g><g><title>User</title><rect fill="#FFFFFF" height="53.2656" style="stroke:#181818;stroke-width:1;" width="10" x="43.9551" y="693.3516"/></g><g><title>User</title><rect fill="#FFFFFF" height="29.1328" style="stroke:#181818;stroke-width:1;" width="10" x="43.9551" y="972.6797"/></g><g><title>K8sHardenerCLI</title><rect fill="#FFFFFF" height="939.5156" style="stroke:#181818;stroke-width:1;" width="10" x="483.7773" y="127.5625"/></g><g><title>NetworkPolicyGeneratorModule</title><rect fill="#FFFFFF" height="910.3828" style="stroke:#181818;stroke-width:1;" width="10" x="674.7349" y="156.6953"/></g><g><title>KubernetesAPIServer</title><rect fill="#FFFFFF" height="29.1328" style="stroke:#181818;stroke-width:1;" width="10" x="920.4863" y="200.9609"/></g><g><title>KubernetesAPIServer</title><rect fill="#FFFFFF" height="29.1328" style="stroke:#181818;stroke-width:1;" width="10" x="920.4863" y="849.1484"/></g><g><title>FileSystem</title><rect fill="#FFFFFF" height="29.1328" style="stroke:#181818;stroke-width:1;" width="10" x="1056.9375" y="583.8203"/></g><g><title>KubectlCLI</title><rect fill="#FFFFFF" height="87.3984" style="stroke:#181818;stroke-width:1;" width="10" x="1156.4302" y="820.0156"/></g><rect fill="none" height="764.7188" style="stroke:#000000;stroke-width:1.5;" width="1215.5972" x="10" y="245.0938"/><rect fill="none" height="191.9297" style="stroke:#000000;stroke-width:1.5;" width="1097.2632" x="20" y="458.1563"/><rect fill="none" height="236.1953" style="stroke:#000000;stroke-width:1.5;" width="1195.5972" x="20" y="708.3516"/><g><title>User</title><rect fill="#000000" fill-opacity="0.00000" height="1003.7813" width="8" x="44.9551" y="81.2969"/><line style="stroke:#181818;stroke-width:0.5;stroke-dasharray:5.0,5.0;" x1="48" x2="48" y1="81.2969" y2="1085.0781"/></g><g><title>K8sHardenerCLI</title><rect fill="#000000" fill-opacity="0.00000" height="1003.7813" width="8" x="484.7773" y="81.2969"/><line style="stroke:#181818;stroke-width:0.5;stroke-dasharray:5.0,5.0;" x1="488.4321" x2="488.4321" y1="81.2969" y2="1085.0781"/></g><g><title>NetworkPolicyGeneratorModule</title><rect fill="#000000" fill-opacity="0.00000" height="1003.7813" width="8" x="675.7349" y="81.2969"/><line style="stroke:#181818;stroke-width:0.5;stroke-dasharray:5.0,5.0;" x1="679.1226" x2="679.1226" y1="81.2969" y2="1085.0781"/></g><g><title>KubernetesAPIServer</title><rect fill="#000000" fill-opacity="0.00000" height="1003.7813" width="8" x="921.4863" y="81.2969"/><line style="stroke:#181818;stroke-width:0.5;stroke-dasharray:5.0,5.0;" x1="925.3608" x2="925.3608" y1="81.2969" y2="1085.0781"/></g><g><title>FileSystem</title><rect fill="#000000" fill-opacity="0.00000" height="1003.7813" width="8" x="1057.9375" y="81.2969"/><line style="stroke:#181818;stroke-width:0.5;stroke-dasharray:5.0,5.0;" x1="1061.6118" x2="1061.6118" y1="81.2969" y2="1085.0781"/></g><g><title>KubectlCLI</title><rect fill="#000000" fill-opacity="0.00000" height="1003.7813" width="8" x="1157.4302" y="81.2969"/><line style="stroke:#181818;stroke-width:0.5;stroke-dasharray:5.0,5.0;" x1="1161.2632" x2="1161.2632" y1="81.2969" y2="1085.0781"/></g><g class="participant participant-head" data-participant="User"><text fill="#000000" font-family="sans-serif" font-size="14" lengthAdjust="spacing" textLength="31.9102" x="30" y="77.9951">User</text><ellipse cx="48.9551" cy="13.5" fill="#E2E2F0" rx="8" ry="8" style="stroke:#181818;stroke-width:0.5;"/><path d="M48.9551,21.5 L48.9551,48.5 M35.9551,29.5 L61.9551,29.5 M48.9551,48.5 L35.9551,63.5 M48.9551,48.5 L61.9551,63.5" fill="none" style="stroke:#181818;stroke-width:0.5;"/></g><g class="participant participant-tail" data-participant="User"><text fill="#000000" font-family="sans-serif" font-size="14" lengthAdjust="spacing" textLength="31.9102" x="30" y="1097.0732">User</text><ellipse cx="48.9551" cy="1108.875" fill="#E2E2F0" rx="8" ry="8" style="stroke:#181818;stroke-width:0.5;"/><path d="M48.9551,1116.875 L48.9551,1143.875 M35.9551,1124.875 L61.9551,1124.875 M48.9551,1143.875 L35.9551,1158.875 M48.9551,1143.875 L61.9551,1158.875" fill="none" style="stroke:#181818;stroke-width:0.5;"/></g><g class="participant participant-head" data-participant="K8sHardenerCLI"><rect fill="#E2E2F0" height="30.2969" rx="2.5" ry="2.5" style="stroke:#181818;stroke-width:0.5;" width="126.6904" x="425.4321" y="50"/><text fill="#000000" font-family="sans-serif" font-size="14" lengthAdjust="spacing" textLength="112.6904" x="432.4321" y="69.9951">K8sHardenerCLI</text></g><g class="participant participant-tail" data-participant="K8sHardenerCLI"><rect fill="#E2E2F0" height="30.2969" rx="2.5" ry="2.5" style="stroke:#181818;stroke-width:0.5;" width="126.6904" x="425.4321" y="1084.0781"/><text fill="#000000" font-family="sans-serif" font-size="14" lengthAdjust="spacing" textLength="112.6904" x="432.4321" y="1104.0732">K8sHardenerCLI</text></g><g class="participant participant-head" data-participant="NetworkPolicyGeneratorModule"><rect fill="#E2E2F0" height="30.2969" rx="2.5" ry="2.5" style="stroke:#181818;stroke-width:0.5;" width="235.2246" x="562.1226" y="50"/><text fill="#000000" font-family="sans-serif" font-size="14" lengthAdjust="spacing" textLength="221.2246" x="569.1226" y="69.9951">NetworkPolicyGeneratorModule</text></g><g class="participant participant-tail" data-participant="NetworkPolicyGeneratorModule"><rect fill="#E2E2F0" height="30.2969" rx="2.5" ry="2.5" style="stroke:#181818;stroke-width:0.5;" width="235.2246" x="562.1226" y="1084.0781"/><text fill="#000000" font-family="sans-serif" font-size="14" lengthAdjust="spacing" textLength="221.2246" x="569.1226" y="1104.0732">NetworkPolicyGeneratorModule</text></g><g class="participant participant-head" data-participant="KubernetesAPIServer"><rect fill="#E2E2F0" height="30.2969" rx="2.5" ry="2.5" style="stroke:#181818;stroke-width:0.5;" width="162.251" x="844.3608" y="50"/><text fill="#000000" font-family="sans-serif" font-size="14" lengthAdjust="spacing" textLength="148.251" x="851.3608" y="69.9951">KubernetesAPIServer</text></g><g class="participant participant-tail" data-participant="KubernetesAPIServer"><rect fill="#E2E2F0" height="30.2969" rx="2.5" ry="2.5" style="stroke:#181818;stroke-width:0.5;" width="162.251" x="844.3608" y="1084.0781"/><text fill="#000000" font-family="sans-serif" font-size="14" lengthAdjust="spacing" textLength="148.251" x="851.3608" y="1104.0732">KubernetesAPIServer</text></g><g class="participant participant-head" data-participant="FileSystem"><rect fill="#E2E2F0" height="30.2969" rx="2.5" ry="2.5" style="stroke:#181818;stroke-width:0.5;" width="90.6514" x="1016.6118" y="50"/><text fill="#000000" font-family="sans-serif" font-size="14" lengthAdjust="spacing" textLength="76.6514" x="1023.6118" y="69.9951">FileSystem</text></g><g class="participant participant-tail" data-participant="FileSystem"><rect fill="#E2E2F0" height="30.2969" rx="2.5" ry="2.5" style="stroke:#181818;stroke-width:0.5;" width="90.6514" x="1016.6118" y="1084.0781"/><text fill="#000000" font-family="sans-serif" font-size="14" lengthAdjust="spacing" textLength="76.6514" x="1023.6118" y="1104.0732">FileSystem</text></g><g class="participant participant-head" data-participant="KubectlCLI"><rect fill="#E2E2F0" height="30.2969" rx="2.5" ry="2.5" style="stroke:#181818;stroke-width:0.5;" width="88.334" x="1117.2632" y="50"/><text fill="#000000" font-family="sans-serif" font-size="14" lengthAdjust="spacing" textLength="74.334" x="1124.2632" y="69.9951">KubectlCLI</text></g><g class="participant participant-tail" data-participant="KubectlCLI"><rect fill="#E2E2F0" height="30.2969" rx="2.5" ry="2.5" style="stroke:#181818;stroke-width:0.5;" width="88.334" x="1117.2632" y="1084.0781"/><text fill="#000000" font-family="sans-serif" font-size="14" lengthAdjust="spacing" textLength="74.334" x="1124.2632" y="1104.0732">KubectlCLI</text></g><g><title>User</title><rect fill="#FFFFFF" height="29.1328" style="stroke:#181818;stroke-width:1;" width="10" x="43.9551" y="298.4922"/></g><g><title>User</title><rect fill="#FFFFFF" height="53.2656" style="stroke:#181818;stroke-width:1;" width="10" x="43.9551" y="443.1563"/></g><g><title>User</title><rect fill="#FFFFFF" height="29.1328" style="stroke:#181818;stroke-width:1;" width="10" x="43.9551" y="525.5547"/></g><g><title>User</title><rect fill="#FFFFFF" height="53.2656" style="stroke:#181818;stroke-width:1;" width="10" x="43.9551" y="693.3516"/></g><g><title>User</title><rect fill="#FFFFFF" height="29.1328" style="stroke:#181818;stroke-width:1;" width="10" x="43.9551" y="972.6797"/></g><g><title>K8sHardenerCLI</title><rect fill="#FFFFFF" height="939.5156" style="stroke:#181818;stroke-width:1;" width="10" x="483.7773" y="127.5625"/></g><g><title>NetworkPolicyGeneratorModule</title><rect fill="#FFFFFF" height="910.3828" style="stroke:#181818;stroke-width:1;" width="10" x="674.7349" y="156.6953"/></g><g><title>KubernetesAPIServer</title><rect fill="#FFFFFF" height="29.1328" style="stroke:#181818;stroke-width:1;" width="10" x="920.4863" y="200.9609"/></g><g><title>KubernetesAPIServer</title><rect fill="#FFFFFF" height="29.1328" style="stroke:#181818;stroke-width:1;" width="10" x="920.4863" y="849.1484"/></g><g><title>FileSystem</title><rect fill="#FFFFFF" height="29.1328" style="stroke:#181818;stroke-width:1;" width="10" x="1056.9375" y="583.8203"/></g><g><title>KubectlCLI</title><rect fill="#FFFFFF" height="87.3984" style="stroke:#181818;stroke-width:1;" width="10" x="1156.4302" y="820.0156"/></g><g class="message" data-participant-1="User" data-participant-2="K8sHardenerCLI"><polygon fill="#181818" points="471.7773,123.5625,481.7773,127.5625,471.7773,131.5625,475.7773,127.5625" style="stroke:#181818;stroke-width:1;"/><line style="stroke:#181818;stroke-width:1;" x1="48.9551" x2="477.7773" y1="127.5625" y2="127.5625"/><text fill="#000000" font-family="sans-serif" font-size="13" lengthAdjust="spacing" textLength="106.355" x="55.9551" y="107.3638">Navigate menus</text><text fill="#000000" font-family="sans-serif" font-size="13" lengthAdjust="spacing" textLength="415.8223" x="55.9551" y="122.4966">"General Kubernetes Hardening" -&gt; "Network Policy Generator"</text></g><g class="message" data-participant-1="K8sHardenerCLI" data-participant-2="NetworkPolicyGeneratorModule"><polygon fill="#181818" points="662.7349,152.6953,672.7349,156.6953,662.7349,160.6953,666.7349,156.6953" style="stroke:#181818;stroke-width:1;"/><line style="stroke:#181818;stroke-width:1;" x1="493.7773" x2="668.7349" y1="156.6953" y2="156.6953"/><text fill="#000000" font-family="sans-serif" font-size="13" lengthAdjust="spacing" textLength="31.9668" x="500.7773" y="151.6294">run()</text></g><g class="message" data-participant-1="NetworkPolicyGeneratorModule" data-participant-2="KubernetesAPIServer"><polygon fill="#181818" points="908.4863,196.9609,918.4863,200.9609,908.4863,204.9609,912.4863,200.9609" style="stroke:#181818;stroke-width:1;"/><line style="stroke:#181818;stroke-width:1;" x1="684.7349" x2="914.4863" y1="200.9609" y2="200.9609"/><text fill="#000000" font-family="sans-serif" font-size="13" lengthAdjust="spacing" textLength="142.3716" x="691.7349" y="180.7622">_get_k8s_api_clients()</text><text fill="#000000" font-family="sans-serif" font-size="13" lengthAdjust="spacing" textLength="129.1113" x="691.7349" y="195.895">(fetch namespaces)</text></g><g class="message" data-participant-1="KubernetesAPIServer" data-participant-2="NetworkPolicyGeneratorModule"><line style="stroke:#181818;stroke-width:1;" x1="685.7349" x2="695.7349" y1="230.0938" y2="226.0938"/><line style="stroke:#181818;stroke-width:1;" x1="685.7349" x2="695.7349" y1="230.0938" y2="234.0938"/><line style="stroke:#181818;stroke-width:1;stroke-dasharray:2.0,2.0;" x1="684.7349" x2="924.4863" y1="230.0938" y2="230.0938"/><text fill="#000000" font-family="sans-serif" font-size="13" lengthAdjust="spacing" textLength="211.7515" x="701.7349" y="225.0278">return API clients &amp; namespaces</text></g><path d="M10,245.0938 L86.624,245.0938 L86.624,252.2266 L76.624,262.2266 L10,262.2266 L10,245.0938" fill="#EEEEEE" style="stroke:#000000;stroke-width:1.5;"/><rect fill="none" height="764.7188" style="stroke:#000000;stroke-width:1.5;" width="1215.5972" x="10" y="245.0938"/><text fill="#000000" font-family="sans-serif" font-size="13" font-weight="bold" lengthAdjust="spacing" textLength="31.624" x="25" y="258.1606">loop</text><text fill="#000000" font-family="sans-serif" font-size="11" font-weight="bold" lengthAdjust="spacing" textLength="215.9932" x="101.624" y="257.3042">[Main loop for generating a policy]</text><g class="message" data-participant-1="NetworkPolicyGeneratorModule" data-participant-2="User"><polygon fill="#181818" points="64.9551,294.4922,54.9551,298.4922,64.9551,302.4922,60.9551,298.4922" style="stroke:#181818;stroke-width:1;"/><line style="stroke:#181818;stroke-width:1;" x1="58.9551" x2="673.7349" y1="298.4922" y2="298.4922"/><text fill="#000000" font-family="sans-serif" font-size="13" lengthAdjust="spacing" textLength="249.4058" x="70.9551" y="278.2935">generate_network_policy_interactive()</text><text fill="#000000" font-family="sans-serif" font-size="13" lengthAdjust="spacing" textLength="169.5586" x="70.9551" y="293.4263">(prompt for policy details)</text></g><g class="message" data-participant-1="User" data-participant-2="NetworkPolicyGeneratorModule"><polygon fill="#181818" points="662.7349,323.625,672.7349,327.625,662.7349,331.625,666.7349,327.625" style="stroke:#181818;stroke-width:1;"/><line style="stroke:#181818;stroke-width:1;" x1="48.9551" x2="668.7349" y1="327.625" y2="327.625"/><text fill="#000000" font-family="sans-serif" font-size="13" lengthAdjust="spacing" textLength="138.9502" x="55.9551" y="322.5591">provide policy details</text></g><g class="message" data-participant-1="NetworkPolicyGeneratorModule" data-participant-2="NetworkPolicyGeneratorModule"><line style="stroke:#181818;stroke-width:1;" x1="684.7349" x2="726.7349" y1="356.7578" y2="356.7578"/><line style="stroke:#181818;stroke-width:1;" x1="726.7349" x2="726.7349" y1="356.7578" y2="369.7578"/><line style="stroke:#181818;stroke-width:1;" x1="685.7349" x2="726.7349" y1="369.7578" y2="369.7578"/><polygon fill="#181818" points="695.7349,365.7578,685.7349,369.7578,695.7349,373.7578,691.7349,369.7578" style="stroke:#181818;stroke-width:1;"/><text fill="#000000" font-family="sans-serif" font-size="13" lengthAdjust="spacing" textLength="177.0869" x="691.7349" y="351.6919">construct generated_policy</text></g><g class="message" data-participant-1="NetworkPolicyGeneratorModule" data-participant-2="User"><polygon fill="#181818" points="59.9551,394.8906,49.9551,398.8906,59.9551,402.8906,55.9551,398.8906" style="stroke:#181818;stroke-width:1;"/><line style="stroke:#181818;stroke-width:1;" x1="53.9551" x2="673.7349" y1="398.8906" y2="398.8906"/><text fill="#000000" font-family="sans-serif" font-size="13" lengthAdjust="spacing" textLength="139.5088" x="65.9551" y="393.8247">display_policy_yaml()</text></g><g class="message" data-participant-1="NetworkPolicyGeneratorModule" data-participant-2="User"><polygon fill="#181818" points="64.9551,439.1563,54.9551,443.1563,64.9551,447.1563,60.9551,443.1563" style="stroke:#181818;stroke-width:1;"/><line style="stroke:#181818;stroke-width:1;" x1="58.9551" x2="673.7349" y1="443.1563" y2="443.1563"/><text fill="#000000" font-family="sans-serif" font-size="13" lengthAdjust="spacing" textLength="133.6626" x="70.9551" y="422.9575">ask_to_save_policy()</text><text fill="#000000" font-family="sans-serif" font-size="13" lengthAdjust="spacing" textLength="273.146" x="70.9551" y="438.0903">"Do you want to save this YAML to a file?"</text></g><path d="M20,458.1563 L84.4429,458.1563 L84.4429,465.2891 L74.4429,475.2891 L20,475.2891 L20,458.1563" fill="#EEEEEE" style="stroke:#000000;stroke-width:1.5;"/><rect fill="none" height="191.9297" style="stroke:#000000;stroke-width:1.5;" width="1097.2632" x="20" y="458.1563"/><text fill="#000000" font-family="sans-serif" font-size="13" font-weight="bold" lengthAdjust="spacing" textLength="19.4429" x="35" y="471.2231">alt</text><text fill="#000000" font-family="sans-serif" font-size="11" font-weight="bold" lengthAdjust="spacing" textLength="141.3457" x="99.4429" y="470.3667">[User chooses to save]</text><g class="message" data-participant-1="User" data-participant-2="NetworkPolicyGeneratorModule"><polygon fill="#181818" points="662.7349,492.4219,672.7349,496.4219,662.7349,500.4219,666.7349,496.4219" style="stroke:#181818;stroke-width:1;"/><line style="stroke:#181818;stroke-width:1;" x1="48.9551" x2="668.7349" y1="496.4219" y2="496.4219"/><text fill="#000000" font-family="sans-serif" font-size="13" lengthAdjust="spacing" textLength="34.4233" x="55.9551" y="491.356">"yes"</text></g><g class="message" data-participant-1="NetworkPolicyGeneratorModule" data-participant-2="User"><polygon fill="#181818" points="64.9551,521.5547,54.9551,525.5547,64.9551,529.5547,60.9551,525.5547" style="stroke:#181818;stroke-width:1;"/><line style="stroke:#181818;stroke-width:1;" x1="58.9551" x2="673.7349" y1="525.5547" y2="525.5547"/><text fill="#000000" font-family="sans-serif" font-size="13" lengthAdjust="spacing" textLength="130.3682" x="70.9551" y="520.4888">prompt for filename</text></g><g class="message" data-participant-1="User" data-participant-2="NetworkPolicyGeneratorModule"><polygon fill="#181818" points="662.7349,550.6875,672.7349,554.6875,662.7349,558.6875,666.7349,554.6875" style="stroke:#181818;stroke-width:1;"/><line style="stroke:#181818;stroke-width:1;" x1="48.9551" x2="668.7349" y1="554.6875" y2="554.6875"/><text fill="#000000" font-family="sans-serif" font-size="13" lengthAdjust="spacing" textLength="109.9033" x="55.9551" y="549.6216">provide filename</text></g><g class="message" data-participant-1="NetworkPolicyGeneratorModule" data-participant-2="FileSystem"><polygon fill="#181818" points="1044.9375,579.8203,1054.9375,583.8203,1044.9375,587.8203,1048.9375,583.8203" style="stroke:#181818;stroke-width:1;"/><line style="stroke:#181818;stroke-width:1;" x1="684.7349" x2="1050.9375" y1="583.8203" y2="583.8203"/><text fill="#000000" font-family="sans-serif" font-size="13" lengthAdjust="spacing" textLength="123.7793" x="691.7349" y="578.7544">save_policy_yaml()</text></g><g class="message" data-participant-1="FileSystem" data-participant-2="NetworkPolicyGeneratorModule"><line style="stroke:#181818;stroke-width:1;" x1="685.7349" x2="695.7349" y1="612.9531" y2="608.9531"/><line style="stroke:#181818;stroke-width:1;" x1="685.7349" x2="695.7349" y1="612.9531" y2="616.9531"/><line style="stroke:#181818;stroke-width:1;stroke-dasharray:2.0,2.0;" x1="684.7349" x2="1060.9375" y1="612.9531" y2="612.9531"/><text fill="#000000" font-family="sans-serif" font-size="13" lengthAdjust="spacing" textLength="62.6133" x="701.7349" y="607.8872">file saved</text></g><g class="message" data-participant-1="NetworkPolicyGeneratorModule" data-participant-2="User"><polygon fill="#181818" points="59.9551,638.0859,49.9551,642.0859,59.9551,646.0859,55.9551,642.0859" style="stroke:#181818;stroke-width:1;"/><line style="stroke:#181818;stroke-width:1;" x1="53.9551" x2="673.7349" y1="642.0859" y2="642.0859"/><text fill="#000000" font-family="sans-serif" font-size="13" lengthAdjust="spacing" textLength="116.2827" x="65.9551" y="637.02">confirm file saved</text></g><g class="message" data-participant-1="NetworkPolicyGeneratorModule" data-participant-2="User"><polygon fill="#181818" points="64.9551,689.3516,54.9551,693.3516,64.9551,697.3516,60.9551,693.3516" style="stroke:#181818;stroke-width:1;"/><line style="stroke:#181818;stroke-width:1;" x1="58.9551" x2="673.7349" y1="693.3516" y2="693.3516"/><text fill="#000000" font-family="sans-serif" font-size="13" lengthAdjust="spacing" textLength="139.0073" x="70.9551" y="673.1528">ask_to_apply_policy()</text><text fill="#000000" font-family="sans-serif" font-size="13" lengthAdjust="spacing" textLength="256.604" x="70.9551" y="688.2856">"How do you want to apply the policy?"</text></g><path d="M20,708.3516 L84.4429,708.3516 L84.4429,715.4844 L74.4429,725.4844 L20,725.4844 L20,708.3516" fill="#EEEEEE" style="stroke:#000000;stroke-width:1.5;"/><rect fill="none" height="236.1953" style="stroke:#000000;stroke-width:1.5;" width="1195.5972" x="20" y="708.3516"/><text fill="#000000" font-family="sans-serif" font-size="13" font-weight="bold" lengthAdjust="spacing" textLength="19.4429" x="35" y="721.4185">alt</text><text fill="#000000" font-family="sans-serif" font-size="11" font-weight="bold" lengthAdjust="spacing" textLength="153.8335" x="99.4429" y="720.562">[Use "kubectl apply -f -"]</text><g class="message" data-participant-1="User" data-participant-2="NetworkPolicyGeneratorModule"><polygon fill="#181818" points="662.7349,742.6172,672.7349,746.6172,662.7349,750.6172,666.7349,746.6172" style="stroke:#181818;stroke-width:1;"/><line style="stroke:#181818;stroke-width:1;" x1="48.9551" x2="668.7349" y1="746.6172" y2="746.6172"/><text fill="#000000" font-family="sans-serif" font-size="13" lengthAdjust="spacing" textLength="121.9639" x="55.9551" y="741.5513">"kubectl apply -f -"</text></g><g class="message" data-participant-1="NetworkPolicyGeneratorModule" data-participant-2="User"><polygon fill="#181818" points="59.9551,771.75,49.9551,775.75,59.9551,779.75,55.9551,775.75" style="stroke:#181818;stroke-width:1;"/><line style="stroke:#181818;stroke-width:1;" x1="53.9551" x2="673.7349" y1="775.75" y2="775.75"/><text fill="#000000" font-family="sans-serif" font-size="13" lengthAdjust="spacing" textLength="329.2529" x="65.9551" y="770.6841">"Applying NetworkPolicy ... using kubectl apply ..."</text></g><g class="message" data-participant-1="NetworkPolicyGeneratorModule" data-participant-2="KubectlCLI"><polygon fill="#181818" points="1144.4302,816.0156,1154.4302,820.0156,1144.4302,824.0156,1148.4302,820.0156" style="stroke:#181818;stroke-width:1;"/><line style="stroke:#181818;stroke-width:1;" x1="684.7349" x2="1150.4302" y1="820.0156" y2="820.0156"/><text fill="#000000" font-family="sans-serif" font-size="13" lengthAdjust="spacing" textLength="227.9888" x="691.7349" y="799.8169">kubectl apply -n &lt;namespace&gt; -f -</text><text fill="#000000" font-family="sans-serif" font-size="13" lengthAdjust="spacing" textLength="119.5518" x="691.7349" y="814.9497">(with policy YAML)</text></g><g class="message" data-participant-1="KubectlCLI" data-participant-2="KubernetesAPIServer"><polygon fill="#181818" points="941.4863,845.1484,931.4863,849.1484,941.4863,853.1484,937.4863,849.1484" style="stroke:#181818;stroke-width:1;"/><line style="stroke:#181818;stroke-width:1;" x1="935.4863" x2="1155.4302" y1="849.1484" y2="849.1484"/><text fill="#000000" font-family="sans-serif" font-size="13" lengthAdjust="spacing" textLength="201.9634" x="947.4863" y="844.0825">submit NetworkPolicy manifest</text></g><g class="message" data-participant-1="KubernetesAPIServer" data-participant-2="KubectlCLI"><line style="stroke:#181818;stroke-width:1;" x1="1154.4302" x2="1144.4302" y1="878.2813" y2="874.2813"/><line style="stroke:#181818;stroke-width:1;" x1="1154.4302" x2="1144.4302" y1="878.2813" y2="882.2813"/><line style="stroke:#181818;stroke-width:1;stroke-dasharray:2.0,2.0;" x1="925.4863" x2="1155.4302" y1="878.2813" y2="878.2813"/><text fill="#000000" font-family="sans-serif" font-size="13" lengthAdjust="spacing" textLength="124.249" x="932.4863" y="873.2153">return apply status</text></g><g class="message" data-participant-1="KubectlCLI" data-participant-2="NetworkPolicyGeneratorModule"><line style="stroke:#181818;stroke-width:1;" x1="685.7349" x2="695.7349" y1="907.4141" y2="903.4141"/><line style="stroke:#181818;stroke-width:1;" x1="685.7349" x2="695.7349" y1="907.4141" y2="911.4141"/><line style="stroke:#181818;stroke-width:1;stroke-dasharray:2.0,2.0;" x1="684.7349" x2="1160.4302" y1="907.4141" y2="907.4141"/><text fill="#000000" font-family="sans-serif" font-size="13" lengthAdjust="spacing" textLength="183.606" x="701.7349" y="902.3481">return kubectl output/status</text></g><g class="message" data-participant-1="NetworkPolicyGeneratorModule" data-participant-2="User"><polygon fill="#181818" points="59.9551,932.5469,49.9551,936.5469,59.9551,940.5469,55.9551,936.5469" style="stroke:#181818;stroke-width:1;"/><line style="stroke:#181818;stroke-width:1;" x1="53.9551" x2="673.7349" y1="936.5469" y2="936.5469"/><text fill="#000000" font-family="sans-serif" font-size="13" lengthAdjust="spacing" textLength="166.0801" x="65.9551" y="931.481">display application status</text></g><g class="message" data-participant-1="NetworkPolicyGeneratorModule" data-participant-2="User"><polygon fill="#181818" points="64.9551,968.6797,54.9551,972.6797,64.9551,976.6797,60.9551,972.6797" style="stroke:#181818;stroke-width:1;"/><line style="stroke:#181818;stroke-width:1;" x1="58.9551" x2="673.7349" y1="972.6797" y2="972.6797"/><text fill="#000000" font-family="sans-serif" font-size="13" lengthAdjust="spacing" textLength="230.8135" x="70.9551" y="967.6138">"Generate another NetworkPolicy?"</text></g><g class="message" data-participant-1="User" data-participant-2="NetworkPolicyGeneratorModule"><polygon fill="#181818" points="662.7349,997.8125,672.7349,1001.8125,662.7349,1005.8125,666.7349,1001.8125" style="stroke:#181818;stroke-width:1;"/><line style="stroke:#181818;stroke-width:1;" x1="48.9551" x2="668.7349" y1="1001.8125" y2="1001.8125"/><text fill="#000000" font-family="sans-serif" font-size="13" lengthAdjust="spacing" textLength="28.1519" x="55.9551" y="996.7466">"no"</text></g><g class="message" data-participant-1="NetworkPolicyGeneratorModule" data-participant-2="User"><polygon fill="#181818" points="59.9551,1033.9453,49.9551,1037.9453,59.9551,1041.9453,55.9551,1037.9453" style="stroke:#181818;stroke-width:1;"/><line style="stroke:#181818;stroke-width:1;" x1="53.9551" x2="673.7349" y1="1037.9453" y2="1037.9453"/><text fill="#000000" font-family="sans-serif" font-size="13" lengthAdjust="spacing" textLength="238.4941" x="65.9551" y="1032.8794">"NetworkPolicy generation finished."</text></g><g class="message" data-participant-1="NetworkPolicyGeneratorModule" data-participant-2="K8sHardenerCLI"><line style="stroke:#181818;stroke-width:1;" x1="489.7773" x2="499.7773" y1="1067.0781" y2="1063.0781"/><line style="stroke:#181818;stroke-width:1;" x1="489.7773" x2="499.7773" y1="1067.0781" y2="1071.0781"/><line style="stroke:#181818;stroke-width:1;stroke-dasharray:2.0,2.0;" x1="488.7773" x2="678.7349" y1="1067.0781" y2="1067.0781"/><text fill="#000000" font-family="sans-serif" font-size="13" lengthAdjust="spacing" textLength="103.5938" x="505.7773" y="1062.0122">run() completes</text></g><!--SRC=[hLPTQzim57tthxZuORGFoLvB61rbOsjPMmfb3uE2KUthH4IMZ7ITu7y_IROJsV5SfskU77sSS-wzHxfYAIaDlmtgg6IQUCfB9Wb-NPbRfZEKgB_Tt_Mc7f7sIc-VbE1f_TEjO1RYGMMLm3v6zOfQ8g6vURfxHhqRSFpW0fzhGrYSR4j9EDh8wOB5zK3E2XxPZgyP8HGeA_CYuqQ723YXsS3bEdO8SIiR6jrm41v7B2M-Ss23eAF-VuSo5ViAT2KlBezmaucAfcPzoAVPMq6oHagsLoPX9KzImL6IkRXyaHSvKhe1oGeq9KlH13B6oZ0o1el5zPi18bLQWjq3BJby2aYZ32TP8w5K2G-CI_1VkNNUkk6mPG86fQUDmFxUIezpnghRZObibYSDGi8bsN6d1NrwIgsAaZnXim8o9CQ5pPCZEwZsvy2DTCQRpeU5tV4C1vWU84Y51vqLr3HRggGXNQLq23jhuutEI5d6JIbOtMMgPeMmfZq3W9bjGYenR8SjY4jn_5r1hIhOkoDC2jmqq8OR-7FpSEz66EJsm7-DcumBQdASRfGozhIsM_paU4dcboMkqSI7FQELc1zkO1sdtxdzGqHstZa1VRVUutswWg0wNObFH0VtRpTt79fp7JZfdYaR4n_0dvboQ_ISwsA8Zp9xXqzPMOewDEgjsaFMDwjVOztQdUI-II7UDYsfNRV8OH5_Z56dWF_Jj_6DmtJtQcyzB9TBg8mRxvFRyIFtRAvZiruDy1OIlXnQmxMFpLx4UqwRxhfq5yE8BSF-tqqUn_xP6atrMl31wmGA9dcEXiPPXlqfP1ljZc6qRIziWZN4g39ZfHljWsDXpUw-NPfLHML5dwUfXuaygqVuu7XgkxEIOOXd7iJsSMOLCQdi8TFzVTrXUsSFZgMAHpkkLpbJOTyrtPl4HfrpoSq6Ctisfg6yFGQlLFyUjBTPKGfdWF1vDFqs38lOm_mB]--></g></svg>