<svg xmlns="http://www.w3.org/2000/svg" xmlns:xlink="http://www.w3.org/1999/xlink" contentStyleType="text/css" data-diagram-type="SEQUENCE" height="1192px" preserveAspectRatio="none" style="width:1166px;height:1192px;background:#FFFFFF;" version="1.1" viewBox="0 0 1166 1192" width="1166px" zoomAndPan="magnify"><defs/><g><g><title>K8sHardenerCLI</title><rect fill="#FFFFFF" height="966.25" style="stroke:#181818;stroke-width:1;" width="10" x="456.3872" y="127.5625"/></g><g><title>PodSecurityCheckerModule</title><rect fill="#FFFFFF" height="937.1172" style="stroke:#181818;stroke-width:1;" width="10" x="642.5806" y="156.6953"/></g><g><title>KubernetesAPIServer</title><rect fill="#FFFFFF" height="29.1328" style="stroke:#181818;stroke-width:1;" width="10" x="963.5283" y="185.8281"/></g><g><title>KubernetesAPIServer</title><rect fill="#FFFFFF" height="29.1328" style="stroke:#181818;stroke-width:1;" width="10" x="963.5283" y="310.3594"/></g><g><title>KubernetesAPIServer</title><rect fill="#FFFFFF" height="29.1328" style="stroke:#181818;stroke-width:1;" width="10" x="963.5283" y="992.4141"/></g><g><title>FileSystem</title><rect fill="#FFFFFF" height="29.1328" style="stroke:#181818;stroke-width:1;" width="10" x="1099.9795" y="675.9531"/></g><rect fill="none" height="148.6641" style="stroke:#000000;stroke-width:1.5;" width="534.937" x="524.7168" y="272.0938"/><rect fill="none" height="59.2656" style="stroke:#000000;stroke-width:1.5;" width="250.3608" x="534.7168" y="354.4922"/><rect fill="none" height="191.9297" style="stroke:#000000;stroke-width:1.5;" width="1140.3052" x="20" y="550.2891"/><rect fill="none" height="267.3281" style="stroke:#000000;stroke-width:1.5;" width="1059.6538" x="10" y="798.3516"/><rect fill="none" height="162.7969" style="stroke:#000000;stroke-width:1.5;" width="1039.6538" x="20" y="895.8828"/><g><title>User</title><rect fill="#000000" fill-opacity="0.00000" height="1030.5156" width="8" x="44.9551" y="81.2969"/><line style="stroke:#181818;stroke-width:0.5;stroke-dasharray:5.0,5.0;" x1="48" x2="48" y1="81.2969" y2="1111.8125"/></g><g><title>K8sHardenerCLI</title><rect fill="#000000" fill-opacity="0.00000" height="1030.5156" width="8" x="457.3872" y="81.2969"/><line style="stroke:#181818;stroke-width:0.5;stroke-dasharray:5.0,5.0;" x1="461.042" x2="461.042" y1="81.2969" y2="1111.8125"/></g><g><title>PodSecurityCheckerModule</title><rect fill="#000000" fill-opacity="0.00000" height="1030.5156" width="8" x="643.5806" y="81.2969"/><line style="stroke:#181818;stroke-width:0.5;stroke-dasharray:5.0,5.0;" x1="646.7168" x2="646.7168" y1="81.2969" y2="1111.8125"/></g><g><title>KubernetesAPIServer</title><rect fill="#000000" fill-opacity="0.00000" height="1030.5156" width="8" x="964.5283" y="81.2969"/><line style="stroke:#181818;stroke-width:0.5;stroke-dasharray:5.0,5.0;" x1="968.4028" x2="968.4028" y1="81.2969" y2="1111.8125"/></g><g><title>FileSystem</title><rect fill="#000000" fill-opacity="0.00000" height="1030.5156" width="8" x="1100.9795" y="81.2969"/><line style="stroke:#181818;stroke-width:0.5;stroke-dasharray:5.0,5.0;" x1="1104.6538" x2="1104.6538" y1="81.2969" y2="1111.8125"/></g><g class="participant participant-head" data-participant="User"><text fill="#000000" font-family="sans-serif" font-size="14" lengthAdjust="spacing" textLength="31.9102" x="30" y="77.9951">User</text><ellipse cx="48.9551" cy="13.5" fill="#E2E2F0" rx="8" ry="8" style="stroke:#181818;stroke-width:0.5;"/><path d="M48.9551,21.5 L48.9551,48.5 M35.9551,29.5 L61.9551,29.5 M48.9551,48.5 L35.9551,63.5 M48.9551,48.5 L61.9551,63.5" fill="none" style="stroke:#181818;stroke-width:0.5;"/></g><g class="participant participant-tail" data-participant="User"><text fill="#000000" font-family="sans-serif" font-size="14" lengthAdjust="spacing" textLength="31.9102" x="30" y="1123.8076">User</text><ellipse cx="48.9551" cy="1135.6094" fill="#E2E2F0" rx="8" ry="8" style="stroke:#181818;stroke-width:0.5;"/><path d="M48.9551,1143.6094 L48.9551,1170.6094 M35.9551,1151.6094 L61.9551,1151.6094 M48.9551,1170.6094 L35.9551,1185.6094 M48.9551,1170.6094 L61.9551,1185.6094" fill="none" style="stroke:#181818;stroke-width:0.5;"/></g><g class="participant participant-head" data-participant="K8sHardenerCLI"><rect fill="#E2E2F0" height="30.2969" rx="2.5" ry="2.5" style="stroke:#181818;stroke-width:0.5;" width="126.6904" x="398.042" y="50"/><text fill="#000000" font-family="sans-serif" font-size="14" lengthAdjust="spacing" textLength="112.6904" x="405.042" y="69.9951">K8sHardenerCLI</text></g><g class="participant participant-tail" data-participant="K8sHardenerCLI"><rect fill="#E2E2F0" height="30.2969" rx="2.5" ry="2.5" style="stroke:#181818;stroke-width:0.5;" width="126.6904" x="398.042" y="1110.8125"/><text fill="#000000" font-family="sans-serif" font-size="14" lengthAdjust="spacing" textLength="112.6904" x="405.042" y="1130.8076">K8sHardenerCLI</text></g><g class="participant participant-head" data-participant="PodSecurityCheckerModule"><rect fill="#E2E2F0" height="30.2969" rx="2.5" ry="2.5" style="stroke:#181818;stroke-width:0.5;" width="205.7275" x="544.7168" y="50"/><text fill="#000000" font-family="sans-serif" font-size="14" lengthAdjust="spacing" textLength="191.7275" x="551.7168" y="69.9951">PodSecurityCheckerModule</text></g><g class="participant participant-tail" data-participant="PodSecurityCheckerModule"><rect fill="#E2E2F0" height="30.2969" rx="2.5" ry="2.5" style="stroke:#181818;stroke-width:0.5;" width="205.7275" x="544.7168" y="1110.8125"/><text fill="#000000" font-family="sans-serif" font-size="14" lengthAdjust="spacing" textLength="191.7275" x="551.7168" y="1130.8076">PodSecurityCheckerModule</text></g><g class="participant participant-head" data-participant="KubernetesAPIServer"><rect fill="#E2E2F0" height="30.2969" rx="2.5" ry="2.5" style="stroke:#181818;stroke-width:0.5;" width="162.251" x="887.4028" y="50"/><text fill="#000000" font-family="sans-serif" font-size="14" lengthAdjust="spacing" textLength="148.251" x="894.4028" y="69.9951">KubernetesAPIServer</text></g><g class="participant participant-tail" data-participant="KubernetesAPIServer"><rect fill="#E2E2F0" height="30.2969" rx="2.5" ry="2.5" style="stroke:#181818;stroke-width:0.5;" width="162.251" x="887.4028" y="1110.8125"/><text fill="#000000" font-family="sans-serif" font-size="14" lengthAdjust="spacing" textLength="148.251" x="894.4028" y="1130.8076">KubernetesAPIServer</text></g><g class="participant participant-head" data-participant="FileSystem"><rect fill="#E2E2F0" height="30.2969" rx="2.5" ry="2.5" style="stroke:#181818;stroke-width:0.5;" width="90.6514" x="1059.6538" y="50"/><text fill="#000000" font-family="sans-serif" font-size="14" lengthAdjust="spacing" textLength="76.6514" x="1066.6538" y="69.9951">FileSystem</text></g><g class="participant participant-tail" data-participant="FileSystem"><rect fill="#E2E2F0" height="30.2969" rx="2.5" ry="2.5" style="stroke:#181818;stroke-width:0.5;" width="90.6514" x="1059.6538" y="1110.8125"/><text fill="#000000" font-family="sans-serif" font-size="14" lengthAdjust="spacing" textLength="76.6514" x="1066.6538" y="1130.8076">FileSystem</text></g><g><title>K8sHardenerCLI</title><rect fill="#FFFFFF" height="966.25" style="stroke:#181818;stroke-width:1;" width="10" x="456.3872" y="127.5625"/></g><g><title>PodSecurityCheckerModule</title><rect fill="#FFFFFF" height="937.1172" style="stroke:#181818;stroke-width:1;" width="10" x="642.5806" y="156.6953"/></g><g><title>KubernetesAPIServer</title><rect fill="#FFFFFF" height="29.1328" style="stroke:#181818;stroke-width:1;" width="10" x="963.5283" y="185.8281"/></g><g><title>KubernetesAPIServer</title><rect fill="#FFFFFF" height="29.1328" style="stroke:#181818;stroke-width:1;" width="10" x="963.5283" y="310.3594"/></g><g><title>KubernetesAPIServer</title><rect fill="#FFFFFF" height="29.1328" style="stroke:#181818;stroke-width:1;" width="10" x="963.5283" y="992.4141"/></g><g><title>FileSystem</title><rect fill="#FFFFFF" height="29.1328" style="stroke:#181818;stroke-width:1;" width="10" x="1099.9795" y="675.9531"/></g><g class="message" data-participant-1="User" data-participant-2="K8sHardenerCLI"><polygon fill="#181818" points="444.3872,123.5625,454.3872,127.5625,444.3872,131.5625,448.3872,127.5625" style="stroke:#181818;stroke-width:1;"/><line style="stroke:#181818;stroke-width:1;" x1="48.9551" x2="450.3872" y1="127.5625" y2="127.5625"/><text fill="#000000" font-family="sans-serif" font-size="13" lengthAdjust="spacing" textLength="106.355" x="55.9551" y="107.3638">Navigate menus</text><text fill="#000000" font-family="sans-serif" font-size="13" lengthAdjust="spacing" textLength="388.4321" x="55.9551" y="122.4966">"General Kubernetes Hardening" -&gt; "Pod Security Checker"</text></g><g class="message" data-participant-1="K8sHardenerCLI" data-participant-2="PodSecurityCheckerModule"><polygon fill="#181818" points="630.5806,152.6953,640.5806,156.6953,630.5806,160.6953,634.5806,156.6953" style="stroke:#181818;stroke-width:1;"/><line style="stroke:#181818;stroke-width:1;" x1="466.3872" x2="636.5806" y1="156.6953" y2="156.6953"/><text fill="#000000" font-family="sans-serif" font-size="13" lengthAdjust="spacing" textLength="157.1934" x="473.3872" y="151.6294">run(args_from_main_cli)</text></g><g class="message" data-participant-1="PodSecurityCheckerModule" data-participant-2="KubernetesAPIServer"><polygon fill="#181818" points="951.5283,181.8281,961.5283,185.8281,951.5283,189.8281,955.5283,185.8281" style="stroke:#181818;stroke-width:1;"/><line style="stroke:#181818;stroke-width:1;" x1="652.5806" x2="957.5283" y1="185.8281" y2="185.8281"/><text fill="#000000" font-family="sans-serif" font-size="13" lengthAdjust="spacing" textLength="102.7686" x="659.5806" y="180.7622">get_k8s_client()</text></g><g class="message" data-participant-1="KubernetesAPIServer" data-participant-2="PodSecurityCheckerModule"><line style="stroke:#181818;stroke-width:1;" x1="653.5806" x2="663.5806" y1="214.9609" y2="210.9609"/><line style="stroke:#181818;stroke-width:1;" x1="653.5806" x2="663.5806" y1="214.9609" y2="218.9609"/><line style="stroke:#181818;stroke-width:1;stroke-dasharray:2.0,2.0;" x1="652.5806" x2="967.5283" y1="214.9609" y2="214.9609"/><text fill="#000000" font-family="sans-serif" font-size="13" lengthAdjust="spacing" textLength="80.1011" x="669.5806" y="209.895">return client</text></g><g class="message" data-participant-1="PodSecurityCheckerModule" data-participant-2="PodSecurityCheckerModule"><line style="stroke:#181818;stroke-width:1;" x1="652.5806" x2="694.5806" y1="244.0938" y2="244.0938"/><line style="stroke:#181818;stroke-width:1;" x1="694.5806" x2="694.5806" y1="244.0938" y2="257.0938"/><line style="stroke:#181818;stroke-width:1;" x1="653.5806" x2="694.5806" y1="257.0938" y2="257.0938"/><polygon fill="#181818" points="663.5806,253.0938,653.5806,257.0938,663.5806,261.0938,659.5806,257.0938" style="stroke:#181818;stroke-width:1;"/><text fill="#000000" font-family="sans-serif" font-size="13" lengthAdjust="spacing" textLength="143.7173" x="659.5806" y="239.0278">determine scan scope</text></g><path d="M524.7168,272.0938 L601.3408,272.0938 L601.3408,279.2266 L591.3408,289.2266 L524.7168,289.2266 L524.7168,272.0938" fill="#EEEEEE" style="stroke:#000000;stroke-width:1.5;"/><rect fill="none" height="148.6641" style="stroke:#000000;stroke-width:1.5;" width="534.937" x="524.7168" y="272.0938"/><text fill="#000000" font-family="sans-serif" font-size="13" font-weight="bold" lengthAdjust="spacing" textLength="31.624" x="539.7168" y="285.1606">loop</text><text fill="#000000" font-family="sans-serif" font-size="11" font-weight="bold" lengthAdjust="spacing" textLength="179.9746" x="616.3408" y="284.3042">[For each target namespace]</text><g class="message" data-participant-1="PodSecurityCheckerModule" data-participant-2="KubernetesAPIServer"><polygon fill="#181818" points="951.5283,306.3594,961.5283,310.3594,951.5283,314.3594,955.5283,310.3594" style="stroke:#181818;stroke-width:1;"/><line style="stroke:#181818;stroke-width:1;" x1="652.5806" x2="957.5283" y1="310.3594" y2="310.3594"/><text fill="#000000" font-family="sans-serif" font-size="13" lengthAdjust="spacing" textLength="224.9546" x="659.5806" y="305.2935">list_namespaced_pod(namespace)</text></g><g class="message" data-participant-1="KubernetesAPIServer" data-participant-2="PodSecurityCheckerModule"><line style="stroke:#181818;stroke-width:1;" x1="653.5806" x2="663.5806" y1="339.4922" y2="335.4922"/><line style="stroke:#181818;stroke-width:1;" x1="653.5806" x2="663.5806" y1="339.4922" y2="343.4922"/><line style="stroke:#181818;stroke-width:1;stroke-dasharray:2.0,2.0;" x1="652.5806" x2="967.5283" y1="339.4922" y2="339.4922"/><text fill="#000000" font-family="sans-serif" font-size="13" lengthAdjust="spacing" textLength="115.5146" x="669.5806" y="334.4263">return list of pods</text></g><path d="M534.7168,354.4922 L611.3408,354.4922 L611.3408,361.625 L601.3408,371.625 L534.7168,371.625 L534.7168,354.4922" fill="#EEEEEE" style="stroke:#000000;stroke-width:1.5;"/><rect fill="none" height="59.2656" style="stroke:#000000;stroke-width:1.5;" width="250.3608" x="534.7168" y="354.4922"/><text fill="#000000" font-family="sans-serif" font-size="13" font-weight="bold" lengthAdjust="spacing" textLength="31.624" x="549.7168" y="367.5591">loop</text><text fill="#000000" font-family="sans-serif" font-size="11" font-weight="bold" lengthAdjust="spacing" textLength="153.7368" x="626.3408" y="366.7026">[For each pod in the list]</text><g class="message" data-participant-1="PodSecurityCheckerModule" data-participant-2="PodSecurityCheckerModule"><line style="stroke:#181818;stroke-width:1;" x1="652.5806" x2="694.5806" y1="392.7578" y2="392.7578"/><line style="stroke:#181818;stroke-width:1;" x1="694.5806" x2="694.5806" y1="392.7578" y2="405.7578"/><line style="stroke:#181818;stroke-width:1;" x1="653.5806" x2="694.5806" y1="405.7578" y2="405.7578"/><polygon fill="#181818" points="663.5806,401.7578,653.5806,405.7578,663.5806,409.7578,659.5806,405.7578" style="stroke:#181818;stroke-width:1;"/><text fill="#000000" font-family="sans-serif" font-size="13" lengthAdjust="spacing" textLength="95.6846" x="659.5806" y="387.6919">scan_pod(pod)</text></g><g class="message" data-participant-1="PodSecurityCheckerModule" data-participant-2="PodSecurityCheckerModule"><line style="stroke:#181818;stroke-width:1;" x1="652.5806" x2="694.5806" y1="448.8906" y2="448.8906"/><line style="stroke:#181818;stroke-width:1;" x1="694.5806" x2="694.5806" y1="448.8906" y2="461.8906"/><line style="stroke:#181818;stroke-width:1;" x1="653.5806" x2="694.5806" y1="461.8906" y2="461.8906"/><polygon fill="#181818" points="663.5806,457.8906,653.5806,461.8906,663.5806,465.8906,659.5806,461.8906" style="stroke:#181818;stroke-width:1;"/><text fill="#000000" font-family="sans-serif" font-size="13" lengthAdjust="spacing" textLength="236.4438" x="659.5806" y="443.8247">aggregate findings into scan_results</text></g><g class="message" data-participant-1="PodSecurityCheckerModule" data-participant-2="User"><polygon fill="#181818" points="59.9551,487.0234,49.9551,491.0234,59.9551,495.0234,55.9551,491.0234" style="stroke:#181818;stroke-width:1;"/><line style="stroke:#181818;stroke-width:1;" x1="53.9551" x2="641.5806" y1="491.0234" y2="491.0234"/><text fill="#000000" font-family="sans-serif" font-size="13" lengthAdjust="spacing" textLength="130.5967" x="65.9551" y="485.9575">report(scan_results)</text></g><g class="message" data-participant-1="PodSecurityCheckerModule" data-participant-2="User"><polygon fill="#181818" points="59.9551,531.2891,49.9551,535.2891,59.9551,539.2891,55.9551,535.2891" style="stroke:#181818;stroke-width:1;"/><line style="stroke:#181818;stroke-width:1;" x1="53.9551" x2="641.5806" y1="535.2891" y2="535.2891"/><text fill="#000000" font-family="sans-serif" font-size="13" lengthAdjust="spacing" textLength="135.3828" x="65.9551" y="515.0903">ask_to_save_report()</text><text fill="#000000" font-family="sans-serif" font-size="13" lengthAdjust="spacing" textLength="275.4565" x="65.9551" y="530.2231">"Do you want to save the report to a file?"</text></g><path d="M20,550.2891 L84.4429,550.2891 L84.4429,557.4219 L74.4429,567.4219 L20,567.4219 L20,550.2891" fill="#EEEEEE" style="stroke:#000000;stroke-width:1.5;"/><rect fill="none" height="191.9297" style="stroke:#000000;stroke-width:1.5;" width="1140.3052" x="20" y="550.2891"/><text fill="#000000" font-family="sans-serif" font-size="13" font-weight="bold" lengthAdjust="spacing" textLength="19.4429" x="35" y="563.356">alt</text><text fill="#000000" font-family="sans-serif" font-size="11" font-weight="bold" lengthAdjust="spacing" textLength="141.3457" x="99.4429" y="562.4995">[User chooses to save]</text><g class="message" data-participant-1="User" data-participant-2="PodSecurityCheckerModule"><polygon fill="#181818" points="630.5806,584.5547,640.5806,588.5547,630.5806,592.5547,634.5806,588.5547" style="stroke:#181818;stroke-width:1;"/><line style="stroke:#181818;stroke-width:1;" x1="48.9551" x2="636.5806" y1="588.5547" y2="588.5547"/><text fill="#000000" font-family="sans-serif" font-size="13" lengthAdjust="spacing" textLength="34.4233" x="55.9551" y="583.4888">"yes"</text></g><g class="message" data-participant-1="PodSecurityCheckerModule" data-participant-2="User"><polygon fill="#181818" points="59.9551,613.6875,49.9551,617.6875,59.9551,621.6875,55.9551,617.6875" style="stroke:#181818;stroke-width:1;"/><line style="stroke:#181818;stroke-width:1;" x1="53.9551" x2="641.5806" y1="617.6875" y2="617.6875"/><text fill="#000000" font-family="sans-serif" font-size="13" lengthAdjust="spacing" textLength="230.623" x="65.9551" y="612.6216">prompt for file format and filename</text></g><g class="message" data-participant-1="User" data-participant-2="PodSecurityCheckerModule"><polygon fill="#181818" points="630.5806,642.8203,640.5806,646.8203,630.5806,650.8203,634.5806,646.8203" style="stroke:#181818;stroke-width:1;"/><line style="stroke:#181818;stroke-width:1;" x1="48.9551" x2="636.5806" y1="646.8203" y2="646.8203"/><text fill="#000000" font-family="sans-serif" font-size="13" lengthAdjust="spacing" textLength="186.2275" x="55.9551" y="641.7544">provide format and filename</text></g><g class="message" data-participant-1="PodSecurityCheckerModule" data-participant-2="FileSystem"><polygon fill="#181818" points="1087.9795,671.9531,1097.9795,675.9531,1087.9795,679.9531,1091.9795,675.9531" style="stroke:#181818;stroke-width:1;"/><line style="stroke:#181818;stroke-width:1;" x1="652.5806" x2="1093.9795" y1="675.9531" y2="675.9531"/><text fill="#000000" font-family="sans-serif" font-size="13" lengthAdjust="spacing" textLength="197.8501" x="659.5806" y="670.8872">write_report(format, filename)</text></g><g class="message" data-participant-1="FileSystem" data-participant-2="PodSecurityCheckerModule"><line style="stroke:#181818;stroke-width:1;" x1="653.5806" x2="663.5806" y1="705.0859" y2="701.0859"/><line style="stroke:#181818;stroke-width:1;" x1="653.5806" x2="663.5806" y1="705.0859" y2="709.0859"/><line style="stroke:#181818;stroke-width:1;stroke-dasharray:2.0,2.0;" x1="652.5806" x2="1103.9795" y1="705.0859" y2="705.0859"/><text fill="#000000" font-family="sans-serif" font-size="13" lengthAdjust="spacing" textLength="62.6133" x="669.5806" y="700.02">file saved</text></g><g class="message" data-participant-1="PodSecurityCheckerModule" data-participant-2="User"><polygon fill="#181818" points="59.9551,730.2188,49.9551,734.2188,59.9551,738.2188,55.9551,734.2188" style="stroke:#181818;stroke-width:1;"/><line style="stroke:#181818;stroke-width:1;" x1="53.9551" x2="641.5806" y1="734.2188" y2="734.2188"/><text fill="#000000" font-family="sans-serif" font-size="13" lengthAdjust="spacing" textLength="136.4746" x="65.9551" y="729.1528">confirm report saved</text></g><g class="message" data-participant-1="PodSecurityCheckerModule" data-participant-2="PodSecurityCheckerModule"><line style="stroke:#181818;stroke-width:1;" x1="652.5806" x2="694.5806" y1="770.3516" y2="770.3516"/><line style="stroke:#181818;stroke-width:1;" x1="694.5806" x2="694.5806" y1="770.3516" y2="783.3516"/><line style="stroke:#181818;stroke-width:1;" x1="653.5806" x2="694.5806" y1="783.3516" y2="783.3516"/><polygon fill="#181818" points="663.5806,779.3516,653.5806,783.3516,663.5806,787.3516,659.5806,783.3516" style="stroke:#181818;stroke-width:1;"/><text fill="#000000" font-family="sans-serif" font-size="13" lengthAdjust="spacing" textLength="186.0054" x="659.5806" y="765.2856">ask_and_delete_risky_pods()</text></g><path d="M10,798.3516 L79.4512,798.3516 L79.4512,805.4844 L69.4512,815.4844 L10,815.4844 L10,798.3516" fill="#EEEEEE" style="stroke:#000000;stroke-width:1.5;"/><rect fill="none" height="267.3281" style="stroke:#000000;stroke-width:1.5;" width="1059.6538" x="10" y="798.3516"/><text fill="#000000" font-family="sans-serif" font-size="13" font-weight="bold" lengthAdjust="spacing" textLength="24.4512" x="25" y="811.4185">opt</text><text fill="#000000" font-family="sans-serif" font-size="11" font-weight="bold" lengthAdjust="spacing" textLength="150.5195" x="94.4512" y="810.562">[If risky pods are found]</text><g class="message" data-participant-1="PodSecurityCheckerModule" data-participant-2="User"><polygon fill="#181818" points="59.9551,847.75,49.9551,851.75,59.9551,855.75,55.9551,851.75" style="stroke:#181818;stroke-width:1;"/><line style="stroke:#181818;stroke-width:1;" x1="53.9551" x2="641.5806" y1="851.75" y2="851.75"/><text fill="#000000" font-family="sans-serif" font-size="13" lengthAdjust="spacing" textLength="156.4951" x="65.9551" y="831.5513">display list of risky pods</text><text fill="#000000" font-family="sans-serif" font-size="13" lengthAdjust="spacing" textLength="372.0552" x="65.9551" y="846.6841">"Do you want to attempt to delete the listed risky pods?"</text></g><g class="message" data-participant-1="User" data-participant-2="PodSecurityCheckerModule"><polygon fill="#181818" points="630.5806,876.8828,640.5806,880.8828,630.5806,884.8828,634.5806,880.8828" style="stroke:#181818;stroke-width:1;"/><line style="stroke:#181818;stroke-width:1;" x1="48.9551" x2="636.5806" y1="880.8828" y2="880.8828"/><text fill="#000000" font-family="sans-serif" font-size="13" lengthAdjust="spacing" textLength="34.4233" x="55.9551" y="875.8169">"yes"</text></g><path d="M20,895.8828 L96.624,895.8828 L96.624,903.0156 L86.624,913.0156 L20,913.0156 L20,895.8828" fill="#EEEEEE" style="stroke:#000000;stroke-width:1.5;"/><rect fill="none" height="162.7969" style="stroke:#000000;stroke-width:1.5;" width="1039.6538" x="20" y="895.8828"/><text fill="#000000" font-family="sans-serif" font-size="13" font-weight="bold" lengthAdjust="spacing" textLength="31.624" x="35" y="908.9497">loop</text><text fill="#000000" font-family="sans-serif" font-size="11" font-weight="bold" lengthAdjust="spacing" textLength="257.3989" x="111.624" y="908.0933">[For each risky pod selected for deletion]</text><g class="message" data-participant-1="PodSecurityCheckerModule" data-participant-2="User"><polygon fill="#181818" points="59.9551,930.1484,49.9551,934.1484,59.9551,938.1484,55.9551,934.1484" style="stroke:#181818;stroke-width:1;"/><line style="stroke:#181818;stroke-width:1;" x1="53.9551" x2="641.5806" y1="934.1484" y2="934.1484"/><text fill="#000000" font-family="sans-serif" font-size="13" lengthAdjust="spacing" textLength="270.5942" x="65.9551" y="929.0825">"Confirm deletion of pod: &lt;pod_name&gt;?"</text></g><g class="message" data-participant-1="User" data-participant-2="PodSecurityCheckerModule"><polygon fill="#181818" points="630.5806,959.2813,640.5806,963.2813,630.5806,967.2813,634.5806,963.2813" style="stroke:#181818;stroke-width:1;"/><line style="stroke:#181818;stroke-width:1;" x1="48.9551" x2="636.5806" y1="963.2813" y2="963.2813"/><text fill="#000000" font-family="sans-serif" font-size="13" lengthAdjust="spacing" textLength="34.4233" x="55.9551" y="958.2153">"yes"</text></g><g class="message" data-participant-1="PodSecurityCheckerModule" data-participant-2="KubernetesAPIServer"><polygon fill="#181818" points="951.5283,988.4141,961.5283,992.4141,951.5283,996.4141,955.5283,992.4141" style="stroke:#181818;stroke-width:1;"/><line style="stroke:#181818;stroke-width:1;" x1="652.5806" x2="957.5283" y1="992.4141" y2="992.4141"/><text fill="#000000" font-family="sans-serif" font-size="13" lengthAdjust="spacing" textLength="291.9478" x="659.5806" y="987.3481">delete_namespaced_pod(name, namespace)</text></g><g class="message" data-participant-1="KubernetesAPIServer" data-participant-2="PodSecurityCheckerModule"><line style="stroke:#181818;stroke-width:1;" x1="653.5806" x2="663.5806" y1="1021.5469" y2="1017.5469"/><line style="stroke:#181818;stroke-width:1;" x1="653.5806" x2="663.5806" y1="1021.5469" y2="1025.5469"/><line style="stroke:#181818;stroke-width:1;stroke-dasharray:2.0,2.0;" x1="652.5806" x2="967.5283" y1="1021.5469" y2="1021.5469"/><text fill="#000000" font-family="sans-serif" font-size="13" lengthAdjust="spacing" textLength="141.2354" x="669.5806" y="1016.481">return deletion status</text></g><g class="message" data-participant-1="PodSecurityCheckerModule" data-participant-2="User"><polygon fill="#181818" points="59.9551,1046.6797,49.9551,1050.6797,59.9551,1054.6797,55.9551,1050.6797" style="stroke:#181818;stroke-width:1;"/><line style="stroke:#181818;stroke-width:1;" x1="53.9551" x2="641.5806" y1="1050.6797" y2="1050.6797"/><text fill="#000000" font-family="sans-serif" font-size="13" lengthAdjust="spacing" textLength="262.8818" x="65.9551" y="1045.6138">display deletion status for &lt;pod_name&gt;</text></g><g class="message" data-participant-1="PodSecurityCheckerModule" data-participant-2="K8sHardenerCLI"><line style="stroke:#181818;stroke-width:1;" x1="462.3872" x2="472.3872" y1="1093.8125" y2="1089.8125"/><line style="stroke:#181818;stroke-width:1;" x1="462.3872" x2="472.3872" y1="1093.8125" y2="1097.8125"/><line style="stroke:#181818;stroke-width:1;stroke-dasharray:2.0,2.0;" x1="461.3872" x2="646.5806" y1="1093.8125" y2="1093.8125"/><text fill="#000000" font-family="sans-serif" font-size="13" lengthAdjust="spacing" textLength="103.5938" x="478.3872" y="1088.7466">run() completes</text></g><!--SRC=[fLRRQkD037ttLmW_9T2-bx2qB5tQBNkXKFPjmSnwb6I8FMDcv9Jy_KfZnt7SE77RW8tdTYGTIIUZSd8U_WJqIQKycTnKoXByk0dVbTTeqT__V3fQUdRw1VFQ6zhThp7VeF_bT5tWyVdw7tgBXE7hyzCB-kq0_y4K-B8BX6MIY76ulXtONC1ljJKhHGWbsZhyjUcZBAcY1mxD0MDNgI2ax1lidOFMkpHHEPcj00sYIex7WZ0Mt09yRMVAhqAszAxCIcLibXTcVW0VvIKPMub1loLg0IkaR7CJn01QclMCdEBrn1nSNz-U3GQfzXOQ_4JZMVop_e_Rq8pYIsCHGguilrp5N1JELV309SSsrq3CA19OLMAeL8u9yE_TT1KcKDPXwAnoUjODvn7pR82ouUCaYdLmIs2h8K9TebFs7DF0Hy5Oe3L6jBZZ4XFZVWdTaGD-ckZHwaIU3sPIhLOUOoSkZTNSR86z9TSOyXZgWi9vR6bn8QnodcRzO_C9nrJOPEIoeBQOjH1pLeDl3dQkXbUH4t66boE3pHQPKknlWNSi00L5BCZNpWMMZNP_96SlF-FnfpiCwSNIR9ojM1qgWYMdLepBHwa8bDLnB6KvqIeZROqUHpZdoq5U5_3AEphY6h2h3cdG7JrPbld3y58ln5Y5KZriWG7aPGPpPvV6b_iyDg2VgLuk7oOlqrYW4672PYVj4LXN7QVgQGbnBZOmA2-CrrPFz5QRK1Lgrwd00UfjYIfY5ghusJZJTJpgti6xzDrrUImd7HG4DfCBkjHZj6cSdIGlJNJfVPkC_TbMw1RmXTzHSszRTz_hyeUKlitX2Qs_We7YJrBzpob_HqeWHNNe42_y0KodVrzS0qCncuS4J9LuYMbunv9RpPnRhgo4sD2_2epVP_hn7U7z1m00]--></g></svg>