<svg xmlns="http://www.w3.org/2000/svg" xmlns:xlink="http://www.w3.org/1999/xlink" contentStyleType="text/css" data-diagram-type="SEQUENCE" height="1003px" preserveAspectRatio="none" style="width:1085px;height:1003px;background:#FFFFFF;" version="1.1" viewBox="0 0 1085 1003" width="1085px" zoomAndPan="magnify"><defs/><g><g><title>User</title><rect fill="#FFFFFF" height="29.1328" style="stroke:#181818;stroke-width:1;" width="10" x="33.9551" y="268.2266"/></g><g><title>User</title><rect fill="#FFFFFF" height="29.1328" style="stroke:#181818;stroke-width:1;" width="10" x="33.9551" y="326.4922"/></g><g><title>User</title><rect fill="#FFFFFF" height="29.1328" style="stroke:#181818;stroke-width:1;" width="10" x="33.9551" y="815.4844"/></g><g><title>K8sHardenerCLI</title><rect fill="#FFFFFF" height="777.3203" style="stroke:#181818;stroke-width:1;" width="10" x="360.167" y="127.5625"/></g><g><title>IstioPolicyCheckerModule</title><rect fill="#FFFFFF" height="757.1875" style="stroke:#181818;stroke-width:1;" width="10" x="529.752" y="156.6953"/></g><g><title>IstioPolicyCheckerModule</title><rect fill="#FFFFFF" height="512.125" style="stroke:#181818;stroke-width:1;" width="10" x="534.752" y="392.7578"/></g><g><title>KubernetesAPIServer</title><rect fill="#FFFFFF" height="29.1328" style="stroke:#181818;stroke-width:1;" width="10" x="993.4248" y="185.8281"/></g><g><title>KubernetesAPIServer</title><rect fill="#FFFFFF" height="29.1328" style="stroke:#181818;stroke-width:1;" width="10" x="993.4248" y="456.0234"/></g><g><title>KubernetesAPIServer</title><rect fill="#FFFFFF" height="29.1328" style="stroke:#181818;stroke-width:1;" width="10" x="993.4248" y="656.8203"/></g><rect fill="none" height="17.1328" style="stroke:#000000;stroke-width:1.5;" width="91.9517" x="30" y="859.6172"/><g><title>User</title><rect fill="#000000" fill-opacity="0.00000" height="841.5859" width="8" x="34.9551" y="81.2969"/><line style="stroke:#181818;stroke-width:0.5;stroke-dasharray:5.0,5.0;" x1="38" x2="38" y1="81.2969" y2="922.8828"/></g><g><title>K8sHardenerCLI</title><rect fill="#000000" fill-opacity="0.00000" height="841.5859" width="8" x="361.167" y="81.2969"/><line style="stroke:#181818;stroke-width:0.5;stroke-dasharray:5.0,5.0;" x1="364.8218" x2="364.8218" y1="81.2969" y2="922.8828"/></g><g><title>IstioPolicyCheckerModule</title><rect fill="#000000" fill-opacity="0.00000" height="841.5859" width="8" x="530.752" y="81.2969"/><line style="stroke:#181818;stroke-width:0.5;stroke-dasharray:5.0,5.0;" x1="534.5122" x2="534.5122" y1="81.2969" y2="922.8828"/></g><g><title>KubernetesAPIServer</title><rect fill="#000000" fill-opacity="0.00000" height="841.5859" width="8" x="994.4248" y="81.2969"/><line style="stroke:#181818;stroke-width:0.5;stroke-dasharray:5.0,5.0;" x1="998.2993" x2="998.2993" y1="81.2969" y2="922.8828"/></g><g class="participant participant-head" data-participant="User"><text fill="#000000" font-family="sans-serif" font-size="14" lengthAdjust="spacing" textLength="31.9102" x="20" y="77.9951">User</text><ellipse cx="38.9551" cy="13.5" fill="#E2E2F0" rx="8" ry="8" style="stroke:#181818;stroke-width:0.5;"/><path d="M38.9551,21.5 L38.9551,48.5 M25.9551,29.5 L51.9551,29.5 M38.9551,48.5 L25.9551,63.5 M38.9551,48.5 L51.9551,63.5" fill="none" style="stroke:#181818;stroke-width:0.5;"/></g><g class="participant participant-tail" data-participant="User"><text fill="#000000" font-family="sans-serif" font-size="14" lengthAdjust="spacing" textLength="31.9102" x="20" y="934.8779">User</text><ellipse cx="38.9551" cy="946.6797" fill="#E2E2F0" rx="8" ry="8" style="stroke:#181818;stroke-width:0.5;"/><path d="M38.9551,954.6797 L38.9551,981.6797 M25.9551,962.6797 L51.9551,962.6797 M38.9551,981.6797 L25.9551,996.6797 M38.9551,981.6797 L51.9551,996.6797" fill="none" style="stroke:#181818;stroke-width:0.5;"/></g><g class="participant participant-head" data-participant="K8sHardenerCLI"><rect fill="#E2E2F0" height="30.2969" rx="2.5" ry="2.5" style="stroke:#181818;stroke-width:0.5;" width="126.6904" x="301.8218" y="50"/><text fill="#000000" font-family="sans-serif" font-size="14" lengthAdjust="spacing" textLength="112.6904" x="308.8218" y="69.9951">K8sHardenerCLI</text></g><g class="participant participant-tail" data-participant="K8sHardenerCLI"><rect fill="#E2E2F0" height="30.2969" rx="2.5" ry="2.5" style="stroke:#181818;stroke-width:0.5;" width="126.6904" x="301.8218" y="921.8828"/><text fill="#000000" font-family="sans-serif" font-size="14" lengthAdjust="spacing" textLength="112.6904" x="308.8218" y="941.8779">K8sHardenerCLI</text></g><g class="participant participant-head" data-participant="IstioPolicyCheckerModule"><rect fill="#E2E2F0" height="30.2969" rx="2.5" ry="2.5" style="stroke:#181818;stroke-width:0.5;" width="192.4795" x="438.5122" y="50"/><text fill="#000000" font-family="sans-serif" font-size="14" lengthAdjust="spacing" textLength="178.4795" x="445.5122" y="69.9951">IstioPolicyCheckerModule</text></g><g class="participant participant-tail" data-participant="IstioPolicyCheckerModule"><rect fill="#E2E2F0" height="30.2969" rx="2.5" ry="2.5" style="stroke:#181818;stroke-width:0.5;" width="192.4795" x="438.5122" y="921.8828"/><text fill="#000000" font-family="sans-serif" font-size="14" lengthAdjust="spacing" textLength="178.4795" x="445.5122" y="941.8779">IstioPolicyCheckerModule</text></g><g class="participant participant-head" data-participant="KubernetesAPIServer"><rect fill="#E2E2F0" height="30.2969" rx="2.5" ry="2.5" style="stroke:#181818;stroke-width:0.5;" width="162.251" x="917.2993" y="50"/><text fill="#000000" font-family="sans-serif" font-size="14" lengthAdjust="spacing" textLength="148.251" x="924.2993" y="69.9951">KubernetesAPIServer</text></g><g class="participant participant-tail" data-participant="KubernetesAPIServer"><rect fill="#E2E2F0" height="30.2969" rx="2.5" ry="2.5" style="stroke:#181818;stroke-width:0.5;" width="162.251" x="917.2993" y="921.8828"/><text fill="#000000" font-family="sans-serif" font-size="14" lengthAdjust="spacing" textLength="148.251" x="924.2993" y="941.8779">KubernetesAPIServer</text></g><g><title>User</title><rect fill="#FFFFFF" height="29.1328" style="stroke:#181818;stroke-width:1;" width="10" x="33.9551" y="268.2266"/></g><g><title>User</title><rect fill="#FFFFFF" height="29.1328" style="stroke:#181818;stroke-width:1;" width="10" x="33.9551" y="326.4922"/></g><g><title>User</title><rect fill="#FFFFFF" height="29.1328" style="stroke:#181818;stroke-width:1;" width="10" x="33.9551" y="815.4844"/></g><g><title>K8sHardenerCLI</title><rect fill="#FFFFFF" height="777.3203" style="stroke:#181818;stroke-width:1;" width="10" x="360.167" y="127.5625"/></g><g><title>IstioPolicyCheckerModule</title><rect fill="#FFFFFF" height="757.1875" style="stroke:#181818;stroke-width:1;" width="10" x="529.752" y="156.6953"/></g><g><title>IstioPolicyCheckerModule</title><rect fill="#FFFFFF" height="512.125" style="stroke:#181818;stroke-width:1;" width="10" x="534.752" y="392.7578"/></g><g><title>KubernetesAPIServer</title><rect fill="#FFFFFF" height="29.1328" style="stroke:#181818;stroke-width:1;" width="10" x="993.4248" y="185.8281"/></g><g><title>KubernetesAPIServer</title><rect fill="#FFFFFF" height="29.1328" style="stroke:#181818;stroke-width:1;" width="10" x="993.4248" y="456.0234"/></g><g><title>KubernetesAPIServer</title><rect fill="#FFFFFF" height="29.1328" style="stroke:#181818;stroke-width:1;" width="10" x="993.4248" y="656.8203"/></g><g class="message" data-participant-1="User" data-participant-2="K8sHardenerCLI"><polygon fill="#181818" points="348.167,123.5625,358.167,127.5625,348.167,131.5625,352.167,127.5625" style="stroke:#181818;stroke-width:1;"/><line style="stroke:#181818;stroke-width:1;" x1="38.9551" x2="354.167" y1="127.5625" y2="127.5625"/><text fill="#000000" font-family="sans-serif" font-size="13" lengthAdjust="spacing" textLength="106.355" x="45.9551" y="107.3638">Navigate menus</text><text fill="#000000" font-family="sans-serif" font-size="13" lengthAdjust="spacing" textLength="302.2119" x="45.9551" y="122.4966">"Istio and Zero Trust" -&gt; "Istio Policy Checker"</text></g><g class="message" data-participant-1="K8sHardenerCLI" data-participant-2="IstioPolicyCheckerModule"><polygon fill="#181818" points="517.752,152.6953,527.752,156.6953,517.752,160.6953,521.752,156.6953" style="stroke:#181818;stroke-width:1;"/><line style="stroke:#181818;stroke-width:1;" x1="370.167" x2="523.752" y1="156.6953" y2="156.6953"/><text fill="#000000" font-family="sans-serif" font-size="13" lengthAdjust="spacing" textLength="31.9668" x="377.167" y="151.6294">run()</text></g><g class="message" data-participant-1="IstioPolicyCheckerModule" data-participant-2="KubernetesAPIServer"><polygon fill="#181818" points="981.4248,181.8281,991.4248,185.8281,981.4248,189.8281,985.4248,185.8281" style="stroke:#181818;stroke-width:1;"/><line style="stroke:#181818;stroke-width:1;" x1="539.752" x2="987.4248" y1="185.8281" y2="185.8281"/><text fill="#000000" font-family="sans-serif" font-size="13" lengthAdjust="spacing" textLength="235.3584" x="546.752" y="180.7622">kubectl get namespace istio-system</text></g><g class="message" data-participant-1="KubernetesAPIServer" data-participant-2="IstioPolicyCheckerModule"><line style="stroke:#181818;stroke-width:1;" x1="540.752" x2="550.752" y1="214.9609" y2="210.9609"/><line style="stroke:#181818;stroke-width:1;" x1="540.752" x2="550.752" y1="214.9609" y2="218.9609"/><line style="stroke:#181818;stroke-width:1;stroke-dasharray:2.0,2.0;" x1="539.752" x2="997.4248" y1="214.9609" y2="214.9609"/><text fill="#000000" font-family="sans-serif" font-size="13" lengthAdjust="spacing" textLength="202.7886" x="556.752" y="209.895">return namespace check result</text></g><g class="message" data-participant-1="IstioPolicyCheckerModule" data-participant-2="User"><polygon fill="#181818" points="54.9551,264.2266,44.9551,268.2266,54.9551,272.2266,50.9551,268.2266" style="stroke:#181818;stroke-width:1;"/><line style="stroke:#181818;stroke-width:1;" x1="48.9551" x2="528.752" y1="268.2266" y2="268.2266"/><text fill="#000000" font-family="sans-serif" font-size="13" lengthAdjust="spacing" textLength="278.8398" x="60.9551" y="263.1606">"Choose: Check ALL, Check SPECIFIC, Exit"</text></g><g class="message" data-participant-1="User" data-participant-2="IstioPolicyCheckerModule"><polygon fill="#181818" points="517.752,293.3594,527.752,297.3594,517.752,301.3594,521.752,297.3594" style="stroke:#181818;stroke-width:1;"/><line style="stroke:#181818;stroke-width:1;" x1="38.9551" x2="523.752" y1="297.3594" y2="297.3594"/><text fill="#000000" font-family="sans-serif" font-size="13" lengthAdjust="spacing" textLength="113.6865" x="45.9551" y="292.2935">"Check SPECIFIC"</text></g><g class="message" data-participant-1="IstioPolicyCheckerModule" data-participant-2="User"><polygon fill="#181818" points="54.9551,322.4922,44.9551,326.4922,54.9551,330.4922,50.9551,326.4922" style="stroke:#181818;stroke-width:1;"/><line style="stroke:#181818;stroke-width:1;" x1="48.9551" x2="528.752" y1="326.4922" y2="326.4922"/><text fill="#000000" font-family="sans-serif" font-size="13" lengthAdjust="spacing" textLength="196.8345" x="60.9551" y="321.4263">"Enter the namespace name:"</text></g><g class="message" data-participant-1="User" data-participant-2="IstioPolicyCheckerModule"><polygon fill="#181818" points="517.752,351.625,527.752,355.625,517.752,359.625,521.752,355.625" style="stroke:#181818;stroke-width:1;"/><line style="stroke:#181818;stroke-width:1;" x1="38.9551" x2="523.752" y1="355.625" y2="355.625"/><text fill="#000000" font-family="sans-serif" font-size="13" lengthAdjust="spacing" textLength="143.0444" x="45.9551" y="350.5591">&lt;target_namespace&gt;</text></g><g class="message" data-participant-1="IstioPolicyCheckerModule" data-participant-2="IstioPolicyCheckerModule"><line style="stroke:#181818;stroke-width:1;" x1="539.752" x2="586.752" y1="379.7578" y2="379.7578"/><line style="stroke:#181818;stroke-width:1;" x1="586.752" x2="586.752" y1="379.7578" y2="392.7578"/><line style="stroke:#181818;stroke-width:1;" x1="545.752" x2="586.752" y1="392.7578" y2="392.7578"/><polygon fill="#181818" points="555.752,388.7578,545.752,392.7578,555.752,396.7578,551.752,392.7578" style="stroke:#181818;stroke-width:1;"/><text fill="#000000" font-family="sans-serif" font-size="13" lengthAdjust="spacing" textLength="339.3521" x="551.752" y="374.6919">check_authorization_policies(&lt;target_namespace&gt;)</text></g><g class="message" data-participant-1="IstioPolicyCheckerModule" data-participant-2="User"><polygon fill="#181818" points="49.9551,422.8906,39.9551,426.8906,49.9551,430.8906,45.9551,426.8906" style="stroke:#181818;stroke-width:1;"/><line style="stroke:#181818;stroke-width:1;" x1="43.9551" x2="533.752" y1="426.8906" y2="426.8906"/><text fill="#000000" font-family="sans-serif" font-size="13" lengthAdjust="spacing" textLength="5.9795" x="55.9551" y="421.8247">"</text><text fill="#000000" font-family="sans-serif" font-size="13" lengthAdjust="spacing" text-decoration="line-through" textLength="212.7988" x="61.9346" y="421.8247">- Checking Authorization Policies</text><text fill="#000000" font-family="sans-serif" font-size="13" lengthAdjust="spacing" textLength="10.6704" x="278.8657" y="421.8247">-"</text></g><g class="message" data-participant-1="IstioPolicyCheckerModule" data-participant-2="KubernetesAPIServer"><polygon fill="#181818" points="981.4248,452.0234,991.4248,456.0234,981.4248,460.0234,985.4248,456.0234" style="stroke:#181818;stroke-width:1;"/><line style="stroke:#181818;stroke-width:1;" x1="544.752" x2="987.4248" y1="456.0234" y2="456.0234"/><text fill="#000000" font-family="sans-serif" font-size="13" lengthAdjust="spacing" textLength="429.6729" x="551.752" y="450.9575">kubectl get authorizationpolicies -n &lt;target_namespace&gt; -o yaml</text></g><g class="message" data-participant-1="KubernetesAPIServer" data-participant-2="IstioPolicyCheckerModule"><line style="stroke:#181818;stroke-width:1;" x1="545.752" x2="555.752" y1="485.1563" y2="481.1563"/><line style="stroke:#181818;stroke-width:1;" x1="545.752" x2="555.752" y1="485.1563" y2="489.1563"/><line style="stroke:#181818;stroke-width:1;stroke-dasharray:2.0,2.0;" x1="544.752" x2="997.4248" y1="485.1563" y2="485.1563"/><text fill="#000000" font-family="sans-serif" font-size="13" lengthAdjust="spacing" textLength="219.4385" x="561.752" y="480.0903">return AuthorizationPolicies YAML</text></g><g class="message" data-participant-1="IstioPolicyCheckerModule" data-participant-2="IstioPolicyCheckerModule"><line style="stroke:#181818;stroke-width:1;" x1="544.752" x2="586.752" y1="514.2891" y2="514.2891"/><line style="stroke:#181818;stroke-width:1;" x1="586.752" x2="586.752" y1="514.2891" y2="527.2891"/><line style="stroke:#181818;stroke-width:1;" x1="545.752" x2="586.752" y1="527.2891" y2="527.2891"/><polygon fill="#181818" points="555.752,523.2891,545.752,527.2891,555.752,531.2891,551.752,527.2891" style="stroke:#181818;stroke-width:1;"/><text fill="#000000" font-family="sans-serif" font-size="13" lengthAdjust="spacing" textLength="259.105" x="551.752" y="509.2231">parse and analyze AuthorizationPolicies</text></g><g class="message" data-participant-1="IstioPolicyCheckerModule" data-participant-2="User"><polygon fill="#181818" points="49.9551,552.4219,39.9551,556.4219,49.9551,560.4219,45.9551,556.4219" style="stroke:#181818;stroke-width:1;"/><line style="stroke:#181818;stroke-width:1;" x1="43.9551" x2="533.752" y1="556.4219" y2="556.4219"/><text fill="#000000" font-family="sans-serif" font-size="13" lengthAdjust="spacing" textLength="215.2935" x="55.9551" y="551.356">print AuthorizationPolicy findings</text></g><g class="message" data-participant-1="IstioPolicyCheckerModule" data-participant-2="IstioPolicyCheckerModule"><line style="stroke:#181818;stroke-width:1;" x1="544.752" x2="586.752" y1="585.5547" y2="585.5547"/><line style="stroke:#181818;stroke-width:1;" x1="586.752" x2="586.752" y1="585.5547" y2="598.5547"/><line style="stroke:#181818;stroke-width:1;" x1="545.752" x2="586.752" y1="598.5547" y2="598.5547"/><polygon fill="#181818" points="555.752,594.5547,545.752,598.5547,555.752,602.5547,551.752,598.5547" style="stroke:#181818;stroke-width:1;"/><text fill="#000000" font-family="sans-serif" font-size="13" lengthAdjust="spacing" textLength="383.8047" x="551.752" y="580.4888">check_peer_authentication_policies(&lt;target_namespace&gt;)</text></g><g class="message" data-participant-1="IstioPolicyCheckerModule" data-participant-2="User"><polygon fill="#181818" points="49.9551,623.6875,39.9551,627.6875,49.9551,631.6875,45.9551,627.6875" style="stroke:#181818;stroke-width:1;"/><line style="stroke:#181818;stroke-width:1;" x1="43.9551" x2="533.752" y1="627.6875" y2="627.6875"/><text fill="#000000" font-family="sans-serif" font-size="13" lengthAdjust="spacing" textLength="5.9795" x="55.9551" y="622.6216">"</text><text fill="#000000" font-family="sans-serif" font-size="13" lengthAdjust="spacing" text-decoration="line-through" textLength="254.4712" x="61.9346" y="622.6216">- Checking Peer Authentication Policies</text><text fill="#000000" font-family="sans-serif" font-size="13" lengthAdjust="spacing" textLength="10.6704" x="320.5381" y="622.6216">-"</text></g><g class="message" data-participant-1="IstioPolicyCheckerModule" data-participant-2="KubernetesAPIServer"><polygon fill="#181818" points="981.4248,652.8203,991.4248,656.8203,981.4248,660.8203,985.4248,656.8203" style="stroke:#181818;stroke-width:1;"/><line style="stroke:#181818;stroke-width:1;" x1="544.752" x2="987.4248" y1="656.8203" y2="656.8203"/><text fill="#000000" font-family="sans-serif" font-size="13" lengthAdjust="spacing" textLength="418.666" x="551.752" y="651.7544">kubectl get peerauthentication -n &lt;target_namespace&gt; -o yaml</text></g><g class="message" data-participant-1="KubernetesAPIServer" data-participant-2="IstioPolicyCheckerModule"><line style="stroke:#181818;stroke-width:1;" x1="545.752" x2="555.752" y1="685.9531" y2="681.9531"/><line style="stroke:#181818;stroke-width:1;" x1="545.752" x2="555.752" y1="685.9531" y2="689.9531"/><line style="stroke:#181818;stroke-width:1;stroke-dasharray:2.0,2.0;" x1="544.752" x2="997.4248" y1="685.9531" y2="685.9531"/><text fill="#000000" font-family="sans-serif" font-size="13" lengthAdjust="spacing" textLength="208.4316" x="561.752" y="680.8872">return PeerAuthentication YAML</text></g><g class="message" data-participant-1="IstioPolicyCheckerModule" data-participant-2="IstioPolicyCheckerModule"><line style="stroke:#181818;stroke-width:1;" x1="544.752" x2="586.752" y1="715.0859" y2="715.0859"/><line style="stroke:#181818;stroke-width:1;" x1="586.752" x2="586.752" y1="715.0859" y2="728.0859"/><line style="stroke:#181818;stroke-width:1;" x1="545.752" x2="586.752" y1="728.0859" y2="728.0859"/><polygon fill="#181818" points="555.752,724.0859,545.752,728.0859,555.752,732.0859,551.752,728.0859" style="stroke:#181818;stroke-width:1;"/><text fill="#000000" font-family="sans-serif" font-size="13" lengthAdjust="spacing" textLength="301.1899" x="551.752" y="710.02">parse and analyze PeerAuthentication policies</text></g><g class="message" data-participant-1="IstioPolicyCheckerModule" data-participant-2="User"><polygon fill="#181818" points="49.9551,753.2188,39.9551,757.2188,49.9551,761.2188,45.9551,757.2188" style="stroke:#181818;stroke-width:1;"/><line style="stroke:#181818;stroke-width:1;" x1="43.9551" x2="533.752" y1="757.2188" y2="757.2188"/><text fill="#000000" font-family="sans-serif" font-size="13" lengthAdjust="spacing" textLength="214.9761" x="55.9551" y="752.1528">print PeerAuthentication findings</text></g><g class="message" data-participant-1="IstioPolicyCheckerModule" data-participant-2="User"><polygon fill="#181818" points="49.9551,782.3516,39.9551,786.3516,49.9551,790.3516,45.9551,786.3516" style="stroke:#181818;stroke-width:1;"/><line style="stroke:#181818;stroke-width:1;" x1="43.9551" x2="533.752" y1="786.3516" y2="786.3516"/><text fill="#000000" font-family="sans-serif" font-size="13" lengthAdjust="spacing" textLength="5.9795" x="55.9551" y="781.2856">"</text><text fill="#000000" font-family="sans-serif" font-size="13" lengthAdjust="spacing" text-decoration="line-through" textLength="255.1123" x="61.9346" y="781.2856">- Comprehensive Policy Check Finished</text><text fill="#000000" font-family="sans-serif" font-size="13" lengthAdjust="spacing" textLength="10.6704" x="321.1792" y="781.2856">-"</text></g><g class="message" data-participant-1="IstioPolicyCheckerModule" data-participant-2="User"><polygon fill="#181818" points="54.9551,811.4844,44.9551,815.4844,54.9551,819.4844,50.9551,815.4844" style="stroke:#181818;stroke-width:1;"/><line style="stroke:#181818;stroke-width:1;" x1="48.9551" x2="533.752" y1="815.4844" y2="815.4844"/><text fill="#000000" font-family="sans-serif" font-size="13" lengthAdjust="spacing" textLength="278.8398" x="60.9551" y="810.4185">"Choose: Check ALL, Check SPECIFIC, Exit"</text></g><g class="message" data-participant-1="User" data-participant-2="IstioPolicyCheckerModule"><polygon fill="#181818" points="522.752,840.6172,532.752,844.6172,522.752,848.6172,526.752,844.6172" style="stroke:#181818;stroke-width:1;"/><line style="stroke:#181818;stroke-width:1;" x1="38.9551" x2="528.752" y1="844.6172" y2="844.6172"/><text fill="#000000" font-family="sans-serif" font-size="13" lengthAdjust="spacing" textLength="36.5752" x="45.9551" y="839.5513">"Exit"</text></g><path d="M30,859.6172 L116.9517,859.6172 L116.9517,866.75 L106.9517,876.75 L30,876.75 L30,859.6172" fill="#EEEEEE" style="stroke:#000000;stroke-width:1.5;"/><rect fill="none" height="17.1328" style="stroke:#000000;stroke-width:1.5;" width="91.9517" x="30" y="859.6172"/><text fill="#000000" font-family="sans-serif" font-size="13" font-weight="bold" lengthAdjust="spacing" textLength="41.9517" x="45" y="872.6841">break</text><g class="message" data-participant-1="IstioPolicyCheckerModule" data-participant-2="K8sHardenerCLI"><line style="stroke:#181818;stroke-width:1;" x1="366.167" x2="376.167" y1="904.8828" y2="900.8828"/><line style="stroke:#181818;stroke-width:1;" x1="366.167" x2="376.167" y1="904.8828" y2="908.8828"/><line style="stroke:#181818;stroke-width:1;stroke-dasharray:2.0,2.0;" x1="365.167" x2="528.752" y1="904.8828" y2="904.8828"/><text fill="#000000" font-family="sans-serif" font-size="13" lengthAdjust="spacing" textLength="103.5938" x="382.167" y="899.8169">run() completes</text></g><!--SRC=[pLPDYzim4BtxLmm-xSBwNam919Ebfaa9R7jeAGIjFOr5R4b8SgZtrrUIqyHoxAph5hOvEHhflNapJnyaqrp25uKo44Hgcb51c8QFxzG78dDaA9DrweLIfIdVyf9cJL9WTa2vuNbTeh- -VaR9KADQRjCdb4U37rWMY1Ozy1W-aIFT4urG8QlLTnOw2Y0iXsyeENoMjTAXNNcAjEnmeWy3acbwj02zj0F_lqKOopu6MREx-mlKgCnWBEAaNUkEuM06Crt27ZKmKg4I94EW5YPIZT9OTHGC56vW3A9eSLCCwbgo3bjcusPOrQKEShp95vIS2zWGobn70Z2_Mw9jNsC8au9pPRXT79RhzSFfyscxIjB7D7c0rK-gGuTtJi1PpuxyTiUugD27Qu4wMXpKr6nNJ1i-NM2dIFOhdf_VUqsawV7k3BYOb-4uW-lYZjIwu9A-43EDxOITI57TNTFV-r96BJsnP54KjHsbR0_BRXBjZZH965z6uUiANzqcdaHn1cS3DOQ8GqEgqjSwv6ixOVvUyWIVzNvTRjRzBW_kgVbDD-UgGdSQ4aRAvWM7KvdOHI6fEP-l4HhuGLbkEgl-tg02KJgN8ZCtmaIR_ga1juR4wRYG_7CRMY6-ZhVreDNSa_mc1Xp8GyonuG3ET1TsJS4h8T70A7f4xta0ZvHHLM3UMkA_kSekomUlXsU9v10WosyzDwnb-cyfzug1pDIZjFtlNlMZnt_NEHxSBm00]--></g></svg>