<svg xmlns="http://www.w3.org/2000/svg" xmlns:xlink="http://www.w3.org/1999/xlink" contentStyleType="text/css" data-diagram-type="SEQUENCE" height="1623px" preserveAspectRatio="none" style="width:1148px;height:1623px;background:#FFFFFF;" version="1.1" viewBox="0 0 1148 1623" width="1148px" zoomAndPan="magnify"><defs/><g><g><title>K8sHardenerCLI</title><rect fill="#FFFFFF" height="1397.5234" style="stroke:#181818;stroke-width:1;" width="10" x="550.3477" y="127.5625"/></g><g><title>RBACHardenerModule</title><rect fill="#FFFFFF" height="1368.3906" style="stroke:#181818;stroke-width:1;" width="10" x="759.9004" y="156.6953"/></g><g><title>KubernetesAPIServer</title><rect fill="#FFFFFF" height="29.1328" style="stroke:#181818;stroke-width:1;" width="10" x="935.624" y="365.7578"/></g><g><title>KubernetesAPIServer</title><rect fill="#FFFFFF" height="29.1328" style="stroke:#181818;stroke-width:1;" width="10" x="935.624" y="1321.4844"/></g><g><title>FileSystem</title><rect fill="#FFFFFF" height="29.1328" style="stroke:#181818;stroke-width:1;" width="10" x="1072.0752" y="1100.75"/></g><rect fill="none" height="1325.2578" style="stroke:#000000;stroke-width:1.5;" width="1132.4009" x="10" y="171.6953"/><rect fill="none" height="133.6641" style="stroke:#000000;stroke-width:1.5;" width="1001.7495" x="30" y="327.4922"/><rect fill="none" height="385.5313" style="stroke:#000000;stroke-width:1.5;" width="849.4985" x="20" y="475.1563"/><rect fill="none" height="133.6641" style="stroke:#000000;stroke-width:1.5;" width="829.4985" x="30" y="499.2891"/><rect fill="none" height="133.6641" style="stroke:#000000;stroke-width:1.5;" width="829.4985" x="30" y="661.7578"/><rect fill="none" height="235.8672" style="stroke:#000000;stroke-width:1.5;" width="1102.4009" x="30" y="975.0859"/><rect fill="none" height="177.6016" style="stroke:#000000;stroke-width:1.5;" width="1001.7495" x="30" y="1254.0859"/><g><title>User</title><rect fill="#000000" fill-opacity="0.00000" height="1461.7891" width="8" x="54.9551" y="81.2969"/><line style="stroke:#181818;stroke-width:0.5;stroke-dasharray:5.0,5.0;" x1="58" x2="58" y1="81.2969" y2="1543.0859"/></g><g><title>K8sHardenerCLI</title><rect fill="#000000" fill-opacity="0.00000" height="1461.7891" width="8" x="551.3477" y="81.2969"/><line style="stroke:#181818;stroke-width:0.5;stroke-dasharray:5.0,5.0;" x1="555.0024" x2="555.0024" y1="81.2969" y2="1543.0859"/></g><g><title>RBACHardenerModule</title><rect fill="#000000" fill-opacity="0.00000" height="1461.7891" width="8" x="760.9004" y="81.2969"/><line style="stroke:#181818;stroke-width:0.5;stroke-dasharray:5.0,5.0;" x1="764.3022" x2="764.3022" y1="81.2969" y2="1543.0859"/></g><g><title>KubernetesAPIServer</title><rect fill="#000000" fill-opacity="0.00000" height="1461.7891" width="8" x="936.624" y="81.2969"/><line style="stroke:#181818;stroke-width:0.5;stroke-dasharray:5.0,5.0;" x1="940.4985" x2="940.4985" y1="81.2969" y2="1543.0859"/></g><g><title>FileSystem</title><rect fill="#000000" fill-opacity="0.00000" height="1461.7891" width="8" x="1073.0752" y="81.2969"/><line style="stroke:#181818;stroke-width:0.5;stroke-dasharray:5.0,5.0;" x1="1076.7495" x2="1076.7495" y1="81.2969" y2="1543.0859"/></g><g class="participant participant-head" data-participant="User"><text fill="#000000" font-family="sans-serif" font-size="14" lengthAdjust="spacing" textLength="31.9102" x="40" y="77.9951">User</text><ellipse cx="58.9551" cy="13.5" fill="#E2E2F0" rx="8" ry="8" style="stroke:#181818;stroke-width:0.5;"/><path d="M58.9551,21.5 L58.9551,48.5 M45.9551,29.5 L71.9551,29.5 M58.9551,48.5 L45.9551,63.5 M58.9551,48.5 L71.9551,63.5" fill="none" style="stroke:#181818;stroke-width:0.5;"/></g><g class="participant participant-tail" data-participant="User"><text fill="#000000" font-family="sans-serif" font-size="14" lengthAdjust="spacing" textLength="31.9102" x="40" y="1555.0811">User</text><ellipse cx="58.9551" cy="1566.8828" fill="#E2E2F0" rx="8" ry="8" style="stroke:#181818;stroke-width:0.5;"/><path d="M58.9551,1574.8828 L58.9551,1601.8828 M45.9551,1582.8828 L71.9551,1582.8828 M58.9551,1601.8828 L45.9551,1616.8828 M58.9551,1601.8828 L71.9551,1616.8828" fill="none" style="stroke:#181818;stroke-width:0.5;"/></g><g class="participant participant-head" data-participant="K8sHardenerCLI"><rect fill="#E2E2F0" height="30.2969" rx="2.5" ry="2.5" style="stroke:#181818;stroke-width:0.5;" width="126.6904" x="492.0024" y="50"/><text fill="#000000" font-family="sans-serif" font-size="14" lengthAdjust="spacing" textLength="112.6904" x="499.0024" y="69.9951">K8sHardenerCLI</text></g><g class="participant participant-tail" data-participant="K8sHardenerCLI"><rect fill="#E2E2F0" height="30.2969" rx="2.5" ry="2.5" style="stroke:#181818;stroke-width:0.5;" width="126.6904" x="492.0024" y="1542.0859"/><text fill="#000000" font-family="sans-serif" font-size="14" lengthAdjust="spacing" textLength="112.6904" x="499.0024" y="1562.0811">K8sHardenerCLI</text></g><g class="participant participant-head" data-participant="RBACHardenerModule"><rect fill="#E2E2F0" height="30.2969" rx="2.5" ry="2.5" style="stroke:#181818;stroke-width:0.5;" width="169.1963" x="680.3022" y="50"/><text fill="#000000" font-family="sans-serif" font-size="14" lengthAdjust="spacing" textLength="155.1963" x="687.3022" y="69.9951">RBACHardenerModule</text></g><g class="participant participant-tail" data-participant="RBACHardenerModule"><rect fill="#E2E2F0" height="30.2969" rx="2.5" ry="2.5" style="stroke:#181818;stroke-width:0.5;" width="169.1963" x="680.3022" y="1542.0859"/><text fill="#000000" font-family="sans-serif" font-size="14" lengthAdjust="spacing" textLength="155.1963" x="687.3022" y="1562.0811">RBACHardenerModule</text></g><g class="participant participant-head" data-participant="KubernetesAPIServer"><rect fill="#E2E2F0" height="30.2969" rx="2.5" ry="2.5" style="stroke:#181818;stroke-width:0.5;" width="162.251" x="859.4985" y="50"/><text fill="#000000" font-family="sans-serif" font-size="14" lengthAdjust="spacing" textLength="148.251" x="866.4985" y="69.9951">KubernetesAPIServer</text></g><g class="participant participant-tail" data-participant="KubernetesAPIServer"><rect fill="#E2E2F0" height="30.2969" rx="2.5" ry="2.5" style="stroke:#181818;stroke-width:0.5;" width="162.251" x="859.4985" y="1542.0859"/><text fill="#000000" font-family="sans-serif" font-size="14" lengthAdjust="spacing" textLength="148.251" x="866.4985" y="1562.0811">KubernetesAPIServer</text></g><g class="participant participant-head" data-participant="FileSystem"><rect fill="#E2E2F0" height="30.2969" rx="2.5" ry="2.5" style="stroke:#181818;stroke-width:0.5;" width="90.6514" x="1031.7495" y="50"/><text fill="#000000" font-family="sans-serif" font-size="14" lengthAdjust="spacing" textLength="76.6514" x="1038.7495" y="69.9951">FileSystem</text></g><g class="participant participant-tail" data-participant="FileSystem"><rect fill="#E2E2F0" height="30.2969" rx="2.5" ry="2.5" style="stroke:#181818;stroke-width:0.5;" width="90.6514" x="1031.7495" y="1542.0859"/><text fill="#000000" font-family="sans-serif" font-size="14" lengthAdjust="spacing" textLength="76.6514" x="1038.7495" y="1562.0811">FileSystem</text></g><g><title>K8sHardenerCLI</title><rect fill="#FFFFFF" height="1397.5234" style="stroke:#181818;stroke-width:1;" width="10" x="550.3477" y="127.5625"/></g><g><title>RBACHardenerModule</title><rect fill="#FFFFFF" height="1368.3906" style="stroke:#181818;stroke-width:1;" width="10" x="759.9004" y="156.6953"/></g><g><title>KubernetesAPIServer</title><rect fill="#FFFFFF" height="29.1328" style="stroke:#181818;stroke-width:1;" width="10" x="935.624" y="365.7578"/></g><g><title>KubernetesAPIServer</title><rect fill="#FFFFFF" height="29.1328" style="stroke:#181818;stroke-width:1;" width="10" x="935.624" y="1321.4844"/></g><g><title>FileSystem</title><rect fill="#FFFFFF" height="29.1328" style="stroke:#181818;stroke-width:1;" width="10" x="1072.0752" y="1100.75"/></g><g class="message" data-participant-1="User" data-participant-2="K8sHardenerCLI"><polygon fill="#181818" points="538.3477,123.5625,548.3477,127.5625,538.3477,131.5625,542.3477,127.5625" style="stroke:#181818;stroke-width:1;"/><line style="stroke:#181818;stroke-width:1;" x1="58.9551" x2="544.3477" y1="127.5625" y2="127.5625"/><text fill="#000000" font-family="sans-serif" font-size="13" lengthAdjust="spacing" textLength="112.3345" x="65.9551" y="107.3638">"Navigate menus</text><text fill="#000000" font-family="sans-serif" font-size="13" lengthAdjust="spacing" textLength="472.3926" x="65.9551" y="122.4966">General Kubernetes Hardening &#8594; RBAC Management &#8594; Generate RBAC"</text></g><g class="message" data-participant-1="K8sHardenerCLI" data-participant-2="RBACHardenerModule"><polygon fill="#181818" points="747.9004,152.6953,757.9004,156.6953,747.9004,160.6953,751.9004,156.6953" style="stroke:#181818;stroke-width:1;"/><line style="stroke:#181818;stroke-width:1;" x1="560.3477" x2="753.9004" y1="156.6953" y2="156.6953"/><text fill="#000000" font-family="sans-serif" font-size="13" lengthAdjust="spacing" textLength="180.5527" x="567.3477" y="151.6294">generate_rbac_interactive()</text></g><path d="M10,171.6953 L86.624,171.6953 L86.624,178.8281 L76.624,188.8281 L10,188.8281 L10,171.6953" fill="#EEEEEE" style="stroke:#000000;stroke-width:1.5;"/><rect fill="none" height="1325.2578" style="stroke:#000000;stroke-width:1.5;" width="1132.4009" x="10" y="171.6953"/><text fill="#000000" font-family="sans-serif" font-size="13" font-weight="bold" lengthAdjust="spacing" textLength="31.624" x="25" y="184.7622">loop</text><text fill="#000000" font-family="sans-serif" font-size="11" font-weight="bold" lengthAdjust="spacing" textLength="224.3022" x="101.624" y="183.9058">[Generate multiple RBAC resources]</text><g class="message" data-participant-1="RBACHardenerModule" data-participant-2="User"><polygon fill="#181818" points="69.9551,221.0938,59.9551,225.0938,69.9551,229.0938,65.9551,225.0938" style="stroke:#181818;stroke-width:1;"/><line style="stroke:#181818;stroke-width:1;" x1="63.9551" x2="758.9004" y1="225.0938" y2="225.0938"/><text fill="#000000" font-family="sans-serif" font-size="13" lengthAdjust="spacing" textLength="146.7197" x="75.9551" y="204.895">"Select Resource Type</text><text fill="#000000" font-family="sans-serif" font-size="13" lengthAdjust="spacing" textLength="345.833" x="75.9551" y="220.0278">(Role, ClusterRole, RoleBinding, ClusterRoleBinding)"</text></g><g class="message" data-participant-1="User" data-participant-2="RBACHardenerModule"><polygon fill="#181818" points="747.9004,250.2266,757.9004,254.2266,747.9004,258.2266,751.9004,254.2266" style="stroke:#181818;stroke-width:1;"/><line style="stroke:#181818;stroke-width:1;" x1="58.9551" x2="753.9004" y1="254.2266" y2="254.2266"/><text fill="#000000" font-family="sans-serif" font-size="13" lengthAdjust="spacing" textLength="92.3711" x="65.9551" y="249.1606">ResourceType</text></g><g class="message" data-participant-1="RBACHardenerModule" data-participant-2="User"><polygon fill="#181818" points="69.9551,279.3594,59.9551,283.3594,69.9551,287.3594,65.9551,283.3594" style="stroke:#181818;stroke-width:1;"/><line style="stroke:#181818;stroke-width:1;" x1="63.9551" x2="758.9004" y1="283.3594" y2="283.3594"/><text fill="#000000" font-family="sans-serif" font-size="13" lengthAdjust="spacing" textLength="153.9561" x="75.9551" y="278.2935">"Enter Resource Name"</text></g><g class="message" data-participant-1="User" data-participant-2="RBACHardenerModule"><polygon fill="#181818" points="747.9004,308.4922,757.9004,312.4922,747.9004,316.4922,751.9004,312.4922" style="stroke:#181818;stroke-width:1;"/><line style="stroke:#181818;stroke-width:1;" x1="58.9551" x2="753.9004" y1="312.4922" y2="312.4922"/><text fill="#000000" font-family="sans-serif" font-size="13" lengthAdjust="spacing" textLength="38.3525" x="65.9551" y="307.4263">Name</text></g><path d="M30,327.4922 L94.4429,327.4922 L94.4429,334.625 L84.4429,344.625 L30,344.625 L30,327.4922" fill="#EEEEEE" style="stroke:#000000;stroke-width:1.5;"/><rect fill="none" height="133.6641" style="stroke:#000000;stroke-width:1.5;" width="1001.7495" x="30" y="327.4922"/><text fill="#000000" font-family="sans-serif" font-size="13" font-weight="bold" lengthAdjust="spacing" textLength="19.4429" x="45" y="340.5591">alt</text><text fill="#000000" font-family="sans-serif" font-size="11" font-weight="bold" lengthAdjust="spacing" textLength="147.3613" x="109.4429" y="339.7026">[Namespaced resource]</text><g class="message" data-participant-1="RBACHardenerModule" data-participant-2="KubernetesAPIServer"><polygon fill="#181818" points="923.624,361.7578,933.624,365.7578,923.624,369.7578,927.624,365.7578" style="stroke:#181818;stroke-width:1;"/><line style="stroke:#181818;stroke-width:1;" x1="769.9004" x2="929.624" y1="365.7578" y2="365.7578"/><text fill="#000000" font-family="sans-serif" font-size="13" lengthAdjust="spacing" textLength="117.5142" x="776.9004" y="360.6919">list_namespaces()</text></g><g class="message" data-participant-1="KubernetesAPIServer" data-participant-2="RBACHardenerModule"><polygon fill="#181818" points="780.9004,390.8906,770.9004,394.8906,780.9004,398.8906,776.9004,394.8906" style="stroke:#181818;stroke-width:1;"/><line style="stroke:#181818;stroke-width:1;stroke-dasharray:2.0,2.0;" x1="774.9004" x2="939.624" y1="394.8906" y2="394.8906"/><text fill="#000000" font-family="sans-serif" font-size="13" lengthAdjust="spacing" textLength="99.7153" x="786.9004" y="389.8247">Namespace list</text></g><g class="message" data-participant-1="RBACHardenerModule" data-participant-2="User"><polygon fill="#181818" points="69.9551,420.0234,59.9551,424.0234,69.9551,428.0234,65.9551,424.0234" style="stroke:#181818;stroke-width:1;"/><line style="stroke:#181818;stroke-width:1;" x1="63.9551" x2="758.9004" y1="424.0234" y2="424.0234"/><text fill="#000000" font-family="sans-serif" font-size="13" lengthAdjust="spacing" textLength="132.6851" x="75.9551" y="418.9575">"Select Namespace"</text></g><g class="message" data-participant-1="User" data-participant-2="RBACHardenerModule"><polygon fill="#181818" points="747.9004,449.1563,757.9004,453.1563,747.9004,457.1563,751.9004,453.1563" style="stroke:#181818;stroke-width:1;"/><line style="stroke:#181818;stroke-width:1;" x1="58.9551" x2="753.9004" y1="453.1563" y2="453.1563"/><text fill="#000000" font-family="sans-serif" font-size="13" lengthAdjust="spacing" textLength="76.4893" x="65.9551" y="448.0903">Namespace</text></g><path d="M20,475.1563 L84.4429,475.1563 L84.4429,482.2891 L74.4429,492.2891 L20,492.2891 L20,475.1563" fill="#EEEEEE" style="stroke:#000000;stroke-width:1.5;"/><rect fill="none" height="385.5313" style="stroke:#000000;stroke-width:1.5;" width="849.4985" x="20" y="475.1563"/><text fill="#000000" font-family="sans-serif" font-size="13" font-weight="bold" lengthAdjust="spacing" textLength="19.4429" x="35" y="488.2231">alt</text><text fill="#000000" font-family="sans-serif" font-size="11" font-weight="bold" lengthAdjust="spacing" textLength="112.9541" x="99.4429" y="487.3667">[Role/ClusterRole]</text><path d="M30,499.2891 L106.624,499.2891 L106.624,506.4219 L96.624,516.4219 L30,516.4219 L30,499.2891" fill="#EEEEEE" style="stroke:#000000;stroke-width:1.5;"/><rect fill="none" height="133.6641" style="stroke:#000000;stroke-width:1.5;" width="829.4985" x="30" y="499.2891"/><text fill="#000000" font-family="sans-serif" font-size="13" font-weight="bold" lengthAdjust="spacing" textLength="31.624" x="45" y="512.356">loop</text><text fill="#000000" font-family="sans-serif" font-size="11" font-weight="bold" lengthAdjust="spacing" textLength="118.7065" x="121.624" y="511.4995">[Define PolicyRule]</text><g class="message" data-participant-1="RBACHardenerModule" data-participant-2="User"><polygon fill="#181818" points="69.9551,533.5547,59.9551,537.5547,69.9551,541.5547,65.9551,537.5547" style="stroke:#181818;stroke-width:1;"/><line style="stroke:#181818;stroke-width:1;" x1="63.9551" x2="758.9004" y1="537.5547" y2="537.5547"/><text fill="#000000" font-family="sans-serif" font-size="13" lengthAdjust="spacing" textLength="265.7319" x="75.9551" y="532.4888">"Prompt for APIGroups/Resources/Verbs"</text></g><g class="message" data-participant-1="User" data-participant-2="RBACHardenerModule"><polygon fill="#181818" points="747.9004,562.6875,757.9004,566.6875,747.9004,570.6875,751.9004,566.6875" style="stroke:#181818;stroke-width:1;"/><line style="stroke:#181818;stroke-width:1;" x1="58.9551" x2="753.9004" y1="566.6875" y2="566.6875"/><text fill="#000000" font-family="sans-serif" font-size="13" lengthAdjust="spacing" textLength="73.9502" x="65.9551" y="561.6216">RuleDetails</text></g><g class="message" data-participant-1="RBACHardenerModule" data-participant-2="User"><polygon fill="#181818" points="69.9551,591.8203,59.9551,595.8203,69.9551,599.8203,65.9551,595.8203" style="stroke:#181818;stroke-width:1;"/><line style="stroke:#181818;stroke-width:1;" x1="63.9551" x2="758.9004" y1="595.8203" y2="595.8203"/><text fill="#000000" font-family="sans-serif" font-size="13" lengthAdjust="spacing" textLength="128.5527" x="75.9551" y="590.7544">"Add another rule?"</text></g><g class="message" data-participant-1="User" data-participant-2="RBACHardenerModule"><polygon fill="#181818" points="747.9004,620.9531,757.9004,624.9531,747.9004,628.9531,751.9004,624.9531" style="stroke:#181818;stroke-width:1;"/><line style="stroke:#181818;stroke-width:1;" x1="58.9551" x2="753.9004" y1="624.9531" y2="624.9531"/><text fill="#000000" font-family="sans-serif" font-size="13" lengthAdjust="spacing" textLength="22.4644" x="65.9551" y="619.8872">yes</text></g><line style="stroke:#000000;stroke-width:1;stroke-dasharray:2.0,2.0;" x1="20" x2="869.4985" y1="640.9531" y2="640.9531"/><text fill="#000000" font-family="sans-serif" font-size="11" font-weight="bold" lengthAdjust="spacing" textLength="57.3901" x="25" y="651.1636">[Binding]</text><path d="M30,661.7578 L106.624,661.7578 L106.624,668.8906 L96.624,678.8906 L30,678.8906 L30,661.7578" fill="#EEEEEE" style="stroke:#000000;stroke-width:1.5;"/><rect fill="none" height="133.6641" style="stroke:#000000;stroke-width:1.5;" width="829.4985" x="30" y="661.7578"/><text fill="#000000" font-family="sans-serif" font-size="13" font-weight="bold" lengthAdjust="spacing" textLength="31.624" x="45" y="674.8247">loop</text><text fill="#000000" font-family="sans-serif" font-size="11" font-weight="bold" lengthAdjust="spacing" textLength="100.9604" x="121.624" y="673.9683">[Define Subject]</text><g class="message" data-participant-1="RBACHardenerModule" data-participant-2="User"><polygon fill="#181818" points="69.9551,696.0234,59.9551,700.0234,69.9551,704.0234,65.9551,700.0234" style="stroke:#181818;stroke-width:1;"/><line style="stroke:#181818;stroke-width:1;" x1="63.9551" x2="758.9004" y1="700.0234" y2="700.0234"/><text fill="#000000" font-family="sans-serif" font-size="13" lengthAdjust="spacing" textLength="290.2085" x="75.9551" y="694.9575">"Prompt for Subject Kind/Name/Namespace"</text></g><g class="message" data-participant-1="User" data-participant-2="RBACHardenerModule"><polygon fill="#181818" points="747.9004,725.1563,757.9004,729.1563,747.9004,733.1563,751.9004,729.1563" style="stroke:#181818;stroke-width:1;"/><line style="stroke:#181818;stroke-width:1;" x1="58.9551" x2="753.9004" y1="729.1563" y2="729.1563"/><text fill="#000000" font-family="sans-serif" font-size="13" lengthAdjust="spacing" textLength="93.666" x="65.9551" y="724.0903">SubjectDetails</text></g><g class="message" data-participant-1="RBACHardenerModule" data-participant-2="User"><polygon fill="#181818" points="69.9551,754.2891,59.9551,758.2891,69.9551,762.2891,65.9551,758.2891" style="stroke:#181818;stroke-width:1;"/><line style="stroke:#181818;stroke-width:1;" x1="63.9551" x2="758.9004" y1="758.2891" y2="758.2891"/><text fill="#000000" font-family="sans-serif" font-size="13" lengthAdjust="spacing" textLength="150.4775" x="75.9551" y="753.2231">"Add another subject?"</text></g><g class="message" data-participant-1="User" data-participant-2="RBACHardenerModule"><polygon fill="#181818" points="747.9004,783.4219,757.9004,787.4219,747.9004,791.4219,751.9004,787.4219" style="stroke:#181818;stroke-width:1;"/><line style="stroke:#181818;stroke-width:1;" x1="58.9551" x2="753.9004" y1="787.4219" y2="787.4219"/><text fill="#000000" font-family="sans-serif" font-size="13" lengthAdjust="spacing" textLength="22.4644" x="65.9551" y="782.356">yes</text></g><g class="message" data-participant-1="RBACHardenerModule" data-participant-2="User"><polygon fill="#181818" points="69.9551,819.5547,59.9551,823.5547,69.9551,827.5547,65.9551,823.5547" style="stroke:#181818;stroke-width:1;"/><line style="stroke:#181818;stroke-width:1;" x1="63.9551" x2="758.9004" y1="823.5547" y2="823.5547"/><text fill="#000000" font-family="sans-serif" font-size="13" lengthAdjust="spacing" textLength="224.9673" x="75.9551" y="818.4888">"Prompt for RoleRef Kind &amp; Name"</text></g><g class="message" data-participant-1="User" data-participant-2="RBACHardenerModule"><polygon fill="#181818" points="747.9004,848.6875,757.9004,852.6875,747.9004,856.6875,751.9004,852.6875" style="stroke:#181818;stroke-width:1;"/><line style="stroke:#181818;stroke-width:1;" x1="58.9551" x2="753.9004" y1="852.6875" y2="852.6875"/><text fill="#000000" font-family="sans-serif" font-size="13" lengthAdjust="spacing" textLength="95.272" x="65.9551" y="847.6216">RoleRefDetails</text></g><g class="message" data-participant-1="RBACHardenerModule" data-participant-2="RBACHardenerModule"><line style="stroke:#181818;stroke-width:1;" x1="769.9004" x2="811.9004" y1="888.8203" y2="888.8203"/><line style="stroke:#181818;stroke-width:1;" x1="811.9004" x2="811.9004" y1="888.8203" y2="901.8203"/><line style="stroke:#181818;stroke-width:1;" x1="770.9004" x2="811.9004" y1="901.8203" y2="901.8203"/><polygon fill="#181818" points="780.9004,897.8203,770.9004,901.8203,780.9004,905.8203,776.9004,901.8203" style="stroke:#181818;stroke-width:1;"/><text fill="#000000" font-family="sans-serif" font-size="13" lengthAdjust="spacing" textLength="135.8589" x="776.9004" y="883.7544">"Construct resource"</text></g><g class="message" data-participant-1="RBACHardenerModule" data-participant-2="User"><polygon fill="#181818" points="69.9551,926.9531,59.9551,930.9531,69.9551,934.9531,65.9551,930.9531" style="stroke:#181818;stroke-width:1;"/><line style="stroke:#181818;stroke-width:1;" x1="63.9551" x2="758.9004" y1="930.9531" y2="930.9531"/><text fill="#000000" font-family="sans-serif" font-size="13" lengthAdjust="spacing" textLength="170.5806" x="75.9551" y="925.8872">"Display generated YAML"</text></g><g class="message" data-participant-1="RBACHardenerModule" data-participant-2="User"><polygon fill="#181818" points="69.9551,956.0859,59.9551,960.0859,69.9551,964.0859,65.9551,960.0859" style="stroke:#181818;stroke-width:1;"/><line style="stroke:#181818;stroke-width:1;" x1="63.9551" x2="758.9004" y1="960.0859" y2="960.0859"/><text fill="#000000" font-family="sans-serif" font-size="13" lengthAdjust="spacing" textLength="131.3076" x="75.9551" y="955.02">"Save YAML to file?"</text></g><path d="M30,975.0859 L94.4429,975.0859 L94.4429,982.2188 L84.4429,992.2188 L30,992.2188 L30,975.0859" fill="#EEEEEE" style="stroke:#000000;stroke-width:1.5;"/><rect fill="none" height="235.8672" style="stroke:#000000;stroke-width:1.5;" width="1102.4009" x="30" y="975.0859"/><text fill="#000000" font-family="sans-serif" font-size="13" font-weight="bold" lengthAdjust="spacing" textLength="19.4429" x="45" y="988.1528">alt</text><text fill="#000000" font-family="sans-serif" font-size="11" font-weight="bold" lengthAdjust="spacing" textLength="80.2925" x="109.4429" y="987.2964">[Save to file]</text><g class="message" data-participant-1="User" data-participant-2="RBACHardenerModule"><polygon fill="#181818" points="747.9004,1009.3516,757.9004,1013.3516,747.9004,1017.3516,751.9004,1013.3516" style="stroke:#181818;stroke-width:1;"/><line style="stroke:#181818;stroke-width:1;" x1="58.9551" x2="753.9004" y1="1013.3516" y2="1013.3516"/><text fill="#000000" font-family="sans-serif" font-size="13" lengthAdjust="spacing" textLength="22.4644" x="65.9551" y="1008.2856">yes</text></g><g class="message" data-participant-1="RBACHardenerModule" data-participant-2="User"><polygon fill="#181818" points="69.9551,1038.4844,59.9551,1042.4844,69.9551,1046.4844,65.9551,1042.4844" style="stroke:#181818;stroke-width:1;"/><line style="stroke:#181818;stroke-width:1;" x1="63.9551" x2="758.9004" y1="1042.4844" y2="1042.4844"/><text fill="#000000" font-family="sans-serif" font-size="13" lengthAdjust="spacing" textLength="107.6499" x="75.9551" y="1037.4185">"Enter filename"</text></g><g class="message" data-participant-1="User" data-participant-2="RBACHardenerModule"><polygon fill="#181818" points="747.9004,1067.6172,757.9004,1071.6172,747.9004,1075.6172,751.9004,1071.6172" style="stroke:#181818;stroke-width:1;"/><line style="stroke:#181818;stroke-width:1;" x1="58.9551" x2="753.9004" y1="1071.6172" y2="1071.6172"/><text fill="#000000" font-family="sans-serif" font-size="13" lengthAdjust="spacing" textLength="56.6655" x="65.9551" y="1066.5513">filename</text></g><g class="message" data-participant-1="RBACHardenerModule" data-participant-2="FileSystem"><polygon fill="#181818" points="1060.0752,1096.75,1070.0752,1100.75,1060.0752,1104.75,1064.0752,1100.75" style="stroke:#181818;stroke-width:1;"/><line style="stroke:#181818;stroke-width:1;" x1="769.9004" x2="1066.0752" y1="1100.75" y2="1100.75"/><text fill="#000000" font-family="sans-serif" font-size="13" lengthAdjust="spacing" textLength="239.5605" x="776.9004" y="1095.6841">save_yaml_to_file(filename, content)</text></g><g class="message" data-participant-1="FileSystem" data-participant-2="RBACHardenerModule"><polygon fill="#181818" points="780.9004,1125.8828,770.9004,1129.8828,780.9004,1133.8828,776.9004,1129.8828" style="stroke:#181818;stroke-width:1;"/><line style="stroke:#181818;stroke-width:1;stroke-dasharray:2.0,2.0;" x1="774.9004" x2="1076.0752" y1="1129.8828" y2="1129.8828"/><text fill="#000000" font-family="sans-serif" font-size="13" lengthAdjust="spacing" textLength="50.8511" x="786.9004" y="1124.8169">success</text></g><g class="message" data-participant-1="RBACHardenerModule" data-participant-2="User"><polygon fill="#181818" points="69.9551,1155.0156,59.9551,1159.0156,69.9551,1163.0156,65.9551,1159.0156" style="stroke:#181818;stroke-width:1;"/><line style="stroke:#181818;stroke-width:1;" x1="63.9551" x2="758.9004" y1="1159.0156" y2="1159.0156"/><text fill="#000000" font-family="sans-serif" font-size="13" lengthAdjust="spacing" textLength="130.1714" x="75.9551" y="1153.9497">"Confirm file saved"</text></g><line style="stroke:#000000;stroke-width:1;stroke-dasharray:2.0,2.0;" x1="30" x2="1132.4009" y1="1168.0156" y2="1168.0156"/><text fill="#000000" font-family="sans-serif" font-size="11" font-weight="bold" lengthAdjust="spacing" textLength="81.3828" x="35" y="1178.2261">[Skip saving]</text><g class="message" data-participant-1="User" data-participant-2="RBACHardenerModule"><polygon fill="#181818" points="747.9004,1198.9531,757.9004,1202.9531,747.9004,1206.9531,751.9004,1202.9531" style="stroke:#181818;stroke-width:1;"/><line style="stroke:#181818;stroke-width:1;" x1="58.9551" x2="753.9004" y1="1202.9531" y2="1202.9531"/><text fill="#000000" font-family="sans-serif" font-size="13" lengthAdjust="spacing" textLength="16.1929" x="65.9551" y="1197.8872">no</text></g><g class="message" data-participant-1="RBACHardenerModule" data-participant-2="User"><polygon fill="#181818" points="69.9551,1235.0859,59.9551,1239.0859,69.9551,1243.0859,65.9551,1239.0859" style="stroke:#181818;stroke-width:1;"/><line style="stroke:#181818;stroke-width:1;" x1="63.9551" x2="758.9004" y1="1239.0859" y2="1239.0859"/><text fill="#000000" font-family="sans-serif" font-size="13" lengthAdjust="spacing" textLength="182.019" x="75.9551" y="1234.02">"Apply resource to cluster?"</text></g><path d="M30,1254.0859 L94.4429,1254.0859 L94.4429,1261.2188 L84.4429,1271.2188 L30,1271.2188 L30,1254.0859" fill="#EEEEEE" style="stroke:#000000;stroke-width:1.5;"/><rect fill="none" height="177.6016" style="stroke:#000000;stroke-width:1.5;" width="1001.7495" x="30" y="1254.0859"/><text fill="#000000" font-family="sans-serif" font-size="13" font-weight="bold" lengthAdjust="spacing" textLength="19.4429" x="45" y="1267.1528">alt</text><text fill="#000000" font-family="sans-serif" font-size="11" font-weight="bold" lengthAdjust="spacing" textLength="45.2568" x="109.4429" y="1266.2964">[Apply]</text><g class="message" data-participant-1="User" data-participant-2="RBACHardenerModule"><polygon fill="#181818" points="747.9004,1288.3516,757.9004,1292.3516,747.9004,1296.3516,751.9004,1292.3516" style="stroke:#181818;stroke-width:1;"/><line style="stroke:#181818;stroke-width:1;" x1="58.9551" x2="753.9004" y1="1292.3516" y2="1292.3516"/><text fill="#000000" font-family="sans-serif" font-size="13" lengthAdjust="spacing" textLength="22.4644" x="65.9551" y="1287.2856">yes</text></g><g class="message" data-participant-1="RBACHardenerModule" data-participant-2="KubernetesAPIServer"><polygon fill="#181818" points="923.624,1317.4844,933.624,1321.4844,923.624,1325.4844,927.624,1321.4844" style="stroke:#181818;stroke-width:1;"/><line style="stroke:#181818;stroke-width:1;" x1="769.9004" x2="929.624" y1="1321.4844" y2="1321.4844"/><text fill="#000000" font-family="sans-serif" font-size="13" lengthAdjust="spacing" textLength="102.4829" x="776.9004" y="1316.4185">create resource</text></g><g class="message" data-participant-1="KubernetesAPIServer" data-participant-2="RBACHardenerModule"><polygon fill="#181818" points="780.9004,1346.6172,770.9004,1350.6172,780.9004,1354.6172,776.9004,1350.6172" style="stroke:#181818;stroke-width:1;"/><line style="stroke:#181818;stroke-width:1;stroke-dasharray:2.0,2.0;" x1="774.9004" x2="939.624" y1="1350.6172" y2="1350.6172"/><text fill="#000000" font-family="sans-serif" font-size="13" lengthAdjust="spacing" textLength="39.9458" x="786.9004" y="1345.5513">status</text></g><g class="message" data-participant-1="RBACHardenerModule" data-participant-2="User"><polygon fill="#181818" points="69.9551,1375.75,59.9551,1379.75,69.9551,1383.75,65.9551,1379.75" style="stroke:#181818;stroke-width:1;"/><line style="stroke:#181818;stroke-width:1;" x1="63.9551" x2="758.9004" y1="1379.75" y2="1379.75"/><text fill="#000000" font-family="sans-serif" font-size="13" lengthAdjust="spacing" textLength="103.9556" x="75.9551" y="1374.6841">"Display status"</text></g><line style="stroke:#000000;stroke-width:1;stroke-dasharray:2.0,2.0;" x1="30" x2="1031.7495" y1="1388.75" y2="1388.75"/><text fill="#000000" font-family="sans-serif" font-size="11" font-weight="bold" lengthAdjust="spacing" textLength="74.8784" x="35" y="1398.9604">[Skip apply]</text><g class="message" data-participant-1="User" data-participant-2="RBACHardenerModule"><polygon fill="#181818" points="747.9004,1419.6875,757.9004,1423.6875,747.9004,1427.6875,751.9004,1423.6875" style="stroke:#181818;stroke-width:1;"/><line style="stroke:#181818;stroke-width:1;" x1="58.9551" x2="753.9004" y1="1423.6875" y2="1423.6875"/><text fill="#000000" font-family="sans-serif" font-size="13" lengthAdjust="spacing" textLength="16.1929" x="65.9551" y="1418.6216">no</text></g><g class="message" data-participant-1="RBACHardenerModule" data-participant-2="User"><polygon fill="#181818" points="69.9551,1455.8203,59.9551,1459.8203,69.9551,1463.8203,65.9551,1459.8203" style="stroke:#181818;stroke-width:1;"/><line style="stroke:#181818;stroke-width:1;" x1="63.9551" x2="758.9004" y1="1459.8203" y2="1459.8203"/><text fill="#000000" font-family="sans-serif" font-size="13" lengthAdjust="spacing" textLength="195.4761" x="75.9551" y="1454.7544">"Generate another resource?"</text></g><g class="message" data-participant-1="User" data-participant-2="RBACHardenerModule"><polygon fill="#181818" points="747.9004,1484.9531,757.9004,1488.9531,747.9004,1492.9531,751.9004,1488.9531" style="stroke:#181818;stroke-width:1;"/><line style="stroke:#181818;stroke-width:1;" x1="58.9551" x2="753.9004" y1="1488.9531" y2="1488.9531"/><text fill="#000000" font-family="sans-serif" font-size="13" lengthAdjust="spacing" textLength="16.1929" x="65.9551" y="1483.8872">no</text></g><g class="message" data-participant-1="RBACHardenerModule" data-participant-2="K8sHardenerCLI"><polygon fill="#181818" points="566.3477,1521.0859,556.3477,1525.0859,566.3477,1529.0859,562.3477,1525.0859" style="stroke:#181818;stroke-width:1;"/><line style="stroke:#181818;stroke-width:1;stroke-dasharray:2.0,2.0;" x1="560.3477" x2="763.9004" y1="1525.0859" y2="1525.0859"/><text fill="#000000" font-family="sans-serif" font-size="13" lengthAdjust="spacing" textLength="32.4429" x="572.3477" y="1520.02">done</text></g><!--SRC=[hLRDRjim3BxxAGWVXXPeaUkGmueqtRgYFoYIRS200e5YCvasMJ8aEO1VO0-mHzoJJ9J_OjUrlMuNmnB9Z-H7YXABhDBmsQ0EKgOjZtZAf8NRj-OZqp5ArCkxcvPeTRbOLh9x5MS2svRP5hL4YsRnUBD6VUWWV-02rxcnc0G1kONpTnrlSmWVs87lcKL8K6RcILwJY8aZS2WCkDp3xv-_V51mpoJRepEnVgymSY0a30CMMNwWPIUteBscU9wdE8TzYRRHMnPjkBHkHOXuSjf0zt0J2ANI9fOa4vQdeb05ZKPbEa8JG8yjXK8KEKBMA31ot9Vwy2bFyKcUh9J0CrYApF6fYmLzBxcC7JCjIRbt6ZfN5UzzULOko4Cm5jPxeg69we4bE8PFEeJBXFN_9cKHnZKJJlAIpvxEceFWncvaXMDSCGYWgNLFDv92ppwS3qJiqRqpRnxZe8U19DhrhA53RpB6crTrcYZZYa8gxUoep1x7jzmLxhX4U5I2H_agAqKZSJrgbQGMTcuck7IkjSfICwlgQsPVK6zDM08DTf7xNg5bN9WfRXTn34mg-yqXQYUwcE8ZnmARs71VOH3A9dz6mZhRVdTy_oK3fHNSEjGPyJ_hr6iuljBybJIOmleLJ4nFa1fcXJkV8BofZ-z8QGkZ9gso6_kTzY64IoMDrPcZjZhsuTYakU8c5Iolnt0CNnVtT-7eX5gp0tfLi0fsl6mjEZbUKcu6KncUC0q9JqvYij8SG6vkopaO5_0cPudOMBKXsvCAu0mYvNnBsvb-HtSjxJVB5sUToI9tparto7M01bbmnTrndVZiVCnnM1tFzG-UqbPrH8V8aMgijQf3awOYhnk9AXeLux2kjDVunnBtNZwHHcAdTNVzrwl7M6OpC-NA6IrBTO0Ao7P9s2I29bUaVkpK8xqaw6BiSU1SU0Tzy3tln5X938w8wNb-7TFMilu3]--></g></svg>