<svg xmlns="http://www.w3.org/2000/svg" xmlns:xlink="http://www.w3.org/1999/xlink" contentStyleType="text/css" data-diagram-type="SEQUENCE" height="1040px" preserveAspectRatio="none" style="width:1200px;height:1040px;background:#FFFFFF;" version="1.1" viewBox="0 0 1200 1040" width="1200px" zoomAndPan="magnify"><defs/><g><g><title>User</title><rect fill="#FFFFFF" height="29.1328" style="stroke:#181818;stroke-width:1;" width="10" x="43.9551" y="252.0938"/></g><g><title>User</title><rect fill="#FFFFFF" height="29.1328" style="stroke:#181818;stroke-width:1;" width="10" x="43.9551" y="399.7578"/></g><g><title>K8sHardenerCLI</title><rect fill="#FFFFFF" height="814.3203" style="stroke:#181818;stroke-width:1;" width="10" x="325.3716" y="127.5625"/></g><g><title>AlertWatcherModule</title><rect fill="#FFFFFF" height="785.1875" style="stroke:#181818;stroke-width:1;" width="10" x="551.6357" y="156.6953"/></g><g><title>KubernetesAPIServer</title><rect fill="#FFFFFF" height="29.1328" style="stroke:#181818;stroke-width:1;" width="10" x="1098.0522" y="317.3594"/></g><g><title>KubernetesAPIServer</title><rect fill="#FFFFFF" height="339.1953" style="stroke:#181818;stroke-width:1;" width="10" x="1098.0522" y="494.1563"/></g><rect fill="none" height="75.3984" style="stroke:#000000;stroke-width:1.5;" width="625.1772" x="20" y="213.8281"/><rect fill="none" height="75.3984" style="stroke:#000000;stroke-width:1.5;" width="625.1772" x="20" y="361.4922"/><rect fill="none" height="317.1953" style="stroke:#000000;stroke-width:1.5;" width="1184.1777" x="10" y="509.1563"/><rect fill="none" height="172.6641" style="stroke:#000000;stroke-width:1.5;" width="744.4346" x="20" y="646.6875"/><g><title>User</title><rect fill="#000000" fill-opacity="0.00000" height="878.5859" width="8" x="44.9551" y="81.2969"/><line style="stroke:#181818;stroke-width:0.5;stroke-dasharray:5.0,5.0;" x1="48" x2="48" y1="81.2969" y2="959.8828"/></g><g><title>K8sHardenerCLI</title><rect fill="#000000" fill-opacity="0.00000" height="878.5859" width="8" x="326.3716" y="81.2969"/><line style="stroke:#181818;stroke-width:0.5;stroke-dasharray:5.0,5.0;" x1="330.0264" x2="330.0264" y1="81.2969" y2="959.8828"/></g><g><title>AlertWatcherModule</title><rect fill="#000000" fill-opacity="0.00000" height="878.5859" width="8" x="552.6357" y="81.2969"/><line style="stroke:#181818;stroke-width:0.5;stroke-dasharray:5.0,5.0;" x1="556.0942" x2="556.0942" y1="81.2969" y2="959.8828"/></g><g><title>KubernetesAPIServer</title><rect fill="#000000" fill-opacity="0.00000" height="878.5859" width="8" x="1099.0522" y="81.2969"/><line style="stroke:#181818;stroke-width:0.5;stroke-dasharray:5.0,5.0;" x1="1102.9268" x2="1102.9268" y1="81.2969" y2="959.8828"/></g><g class="participant participant-head" data-participant="User"><text fill="#000000" font-family="sans-serif" font-size="14" lengthAdjust="spacing" textLength="31.9102" x="30" y="77.9951">User</text><ellipse cx="48.9551" cy="13.5" fill="#E2E2F0" rx="8" ry="8" style="stroke:#181818;stroke-width:0.5;"/><path d="M48.9551,21.5 L48.9551,48.5 M35.9551,29.5 L61.9551,29.5 M48.9551,48.5 L35.9551,63.5 M48.9551,48.5 L61.9551,63.5" fill="none" style="stroke:#181818;stroke-width:0.5;"/></g><g class="participant participant-tail" data-participant="User"><text fill="#000000" font-family="sans-serif" font-size="14" lengthAdjust="spacing" textLength="31.9102" x="30" y="971.8779">User</text><ellipse cx="48.9551" cy="983.6797" fill="#E2E2F0" rx="8" ry="8" style="stroke:#181818;stroke-width:0.5;"/><path d="M48.9551,991.6797 L48.9551,1018.6797 M35.9551,999.6797 L61.9551,999.6797 M48.9551,1018.6797 L35.9551,1033.6797 M48.9551,1018.6797 L61.9551,1033.6797" fill="none" style="stroke:#181818;stroke-width:0.5;"/></g><g class="participant participant-head" data-participant="K8sHardenerCLI"><rect fill="#E2E2F0" height="30.2969" rx="2.5" ry="2.5" style="stroke:#181818;stroke-width:0.5;" width="126.6904" x="267.0264" y="50"/><text fill="#000000" font-family="sans-serif" font-size="14" lengthAdjust="spacing" textLength="112.6904" x="274.0264" y="69.9951">K8sHardenerCLI</text></g><g class="participant participant-tail" data-participant="K8sHardenerCLI"><rect fill="#E2E2F0" height="30.2969" rx="2.5" ry="2.5" style="stroke:#181818;stroke-width:0.5;" width="126.6904" x="267.0264" y="958.8828"/><text fill="#000000" font-family="sans-serif" font-size="14" lengthAdjust="spacing" textLength="112.6904" x="274.0264" y="978.8779">K8sHardenerCLI</text></g><g class="participant participant-head" data-participant="AlertWatcherModule"><rect fill="#E2E2F0" height="30.2969" rx="2.5" ry="2.5" style="stroke:#181818;stroke-width:0.5;" width="157.083" x="478.0942" y="50"/><text fill="#000000" font-family="sans-serif" font-size="14" lengthAdjust="spacing" textLength="143.083" x="485.0942" y="69.9951">AlertWatcherModule</text></g><g class="participant participant-tail" data-participant="AlertWatcherModule"><rect fill="#E2E2F0" height="30.2969" rx="2.5" ry="2.5" style="stroke:#181818;stroke-width:0.5;" width="157.083" x="478.0942" y="958.8828"/><text fill="#000000" font-family="sans-serif" font-size="14" lengthAdjust="spacing" textLength="143.083" x="485.0942" y="978.8779">AlertWatcherModule</text></g><g class="participant participant-head" data-participant="KubernetesAPIServer"><rect fill="#E2E2F0" height="30.2969" rx="2.5" ry="2.5" style="stroke:#181818;stroke-width:0.5;" width="162.251" x="1021.9268" y="50"/><text fill="#000000" font-family="sans-serif" font-size="14" lengthAdjust="spacing" textLength="148.251" x="1028.9268" y="69.9951">KubernetesAPIServer</text></g><g class="participant participant-tail" data-participant="KubernetesAPIServer"><rect fill="#E2E2F0" height="30.2969" rx="2.5" ry="2.5" style="stroke:#181818;stroke-width:0.5;" width="162.251" x="1021.9268" y="958.8828"/><text fill="#000000" font-family="sans-serif" font-size="14" lengthAdjust="spacing" textLength="148.251" x="1028.9268" y="978.8779">KubernetesAPIServer</text></g><g><title>User</title><rect fill="#FFFFFF" height="29.1328" style="stroke:#181818;stroke-width:1;" width="10" x="43.9551" y="252.0938"/></g><g><title>User</title><rect fill="#FFFFFF" height="29.1328" style="stroke:#181818;stroke-width:1;" width="10" x="43.9551" y="399.7578"/></g><g><title>K8sHardenerCLI</title><rect fill="#FFFFFF" height="814.3203" style="stroke:#181818;stroke-width:1;" width="10" x="325.3716" y="127.5625"/></g><g><title>AlertWatcherModule</title><rect fill="#FFFFFF" height="785.1875" style="stroke:#181818;stroke-width:1;" width="10" x="551.6357" y="156.6953"/></g><g><title>KubernetesAPIServer</title><rect fill="#FFFFFF" height="29.1328" style="stroke:#181818;stroke-width:1;" width="10" x="1098.0522" y="317.3594"/></g><g><title>KubernetesAPIServer</title><rect fill="#FFFFFF" height="339.1953" style="stroke:#181818;stroke-width:1;" width="10" x="1098.0522" y="494.1563"/></g><g class="message" data-participant-1="User" data-participant-2="K8sHardenerCLI"><polygon fill="#181818" points="313.3716,123.5625,323.3716,127.5625,313.3716,131.5625,317.3716,127.5625" style="stroke:#181818;stroke-width:1;"/><line style="stroke:#181818;stroke-width:1;" x1="48.9551" x2="319.3716" y1="127.5625" y2="127.5625"/><text fill="#000000" font-family="sans-serif" font-size="13" lengthAdjust="spacing" textLength="106.355" x="55.9551" y="107.3638">Navigate menus</text><text fill="#000000" font-family="sans-serif" font-size="13" lengthAdjust="spacing" textLength="257.4165" x="55.9551" y="122.4966">"Intrusion Detection" &#8594; "Alert Watcher"</text></g><g class="message" data-participant-1="K8sHardenerCLI" data-participant-2="AlertWatcherModule"><polygon fill="#181818" points="539.6357,152.6953,549.6357,156.6953,539.6357,160.6953,543.6357,156.6953" style="stroke:#181818;stroke-width:1;"/><line style="stroke:#181818;stroke-width:1;" x1="335.3716" x2="545.6357" y1="156.6953" y2="156.6953"/><text fill="#000000" font-family="sans-serif" font-size="13" lengthAdjust="spacing" textLength="155.7461" x="342.3716" y="151.6294">run_alert_watcher(args)</text></g><g class="message" data-participant-1="AlertWatcherModule" data-participant-2="AlertWatcherModule"><line style="stroke:#181818;stroke-width:1;" x1="561.6357" x2="603.6357" y1="185.8281" y2="185.8281"/><line style="stroke:#181818;stroke-width:1;" x1="603.6357" x2="603.6357" y1="185.8281" y2="198.8281"/><line style="stroke:#181818;stroke-width:1;" x1="562.6357" x2="603.6357" y1="198.8281" y2="198.8281"/><polygon fill="#181818" points="572.6357,194.8281,562.6357,198.8281,572.6357,202.8281,568.6357,198.8281" style="stroke:#181818;stroke-width:1;"/><text fill="#000000" font-family="sans-serif" font-size="13" lengthAdjust="spacing" textLength="135.5986" x="568.6357" y="180.7622">_get_k8s_api_client()</text></g><path d="M20,213.8281 L89.4512,213.8281 L89.4512,220.9609 L79.4512,230.9609 L20,230.9609 L20,213.8281" fill="#EEEEEE" style="stroke:#000000;stroke-width:1.5;"/><rect fill="none" height="75.3984" style="stroke:#000000;stroke-width:1.5;" width="625.1772" x="20" y="213.8281"/><text fill="#000000" font-family="sans-serif" font-size="13" font-weight="bold" lengthAdjust="spacing" textLength="24.4512" x="35" y="226.895">opt</text><text fill="#000000" font-family="sans-serif" font-size="11" font-weight="bold" lengthAdjust="spacing" textLength="164.7422" x="104.4512" y="226.0386">[Namespace not provided]</text><g class="message" data-participant-1="AlertWatcherModule" data-participant-2="User"><polygon fill="#181818" points="64.9551,248.0938,54.9551,252.0938,64.9551,256.0938,60.9551,252.0938" style="stroke:#181818;stroke-width:1;"/><line style="stroke:#181818;stroke-width:1;" x1="58.9551" x2="550.6357" y1="252.0938" y2="252.0938"/><text fill="#000000" font-family="sans-serif" font-size="13" lengthAdjust="spacing" textLength="307.2837" x="70.9551" y="247.0278">"Enter the namespace where Falco is running:"</text></g><g class="message" data-participant-1="User" data-participant-2="AlertWatcherModule"><polygon fill="#181818" points="539.6357,277.2266,549.6357,281.2266,539.6357,285.2266,543.6357,281.2266" style="stroke:#181818;stroke-width:1;"/><line style="stroke:#181818;stroke-width:1;stroke-dasharray:2.0,2.0;" x1="48.9551" x2="545.6357" y1="281.2266" y2="281.2266"/><text fill="#000000" font-family="sans-serif" font-size="13" lengthAdjust="spacing" textLength="110.9507" x="55.9551" y="276.1606">falco-namespace</text></g><g class="message" data-participant-1="AlertWatcherModule" data-participant-2="KubernetesAPIServer"><polygon fill="#181818" points="1086.0522,313.3594,1096.0522,317.3594,1086.0522,321.3594,1090.0522,317.3594" style="stroke:#181818;stroke-width:1;"/><line style="stroke:#181818;stroke-width:1;" x1="561.6357" x2="1092.0522" y1="317.3594" y2="317.3594"/><text fill="#000000" font-family="sans-serif" font-size="13" lengthAdjust="spacing" textLength="517.4165" x="568.6357" y="312.2935">list_namespaced_pod(namespace=falco-namespace, labelSelector=app=falco)</text></g><g class="message" data-participant-1="KubernetesAPIServer" data-participant-2="AlertWatcherModule"><polygon fill="#181818" points="572.6357,342.4922,562.6357,346.4922,572.6357,350.4922,568.6357,346.4922" style="stroke:#181818;stroke-width:1;"/><line style="stroke:#181818;stroke-width:1;stroke-dasharray:2.0,2.0;" x1="566.6357" x2="1102.0522" y1="346.4922" y2="346.4922"/><text fill="#000000" font-family="sans-serif" font-size="13" lengthAdjust="spacing" textLength="96.1162" x="578.6357" y="341.4263">[Falco pod list]</text></g><path d="M20,361.4922 L89.4512,361.4922 L89.4512,368.625 L79.4512,378.625 L20,378.625 L20,361.4922" fill="#EEEEEE" style="stroke:#000000;stroke-width:1.5;"/><rect fill="none" height="75.3984" style="stroke:#000000;stroke-width:1.5;" width="625.1772" x="20" y="361.4922"/><text fill="#000000" font-family="sans-serif" font-size="13" font-weight="bold" lengthAdjust="spacing" textLength="24.4512" x="35" y="374.5591">opt</text><text fill="#000000" font-family="sans-serif" font-size="11" font-weight="bold" lengthAdjust="spacing" textLength="134.127" x="104.4512" y="373.7026">[Multiple pods found]</text><g class="message" data-participant-1="AlertWatcherModule" data-participant-2="User"><polygon fill="#181818" points="64.9551,395.7578,54.9551,399.7578,64.9551,403.7578,60.9551,399.7578" style="stroke:#181818;stroke-width:1;"/><line style="stroke:#181818;stroke-width:1;" x1="58.9551" x2="550.6357" y1="399.7578" y2="399.7578"/><text fill="#000000" font-family="sans-serif" font-size="13" lengthAdjust="spacing" textLength="392.2661" x="70.9551" y="394.6919">"Multiple Falco pods found. Select one to stream logs from:"</text></g><g class="message" data-participant-1="User" data-participant-2="AlertWatcherModule"><polygon fill="#181818" points="539.6357,424.8906,549.6357,428.8906,539.6357,432.8906,543.6357,428.8906" style="stroke:#181818;stroke-width:1;"/><line style="stroke:#181818;stroke-width:1;stroke-dasharray:2.0,2.0;" x1="48.9551" x2="545.6357" y1="428.8906" y2="428.8906"/><text fill="#000000" font-family="sans-serif" font-size="13" lengthAdjust="spacing" textLength="73.3662" x="55.9551" y="423.8247">falco-pod-1</text></g><g class="message" data-participant-1="AlertWatcherModule" data-participant-2="User"><polygon fill="#181818" points="59.9551,461.0234,49.9551,465.0234,59.9551,469.0234,55.9551,465.0234" style="stroke:#181818;stroke-width:1;"/><line style="stroke:#181818;stroke-width:1;" x1="53.9551" x2="550.6357" y1="465.0234" y2="465.0234"/><text fill="#000000" font-family="sans-serif" font-size="13" lengthAdjust="spacing" textLength="326.5996" x="65.9551" y="459.9575">"Watching for Falco alerts... Press Ctrl+C to stop."</text></g><g class="message" data-participant-1="AlertWatcherModule" data-participant-2="KubernetesAPIServer"><polygon fill="#181818" points="1086.0522,490.1563,1096.0522,494.1563,1086.0522,498.1563,1090.0522,494.1563" style="stroke:#181818;stroke-width:1;"/><line style="stroke:#181818;stroke-width:1;" x1="561.6357" x2="1092.0522" y1="494.1563" y2="494.1563"/><text fill="#000000" font-family="sans-serif" font-size="13" lengthAdjust="spacing" textLength="491.6387" x="568.6357" y="489.0903">read_namespaced_pod_log(pod=falco-pod-1, container=falco, follow=true)</text></g><path d="M10,509.1563 L86.624,509.1563 L86.624,516.2891 L76.624,526.2891 L10,526.2891 L10,509.1563" fill="#EEEEEE" style="stroke:#000000;stroke-width:1.5;"/><rect fill="none" height="317.1953" style="stroke:#000000;stroke-width:1.5;" width="1184.1777" x="10" y="509.1563"/><text fill="#000000" font-family="sans-serif" font-size="13" font-weight="bold" lengthAdjust="spacing" textLength="31.624" x="25" y="522.2231">loop</text><text fill="#000000" font-family="sans-serif" font-size="11" font-weight="bold" lengthAdjust="spacing" textLength="238.6323" x="101.624" y="521.3667">[While streaming and not interrupted]</text><g class="message" data-participant-1="KubernetesAPIServer" data-participant-2="AlertWatcherModule"><polygon fill="#181818" points="572.6357,543.4219,562.6357,547.4219,572.6357,551.4219,568.6357,547.4219" style="stroke:#181818;stroke-width:1;"/><line style="stroke:#181818;stroke-width:1;stroke-dasharray:2.0,2.0;" x1="566.6357" x2="1097.0522" y1="547.4219" y2="547.4219"/><text fill="#000000" font-family="sans-serif" font-size="13" lengthAdjust="spacing" textLength="97.2715" x="578.6357" y="542.356">&lt;raw log line&gt;</text></g><g class="message" data-participant-1="AlertWatcherModule" data-participant-2="AlertWatcherModule"><line style="stroke:#181818;stroke-width:1;" x1="561.6357" x2="603.6357" y1="576.5547" y2="576.5547"/><line style="stroke:#181818;stroke-width:1;" x1="603.6357" x2="603.6357" y1="576.5547" y2="589.5547"/><line style="stroke:#181818;stroke-width:1;" x1="562.6357" x2="603.6357" y1="589.5547" y2="589.5547"/><polygon fill="#181818" points="572.6357,585.5547,562.6357,589.5547,572.6357,593.5547,568.6357,589.5547" style="stroke:#181818;stroke-width:1;"/><text fill="#000000" font-family="sans-serif" font-size="13" lengthAdjust="spacing" textLength="99.144" x="568.6357" y="571.4888">decode log line</text></g><g class="message" data-participant-1="AlertWatcherModule" data-participant-2="AlertWatcherModule"><line style="stroke:#181818;stroke-width:1;" x1="561.6357" x2="603.6357" y1="618.6875" y2="618.6875"/><line style="stroke:#181818;stroke-width:1;" x1="603.6357" x2="603.6357" y1="618.6875" y2="631.6875"/><line style="stroke:#181818;stroke-width:1;" x1="562.6357" x2="603.6357" y1="631.6875" y2="631.6875"/><polygon fill="#181818" points="572.6357,627.6875,562.6357,631.6875,572.6357,635.6875,568.6357,631.6875" style="stroke:#181818;stroke-width:1;"/><text fill="#000000" font-family="sans-serif" font-size="13" lengthAdjust="spacing" textLength="157.9233" x="568.6357" y="613.6216">_parse_falco_log_entry()</text></g><path d="M20,646.6875 L89.4512,646.6875 L89.4512,653.8203 L79.4512,663.8203 L20,663.8203 L20,646.6875" fill="#EEEEEE" style="stroke:#000000;stroke-width:1.5;"/><rect fill="none" height="172.6641" style="stroke:#000000;stroke-width:1.5;" width="744.4346" x="20" y="646.6875"/><text fill="#000000" font-family="sans-serif" font-size="13" font-weight="bold" lengthAdjust="spacing" textLength="24.4512" x="35" y="659.7544">opt</text><text fill="#000000" font-family="sans-serif" font-size="11" font-weight="bold" lengthAdjust="spacing" textLength="111.187" x="104.4512" y="658.8979">[Valid Falco alert]</text><g class="message" data-participant-1="AlertWatcherModule" data-participant-2="AlertWatcherModule"><line style="stroke:#181818;stroke-width:1;" x1="561.6357" x2="603.6357" y1="684.9531" y2="684.9531"/><line style="stroke:#181818;stroke-width:1;" x1="603.6357" x2="603.6357" y1="684.9531" y2="697.9531"/><line style="stroke:#181818;stroke-width:1;" x1="562.6357" x2="603.6357" y1="697.9531" y2="697.9531"/><polygon fill="#181818" points="572.6357,693.9531,562.6357,697.9531,572.6357,701.9531,568.6357,697.9531" style="stroke:#181818;stroke-width:1;"/><text fill="#000000" font-family="sans-serif" font-size="13" lengthAdjust="spacing" textLength="173.7988" x="568.6357" y="679.8872">_format_alert_for_display()</text></g><g class="message" data-participant-1="AlertWatcherModule" data-participant-2="AlertWatcherModule"><line style="stroke:#181818;stroke-width:1;" x1="561.6357" x2="603.6357" y1="727.0859" y2="727.0859"/><line style="stroke:#181818;stroke-width:1;" x1="603.6357" x2="603.6357" y1="727.0859" y2="740.0859"/><line style="stroke:#181818;stroke-width:1;" x1="562.6357" x2="603.6357" y1="740.0859" y2="740.0859"/><polygon fill="#181818" points="572.6357,736.0859,562.6357,740.0859,572.6357,744.0859,568.6357,740.0859" style="stroke:#181818;stroke-width:1;"/><text fill="#000000" font-family="sans-serif" font-size="13" lengthAdjust="spacing" textLength="149.3223" x="568.6357" y="722.02">add alert to display list</text></g><g class="message" data-participant-1="AlertWatcherModule" data-participant-2="AlertWatcherModule"><line style="stroke:#181818;stroke-width:1;" x1="561.6357" x2="603.6357" y1="769.2188" y2="769.2188"/><line style="stroke:#181818;stroke-width:1;" x1="603.6357" x2="603.6357" y1="769.2188" y2="782.2188"/><line style="stroke:#181818;stroke-width:1;" x1="562.6357" x2="603.6357" y1="782.2188" y2="782.2188"/><polygon fill="#181818" points="572.6357,778.2188,562.6357,782.2188,572.6357,786.2188,568.6357,782.2188" style="stroke:#181818;stroke-width:1;"/><text fill="#000000" font-family="sans-serif" font-size="13" lengthAdjust="spacing" textLength="138.0234" x="568.6357" y="764.1528">update_live_display()</text></g><g class="message" data-participant-1="AlertWatcherModule" data-participant-2="User"><polygon fill="#181818" points="59.9551,807.3516,49.9551,811.3516,59.9551,815.3516,55.9551,811.3516" style="stroke:#181818;stroke-width:1;"/><line style="stroke:#181818;stroke-width:1;" x1="53.9551" x2="550.6357" y1="811.3516" y2="811.3516"/><text fill="#000000" font-family="sans-serif" font-size="13" lengthAdjust="spacing" textLength="240.5571" x="65.9551" y="806.2856">(Live display updates with new alert)</text></g><g class="message" data-participant-1="User" data-participant-2="AlertWatcherModule"><polygon fill="#181818" points="539.6357,850.4844,549.6357,854.4844,539.6357,858.4844,543.6357,854.4844" style="stroke:#181818;stroke-width:1;"/><line style="stroke:#181818;stroke-width:1;" x1="48.9551" x2="545.6357" y1="854.4844" y2="854.4844"/><text fill="#000000" font-family="sans-serif" font-size="13" lengthAdjust="spacing" textLength="53.2441" x="55.9551" y="849.4185">(Ctrl+C)</text></g><g class="message" data-participant-1="AlertWatcherModule" data-participant-2="KubernetesAPIServer"><polygon fill="#181818" points="1091.0522,879.6172,1101.0522,883.6172,1091.0522,887.6172,1095.0522,883.6172" style="stroke:#181818;stroke-width:1;"/><line style="stroke:#181818;stroke-width:1;" x1="561.6357" x2="1097.0522" y1="883.6172" y2="883.6172"/><text fill="#000000" font-family="sans-serif" font-size="13" lengthAdjust="spacing" textLength="102.0005" x="568.6357" y="878.5513">stop log stream</text></g><g class="message" data-participant-1="AlertWatcherModule" data-participant-2="User"><polygon fill="#181818" points="59.9551,908.75,49.9551,912.75,59.9551,916.75,55.9551,912.75" style="stroke:#181818;stroke-width:1;"/><line style="stroke:#181818;stroke-width:1;" x1="53.9551" x2="550.6357" y1="912.75" y2="912.75"/><text fill="#000000" font-family="sans-serif" font-size="13" lengthAdjust="spacing" textLength="160.3037" x="65.9551" y="907.6841">"Alert watcher stopped."</text></g><g class="message" data-participant-1="AlertWatcherModule" data-participant-2="K8sHardenerCLI"><line style="stroke:#181818;stroke-width:1;" x1="331.3716" x2="341.3716" y1="941.8828" y2="937.8828"/><line style="stroke:#181818;stroke-width:1;" x1="331.3716" x2="341.3716" y1="941.8828" y2="945.8828"/><line style="stroke:#181818;stroke-width:1;stroke-dasharray:2.0,2.0;" x1="330.3716" x2="555.6357" y1="941.8828" y2="941.8828"/><text fill="#000000" font-family="sans-serif" font-size="13" lengthAdjust="spacing" textLength="192.2642" x="347.3716" y="936.8169">run_alert_watcher() complete</text></g><!--SRC=[dLNRRXCn47tVhnZjKoAQIBnL4QbK1H0LBQfKGHyAijprDB5mRCkUJSGFy05y8b_2UBqikMmeoqEqMQ_dp9cPSsnPaGlmCM8el0oaA-sb9NX_7j_9eD1YM5nVxNswD1ZeNbArmd3ZL6rmFx9-n62HC5xUNjrXs31oaV1XSd40EuCFSgENaX3MQElusPPNba8TjRFmcY4gudyb_Fp-0yecBRHvoqBojqsAF61QxB-dfCU4Pn1gAsHQ5zlyOIJ3Cex_mFPKMHoldO8NIoJnzJmAwRMeZ4PBet5HE4zSyXgZbnM2TGG-k8rMg0g0VlJKkHcKRonn1sd5KLtybZSYl9McSg1ZAibgkvoLZDMLqGmM8FV_1DcdX33fS7cxmdq0jEfKzJtZde7HaKG7g8HtQjIzpW_odO6HZsZkq63IubnwdxViJADFL3rh9qjyo5rY7WstByLEXRs2JPEwgGrfpsLoM8GdLzjdnzI5TFdQm2da-i1P178GAQ1SWt5BtX3S-d-dnXacBuTDhANQhBDUc5zewJQ6YDFf56u3nWWB2kR58jDrVbeEqW3Nfmuq8BZS4J_dEzpFe7AMf6QxvkKp9cICsyxv8C1d950OvppShpJpo1rD1Kch6c_fv9bGUshiDKGkhuBSfjcmM2nUd1nwNwZ2oYdiWWV52Zv78ugc3QbNWe-Dy8qF3e2anq_IQBKxAbuV1C-JNajgppr-4Kf7RsJEC0H9AfKP96sq88sn1kBKNl5eXT4R_2SkMRgZQzxVfSqO4RQQLc1ncuabbEI1z7lEwxylfpw6e-o1yH3b9xCq0iYI_BiDyxNMNa9Dg4TrocgJY-ChzFWc6xEbrdm84UwMtdEXxJPc3_KN]--></g></svg>