<svg xmlns="http://www.w3.org/2000/svg" xmlns:xlink="http://www.w3.org/1999/xlink" contentStyleType="text/css" data-diagram-type="SEQUENCE" height="998px" preserveAspectRatio="none" style="width:1339px;height:998px;background:#FFFFFF;" version="1.1" viewBox="0 0 1339 998" width="1339px" zoomAndPan="magnify"><defs/><g><g><title>User</title><rect fill="#FFFFFF" height="29.1328" style="stroke:#181818;stroke-width:1;" width="10" x="53.9551" y="252.0938"/></g><g><title>K8sHardenerCLI</title><rect fill="#FFFFFF" height="772.1875" style="stroke:#181818;stroke-width:1;" width="10" x="421.8394" y="127.5625"/></g><g><title>ConfigurationBackuperModule</title><rect fill="#FFFFFF" height="743.0547" style="stroke:#181818;stroke-width:1;" width="10" x="608.1689" y="156.6953"/></g><g><title>FileSystem</title><rect fill="#FFFFFF" height="29.1328" style="stroke:#181818;stroke-width:1;" width="10" x="1101.0474" y="317.3594"/></g><g><title>KubernetesAPIServer</title><rect fill="#FFFFFF" height="29.1328" style="stroke:#181818;stroke-width:1;" width="10" x="1237.4985" y="500.1563"/></g><rect fill="none" height="75.3984" style="stroke:#000000;stroke-width:1.5;" width="706.1533" x="30" y="213.8281"/><rect fill="none" height="409.7266" style="stroke:#000000;stroke-width:1.5;" width="1323.624" x="10" y="432.7578"/><rect fill="none" height="249.0625" style="stroke:#000000;stroke-width:1.5;" width="1141.373" x="20" y="586.4219"/><rect fill="none" height="46.2656" style="stroke:#000000;stroke-width:1.5;" width="706.1533" x="30" y="782.2188"/><g><title>User</title><rect fill="#000000" fill-opacity="0.00000" height="836.4531" width="8" x="54.9551" y="81.2969"/><line style="stroke:#181818;stroke-width:0.5;stroke-dasharray:5.0,5.0;" x1="58" x2="58" y1="81.2969" y2="917.75"/></g><g><title>K8sHardenerCLI</title><rect fill="#000000" fill-opacity="0.00000" height="836.4531" width="8" x="422.8394" y="81.2969"/><line style="stroke:#181818;stroke-width:0.5;stroke-dasharray:5.0,5.0;" x1="426.4941" x2="426.4941" y1="81.2969" y2="917.75"/></g><g><title>ConfigurationBackuperModule</title><rect fill="#000000" fill-opacity="0.00000" height="836.4531" width="8" x="609.1689" y="81.2969"/><line style="stroke:#181818;stroke-width:0.5;stroke-dasharray:5.0,5.0;" x1="612.1846" x2="612.1846" y1="81.2969" y2="917.75"/></g><g><title>FileSystem</title><rect fill="#000000" fill-opacity="0.00000" height="836.4531" width="8" x="1102.0474" y="81.2969"/><line style="stroke:#181818;stroke-width:0.5;stroke-dasharray:5.0,5.0;" x1="1105.7217" x2="1105.7217" y1="81.2969" y2="917.75"/></g><g><title>KubernetesAPIServer</title><rect fill="#000000" fill-opacity="0.00000" height="836.4531" width="8" x="1238.4985" y="81.2969"/><line style="stroke:#181818;stroke-width:0.5;stroke-dasharray:5.0,5.0;" x1="1242.373" x2="1242.373" y1="81.2969" y2="917.75"/></g><g class="participant participant-head" data-participant="User"><text fill="#000000" font-family="sans-serif" font-size="14" lengthAdjust="spacing" textLength="31.9102" x="40" y="77.9951">User</text><ellipse cx="58.9551" cy="13.5" fill="#E2E2F0" rx="8" ry="8" style="stroke:#181818;stroke-width:0.5;"/><path d="M58.9551,21.5 L58.9551,48.5 M45.9551,29.5 L71.9551,29.5 M58.9551,48.5 L45.9551,63.5 M58.9551,48.5 L71.9551,63.5" fill="none" style="stroke:#181818;stroke-width:0.5;"/></g><g class="participant participant-tail" data-participant="User"><text fill="#000000" font-family="sans-serif" font-size="14" lengthAdjust="spacing" textLength="31.9102" x="40" y="929.7451">User</text><ellipse cx="58.9551" cy="941.5469" fill="#E2E2F0" rx="8" ry="8" style="stroke:#181818;stroke-width:0.5;"/><path d="M58.9551,949.5469 L58.9551,976.5469 M45.9551,957.5469 L71.9551,957.5469 M58.9551,976.5469 L45.9551,991.5469 M58.9551,976.5469 L71.9551,991.5469" fill="none" style="stroke:#181818;stroke-width:0.5;"/></g><g class="participant participant-head" data-participant="K8sHardenerCLI"><rect fill="#E2E2F0" height="30.2969" rx="2.5" ry="2.5" style="stroke:#181818;stroke-width:0.5;" width="126.6904" x="363.4941" y="50"/><text fill="#000000" font-family="sans-serif" font-size="14" lengthAdjust="spacing" textLength="112.6904" x="370.4941" y="69.9951">K8sHardenerCLI</text></g><g class="participant participant-tail" data-participant="K8sHardenerCLI"><rect fill="#E2E2F0" height="30.2969" rx="2.5" ry="2.5" style="stroke:#181818;stroke-width:0.5;" width="126.6904" x="363.4941" y="916.75"/><text fill="#000000" font-family="sans-serif" font-size="14" lengthAdjust="spacing" textLength="112.6904" x="370.4941" y="936.7451">K8sHardenerCLI</text></g><g class="participant participant-head" data-participant="ConfigurationBackuperModule"><rect fill="#E2E2F0" height="30.2969" rx="2.5" ry="2.5" style="stroke:#181818;stroke-width:0.5;" width="225.9688" x="500.1846" y="50"/><text fill="#000000" font-family="sans-serif" font-size="14" lengthAdjust="spacing" textLength="211.9688" x="507.1846" y="69.9951">ConfigurationBackuperModule</text></g><g class="participant participant-tail" data-participant="ConfigurationBackuperModule"><rect fill="#E2E2F0" height="30.2969" rx="2.5" ry="2.5" style="stroke:#181818;stroke-width:0.5;" width="225.9688" x="500.1846" y="916.75"/><text fill="#000000" font-family="sans-serif" font-size="14" lengthAdjust="spacing" textLength="211.9688" x="507.1846" y="936.7451">ConfigurationBackuperModule</text></g><g class="participant participant-head" data-participant="FileSystem"><rect fill="#E2E2F0" height="30.2969" rx="2.5" ry="2.5" style="stroke:#181818;stroke-width:0.5;" width="90.6514" x="1060.7217" y="50"/><text fill="#000000" font-family="sans-serif" font-size="14" lengthAdjust="spacing" textLength="76.6514" x="1067.7217" y="69.9951">FileSystem</text></g><g class="participant participant-tail" data-participant="FileSystem"><rect fill="#E2E2F0" height="30.2969" rx="2.5" ry="2.5" style="stroke:#181818;stroke-width:0.5;" width="90.6514" x="1060.7217" y="916.75"/><text fill="#000000" font-family="sans-serif" font-size="14" lengthAdjust="spacing" textLength="76.6514" x="1067.7217" y="936.7451">FileSystem</text></g><g class="participant participant-head" data-participant="KubernetesAPIServer"><rect fill="#E2E2F0" height="30.2969" rx="2.5" ry="2.5" style="stroke:#181818;stroke-width:0.5;" width="162.251" x="1161.373" y="50"/><text fill="#000000" font-family="sans-serif" font-size="14" lengthAdjust="spacing" textLength="148.251" x="1168.373" y="69.9951">KubernetesAPIServer</text></g><g class="participant participant-tail" data-participant="KubernetesAPIServer"><rect fill="#E2E2F0" height="30.2969" rx="2.5" ry="2.5" style="stroke:#181818;stroke-width:0.5;" width="162.251" x="1161.373" y="916.75"/><text fill="#000000" font-family="sans-serif" font-size="14" lengthAdjust="spacing" textLength="148.251" x="1168.373" y="936.7451">KubernetesAPIServer</text></g><g><title>User</title><rect fill="#FFFFFF" height="29.1328" style="stroke:#181818;stroke-width:1;" width="10" x="53.9551" y="252.0938"/></g><g><title>K8sHardenerCLI</title><rect fill="#FFFFFF" height="772.1875" style="stroke:#181818;stroke-width:1;" width="10" x="421.8394" y="127.5625"/></g><g><title>ConfigurationBackuperModule</title><rect fill="#FFFFFF" height="743.0547" style="stroke:#181818;stroke-width:1;" width="10" x="608.1689" y="156.6953"/></g><g><title>FileSystem</title><rect fill="#FFFFFF" height="29.1328" style="stroke:#181818;stroke-width:1;" width="10" x="1101.0474" y="317.3594"/></g><g><title>KubernetesAPIServer</title><rect fill="#FFFFFF" height="29.1328" style="stroke:#181818;stroke-width:1;" width="10" x="1237.4985" y="500.1563"/></g><g class="message" data-participant-1="User" data-participant-2="K8sHardenerCLI"><polygon fill="#181818" points="409.8394,123.5625,419.8394,127.5625,409.8394,131.5625,413.8394,127.5625" style="stroke:#181818;stroke-width:1;"/><line style="stroke:#181818;stroke-width:1;" x1="58.9551" x2="415.8394" y1="127.5625" y2="127.5625"/><text fill="#000000" font-family="sans-serif" font-size="13" lengthAdjust="spacing" textLength="106.355" x="65.9551" y="107.3638">Navigate menus</text><text fill="#000000" font-family="sans-serif" font-size="13" lengthAdjust="spacing" textLength="343.8843" x="65.9551" y="122.4966">"Configuration Backups" &#8594; "Configuration Backuper"</text></g><g class="message" data-participant-1="K8sHardenerCLI" data-participant-2="ConfigurationBackuperModule"><polygon fill="#181818" points="596.1689,152.6953,606.1689,156.6953,596.1689,160.6953,600.1689,156.6953" style="stroke:#181818;stroke-width:1;"/><line style="stroke:#181818;stroke-width:1;" x1="431.8394" x2="602.1689" y1="156.6953" y2="156.6953"/><text fill="#000000" font-family="sans-serif" font-size="13" lengthAdjust="spacing" textLength="60.3027" x="438.8394" y="151.6294">run(args)</text></g><g class="message" data-participant-1="ConfigurationBackuperModule" data-participant-2="ConfigurationBackuperModule"><line style="stroke:#181818;stroke-width:1;" x1="618.1689" x2="660.1689" y1="185.8281" y2="185.8281"/><line style="stroke:#181818;stroke-width:1;" x1="660.1689" x2="660.1689" y1="185.8281" y2="198.8281"/><line style="stroke:#181818;stroke-width:1;" x1="619.1689" x2="660.1689" y1="198.8281" y2="198.8281"/><polygon fill="#181818" points="629.1689,194.8281,619.1689,198.8281,629.1689,202.8281,625.1689,198.8281" style="stroke:#181818;stroke-width:1;"/><text fill="#000000" font-family="sans-serif" font-size="13" lengthAdjust="spacing" textLength="179.918" x="625.1689" y="180.7622">determine backup_base_dir</text></g><path d="M30,213.8281 L99.4512,213.8281 L99.4512,220.9609 L89.4512,230.9609 L30,230.9609 L30,213.8281" fill="#EEEEEE" style="stroke:#000000;stroke-width:1.5;"/><rect fill="none" height="75.3984" style="stroke:#000000;stroke-width:1.5;" width="706.1533" x="30" y="213.8281"/><text fill="#000000" font-family="sans-serif" font-size="13" font-weight="bold" lengthAdjust="spacing" textLength="24.4512" x="45" y="226.895">opt</text><text fill="#000000" font-family="sans-serif" font-size="11" font-weight="bold" lengthAdjust="spacing" textLength="153.6616" x="114.4512" y="226.0386">[No output_dir provided]</text><g class="message" data-participant-1="ConfigurationBackuperModule" data-participant-2="User"><polygon fill="#181818" points="74.9551,248.0938,64.9551,252.0938,74.9551,256.0938,70.9551,252.0938" style="stroke:#181818;stroke-width:1;"/><line style="stroke:#181818;stroke-width:1;" x1="68.9551" x2="607.1689" y1="252.0938" y2="252.0938"/><text fill="#000000" font-family="sans-serif" font-size="13" lengthAdjust="spacing" textLength="258.9653" x="80.9551" y="247.0278">"Enter base directory to save backups:"</text></g><g class="message" data-participant-1="User" data-participant-2="ConfigurationBackuperModule"><polygon fill="#181818" points="596.1689,277.2266,606.1689,281.2266,596.1689,285.2266,600.1689,281.2266" style="stroke:#181818;stroke-width:1;"/><line style="stroke:#181818;stroke-width:1;stroke-dasharray:2.0,2.0;" x1="58.9551" x2="602.1689" y1="281.2266" y2="281.2266"/><text fill="#000000" font-family="sans-serif" font-size="13" lengthAdjust="spacing" textLength="108.583" x="65.9551" y="276.1606">backup_base_dir</text></g><g class="message" data-participant-1="ConfigurationBackuperModule" data-participant-2="FileSystem"><polygon fill="#181818" points="1089.0474,313.3594,1099.0474,317.3594,1089.0474,321.3594,1093.0474,317.3594" style="stroke:#181818;stroke-width:1;"/><line style="stroke:#181818;stroke-width:1;" x1="618.1689" x2="1095.0474" y1="317.3594" y2="317.3594"/><text fill="#000000" font-family="sans-serif" font-size="13" lengthAdjust="spacing" textLength="299.5586" x="625.1689" y="312.2935">os.makedirs(backup_base_dir, exist_ok=True)</text></g><g class="message" data-participant-1="FileSystem" data-participant-2="ConfigurationBackuperModule"><polygon fill="#181818" points="629.1689,342.4922,619.1689,346.4922,629.1689,350.4922,625.1689,346.4922" style="stroke:#181818;stroke-width:1;"/><line style="stroke:#181818;stroke-width:1;stroke-dasharray:2.0,2.0;" x1="623.1689" x2="1105.0474" y1="346.4922" y2="346.4922"/><text fill="#000000" font-family="sans-serif" font-size="13" lengthAdjust="spacing" textLength="99.8296" x="635.1689" y="341.4263">directory ready</text></g><g class="message" data-participant-1="ConfigurationBackuperModule" data-participant-2="ConfigurationBackuperModule"><line style="stroke:#181818;stroke-width:1;" x1="618.1689" x2="660.1689" y1="375.625" y2="375.625"/><line style="stroke:#181818;stroke-width:1;" x1="660.1689" x2="660.1689" y1="375.625" y2="388.625"/><line style="stroke:#181818;stroke-width:1;" x1="619.1689" x2="660.1689" y1="388.625" y2="388.625"/><polygon fill="#181818" points="629.1689,384.625,619.1689,388.625,629.1689,392.625,625.1689,388.625" style="stroke:#181818;stroke-width:1;"/><text fill="#000000" font-family="sans-serif" font-size="13" lengthAdjust="spacing" textLength="124.6997" x="625.1689" y="370.5591">_init_kube_clients()</text></g><g class="message" data-participant-1="ConfigurationBackuperModule" data-participant-2="User"><polygon fill="#181818" points="69.9551,413.7578,59.9551,417.7578,69.9551,421.7578,65.9551,417.7578" style="stroke:#181818;stroke-width:1;"/><line style="stroke:#181818;stroke-width:1;" x1="63.9551" x2="607.1689" y1="417.7578" y2="417.7578"/><text fill="#000000" font-family="sans-serif" font-size="13" lengthAdjust="spacing" textLength="351.0698" x="75.9551" y="412.6919">"Starting Kubernetes configuration backup process..."</text></g><path d="M10,432.7578 L86.624,432.7578 L86.624,439.8906 L76.624,449.8906 L10,449.8906 L10,432.7578" fill="#EEEEEE" style="stroke:#000000;stroke-width:1.5;"/><rect fill="none" height="409.7266" style="stroke:#000000;stroke-width:1.5;" width="1323.624" x="10" y="432.7578"/><text fill="#000000" font-family="sans-serif" font-size="13" font-weight="bold" lengthAdjust="spacing" textLength="31.624" x="25" y="445.8247">loop</text><text fill="#000000" font-family="sans-serif" font-size="11" font-weight="bold" lengthAdjust="spacing" textLength="221.4341" x="101.624" y="444.9683">[For each resource kind to back up]</text><g class="message" data-participant-1="ConfigurationBackuperModule" data-participant-2="User"><polygon fill="#181818" points="69.9551,467.0234,59.9551,471.0234,69.9551,475.0234,65.9551,471.0234" style="stroke:#181818;stroke-width:1;"/><line style="stroke:#181818;stroke-width:1;" x1="63.9551" x2="607.1689" y1="471.0234" y2="471.0234"/><text fill="#000000" font-family="sans-serif" font-size="13" lengthAdjust="spacing" textLength="145.5645" x="75.9551" y="465.9575">"Backing up &lt;Kind&gt;s"</text></g><g class="message" data-participant-1="ConfigurationBackuperModule" data-participant-2="KubernetesAPIServer"><polygon fill="#181818" points="1225.4985,496.1563,1235.4985,500.1563,1225.4985,504.1563,1229.4985,500.1563" style="stroke:#181818;stroke-width:1;"/><line style="stroke:#181818;stroke-width:1;" x1="618.1689" x2="1231.4985" y1="500.1563" y2="500.1563"/><text fill="#000000" font-family="sans-serif" font-size="13" lengthAdjust="spacing" textLength="393.25" x="625.1689" y="495.0903">list_&lt;kind&gt;_for_all_namespaces() / list_&lt;cluster_scoped&gt;_()</text></g><g class="message" data-participant-1="KubernetesAPIServer" data-participant-2="ConfigurationBackuperModule"><polygon fill="#181818" points="629.1689,525.2891,619.1689,529.2891,629.1689,533.2891,625.1689,529.2891" style="stroke:#181818;stroke-width:1;"/><line style="stroke:#181818;stroke-width:1;stroke-dasharray:2.0,2.0;" x1="623.1689" x2="1241.4985" y1="529.2891" y2="529.2891"/><text fill="#000000" font-family="sans-serif" font-size="13" lengthAdjust="spacing" textLength="90.1685" x="635.1689" y="524.2231">[resource list]</text></g><g class="message" data-participant-1="ConfigurationBackuperModule" data-participant-2="ConfigurationBackuperModule"><line style="stroke:#181818;stroke-width:1;" x1="618.1689" x2="660.1689" y1="558.4219" y2="558.4219"/><line style="stroke:#181818;stroke-width:1;" x1="660.1689" x2="660.1689" y1="558.4219" y2="571.4219"/><line style="stroke:#181818;stroke-width:1;" x1="619.1689" x2="660.1689" y1="571.4219" y2="571.4219"/><polygon fill="#181818" points="629.1689,567.4219,619.1689,571.4219,629.1689,575.4219,625.1689,571.4219" style="stroke:#181818;stroke-width:1;"/><text fill="#000000" font-family="sans-serif" font-size="13" lengthAdjust="spacing" textLength="196.9043" x="625.1689" y="553.356">if resources found, print count</text></g><path d="M20,586.4219 L96.624,586.4219 L96.624,593.5547 L86.624,603.5547 L20,603.5547 L20,586.4219" fill="#EEEEEE" style="stroke:#000000;stroke-width:1.5;"/><rect fill="none" height="249.0625" style="stroke:#000000;stroke-width:1.5;" width="1141.373" x="20" y="586.4219"/><text fill="#000000" font-family="sans-serif" font-size="13" font-weight="bold" lengthAdjust="spacing" textLength="31.624" x="35" y="599.4888">loop</text><text fill="#000000" font-family="sans-serif" font-size="11" font-weight="bold" lengthAdjust="spacing" textLength="192.0596" x="111.624" y="598.6323">[For each resource item in list]</text><g class="message" data-participant-1="ConfigurationBackuperModule" data-participant-2="ConfigurationBackuperModule"><line style="stroke:#181818;stroke-width:1;" x1="618.1689" x2="660.1689" y1="624.6875" y2="624.6875"/><line style="stroke:#181818;stroke-width:1;" x1="660.1689" x2="660.1689" y1="624.6875" y2="637.6875"/><line style="stroke:#181818;stroke-width:1;" x1="619.1689" x2="660.1689" y1="637.6875" y2="637.6875"/><polygon fill="#181818" points="629.1689,633.6875,619.1689,637.6875,629.1689,641.6875,625.1689,637.6875" style="stroke:#181818;stroke-width:1;"/><text fill="#000000" font-family="sans-serif" font-size="13" lengthAdjust="spacing" textLength="458.8784" x="625.1689" y="619.6216">_save_resource_to_yaml(item, backup_base_dir, kind, is_namespaced)</text></g><g class="message" data-participant-1="ConfigurationBackuperModule" data-participant-2="ConfigurationBackuperModule"><line style="stroke:#181818;stroke-width:1;" x1="618.1689" x2="660.1689" y1="666.8203" y2="666.8203"/><line style="stroke:#181818;stroke-width:1;" x1="660.1689" x2="660.1689" y1="666.8203" y2="679.8203"/><line style="stroke:#181818;stroke-width:1;" x1="619.1689" x2="660.1689" y1="679.8203" y2="679.8203"/><polygon fill="#181818" points="629.1689,675.8203,619.1689,679.8203,629.1689,683.8203,625.1689,679.8203" style="stroke:#181818;stroke-width:1;"/><text fill="#000000" font-family="sans-serif" font-size="13" lengthAdjust="spacing" textLength="174.8843" x="625.1689" y="661.7544">_clean_resource_dict(item)</text></g><g class="message" data-participant-1="ConfigurationBackuperModule" data-participant-2="FileSystem"><polygon fill="#181818" points="1094.0474,704.9531,1104.0474,708.9531,1094.0474,712.9531,1098.0474,708.9531" style="stroke:#181818;stroke-width:1;"/><line style="stroke:#181818;stroke-width:1;" x1="618.1689" x2="1100.0474" y1="708.9531" y2="708.9531"/><text fill="#000000" font-family="sans-serif" font-size="13" lengthAdjust="spacing" textLength="182.9014" x="625.1689" y="703.8872">create subdirectory for item</text></g><g class="message" data-participant-1="ConfigurationBackuperModule" data-participant-2="FileSystem"><polygon fill="#181818" points="1094.0474,734.0859,1104.0474,738.0859,1094.0474,742.0859,1098.0474,738.0859" style="stroke:#181818;stroke-width:1;"/><line style="stroke:#181818;stroke-width:1;" x1="618.1689" x2="1100.0474" y1="738.0859" y2="738.0859"/><text fill="#000000" font-family="sans-serif" font-size="13" lengthAdjust="spacing" textLength="151.5503" x="625.1689" y="733.02">write YAML file for item</text></g><g class="message" data-participant-1="ConfigurationBackuperModule" data-participant-2="User"><polygon fill="#181818" points="69.9551,763.2188,59.9551,767.2188,69.9551,771.2188,65.9551,767.2188" style="stroke:#181818;stroke-width:1;"/><line style="stroke:#181818;stroke-width:1;" x1="63.9551" x2="607.1689" y1="767.2188" y2="767.2188"/><text fill="#000000" font-family="sans-serif" font-size="13" lengthAdjust="spacing" textLength="415.5874" x="75.9551" y="762.1528">"Backed up: &lt;Kind&gt;[/&lt;Namespace&gt;]/&lt;Name&gt; to &lt;file_path&gt;"</text></g><path d="M30,782.2188 L99.4512,782.2188 L99.4512,789.3516 L89.4512,799.3516 L30,799.3516 L30,782.2188" fill="#EEEEEE" style="stroke:#000000;stroke-width:1.5;"/><rect fill="none" height="46.2656" style="stroke:#000000;stroke-width:1.5;" width="706.1533" x="30" y="782.2188"/><text fill="#000000" font-family="sans-serif" font-size="13" font-weight="bold" lengthAdjust="spacing" textLength="24.4512" x="45" y="795.2856">opt</text><text fill="#000000" font-family="sans-serif" font-size="11" font-weight="bold" lengthAdjust="spacing" textLength="104.1938" x="114.4512" y="794.4292">[Kind == Secret]</text><g class="message" data-participant-1="ConfigurationBackuperModule" data-participant-2="User"><polygon fill="#181818" points="69.9551,816.4844,59.9551,820.4844,69.9551,824.4844,65.9551,820.4844" style="stroke:#181818;stroke-width:1;"/><line style="stroke:#181818;stroke-width:1;" x1="63.9551" x2="607.1689" y1="820.4844" y2="820.4844"/><text fill="#000000" font-family="sans-serif" font-size="13" lengthAdjust="spacing" textLength="248.6313" x="75.9551" y="815.4185">"Warning: sensitive content in Secret"</text></g><g class="message" data-participant-1="ConfigurationBackuperModule" data-participant-2="User"><polygon fill="#181818" points="69.9551,866.6172,59.9551,870.6172,69.9551,874.6172,65.9551,870.6172" style="stroke:#181818;stroke-width:1;"/><line style="stroke:#181818;stroke-width:1;" x1="63.9551" x2="607.1689" y1="870.6172" y2="870.6172"/><text fill="#000000" font-family="sans-serif" font-size="13" lengthAdjust="spacing" textLength="342.2466" x="75.9551" y="865.5513">"Kubernetes configuration backup process finished."</text></g><g class="message" data-participant-1="ConfigurationBackuperModule" data-participant-2="K8sHardenerCLI"><line style="stroke:#181818;stroke-width:1;" x1="427.8394" x2="437.8394" y1="899.75" y2="895.75"/><line style="stroke:#181818;stroke-width:1;" x1="427.8394" x2="437.8394" y1="899.75" y2="903.75"/><line style="stroke:#181818;stroke-width:1;stroke-dasharray:2.0,2.0;" x1="426.8394" x2="612.1689" y1="899.75" y2="899.75"/><text fill="#000000" font-family="sans-serif" font-size="13" lengthAdjust="spacing" textLength="96.8208" x="443.8394" y="894.6841">run() complete</text></g><!--SRC=[hLRRRjf047ttLupy118XhvL5aDAeKQDSL8bMLPL4gyKxa1NshhMxfkK7-W7zn7v9Pqp0Dg7WDEK5l9TpvdBc69a6w-2BHnSLqWMTwaAQ0DVl_4Vf51fq5pTNhQqBQsPwNZePj3NlPRee2tItLfKPjivTwWmdAnymRoENKtG60_hpJrSJT4jYZfWVJiOxj0dSoQMUou2GeodzWubRvB1czp7y_laBzkwXYoEP1hraa9saelOpyn_8BG5NcfvqSz-l4G_L8ZgmUPHBKO5ShWt2jDeHK-bHAEqYMmIuis3BK9I1Lw1mTgaLgWZeSuIK2vr0_C4GF30c40Ao1bOGB7Yvt33w9Au0jxbM6k6LTREEPR0RDzzKs4P3euwMgPPH0jOFSxb0WlEz7Vm1u0_jWx2Biy-kn4QF6ZgiVnwFlwwBGwbMKIFs1kARcYoqqK4iQ214ccaqmVVwKRS6JWAFb9atnWdIblxNzM5nfEZzS3YCeoYpje1BcdVAvOdoyhPqAS926yNTvojG5g_G4Mzm54GqkYQKiO-xtDxZ0GbatBuHnp8MC-k4p39XP8w-a9H1hm-dpqVIhAJQE-5JMo0TfgArXBhFOVZ0dlNZChZVLed97tTblDVDEbJW8AUURNlZOMPBemRKHqtccT93M1FyfPUQnQrD5Mrrxgt12FO4iS4NmOgLpBCUympWnH1o-mQWVTqvrVy_OQGPIbF7eNGQgY0wmpUD9AMPfkxvSbgFEMckgjw_u7rtT1E-dT_Um8oMNutL62TKD4t9ypZTduxkDeKSFwuVnZog8wOHXGnFutXBmgy6lWPdPp11oh5MGFSOlafdQAGJy6Yy9faZ6qiWTs9PhM5hIdRmpNSNDtycwUXQL4oZ_HCgCg-3m2VZb_yT-7NT9_Yyo8YewT-7tjhDsMu1_W40]--></g></svg>