<svg xmlns="http://www.w3.org/2000/svg" xmlns:xlink="http://www.w3.org/1999/xlink" contentStyleType="text/css" data-diagram-type="SEQUENCE" height="809px" preserveAspectRatio="none" style="width:908px;height:809px;background:#FFFFFF;" version="1.1" viewBox="0 0 908 809" width="908px" zoomAndPan="magnify"><defs/><g><g><title>User</title><rect fill="#FFFFFF" height="29.1328" style="stroke:#181818;stroke-width:1;" width="10" x="33.9551" y="185.8281"/></g><g><title>K8sHardenerCLI</title><rect fill="#FFFFFF" height="583.5234" style="stroke:#181818;stroke-width:1;" width="10" x="422.1201" y="127.5625"/></g><g><title>DeploymentYAMLCheckerModule</title><rect fill="#FFFFFF" height="554.3906" style="stroke:#181818;stroke-width:1;" width="10" x="618.4575" y="156.6953"/></g><g><title>FileSystem</title><rect fill="#FFFFFF" height="29.1328" style="stroke:#181818;stroke-width:1;" width="10" x="842.4385" y="244.0938"/></g><g><title>FileSystem</title><rect fill="#FFFFFF" height="58.2656" style="stroke:#181818;stroke-width:1;" width="10" x="842.4385" y="302.3594"/></g><g><title>FileSystem</title><rect fill="#FFFFFF" height="29.1328" style="stroke:#181818;stroke-width:1;" width="10" x="842.4385" y="485.1563"/></g><rect fill="none" height="217.9297" style="stroke:#000000;stroke-width:1.5;" width="892.7642" x="10" y="375.625"/><rect fill="none" height="46.2656" style="stroke:#000000;stroke-width:1.5;" width="746.4497" x="10" y="607.5547"/><g><title>User</title><rect fill="#000000" fill-opacity="0.00000" height="647.7891" width="8" x="34.9551" y="81.2969"/><line style="stroke:#181818;stroke-width:0.5;stroke-dasharray:5.0,5.0;" x1="38" x2="38" y1="81.2969" y2="729.0859"/></g><g><title>K8sHardenerCLI</title><rect fill="#000000" fill-opacity="0.00000" height="647.7891" width="8" x="423.1201" y="81.2969"/><line style="stroke:#181818;stroke-width:0.5;stroke-dasharray:5.0,5.0;" x1="426.7749" x2="426.7749" y1="81.2969" y2="729.0859"/></g><g><title>DeploymentYAMLCheckerModule</title><rect fill="#000000" fill-opacity="0.00000" height="647.7891" width="8" x="619.4575" y="81.2969"/><line style="stroke:#181818;stroke-width:0.5;stroke-dasharray:5.0,5.0;" x1="622.4653" x2="622.4653" y1="81.2969" y2="729.0859"/></g><g><title>FileSystem</title><rect fill="#000000" fill-opacity="0.00000" height="647.7891" width="8" x="843.4385" y="81.2969"/><line style="stroke:#181818;stroke-width:0.5;stroke-dasharray:5.0,5.0;" x1="847.1128" x2="847.1128" y1="81.2969" y2="729.0859"/></g><g class="participant participant-head" data-participant="User"><text fill="#000000" font-family="sans-serif" font-size="14" lengthAdjust="spacing" textLength="31.9102" x="20" y="77.9951">User</text><ellipse cx="38.9551" cy="13.5" fill="#E2E2F0" rx="8" ry="8" style="stroke:#181818;stroke-width:0.5;"/><path d="M38.9551,21.5 L38.9551,48.5 M25.9551,29.5 L51.9551,29.5 M38.9551,48.5 L25.9551,63.5 M38.9551,48.5 L51.9551,63.5" fill="none" style="stroke:#181818;stroke-width:0.5;"/></g><g class="participant participant-tail" data-participant="User"><text fill="#000000" font-family="sans-serif" font-size="14" lengthAdjust="spacing" textLength="31.9102" x="20" y="741.0811">User</text><ellipse cx="38.9551" cy="752.8828" fill="#E2E2F0" rx="8" ry="8" style="stroke:#181818;stroke-width:0.5;"/><path d="M38.9551,760.8828 L38.9551,787.8828 M25.9551,768.8828 L51.9551,768.8828 M38.9551,787.8828 L25.9551,802.8828 M38.9551,787.8828 L51.9551,802.8828" fill="none" style="stroke:#181818;stroke-width:0.5;"/></g><g class="participant participant-head" data-participant="K8sHardenerCLI"><rect fill="#E2E2F0" height="30.2969" rx="2.5" ry="2.5" style="stroke:#181818;stroke-width:0.5;" width="126.6904" x="363.7749" y="50"/><text fill="#000000" font-family="sans-serif" font-size="14" lengthAdjust="spacing" textLength="112.6904" x="370.7749" y="69.9951">K8sHardenerCLI</text></g><g class="participant participant-tail" data-participant="K8sHardenerCLI"><rect fill="#E2E2F0" height="30.2969" rx="2.5" ry="2.5" style="stroke:#181818;stroke-width:0.5;" width="126.6904" x="363.7749" y="728.0859"/><text fill="#000000" font-family="sans-serif" font-size="14" lengthAdjust="spacing" textLength="112.6904" x="370.7749" y="748.0811">K8sHardenerCLI</text></g><g class="participant participant-head" data-participant="DeploymentYAMLCheckerModule"><rect fill="#E2E2F0" height="30.2969" rx="2.5" ry="2.5" style="stroke:#181818;stroke-width:0.5;" width="245.9844" x="500.4653" y="50"/><text fill="#000000" font-family="sans-serif" font-size="14" lengthAdjust="spacing" textLength="231.9844" x="507.4653" y="69.9951">DeploymentYAMLCheckerModule</text></g><g class="participant participant-tail" data-participant="DeploymentYAMLCheckerModule"><rect fill="#E2E2F0" height="30.2969" rx="2.5" ry="2.5" style="stroke:#181818;stroke-width:0.5;" width="245.9844" x="500.4653" y="728.0859"/><text fill="#000000" font-family="sans-serif" font-size="14" lengthAdjust="spacing" textLength="231.9844" x="507.4653" y="748.0811">DeploymentYAMLCheckerModule</text></g><g class="participant participant-head" data-participant="FileSystem"><rect fill="#E2E2F0" height="30.2969" rx="2.5" ry="2.5" style="stroke:#181818;stroke-width:0.5;" width="90.6514" x="802.1128" y="50"/><text fill="#000000" font-family="sans-serif" font-size="14" lengthAdjust="spacing" textLength="76.6514" x="809.1128" y="69.9951">FileSystem</text></g><g class="participant participant-tail" data-participant="FileSystem"><rect fill="#E2E2F0" height="30.2969" rx="2.5" ry="2.5" style="stroke:#181818;stroke-width:0.5;" width="90.6514" x="802.1128" y="728.0859"/><text fill="#000000" font-family="sans-serif" font-size="14" lengthAdjust="spacing" textLength="76.6514" x="809.1128" y="748.0811">FileSystem</text></g><g><title>User</title><rect fill="#FFFFFF" height="29.1328" style="stroke:#181818;stroke-width:1;" width="10" x="33.9551" y="185.8281"/></g><g><title>K8sHardenerCLI</title><rect fill="#FFFFFF" height="583.5234" style="stroke:#181818;stroke-width:1;" width="10" x="422.1201" y="127.5625"/></g><g><title>DeploymentYAMLCheckerModule</title><rect fill="#FFFFFF" height="554.3906" style="stroke:#181818;stroke-width:1;" width="10" x="618.4575" y="156.6953"/></g><g><title>FileSystem</title><rect fill="#FFFFFF" height="29.1328" style="stroke:#181818;stroke-width:1;" width="10" x="842.4385" y="244.0938"/></g><g><title>FileSystem</title><rect fill="#FFFFFF" height="58.2656" style="stroke:#181818;stroke-width:1;" width="10" x="842.4385" y="302.3594"/></g><g><title>FileSystem</title><rect fill="#FFFFFF" height="29.1328" style="stroke:#181818;stroke-width:1;" width="10" x="842.4385" y="485.1563"/></g><g class="message" data-participant-1="User" data-participant-2="K8sHardenerCLI"><polygon fill="#181818" points="410.1201,123.5625,420.1201,127.5625,410.1201,131.5625,414.1201,127.5625" style="stroke:#181818;stroke-width:1;"/><line style="stroke:#181818;stroke-width:1;" x1="38.9551" x2="416.1201" y1="127.5625" y2="127.5625"/><text fill="#000000" font-family="sans-serif" font-size="13" lengthAdjust="spacing" textLength="106.355" x="45.9551" y="107.3638">Navigate menus</text><text fill="#000000" font-family="sans-serif" font-size="13" lengthAdjust="spacing" textLength="364.165" x="45.9551" y="122.4966">"Image &amp; Supply Chain" &#8594; "Deployment YAML Checker"</text></g><g class="message" data-participant-1="K8sHardenerCLI" data-participant-2="DeploymentYAMLCheckerModule"><polygon fill="#181818" points="606.4575,152.6953,616.4575,156.6953,606.4575,160.6953,610.4575,156.6953" style="stroke:#181818;stroke-width:1;"/><line style="stroke:#181818;stroke-width:1;" x1="432.1201" x2="612.4575" y1="156.6953" y2="156.6953"/><text fill="#000000" font-family="sans-serif" font-size="13" lengthAdjust="spacing" textLength="31.9668" x="439.1201" y="151.6294">run()</text></g><g class="message" data-participant-1="DeploymentYAMLCheckerModule" data-participant-2="User"><polygon fill="#181818" points="54.9551,181.8281,44.9551,185.8281,54.9551,189.8281,50.9551,185.8281" style="stroke:#181818;stroke-width:1;"/><line style="stroke:#181818;stroke-width:1;" x1="48.9551" x2="617.4575" y1="185.8281" y2="185.8281"/><text fill="#000000" font-family="sans-serif" font-size="13" lengthAdjust="spacing" textLength="386.4644" x="60.9551" y="180.7622">"Enter directory containing Kubernetes YAML files to scan:"</text></g><g class="message" data-participant-1="User" data-participant-2="DeploymentYAMLCheckerModule"><polygon fill="#181818" points="606.4575,210.9609,616.4575,214.9609,606.4575,218.9609,610.4575,214.9609" style="stroke:#181818;stroke-width:1;"/><line style="stroke:#181818;stroke-width:1;stroke-dasharray:2.0,2.0;" x1="38.9551" x2="612.4575" y1="214.9609" y2="214.9609"/><text fill="#000000" font-family="sans-serif" font-size="13" lengthAdjust="spacing" textLength="104.6982" x="45.9551" y="209.895">target_directory</text></g><g class="message" data-participant-1="DeploymentYAMLCheckerModule" data-participant-2="FileSystem"><polygon fill="#181818" points="830.4385,240.0938,840.4385,244.0938,830.4385,248.0938,834.4385,244.0938" style="stroke:#181818;stroke-width:1;"/><line style="stroke:#181818;stroke-width:1;" x1="628.4575" x2="836.4385" y1="244.0938" y2="244.0938"/><text fill="#000000" font-family="sans-serif" font-size="13" lengthAdjust="spacing" textLength="194.981" x="635.4575" y="239.0278">os.path.isdir(target_directory)</text></g><g class="message" data-participant-1="FileSystem" data-participant-2="DeploymentYAMLCheckerModule"><polygon fill="#181818" points="639.4575,269.2266,629.4575,273.2266,639.4575,277.2266,635.4575,273.2266" style="stroke:#181818;stroke-width:1;"/><line style="stroke:#181818;stroke-width:1;stroke-dasharray:2.0,2.0;" x1="633.4575" x2="846.4385" y1="273.2266" y2="273.2266"/><text fill="#000000" font-family="sans-serif" font-size="13" lengthAdjust="spacing" textLength="26.6792" x="645.4575" y="268.1606">true</text></g><g class="message" data-participant-1="DeploymentYAMLCheckerModule" data-participant-2="FileSystem"><polygon fill="#181818" points="830.4385,298.3594,840.4385,302.3594,830.4385,306.3594,834.4385,302.3594" style="stroke:#181818;stroke-width:1;"/><line style="stroke:#181818;stroke-width:1;" x1="628.4575" x2="836.4385" y1="302.3594" y2="302.3594"/><text fill="#000000" font-family="sans-serif" font-size="13" lengthAdjust="spacing" textLength="163.4395" x="635.4575" y="297.2935">os.walk(target_directory)</text></g><g class="message" data-participant-1="FileSystem" data-participant-2="DeploymentYAMLCheckerModule"><polygon fill="#181818" points="639.4575,327.4922,629.4575,331.4922,639.4575,335.4922,635.4575,331.4922" style="stroke:#181818;stroke-width:1;"/><line style="stroke:#181818;stroke-width:1;stroke-dasharray:2.0,2.0;" x1="633.4575" x2="841.4385" y1="331.4922" y2="331.4922"/><text fill="#000000" font-family="sans-serif" font-size="13" lengthAdjust="spacing" textLength="100.1914" x="645.4575" y="326.4263">file_path1.yaml</text></g><g class="message" data-participant-1="FileSystem" data-participant-2="DeploymentYAMLCheckerModule"><polygon fill="#181818" points="639.4575,356.625,629.4575,360.625,639.4575,364.625,635.4575,360.625" style="stroke:#181818;stroke-width:1;"/><line style="stroke:#181818;stroke-width:1;stroke-dasharray:2.0,2.0;" x1="633.4575" x2="846.4385" y1="360.625" y2="360.625"/><text fill="#000000" font-family="sans-serif" font-size="13" lengthAdjust="spacing" textLength="92.2251" x="645.4575" y="355.5591">file_path2.yml</text></g><path d="M10,375.625 L86.624,375.625 L86.624,382.7578 L76.624,392.7578 L10,392.7578 L10,375.625" fill="#EEEEEE" style="stroke:#000000;stroke-width:1.5;"/><rect fill="none" height="217.9297" style="stroke:#000000;stroke-width:1.5;" width="892.7642" x="10" y="375.625"/><text fill="#000000" font-family="sans-serif" font-size="13" font-weight="bold" lengthAdjust="spacing" textLength="31.624" x="25" y="388.6919">loop</text><text fill="#000000" font-family="sans-serif" font-size="11" font-weight="bold" lengthAdjust="spacing" textLength="165.2041" x="101.624" y="387.8354">[For each YAML file found]</text><g class="message" data-participant-1="DeploymentYAMLCheckerModule" data-participant-2="User"><polygon fill="#181818" points="49.9551,409.8906,39.9551,413.8906,49.9551,417.8906,45.9551,413.8906" style="stroke:#181818;stroke-width:1;"/><line style="stroke:#181818;stroke-width:1;" x1="43.9551" x2="617.4575" y1="413.8906" y2="413.8906"/><text fill="#000000" font-family="sans-serif" font-size="13" lengthAdjust="spacing" textLength="194.3843" x="55.9551" y="408.8247">"Scanning file: &lt;file_path&gt;..."</text></g><g class="message" data-participant-1="DeploymentYAMLCheckerModule" data-participant-2="DeploymentYAMLCheckerModule"><line style="stroke:#181818;stroke-width:1;" x1="628.4575" x2="670.4575" y1="443.0234" y2="443.0234"/><line style="stroke:#181818;stroke-width:1;" x1="670.4575" x2="670.4575" y1="443.0234" y2="456.0234"/><line style="stroke:#181818;stroke-width:1;" x1="629.4575" x2="670.4575" y1="456.0234" y2="456.0234"/><polygon fill="#181818" points="639.4575,452.0234,629.4575,456.0234,639.4575,460.0234,635.4575,456.0234" style="stroke:#181818;stroke-width:1;"/><text fill="#000000" font-family="sans-serif" font-size="13" lengthAdjust="spacing" textLength="160.856" x="635.4575" y="437.9575">scan_yaml_file(file_path)</text></g><g class="message" data-participant-1="DeploymentYAMLCheckerModule" data-participant-2="FileSystem"><polygon fill="#181818" points="830.4385,481.1563,840.4385,485.1563,830.4385,489.1563,834.4385,485.1563" style="stroke:#181818;stroke-width:1;"/><line style="stroke:#181818;stroke-width:1;" x1="628.4575" x2="836.4385" y1="485.1563" y2="485.1563"/><text fill="#000000" font-family="sans-serif" font-size="13" lengthAdjust="spacing" textLength="176.4966" x="635.4575" y="480.0903">open and read &lt;file_path&gt;</text></g><g class="message" data-participant-1="FileSystem" data-participant-2="DeploymentYAMLCheckerModule"><polygon fill="#181818" points="639.4575,510.2891,629.4575,514.2891,639.4575,518.2891,635.4575,514.2891" style="stroke:#181818;stroke-width:1;"/><line style="stroke:#181818;stroke-width:1;stroke-dasharray:2.0,2.0;" x1="633.4575" x2="846.4385" y1="514.2891" y2="514.2891"/><text fill="#000000" font-family="sans-serif" font-size="13" lengthAdjust="spacing" textLength="73.7026" x="645.4575" y="509.2231">file content</text></g><g class="message" data-participant-1="DeploymentYAMLCheckerModule" data-participant-2="DeploymentYAMLCheckerModule"><line style="stroke:#181818;stroke-width:1;" x1="628.4575" x2="670.4575" y1="543.4219" y2="543.4219"/><line style="stroke:#181818;stroke-width:1;" x1="670.4575" x2="670.4575" y1="543.4219" y2="556.4219"/><line style="stroke:#181818;stroke-width:1;" x1="629.4575" x2="670.4575" y1="556.4219" y2="556.4219"/><polygon fill="#181818" points="639.4575,552.4219,629.4575,556.4219,639.4575,560.4219,635.4575,556.4219" style="stroke:#181818;stroke-width:1;"/><text fill="#000000" font-family="sans-serif" font-size="13" lengthAdjust="spacing" textLength="173.2593" x="635.4575" y="538.356">parse and analyze content</text></g><g class="message" data-participant-1="DeploymentYAMLCheckerModule" data-participant-2="User"><polygon fill="#181818" points="49.9551,581.5547,39.9551,585.5547,49.9551,589.5547,45.9551,585.5547" style="stroke:#181818;stroke-width:1;"/><line style="stroke:#181818;stroke-width:1;" x1="43.9551" x2="617.4575" y1="585.5547" y2="585.5547"/><text fill="#000000" font-family="sans-serif" font-size="13" lengthAdjust="spacing" textLength="207.3843" x="55.9551" y="580.4888">Display findings for &lt;file_path&gt;</text></g><path d="M10,607.5547 L74.4429,607.5547 L74.4429,614.6875 L64.4429,624.6875 L10,624.6875 L10,607.5547" fill="#EEEEEE" style="stroke:#000000;stroke-width:1.5;"/><rect fill="none" height="46.2656" style="stroke:#000000;stroke-width:1.5;" width="746.4497" x="10" y="607.5547"/><text fill="#000000" font-family="sans-serif" font-size="13" font-weight="bold" lengthAdjust="spacing" textLength="19.4429" x="25" y="620.6216">alt</text><text fill="#000000" font-family="sans-serif" font-size="11" font-weight="bold" lengthAdjust="spacing" textLength="134.9541" x="89.4429" y="619.7651">[No YAML files found]</text><g class="message" data-participant-1="DeploymentYAMLCheckerModule" data-participant-2="User"><polygon fill="#181818" points="49.9551,641.8203,39.9551,645.8203,49.9551,649.8203,45.9551,645.8203" style="stroke:#181818;stroke-width:1;"/><line style="stroke:#181818;stroke-width:1;" x1="43.9551" x2="617.4575" y1="645.8203" y2="645.8203"/><text fill="#000000" font-family="sans-serif" font-size="13" lengthAdjust="spacing" textLength="287.7583" x="55.9551" y="640.7544">"No YAML files found in &lt;target_directory&gt;"</text></g><g class="message" data-participant-1="DeploymentYAMLCheckerModule" data-participant-2="User"><polygon fill="#181818" points="49.9551,677.9531,39.9551,681.9531,49.9551,685.9531,45.9551,681.9531" style="stroke:#181818;stroke-width:1;"/><line style="stroke:#181818;stroke-width:1;" x1="43.9551" x2="617.4575" y1="681.9531" y2="681.9531"/><text fill="#000000" font-family="sans-serif" font-size="13" lengthAdjust="spacing" textLength="252.7637" x="55.9551" y="676.8872">"Deployment YAML checking finished."</text></g><g class="message" data-participant-1="DeploymentYAMLCheckerModule" data-participant-2="K8sHardenerCLI"><polygon fill="#181818" points="438.1201,707.0859,428.1201,711.0859,438.1201,715.0859,434.1201,711.0859" style="stroke:#181818;stroke-width:1;"/><line style="stroke:#181818;stroke-width:1;stroke-dasharray:2.0,2.0;" x1="432.1201" x2="622.4575" y1="711.0859" y2="711.0859"/><text fill="#000000" font-family="sans-serif" font-size="13" lengthAdjust="spacing" textLength="96.8208" x="444.1201" y="706.02">run() complete</text></g><!--SRC=[jLNDQjmm4BxxAGOVokPGGtiA9YoKJK93VYvB3uN2Ch4cQn5P4fASu3v07w2Fs2Vfo5lMFsmSRqDyMkzelfdlcqzZB89nyCsJIoow80jfKGUuFlLVqGdIv5OtLuFGELbbcefq-FxbzcPLKl58xjQ8Mj7WtALKj6vye2f98ZvyN8vWSxZ39xd5GC1mjV-XqwiAjmGVO5rRgnfObIXr2dz-_OQqgmknCFohd2PO1FaKGKPD9yFtM7-YznnShHSd7TeKpsGY6Ej4lZca5pemRo4THPKRA8mEJ4ZgBLpNz-Gq1V8xDW-ibeTWm1UeynwfTZGx_LuZ4D1jAMpszH91GvZNskv6beFncSLGPj8ptc8CtTEfD-VkvuncNKtz1ljsEQxDPrIFxz1WdCWcIl0fQx1I_vVxEMiuzGMQoXWBbtpzE5nsDe07KskH03_pRBPcoxIcYjavdEshBxCiI-S0JPA9Zjn42JOHUB57Fvc3F9YL9Gse1JX2qM-p1JeaKVp_MDtRMyRXDlcmyczLXDUSfvO9QbJDps7DMKCxbzugRBXZBNXqdeVk1f8GMo115U3Ez3V4iTuua0rImzdulYpJNSLvgEDTNCHpEmTgwKiIRBj9f0FVWdRzif2LLRmM-tTcQXFtZWq1_m80]--></g></svg>