<svg xmlns="http://www.w3.org/2000/svg" xmlns:xlink="http://www.w3.org/1999/xlink" contentStyleType="text/css" data-diagram-type="SEQUENCE" height="1359px" preserveAspectRatio="none" style="width:1264px;height:1359px;background:#FFFFFF;" version="1.1" viewBox="0 0 1264 1359" width="1264px" zoomAndPan="magnify"><defs/><g><g><title>User</title><rect fill="#FFFFFF" height="29.1328" style="stroke:#181818;stroke-width:1;" width="10" x="33.9551" y="310.3594"/></g><g><title>User</title><rect fill="#FFFFFF" height="29.1328" style="stroke:#181818;stroke-width:1;" width="10" x="33.9551" y="767.3516"/></g><g><title>User</title><rect fill="#FFFFFF" height="29.1328" style="stroke:#181818;stroke-width:1;" width="10" x="33.9551" y="898.0156"/></g><g><title>K8sHardenerCLI</title><rect fill="#FFFFFF" height="1133.0469" style="stroke:#181818;stroke-width:1;" width="10" x="316.4126" y="127.5625"/></g><g><title>FalcoInstallerModule</title><rect fill="#FFFFFF" height="1103.9141" style="stroke:#181818;stroke-width:1;" width="10" x="543.7432" y="156.6953"/></g><g><title>HelmCLI</title><rect fill="#FFFFFF" height="29.1328" style="stroke:#181818;stroke-width:1;" width="10" x="836.2896" y="227.9609"/></g><g><title>HelmCLI</title><rect fill="#FFFFFF" height="29.1328" style="stroke:#181818;stroke-width:1;" width="10" x="836.2896" y="469.0234"/></g><g><title>HelmCLI</title><rect fill="#FFFFFF" height="87.3984" style="stroke:#181818;stroke-width:1;" width="10" x="836.2896" y="534.2891"/></g><g><title>HelmCLI</title><rect fill="#FFFFFF" height="87.3984" style="stroke:#181818;stroke-width:1;" width="10" x="836.2896" y="650.8203"/></g><g><title>HelmCLI</title><rect fill="#FFFFFF" height="87.3984" style="stroke:#181818;stroke-width:1;" width="10" x="836.2896" y="985.4141"/></g><g><title>ExternalResources</title><rect fill="#FFFFFF" height="29.1328" style="stroke:#181818;stroke-width:1;" width="10" x="1008.4292" y="368.625"/></g><g><title>ExternalResources</title><rect fill="#FFFFFF" height="29.1328" style="stroke:#181818;stroke-width:1;" width="10" x="1008.4292" y="563.4219"/></g><g><title>ExternalResources</title><rect fill="#FFFFFF" height="29.1328" style="stroke:#181818;stroke-width:1;" width="10" x="1008.4292" y="679.9531"/></g><g><title>KubernetesAPIServer</title><rect fill="#FFFFFF" height="29.1328" style="stroke:#181818;stroke-width:1;" width="10" x="1171.937" y="1014.5469"/></g><g><title>KubernetesAPIServer</title><rect fill="#FFFFFF" height="29.1328" style="stroke:#181818;stroke-width:1;" width="10" x="1171.937" y="1173.2109"/></g><rect fill="none" height="234.0625" style="stroke:#000000;stroke-width:1.5;" width="1085.8115" x="10" y="272.0938"/><g><title>User</title><rect fill="#000000" fill-opacity="0.00000" height="1197.3125" width="8" x="34.9551" y="81.2969"/><line style="stroke:#181818;stroke-width:0.5;stroke-dasharray:5.0,5.0;" x1="38" x2="38" y1="81.2969" y2="1278.6094"/></g><g><title>K8sHardenerCLI</title><rect fill="#000000" fill-opacity="0.00000" height="1197.3125" width="8" x="317.4126" y="81.2969"/><line style="stroke:#181818;stroke-width:0.5;stroke-dasharray:5.0,5.0;" x1="321.0674" x2="321.0674" y1="81.2969" y2="1278.6094"/></g><g><title>FalcoInstallerModule</title><rect fill="#000000" fill-opacity="0.00000" height="1197.3125" width="8" x="544.7432" y="81.2969"/><line style="stroke:#181818;stroke-width:0.5;stroke-dasharray:5.0,5.0;" x1="548.6411" x2="548.6411" y1="81.2969" y2="1278.6094"/></g><g><title>HelmCLI</title><rect fill="#000000" fill-opacity="0.00000" height="1197.3125" width="8" x="837.2896" y="81.2969"/><line style="stroke:#181818;stroke-width:0.5;stroke-dasharray:5.0,5.0;" x1="841.1035" x2="841.1035" y1="81.2969" y2="1278.6094"/></g><g><title>ExternalResources</title><rect fill="#000000" fill-opacity="0.00000" height="1197.3125" width="8" x="1009.4292" y="81.2969"/><line style="stroke:#181818;stroke-width:0.5;stroke-dasharray:5.0,5.0;" x1="1013.0469" x2="1013.0469" y1="81.2969" y2="1278.6094"/></g><g><title>KubernetesAPIServer</title><rect fill="#000000" fill-opacity="0.00000" height="1197.3125" width="8" x="1172.937" y="81.2969"/><line style="stroke:#181818;stroke-width:0.5;stroke-dasharray:5.0,5.0;" x1="1176.8115" x2="1176.8115" y1="81.2969" y2="1278.6094"/></g><g class="participant participant-head" data-participant="User"><text fill="#000000" font-family="sans-serif" font-size="14" lengthAdjust="spacing" textLength="31.9102" x="20" y="77.9951">User</text><ellipse cx="38.9551" cy="13.5" fill="#E2E2F0" rx="8" ry="8" style="stroke:#181818;stroke-width:0.5;"/><path d="M38.9551,21.5 L38.9551,48.5 M25.9551,29.5 L51.9551,29.5 M38.9551,48.5 L25.9551,63.5 M38.9551,48.5 L51.9551,63.5" fill="none" style="stroke:#181818;stroke-width:0.5;"/></g><g class="participant participant-tail" data-participant="User"><text fill="#000000" font-family="sans-serif" font-size="14" lengthAdjust="spacing" textLength="31.9102" x="20" y="1290.6045">User</text><ellipse cx="38.9551" cy="1302.4063" fill="#E2E2F0" rx="8" ry="8" style="stroke:#181818;stroke-width:0.5;"/><path d="M38.9551,1310.4063 L38.9551,1337.4063 M25.9551,1318.4063 L51.9551,1318.4063 M38.9551,1337.4063 L25.9551,1352.4063 M38.9551,1337.4063 L51.9551,1352.4063" fill="none" style="stroke:#181818;stroke-width:0.5;"/></g><g class="participant participant-head" data-participant="K8sHardenerCLI"><rect fill="#E2E2F0" height="30.2969" rx="2.5" ry="2.5" style="stroke:#181818;stroke-width:0.5;" width="126.6904" x="258.0674" y="50"/><text fill="#000000" font-family="sans-serif" font-size="14" lengthAdjust="spacing" textLength="112.6904" x="265.0674" y="69.9951">K8sHardenerCLI</text></g><g class="participant participant-tail" data-participant="K8sHardenerCLI"><rect fill="#E2E2F0" height="30.2969" rx="2.5" ry="2.5" style="stroke:#181818;stroke-width:0.5;" width="126.6904" x="258.0674" y="1277.6094"/><text fill="#000000" font-family="sans-serif" font-size="14" lengthAdjust="spacing" textLength="112.6904" x="265.0674" y="1297.6045">K8sHardenerCLI</text></g><g class="participant participant-head" data-participant="FalcoInstallerModule"><rect fill="#E2E2F0" height="30.2969" rx="2.5" ry="2.5" style="stroke:#181818;stroke-width:0.5;" width="158.2041" x="469.6411" y="50"/><text fill="#000000" font-family="sans-serif" font-size="14" lengthAdjust="spacing" textLength="144.2041" x="476.6411" y="69.9951">FalcoInstallerModule</text></g><g class="participant participant-tail" data-participant="FalcoInstallerModule"><rect fill="#E2E2F0" height="30.2969" rx="2.5" ry="2.5" style="stroke:#181818;stroke-width:0.5;" width="158.2041" x="469.6411" y="1277.6094"/><text fill="#000000" font-family="sans-serif" font-size="14" lengthAdjust="spacing" textLength="144.2041" x="476.6411" y="1297.6045">FalcoInstallerModule</text></g><g class="participant participant-head" data-participant="HelmCLI"><rect fill="#E2E2F0" height="30.2969" rx="2.5" ry="2.5" style="stroke:#181818;stroke-width:0.5;" width="72.3721" x="805.1035" y="50"/><text fill="#000000" font-family="sans-serif" font-size="14" lengthAdjust="spacing" textLength="58.3721" x="812.1035" y="69.9951">HelmCLI</text></g><g class="participant participant-tail" data-participant="HelmCLI"><rect fill="#E2E2F0" height="30.2969" rx="2.5" ry="2.5" style="stroke:#181818;stroke-width:0.5;" width="72.3721" x="805.1035" y="1277.6094"/><text fill="#000000" font-family="sans-serif" font-size="14" lengthAdjust="spacing" textLength="58.3721" x="812.1035" y="1297.6045">HelmCLI</text></g><g class="participant participant-head" data-participant="ExternalResources"><rect fill="#E2E2F0" height="30.2969" rx="2.5" ry="2.5" style="stroke:#181818;stroke-width:0.5;" width="144.7646" x="941.0469" y="50"/><text fill="#000000" font-family="sans-serif" font-size="14" lengthAdjust="spacing" textLength="130.7646" x="948.0469" y="69.9951">ExternalResources</text></g><g class="participant participant-tail" data-participant="ExternalResources"><rect fill="#E2E2F0" height="30.2969" rx="2.5" ry="2.5" style="stroke:#181818;stroke-width:0.5;" width="144.7646" x="941.0469" y="1277.6094"/><text fill="#000000" font-family="sans-serif" font-size="14" lengthAdjust="spacing" textLength="130.7646" x="948.0469" y="1297.6045">ExternalResources</text></g><g class="participant participant-head" data-participant="KubernetesAPIServer"><rect fill="#E2E2F0" height="30.2969" rx="2.5" ry="2.5" style="stroke:#181818;stroke-width:0.5;" width="162.251" x="1095.8115" y="50"/><text fill="#000000" font-family="sans-serif" font-size="14" lengthAdjust="spacing" textLength="148.251" x="1102.8115" y="69.9951">KubernetesAPIServer</text></g><g class="participant participant-tail" data-participant="KubernetesAPIServer"><rect fill="#E2E2F0" height="30.2969" rx="2.5" ry="2.5" style="stroke:#181818;stroke-width:0.5;" width="162.251" x="1095.8115" y="1277.6094"/><text fill="#000000" font-family="sans-serif" font-size="14" lengthAdjust="spacing" textLength="148.251" x="1102.8115" y="1297.6045">KubernetesAPIServer</text></g><g><title>User</title><rect fill="#FFFFFF" height="29.1328" style="stroke:#181818;stroke-width:1;" width="10" x="33.9551" y="310.3594"/></g><g><title>User</title><rect fill="#FFFFFF" height="29.1328" style="stroke:#181818;stroke-width:1;" width="10" x="33.9551" y="767.3516"/></g><g><title>User</title><rect fill="#FFFFFF" height="29.1328" style="stroke:#181818;stroke-width:1;" width="10" x="33.9551" y="898.0156"/></g><g><title>K8sHardenerCLI</title><rect fill="#FFFFFF" height="1133.0469" style="stroke:#181818;stroke-width:1;" width="10" x="316.4126" y="127.5625"/></g><g><title>FalcoInstallerModule</title><rect fill="#FFFFFF" height="1103.9141" style="stroke:#181818;stroke-width:1;" width="10" x="543.7432" y="156.6953"/></g><g><title>HelmCLI</title><rect fill="#FFFFFF" height="29.1328" style="stroke:#181818;stroke-width:1;" width="10" x="836.2896" y="227.9609"/></g><g><title>HelmCLI</title><rect fill="#FFFFFF" height="29.1328" style="stroke:#181818;stroke-width:1;" width="10" x="836.2896" y="469.0234"/></g><g><title>HelmCLI</title><rect fill="#FFFFFF" height="87.3984" style="stroke:#181818;stroke-width:1;" width="10" x="836.2896" y="534.2891"/></g><g><title>HelmCLI</title><rect fill="#FFFFFF" height="87.3984" style="stroke:#181818;stroke-width:1;" width="10" x="836.2896" y="650.8203"/></g><g><title>HelmCLI</title><rect fill="#FFFFFF" height="87.3984" style="stroke:#181818;stroke-width:1;" width="10" x="836.2896" y="985.4141"/></g><g><title>ExternalResources</title><rect fill="#FFFFFF" height="29.1328" style="stroke:#181818;stroke-width:1;" width="10" x="1008.4292" y="368.625"/></g><g><title>ExternalResources</title><rect fill="#FFFFFF" height="29.1328" style="stroke:#181818;stroke-width:1;" width="10" x="1008.4292" y="563.4219"/></g><g><title>ExternalResources</title><rect fill="#FFFFFF" height="29.1328" style="stroke:#181818;stroke-width:1;" width="10" x="1008.4292" y="679.9531"/></g><g><title>KubernetesAPIServer</title><rect fill="#FFFFFF" height="29.1328" style="stroke:#181818;stroke-width:1;" width="10" x="1171.937" y="1014.5469"/></g><g><title>KubernetesAPIServer</title><rect fill="#FFFFFF" height="29.1328" style="stroke:#181818;stroke-width:1;" width="10" x="1171.937" y="1173.2109"/></g><g class="message" data-participant-1="User" data-participant-2="K8sHardenerCLI"><polygon fill="#181818" points="304.4126,123.5625,314.4126,127.5625,304.4126,131.5625,308.4126,127.5625" style="stroke:#181818;stroke-width:1;"/><line style="stroke:#181818;stroke-width:1;" x1="38.9551" x2="310.4126" y1="127.5625" y2="127.5625"/><text fill="#000000" font-family="sans-serif" font-size="13" lengthAdjust="spacing" textLength="106.355" x="45.9551" y="107.3638">Navigate menus</text><text fill="#000000" font-family="sans-serif" font-size="13" lengthAdjust="spacing" textLength="258.4575" x="45.9551" y="122.4966">"Intrusion Detection" &#8594; "Falco Installer"</text></g><g class="message" data-participant-1="K8sHardenerCLI" data-participant-2="FalcoInstallerModule"><polygon fill="#181818" points="531.7432,152.6953,541.7432,156.6953,531.7432,160.6953,535.7432,156.6953" style="stroke:#181818;stroke-width:1;"/><line style="stroke:#181818;stroke-width:1;" x1="326.4126" x2="537.7432" y1="156.6953" y2="156.6953"/><text fill="#000000" font-family="sans-serif" font-size="13" lengthAdjust="spacing" textLength="128.4766" x="333.4126" y="151.6294">run_falco_installer()</text></g><g class="message" data-participant-1="FalcoInstallerModule" data-participant-2="FalcoInstallerModule"><line style="stroke:#181818;stroke-width:1;" x1="553.7432" x2="595.7432" y1="185.8281" y2="185.8281"/><line style="stroke:#181818;stroke-width:1;" x1="595.7432" x2="595.7432" y1="185.8281" y2="198.8281"/><line style="stroke:#181818;stroke-width:1;" x1="554.7432" x2="595.7432" y1="198.8281" y2="198.8281"/><polygon fill="#181818" points="564.7432,194.8281,554.7432,198.8281,564.7432,202.8281,560.7432,198.8281" style="stroke:#181818;stroke-width:1;"/><text fill="#000000" font-family="sans-serif" font-size="13" lengthAdjust="spacing" textLength="155.3779" x="560.7432" y="180.7622">_check_helm_installed()</text></g><g class="message" data-participant-1="FalcoInstallerModule" data-participant-2="HelmCLI"><polygon fill="#181818" points="824.2896,223.9609,834.2896,227.9609,824.2896,231.9609,828.2896,227.9609" style="stroke:#181818;stroke-width:1;"/><line style="stroke:#181818;stroke-width:1;" x1="553.7432" x2="830.2896" y1="227.9609" y2="227.9609"/><text fill="#000000" font-family="sans-serif" font-size="13" lengthAdjust="spacing" textLength="84.2588" x="560.7432" y="222.895">helm version</text></g><g class="message" data-participant-1="HelmCLI" data-participant-2="FalcoInstallerModule"><line style="stroke:#181818;stroke-width:1;" x1="554.7432" x2="564.7432" y1="257.0938" y2="253.0938"/><line style="stroke:#181818;stroke-width:1;" x1="554.7432" x2="564.7432" y1="257.0938" y2="261.0938"/><line style="stroke:#181818;stroke-width:1;stroke-dasharray:2.0,2.0;" x1="553.7432" x2="840.2896" y1="257.0938" y2="257.0938"/><text fill="#000000" font-family="sans-serif" font-size="13" lengthAdjust="spacing" textLength="118.3076" x="570.7432" y="252.0278">failure (not found)</text></g><path d="M10,272.0938 L79.4512,272.0938 L79.4512,279.2266 L69.4512,289.2266 L10,289.2266 L10,272.0938" fill="#EEEEEE" style="stroke:#000000;stroke-width:1.5;"/><rect fill="none" height="234.0625" style="stroke:#000000;stroke-width:1.5;" width="1085.8115" x="10" y="272.0938"/><text fill="#000000" font-family="sans-serif" font-size="13" font-weight="bold" lengthAdjust="spacing" textLength="24.4512" x="25" y="285.1606">opt</text><text fill="#000000" font-family="sans-serif" font-size="11" font-weight="bold" lengthAdjust="spacing" textLength="106.1382" x="94.4512" y="284.3042">[Helm not found]</text><g class="message" data-participant-1="FalcoInstallerModule" data-participant-2="User"><polygon fill="#181818" points="54.9551,306.3594,44.9551,310.3594,54.9551,314.3594,50.9551,310.3594" style="stroke:#181818;stroke-width:1;"/><line style="stroke:#181818;stroke-width:1;" x1="48.9551" x2="542.7432" y1="310.3594" y2="310.3594"/><text fill="#000000" font-family="sans-serif" font-size="13" lengthAdjust="spacing" textLength="358.3569" x="60.9551" y="305.2935">"Helm CLI not found. Attempt to install automatically?"</text></g><g class="message" data-participant-1="User" data-participant-2="FalcoInstallerModule"><polygon fill="#181818" points="531.7432,335.4922,541.7432,339.4922,531.7432,343.4922,535.7432,339.4922" style="stroke:#181818;stroke-width:1;"/><line style="stroke:#181818;stroke-width:1;stroke-dasharray:2.0,2.0;" x1="38.9551" x2="537.7432" y1="339.4922" y2="339.4922"/><text fill="#000000" font-family="sans-serif" font-size="13" lengthAdjust="spacing" textLength="22.4644" x="45.9551" y="334.4263">yes</text></g><g class="message" data-participant-1="FalcoInstallerModule" data-participant-2="ExternalResources"><polygon fill="#181818" points="996.4292,364.625,1006.4292,368.625,996.4292,372.625,1000.4292,368.625" style="stroke:#181818;stroke-width:1;"/><line style="stroke:#181818;stroke-width:1;" x1="553.7432" x2="1002.4292" y1="368.625" y2="368.625"/><text fill="#000000" font-family="sans-serif" font-size="13" lengthAdjust="spacing" textLength="188.6143" x="560.7432" y="363.5591">Download get_helm.sh script</text></g><g class="message" data-participant-1="ExternalResources" data-participant-2="FalcoInstallerModule"><line style="stroke:#181818;stroke-width:1;" x1="554.7432" x2="564.7432" y1="397.7578" y2="393.7578"/><line style="stroke:#181818;stroke-width:1;" x1="554.7432" x2="564.7432" y1="397.7578" y2="401.7578"/><line style="stroke:#181818;stroke-width:1;stroke-dasharray:2.0,2.0;" x1="553.7432" x2="1012.4292" y1="397.7578" y2="397.7578"/><text fill="#000000" font-family="sans-serif" font-size="13" lengthAdjust="spacing" textLength="96.9033" x="570.7432" y="392.6919">script contents</text></g><g class="message" data-participant-1="FalcoInstallerModule" data-participant-2="FalcoInstallerModule"><line style="stroke:#181818;stroke-width:1;" x1="553.7432" x2="595.7432" y1="426.8906" y2="426.8906"/><line style="stroke:#181818;stroke-width:1;" x1="595.7432" x2="595.7432" y1="426.8906" y2="439.8906"/><line style="stroke:#181818;stroke-width:1;" x1="554.7432" x2="595.7432" y1="439.8906" y2="439.8906"/><polygon fill="#181818" points="564.7432,435.8906,554.7432,439.8906,564.7432,443.8906,560.7432,439.8906" style="stroke:#181818;stroke-width:1;"/><text fill="#000000" font-family="sans-serif" font-size="13" lengthAdjust="spacing" textLength="176.1665" x="560.7432" y="421.8247">execute get_helm.sh script</text></g><g class="message" data-participant-1="FalcoInstallerModule" data-participant-2="HelmCLI"><polygon fill="#181818" points="824.2896,465.0234,834.2896,469.0234,824.2896,473.0234,828.2896,469.0234" style="stroke:#181818;stroke-width:1;"/><line style="stroke:#181818;stroke-width:1;" x1="553.7432" x2="830.2896" y1="469.0234" y2="469.0234"/><text fill="#000000" font-family="sans-serif" font-size="13" lengthAdjust="spacing" textLength="84.2588" x="560.7432" y="463.9575">helm version</text></g><g class="message" data-participant-1="HelmCLI" data-participant-2="FalcoInstallerModule"><line style="stroke:#181818;stroke-width:1;" x1="554.7432" x2="564.7432" y1="498.1563" y2="494.1563"/><line style="stroke:#181818;stroke-width:1;" x1="554.7432" x2="564.7432" y1="498.1563" y2="502.1563"/><line style="stroke:#181818;stroke-width:1;stroke-dasharray:2.0,2.0;" x1="553.7432" x2="840.2896" y1="498.1563" y2="498.1563"/><text fill="#000000" font-family="sans-serif" font-size="13" lengthAdjust="spacing" textLength="50.8511" x="570.7432" y="493.0903">success</text></g><g class="message" data-participant-1="FalcoInstallerModule" data-participant-2="HelmCLI"><polygon fill="#181818" points="824.2896,530.2891,834.2896,534.2891,824.2896,538.2891,828.2896,534.2891" style="stroke:#181818;stroke-width:1;"/><line style="stroke:#181818;stroke-width:1;" x1="553.7432" x2="830.2896" y1="534.2891" y2="534.2891"/><text fill="#000000" font-family="sans-serif" font-size="13" lengthAdjust="spacing" textLength="225.2021" x="560.7432" y="529.2231">helm repo add falcosecurity &lt;url&gt;</text></g><g class="message" data-participant-1="HelmCLI" data-participant-2="ExternalResources"><polygon fill="#181818" points="996.4292,559.4219,1006.4292,563.4219,996.4292,567.4219,1000.4292,563.4219" style="stroke:#181818;stroke-width:1;"/><line style="stroke:#181818;stroke-width:1;" x1="846.2896" x2="1002.4292" y1="563.4219" y2="563.4219"/><text fill="#000000" font-family="sans-serif" font-size="13" lengthAdjust="spacing" textLength="143.1396" x="853.2896" y="558.356">fetch repository index</text></g><g class="message" data-participant-1="ExternalResources" data-participant-2="HelmCLI"><line style="stroke:#181818;stroke-width:1;" x1="847.2896" x2="857.2896" y1="592.5547" y2="588.5547"/><line style="stroke:#181818;stroke-width:1;" x1="847.2896" x2="857.2896" y1="592.5547" y2="596.5547"/><line style="stroke:#181818;stroke-width:1;stroke-dasharray:2.0,2.0;" x1="846.2896" x2="1012.4292" y1="592.5547" y2="592.5547"/><text fill="#000000" font-family="sans-serif" font-size="13" lengthAdjust="spacing" textLength="69.2085" x="863.2896" y="587.4888">index data</text></g><g class="message" data-participant-1="HelmCLI" data-participant-2="FalcoInstallerModule"><line style="stroke:#181818;stroke-width:1;" x1="554.7432" x2="564.7432" y1="621.6875" y2="617.6875"/><line style="stroke:#181818;stroke-width:1;" x1="554.7432" x2="564.7432" y1="621.6875" y2="625.6875"/><line style="stroke:#181818;stroke-width:1;stroke-dasharray:2.0,2.0;" x1="553.7432" x2="840.2896" y1="621.6875" y2="621.6875"/><text fill="#000000" font-family="sans-serif" font-size="13" lengthAdjust="spacing" textLength="110.8745" x="570.7432" y="616.6216">repository added</text></g><g class="message" data-participant-1="FalcoInstallerModule" data-participant-2="HelmCLI"><polygon fill="#181818" points="824.2896,646.8203,834.2896,650.8203,824.2896,654.8203,828.2896,650.8203" style="stroke:#181818;stroke-width:1;"/><line style="stroke:#181818;stroke-width:1;" x1="553.7432" x2="830.2896" y1="650.8203" y2="650.8203"/><text fill="#000000" font-family="sans-serif" font-size="13" lengthAdjust="spacing" textLength="116.1304" x="560.7432" y="645.7544">helm repo update</text></g><g class="message" data-participant-1="HelmCLI" data-participant-2="ExternalResources"><polygon fill="#181818" points="996.4292,675.9531,1006.4292,679.9531,996.4292,683.9531,1000.4292,679.9531" style="stroke:#181818;stroke-width:1;"/><line style="stroke:#181818;stroke-width:1;" x1="846.2896" x2="1002.4292" y1="679.9531" y2="679.9531"/><text fill="#000000" font-family="sans-serif" font-size="13" lengthAdjust="spacing" textLength="95.5703" x="853.2896" y="674.8872">update indices</text></g><g class="message" data-participant-1="ExternalResources" data-participant-2="HelmCLI"><line style="stroke:#181818;stroke-width:1;" x1="847.2896" x2="857.2896" y1="709.0859" y2="705.0859"/><line style="stroke:#181818;stroke-width:1;" x1="847.2896" x2="857.2896" y1="709.0859" y2="713.0859"/><line style="stroke:#181818;stroke-width:1;stroke-dasharray:2.0,2.0;" x1="846.2896" x2="1012.4292" y1="709.0859" y2="709.0859"/><text fill="#000000" font-family="sans-serif" font-size="13" lengthAdjust="spacing" textLength="103.8223" x="863.2896" y="704.02">updated indices</text></g><g class="message" data-participant-1="HelmCLI" data-participant-2="FalcoInstallerModule"><line style="stroke:#181818;stroke-width:1;" x1="554.7432" x2="564.7432" y1="738.2188" y2="734.2188"/><line style="stroke:#181818;stroke-width:1;" x1="554.7432" x2="564.7432" y1="738.2188" y2="742.2188"/><line style="stroke:#181818;stroke-width:1;stroke-dasharray:2.0,2.0;" x1="553.7432" x2="840.2896" y1="738.2188" y2="738.2188"/><text fill="#000000" font-family="sans-serif" font-size="13" lengthAdjust="spacing" textLength="134.9004" x="570.7432" y="733.1528">repositories updated</text></g><g class="message" data-participant-1="FalcoInstallerModule" data-participant-2="User"><polygon fill="#181818" points="54.9551,763.3516,44.9551,767.3516,54.9551,771.3516,50.9551,767.3516" style="stroke:#181818;stroke-width:1;"/><line style="stroke:#181818;stroke-width:1;" x1="48.9551" x2="542.7432" y1="767.3516" y2="767.3516"/><text fill="#000000" font-family="sans-serif" font-size="13" lengthAdjust="spacing" textLength="343.916" x="60.9551" y="762.2856">prompt installation options (namespace, driver, etc.)</text></g><g class="message" data-participant-1="User" data-participant-2="FalcoInstallerModule"><polygon fill="#181818" points="531.7432,792.4844,541.7432,796.4844,531.7432,800.4844,535.7432,796.4844" style="stroke:#181818;stroke-width:1;"/><line style="stroke:#181818;stroke-width:1;stroke-dasharray:2.0,2.0;" x1="38.9551" x2="537.7432" y1="796.4844" y2="796.4844"/><text fill="#000000" font-family="sans-serif" font-size="13" lengthAdjust="spacing" textLength="101.1182" x="45.9551" y="791.4185">provide options</text></g><g class="message" data-participant-1="FalcoInstallerModule" data-participant-2="FalcoInstallerModule"><line style="stroke:#181818;stroke-width:1;" x1="553.7432" x2="595.7432" y1="825.6172" y2="825.6172"/><line style="stroke:#181818;stroke-width:1;" x1="595.7432" x2="595.7432" y1="825.6172" y2="838.6172"/><line style="stroke:#181818;stroke-width:1;" x1="554.7432" x2="595.7432" y1="838.6172" y2="838.6172"/><polygon fill="#181818" points="564.7432,834.6172,554.7432,838.6172,564.7432,842.6172,560.7432,838.6172" style="stroke:#181818;stroke-width:1;"/><text fill="#000000" font-family="sans-serif" font-size="13" lengthAdjust="spacing" textLength="258.5464" x="560.7432" y="820.5513">prepare helm upgrade/install command</text></g><g class="message" data-participant-1="FalcoInstallerModule" data-participant-2="User"><polygon fill="#181818" points="54.9551,894.0156,44.9551,898.0156,54.9551,902.0156,50.9551,898.0156" style="stroke:#181818;stroke-width:1;"/><line style="stroke:#181818;stroke-width:1;" x1="48.9551" x2="542.7432" y1="898.0156" y2="898.0156"/><text fill="#000000" font-family="sans-serif" font-size="13" lengthAdjust="spacing" textLength="138.3726" x="60.9551" y="862.6841">"Prepared command:</text><text fill="#000000" font-family="sans-serif" font-size="13" lengthAdjust="spacing" textLength="195.292" x="60.9551" y="877.8169">helm upgrade --install falco ...</text><text fill="#000000" font-family="sans-serif" font-size="13" lengthAdjust="spacing" textLength="122.7256" x="60.9551" y="892.9497">Proceed? (yes/no)"</text></g><g class="message" data-participant-1="User" data-participant-2="FalcoInstallerModule"><polygon fill="#181818" points="531.7432,923.1484,541.7432,927.1484,531.7432,931.1484,535.7432,927.1484" style="stroke:#181818;stroke-width:1;"/><line style="stroke:#181818;stroke-width:1;stroke-dasharray:2.0,2.0;" x1="38.9551" x2="537.7432" y1="927.1484" y2="927.1484"/><text fill="#000000" font-family="sans-serif" font-size="13" lengthAdjust="spacing" textLength="22.4644" x="45.9551" y="922.0825">yes</text></g><g class="message" data-participant-1="FalcoInstallerModule" data-participant-2="User"><polygon fill="#181818" points="49.9551,952.2813,39.9551,956.2813,49.9551,960.2813,45.9551,956.2813" style="stroke:#181818;stroke-width:1;"/><line style="stroke:#181818;stroke-width:1;" x1="43.9551" x2="542.7432" y1="956.2813" y2="956.2813"/><text fill="#000000" font-family="sans-serif" font-size="13" lengthAdjust="spacing" textLength="121.8813" x="55.9551" y="951.2153">"Installing Falco..."</text></g><g class="message" data-participant-1="FalcoInstallerModule" data-participant-2="HelmCLI"><polygon fill="#181818" points="824.2896,981.4141,834.2896,985.4141,824.2896,989.4141,828.2896,985.4141" style="stroke:#181818;stroke-width:1;"/><line style="stroke:#181818;stroke-width:1;" x1="553.7432" x2="830.2896" y1="985.4141" y2="985.4141"/><text fill="#000000" font-family="sans-serif" font-size="13" lengthAdjust="spacing" textLength="195.292" x="560.7432" y="980.3481">helm upgrade --install falco ...</text></g><g class="message" data-participant-1="HelmCLI" data-participant-2="KubernetesAPIServer"><polygon fill="#181818" points="1159.937,1010.5469,1169.937,1014.5469,1159.937,1018.5469,1163.937,1014.5469" style="stroke:#181818;stroke-width:1;"/><line style="stroke:#181818;stroke-width:1;" x1="846.2896" x2="1165.937" y1="1014.5469" y2="1014.5469"/><text fill="#000000" font-family="sans-serif" font-size="13" lengthAdjust="spacing" textLength="179.6958" x="853.2896" y="1009.481">apply Falco chart resources</text></g><g class="message" data-participant-1="KubernetesAPIServer" data-participant-2="HelmCLI"><line style="stroke:#181818;stroke-width:1;" x1="847.2896" x2="857.2896" y1="1043.6797" y2="1039.6797"/><line style="stroke:#181818;stroke-width:1;" x1="847.2896" x2="857.2896" y1="1043.6797" y2="1047.6797"/><line style="stroke:#181818;stroke-width:1;stroke-dasharray:2.0,2.0;" x1="846.2896" x2="1175.937" y1="1043.6797" y2="1043.6797"/><text fill="#000000" font-family="sans-serif" font-size="13" lengthAdjust="spacing" textLength="106.4946" x="863.2896" y="1038.6138">operation status</text></g><g class="message" data-participant-1="HelmCLI" data-participant-2="FalcoInstallerModule"><line style="stroke:#181818;stroke-width:1;" x1="554.7432" x2="564.7432" y1="1072.8125" y2="1068.8125"/><line style="stroke:#181818;stroke-width:1;" x1="554.7432" x2="564.7432" y1="1072.8125" y2="1076.8125"/><line style="stroke:#181818;stroke-width:1;stroke-dasharray:2.0,2.0;" x1="553.7432" x2="840.2896" y1="1072.8125" y2="1072.8125"/><text fill="#000000" font-family="sans-serif" font-size="13" lengthAdjust="spacing" textLength="111.8965" x="570.7432" y="1067.7466">command output</text></g><g class="message" data-participant-1="FalcoInstallerModule" data-participant-2="User"><polygon fill="#181818" points="49.9551,1097.9453,39.9551,1101.9453,49.9551,1105.9453,45.9551,1101.9453" style="stroke:#181818;stroke-width:1;"/><line style="stroke:#181818;stroke-width:1;" x1="43.9551" x2="542.7432" y1="1101.9453" y2="1101.9453"/><text fill="#000000" font-family="sans-serif" font-size="13" lengthAdjust="spacing" textLength="131.3521" x="55.9551" y="1096.8794">display Helm output</text></g><g class="message" data-participant-1="FalcoInstallerModule" data-participant-2="FalcoInstallerModule"><line style="stroke:#181818;stroke-width:1;" x1="553.7432" x2="595.7432" y1="1131.0781" y2="1131.0781"/><line style="stroke:#181818;stroke-width:1;" x1="595.7432" x2="595.7432" y1="1131.0781" y2="1144.0781"/><line style="stroke:#181818;stroke-width:1;" x1="554.7432" x2="595.7432" y1="1144.0781" y2="1144.0781"/><polygon fill="#181818" points="564.7432,1140.0781,554.7432,1144.0781,564.7432,1148.0781,560.7432,1144.0781" style="stroke:#181818;stroke-width:1;"/><text fill="#000000" font-family="sans-serif" font-size="13" lengthAdjust="spacing" textLength="176.6362" x="560.7432" y="1126.0122">_check_falco_pods_status()</text></g><g class="message" data-participant-1="FalcoInstallerModule" data-participant-2="KubernetesAPIServer"><polygon fill="#181818" points="1159.937,1169.2109,1169.937,1173.2109,1159.937,1177.2109,1163.937,1173.2109" style="stroke:#181818;stroke-width:1;"/><line style="stroke:#181818;stroke-width:1;" x1="553.7432" x2="1165.937" y1="1173.2109" y2="1173.2109"/><text fill="#000000" font-family="sans-serif" font-size="13" lengthAdjust="spacing" textLength="210.7295" x="560.7432" y="1168.145">list Falco pods -n &lt;namespace&gt;</text></g><g class="message" data-participant-1="KubernetesAPIServer" data-participant-2="FalcoInstallerModule"><line style="stroke:#181818;stroke-width:1;" x1="554.7432" x2="564.7432" y1="1202.3438" y2="1198.3438"/><line style="stroke:#181818;stroke-width:1;" x1="554.7432" x2="564.7432" y1="1202.3438" y2="1206.3438"/><line style="stroke:#181818;stroke-width:1;stroke-dasharray:2.0,2.0;" x1="553.7432" x2="1175.937" y1="1202.3438" y2="1202.3438"/><text fill="#000000" font-family="sans-serif" font-size="13" lengthAdjust="spacing" textLength="83.3066" x="570.7432" y="1197.2778">pod statuses</text></g><g class="message" data-participant-1="FalcoInstallerModule" data-participant-2="User"><polygon fill="#181818" points="49.9551,1227.4766,39.9551,1231.4766,49.9551,1235.4766,45.9551,1231.4766" style="stroke:#181818;stroke-width:1;"/><line style="stroke:#181818;stroke-width:1;" x1="43.9551" x2="542.7432" y1="1231.4766" y2="1231.4766"/><text fill="#000000" font-family="sans-serif" font-size="13" lengthAdjust="spacing" textLength="171.8882" x="55.9551" y="1226.4106">display Falco pod statuses</text></g><g class="message" data-participant-1="FalcoInstallerModule" data-participant-2="K8sHardenerCLI"><line style="stroke:#181818;stroke-width:1;" x1="322.4126" x2="332.4126" y1="1260.6094" y2="1256.6094"/><line style="stroke:#181818;stroke-width:1;" x1="322.4126" x2="332.4126" y1="1260.6094" y2="1264.6094"/><line style="stroke:#181818;stroke-width:1;stroke-dasharray:2.0,2.0;" x1="321.4126" x2="547.7432" y1="1260.6094" y2="1260.6094"/><text fill="#000000" font-family="sans-serif" font-size="13" lengthAdjust="spacing" textLength="193.3306" x="338.4126" y="1255.5435">run_falco_installer() complete</text></g><!--SRC=[hLPBRjim4Dth50Ej4Y1sjeKHE0YQ5Z7wGT2Ykm06IuvjeZ99yEF65-W1UiIUf4FzBCkIOgLTsHR5Ds_Ul1aFurvR-ERG9ePPBxaqJ7duyCOzC2jGeNtxSN5qz9vbN2-KyopBq7xI8cHuzC83PjlsfNVF7grYsHTqEbYExZXQ-4wdwD7TFIw-ejqHcoHoWicyHMK6dzbEhfb7sA8Axacb2-LjS58hk2S8xkbR2dz-_OOqfmerrpHXTBgBTrlv9SU_OzYkD6TWWrgkuibILaSNbmVOJcsIhgVz8PPyW_p7SaCgra441Uc5AVMUGRm2f5tKui2fAaVv2PF9l2_qYiaiM8GBfJsiT53YCX5uWfHeKrGPwlSIW3vwiOupIFFtO_pwpXJklCSjONaDPQR0WjTRHiwW7_lRb73hyBb90GfVzCgt9sy1D5ZdrmRudLXp1lVwfyeq4x16dnTYwZRWk9N6DmcTcXfEdmtfNK02rygZyYtUf-W3INJZupFoG52TQOopKoFjoWO0PrZA1KxKMwbL24Z6ETFM5eq69WJatUSeBolz7cw2pUO3Nkyixmezt-I8JjBqsvFv13ud0yhtLBMcc0E0O9ubWnKyGx06BKeNHMS3Zj0i6AA5OoKgRiMyPEJz3z8KIAA6-c_wI0fLWe_Ig9X7nkeuUSgnm-AV1j1Oemz7uuzjqHd6yGg4bTG2Lq2McJO6VJvKNfX4568d1LQmoSbC6jVCXZ9dD9ppqWQpjapWTJKskTvksL0tbLFuiG0HrONPashYKJOLOjvdC9rEdzIZrHnHtC853TThfI_JSKBiSKJo9T7oHAfr0Kf4qZDjFv3BO1jqR24pOCPa-u82y0tjB6J0ogs7RQ9ZV-burkeCRT0MnYEMFXnfr8LuHdEKLGKTl0d-5MqXf3CPsnV_xYNAw_QNOaioMhXbaHwjC7r0dSfdqfNB9aGKc2YugHjp_ahnUrfBYx86-68LpXIm9du0xhaPQRLttCurCrRNPCIcIR5pusocS8Jy5m00]--></g></svg>