<svg xmlns="http://www.w3.org/2000/svg" xmlns:xlink="http://www.w3.org/1999/xlink" contentStyleType="text/css" data-diagram-type="SEQUENCE" height="1024px" preserveAspectRatio="none" style="width:1069px;height:1024px;background:#FFFFFF;" version="1.1" viewBox="0 0 1069 1024" width="1069px" zoomAndPan="magnify"><defs/><g><g><title>User</title><rect fill="#FFFFFF" height="29.1328" style="stroke:#181818;stroke-width:1;" width="10" x="33.9551" y="374.7578"/></g><g><title>User</title><rect fill="#FFFFFF" height="29.1328" style="stroke:#181818;stroke-width:1;" width="10" x="33.9551" y="457.1563"/></g><g><title>User</title><rect fill="#FFFFFF" height="29.1328" style="stroke:#181818;stroke-width:1;" width="10" x="33.9551" y="515.4219"/></g><g><title>K8sHardenerCLI</title><rect fill="#FFFFFF" height="798.4531" style="stroke:#181818;stroke-width:1;" width="10" x="343.7456" y="127.5625"/></g><g><title>ImageScannerModule</title><rect fill="#FFFFFF" height="769.3203" style="stroke:#181818;stroke-width:1;" width="10" x="500.1064" y="156.6953"/></g><g><title>TrivyCLI</title><rect fill="#FFFFFF" height="29.1328" style="stroke:#181818;stroke-width:1;" width="10" x="850.6069" y="227.9609"/></g><g><title>TrivyCLI</title><rect fill="#FFFFFF" height="29.1328" style="stroke:#181818;stroke-width:1;" width="10" x="850.6069" y="718.2188"/></g><g><title>KubernetesAPIServer</title><rect fill="#FFFFFF" height="29.1328" style="stroke:#181818;stroke-width:1;" width="10" x="976.9683" y="286.2266"/></g><rect fill="none" height="133.6641" style="stroke:#000000;stroke-width:1.5;" width="588.1221" x="10" y="418.8906"/><rect fill="none" height="260.0625" style="stroke:#000000;stroke-width:1.5;" width="890.8428" x="10" y="608.6875"/><g><title>User</title><rect fill="#000000" fill-opacity="0.00000" height="862.7188" width="8" x="34.9551" y="81.2969"/><line style="stroke:#181818;stroke-width:0.5;stroke-dasharray:5.0,5.0;" x1="38" x2="38" y1="81.2969" y2="944.0156"/></g><g><title>K8sHardenerCLI</title><rect fill="#000000" fill-opacity="0.00000" height="862.7188" width="8" x="344.7456" y="81.2969"/><line style="stroke:#181818;stroke-width:0.5;stroke-dasharray:5.0,5.0;" x1="348.4004" x2="348.4004" y1="81.2969" y2="944.0156"/></g><g><title>ImageScannerModule</title><rect fill="#000000" fill-opacity="0.00000" height="862.7188" width="8" x="501.1064" y="81.2969"/><line style="stroke:#181818;stroke-width:0.5;stroke-dasharray:5.0,5.0;" x1="505.0908" x2="505.0908" y1="81.2969" y2="944.0156"/></g><g><title>TrivyCLI</title><rect fill="#000000" fill-opacity="0.00000" height="862.7188" width="8" x="851.6069" y="81.2969"/><line style="stroke:#181818;stroke-width:0.5;stroke-dasharray:5.0,5.0;" x1="855.3711" x2="855.3711" y1="81.2969" y2="944.0156"/></g><g><title>KubernetesAPIServer</title><rect fill="#000000" fill-opacity="0.00000" height="862.7188" width="8" x="977.9683" y="81.2969"/><line style="stroke:#181818;stroke-width:0.5;stroke-dasharray:5.0,5.0;" x1="981.8428" x2="981.8428" y1="81.2969" y2="944.0156"/></g><g class="participant participant-head" data-participant="User"><text fill="#000000" font-family="sans-serif" font-size="14" lengthAdjust="spacing" textLength="31.9102" x="20" y="77.9951">User</text><ellipse cx="38.9551" cy="13.5" fill="#E2E2F0" rx="8" ry="8" style="stroke:#181818;stroke-width:0.5;"/><path d="M38.9551,21.5 L38.9551,48.5 M25.9551,29.5 L51.9551,29.5 M38.9551,48.5 L25.9551,63.5 M38.9551,48.5 L51.9551,63.5" fill="none" style="stroke:#181818;stroke-width:0.5;"/></g><g class="participant participant-tail" data-participant="User"><text fill="#000000" font-family="sans-serif" font-size="14" lengthAdjust="spacing" textLength="31.9102" x="20" y="956.0107">User</text><ellipse cx="38.9551" cy="967.8125" fill="#E2E2F0" rx="8" ry="8" style="stroke:#181818;stroke-width:0.5;"/><path d="M38.9551,975.8125 L38.9551,1002.8125 M25.9551,983.8125 L51.9551,983.8125 M38.9551,1002.8125 L25.9551,1017.8125 M38.9551,1002.8125 L51.9551,1017.8125" fill="none" style="stroke:#181818;stroke-width:0.5;"/></g><g class="participant participant-head" data-participant="K8sHardenerCLI"><rect fill="#E2E2F0" height="30.2969" rx="2.5" ry="2.5" style="stroke:#181818;stroke-width:0.5;" width="126.6904" x="285.4004" y="50"/><text fill="#000000" font-family="sans-serif" font-size="14" lengthAdjust="spacing" textLength="112.6904" x="292.4004" y="69.9951">K8sHardenerCLI</text></g><g class="participant participant-tail" data-participant="K8sHardenerCLI"><rect fill="#E2E2F0" height="30.2969" rx="2.5" ry="2.5" style="stroke:#181818;stroke-width:0.5;" width="126.6904" x="285.4004" y="943.0156"/><text fill="#000000" font-family="sans-serif" font-size="14" lengthAdjust="spacing" textLength="112.6904" x="292.4004" y="963.0107">K8sHardenerCLI</text></g><g class="participant participant-head" data-participant="ImageScannerModule"><rect fill="#E2E2F0" height="30.2969" rx="2.5" ry="2.5" style="stroke:#181818;stroke-width:0.5;" width="166.0313" x="422.0908" y="50"/><text fill="#000000" font-family="sans-serif" font-size="14" lengthAdjust="spacing" textLength="152.0313" x="429.0908" y="69.9951">ImageScannerModule</text></g><g class="participant participant-tail" data-participant="ImageScannerModule"><rect fill="#E2E2F0" height="30.2969" rx="2.5" ry="2.5" style="stroke:#181818;stroke-width:0.5;" width="166.0313" x="422.0908" y="943.0156"/><text fill="#000000" font-family="sans-serif" font-size="14" lengthAdjust="spacing" textLength="152.0313" x="429.0908" y="963.0107">ImageScannerModule</text></g><g class="participant participant-head" data-participant="TrivyCLI"><rect fill="#E2E2F0" height="30.2969" rx="2.5" ry="2.5" style="stroke:#181818;stroke-width:0.5;" width="70.4717" x="820.3711" y="50"/><text fill="#000000" font-family="sans-serif" font-size="14" lengthAdjust="spacing" textLength="56.4717" x="827.3711" y="69.9951">TrivyCLI</text></g><g class="participant participant-tail" data-participant="TrivyCLI"><rect fill="#E2E2F0" height="30.2969" rx="2.5" ry="2.5" style="stroke:#181818;stroke-width:0.5;" width="70.4717" x="820.3711" y="943.0156"/><text fill="#000000" font-family="sans-serif" font-size="14" lengthAdjust="spacing" textLength="56.4717" x="827.3711" y="963.0107">TrivyCLI</text></g><g class="participant participant-head" data-participant="KubernetesAPIServer"><rect fill="#E2E2F0" height="30.2969" rx="2.5" ry="2.5" style="stroke:#181818;stroke-width:0.5;" width="162.251" x="900.8428" y="50"/><text fill="#000000" font-family="sans-serif" font-size="14" lengthAdjust="spacing" textLength="148.251" x="907.8428" y="69.9951">KubernetesAPIServer</text></g><g class="participant participant-tail" data-participant="KubernetesAPIServer"><rect fill="#E2E2F0" height="30.2969" rx="2.5" ry="2.5" style="stroke:#181818;stroke-width:0.5;" width="162.251" x="900.8428" y="943.0156"/><text fill="#000000" font-family="sans-serif" font-size="14" lengthAdjust="spacing" textLength="148.251" x="907.8428" y="963.0107">KubernetesAPIServer</text></g><g><title>User</title><rect fill="#FFFFFF" height="29.1328" style="stroke:#181818;stroke-width:1;" width="10" x="33.9551" y="374.7578"/></g><g><title>User</title><rect fill="#FFFFFF" height="29.1328" style="stroke:#181818;stroke-width:1;" width="10" x="33.9551" y="457.1563"/></g><g><title>User</title><rect fill="#FFFFFF" height="29.1328" style="stroke:#181818;stroke-width:1;" width="10" x="33.9551" y="515.4219"/></g><g><title>K8sHardenerCLI</title><rect fill="#FFFFFF" height="798.4531" style="stroke:#181818;stroke-width:1;" width="10" x="343.7456" y="127.5625"/></g><g><title>ImageScannerModule</title><rect fill="#FFFFFF" height="769.3203" style="stroke:#181818;stroke-width:1;" width="10" x="500.1064" y="156.6953"/></g><g><title>TrivyCLI</title><rect fill="#FFFFFF" height="29.1328" style="stroke:#181818;stroke-width:1;" width="10" x="850.6069" y="227.9609"/></g><g><title>TrivyCLI</title><rect fill="#FFFFFF" height="29.1328" style="stroke:#181818;stroke-width:1;" width="10" x="850.6069" y="718.2188"/></g><g><title>KubernetesAPIServer</title><rect fill="#FFFFFF" height="29.1328" style="stroke:#181818;stroke-width:1;" width="10" x="976.9683" y="286.2266"/></g><g class="message" data-participant-1="User" data-participant-2="K8sHardenerCLI"><polygon fill="#181818" points="331.7456,123.5625,341.7456,127.5625,331.7456,131.5625,335.7456,127.5625" style="stroke:#181818;stroke-width:1;"/><line style="stroke:#181818;stroke-width:1;" x1="38.9551" x2="337.7456" y1="127.5625" y2="127.5625"/><text fill="#000000" font-family="sans-serif" font-size="13" lengthAdjust="spacing" textLength="106.355" x="45.9551" y="107.3638">Navigate menus</text><text fill="#000000" font-family="sans-serif" font-size="13" lengthAdjust="spacing" textLength="285.7905" x="45.9551" y="122.4966">"Image &amp; Supply Chain" &#8594; "Image Scanner"</text></g><g class="message" data-participant-1="K8sHardenerCLI" data-participant-2="ImageScannerModule"><polygon fill="#181818" points="488.1064,152.6953,498.1064,156.6953,488.1064,160.6953,492.1064,156.6953" style="stroke:#181818;stroke-width:1;"/><line style="stroke:#181818;stroke-width:1;" x1="353.7456" x2="494.1064" y1="156.6953" y2="156.6953"/><text fill="#000000" font-family="sans-serif" font-size="13" lengthAdjust="spacing" textLength="31.9668" x="360.7456" y="151.6294">run()</text></g><g class="message" data-participant-1="ImageScannerModule" data-participant-2="ImageScannerModule"><line style="stroke:#181818;stroke-width:1;" x1="510.1064" x2="552.1064" y1="185.8281" y2="185.8281"/><line style="stroke:#181818;stroke-width:1;" x1="552.1064" x2="552.1064" y1="185.8281" y2="198.8281"/><line style="stroke:#181818;stroke-width:1;" x1="511.1064" x2="552.1064" y1="198.8281" y2="198.8281"/><polygon fill="#181818" points="521.1064,194.8281,511.1064,198.8281,521.1064,202.8281,517.1064,198.8281" style="stroke:#181818;stroke-width:1;"/><text fill="#000000" font-family="sans-serif" font-size="13" lengthAdjust="spacing" textLength="152.3057" x="517.1064" y="180.7622">_check_trivy_installed()</text></g><g class="message" data-participant-1="ImageScannerModule" data-participant-2="TrivyCLI"><polygon fill="#181818" points="838.6069,223.9609,848.6069,227.9609,838.6069,231.9609,842.6069,227.9609" style="stroke:#181818;stroke-width:1;"/><line style="stroke:#181818;stroke-width:1;" x1="510.1064" x2="844.6069" y1="227.9609" y2="227.9609"/><text fill="#000000" font-family="sans-serif" font-size="13" lengthAdjust="spacing" textLength="90.5684" x="517.1064" y="222.895">trivy --version</text></g><g class="message" data-participant-1="TrivyCLI" data-participant-2="ImageScannerModule"><polygon fill="#181818" points="521.1064,253.0938,511.1064,257.0938,521.1064,261.0938,517.1064,257.0938" style="stroke:#181818;stroke-width:1;"/><line style="stroke:#181818;stroke-width:1;stroke-dasharray:2.0,2.0;" x1="515.1064" x2="854.6069" y1="257.0938" y2="257.0938"/><text fill="#000000" font-family="sans-serif" font-size="13" lengthAdjust="spacing" textLength="76.1274" x="527.1064" y="252.0278">version info</text></g><g class="message" data-participant-1="ImageScannerModule" data-participant-2="KubernetesAPIServer"><polygon fill="#181818" points="964.9683,282.2266,974.9683,286.2266,964.9683,290.2266,968.9683,286.2266" style="stroke:#181818;stroke-width:1;"/><line style="stroke:#181818;stroke-width:1;" x1="510.1064" x2="970.9683" y1="286.2266" y2="286.2266"/><text fill="#000000" font-family="sans-serif" font-size="13" lengthAdjust="spacing" textLength="142.3716" x="517.1064" y="281.1606">_get_k8s_api_clients()</text></g><g class="message" data-participant-1="KubernetesAPIServer" data-participant-2="ImageScannerModule"><polygon fill="#181818" points="521.1064,311.3594,511.1064,315.3594,521.1064,319.3594,517.1064,315.3594" style="stroke:#181818;stroke-width:1;"/><line style="stroke:#181818;stroke-width:1;stroke-dasharray:2.0,2.0;" x1="515.1064" x2="980.9683" y1="315.3594" y2="315.3594"/><text fill="#000000" font-family="sans-serif" font-size="13" lengthAdjust="spacing" textLength="102.2734" x="527.1064" y="310.2935">client initialized</text></g><g class="message" data-participant-1="ImageScannerModule" data-participant-2="User"><polygon fill="#181818" points="54.9551,370.7578,44.9551,374.7578,54.9551,378.7578,50.9551,374.7578" style="stroke:#181818;stroke-width:1;"/><line style="stroke:#181818;stroke-width:1;" x1="48.9551" x2="499.1064" y1="374.7578" y2="374.7578"/><text fill="#000000" font-family="sans-serif" font-size="13" lengthAdjust="spacing" textLength="142.6763" x="60.9551" y="339.4263">"Select image source:</text><text fill="#000000" font-family="sans-serif" font-size="13" lengthAdjust="spacing" textLength="123.2144" x="60.9551" y="354.5591">1) List from cluster</text><text fill="#000000" font-family="sans-serif" font-size="13" lengthAdjust="spacing" textLength="223.3486" x="60.9551" y="369.6919">2) Manually enter image name(s)"</text></g><g class="message" data-participant-1="User" data-participant-2="ImageScannerModule"><polygon fill="#181818" points="488.1064,399.8906,498.1064,403.8906,488.1064,407.8906,492.1064,403.8906" style="stroke:#181818;stroke-width:1;"/><line style="stroke:#181818;stroke-width:1;stroke-dasharray:2.0,2.0;" x1="38.9551" x2="494.1064" y1="403.8906" y2="403.8906"/><text fill="#000000" font-family="sans-serif" font-size="13" lengthAdjust="spacing" textLength="8.271" x="45.9551" y="398.8247">2</text></g><path d="M10,418.8906 L86.624,418.8906 L86.624,426.0234 L76.624,436.0234 L10,436.0234 L10,418.8906" fill="#EEEEEE" style="stroke:#000000;stroke-width:1.5;"/><rect fill="none" height="133.6641" style="stroke:#000000;stroke-width:1.5;" width="588.1221" x="10" y="418.8906"/><text fill="#000000" font-family="sans-serif" font-size="13" font-weight="bold" lengthAdjust="spacing" textLength="31.624" x="25" y="431.9575">loop</text><text fill="#000000" font-family="sans-serif" font-size="11" font-weight="bold" lengthAdjust="spacing" textLength="134.0732" x="101.624" y="431.1011">[Manual image entry]</text><g class="message" data-participant-1="ImageScannerModule" data-participant-2="User"><polygon fill="#181818" points="54.9551,453.1563,44.9551,457.1563,54.9551,461.1563,50.9551,457.1563" style="stroke:#181818;stroke-width:1;"/><line style="stroke:#181818;stroke-width:1;" x1="48.9551" x2="499.1064" y1="457.1563" y2="457.1563"/><text fill="#000000" font-family="sans-serif" font-size="13" lengthAdjust="spacing" textLength="222.0664" x="60.9551" y="452.0903">"Image name (e.g., nginx:latest):"</text></g><g class="message" data-participant-1="User" data-participant-2="ImageScannerModule"><polygon fill="#181818" points="488.1064,482.2891,498.1064,486.2891,488.1064,490.2891,492.1064,486.2891" style="stroke:#181818;stroke-width:1;"/><line style="stroke:#181818;stroke-width:1;stroke-dasharray:2.0,2.0;" x1="38.9551" x2="494.1064" y1="486.2891" y2="486.2891"/><text fill="#000000" font-family="sans-serif" font-size="13" lengthAdjust="spacing" textLength="80.6025" x="45.9551" y="481.2231">alpine:latest</text></g><g class="message" data-participant-1="ImageScannerModule" data-participant-2="User"><polygon fill="#181818" points="54.9551,511.4219,44.9551,515.4219,54.9551,519.4219,50.9551,515.4219" style="stroke:#181818;stroke-width:1;"/><line style="stroke:#181818;stroke-width:1;" x1="48.9551" x2="499.1064" y1="515.4219" y2="515.4219"/><text fill="#000000" font-family="sans-serif" font-size="13" lengthAdjust="spacing" textLength="156.5396" x="60.9551" y="510.356">"Add another? (yes/no)"</text></g><g class="message" data-participant-1="User" data-participant-2="ImageScannerModule"><polygon fill="#181818" points="488.1064,540.5547,498.1064,544.5547,488.1064,548.5547,492.1064,544.5547" style="stroke:#181818;stroke-width:1;"/><line style="stroke:#181818;stroke-width:1;stroke-dasharray:2.0,2.0;" x1="38.9551" x2="494.1064" y1="544.5547" y2="544.5547"/><text fill="#000000" font-family="sans-serif" font-size="13" lengthAdjust="spacing" textLength="16.1929" x="45.9551" y="539.4888">no</text></g><g class="message" data-participant-1="ImageScannerModule" data-participant-2="ImageScannerModule"><line style="stroke:#181818;stroke-width:1;" x1="510.1064" x2="552.1064" y1="580.6875" y2="580.6875"/><line style="stroke:#181818;stroke-width:1;" x1="552.1064" x2="552.1064" y1="580.6875" y2="593.6875"/><line style="stroke:#181818;stroke-width:1;" x1="511.1064" x2="552.1064" y1="593.6875" y2="593.6875"/><polygon fill="#181818" points="521.1064,589.6875,511.1064,593.6875,521.1064,597.6875,517.1064,593.6875" style="stroke:#181818;stroke-width:1;"/><text fill="#000000" font-family="sans-serif" font-size="13" lengthAdjust="spacing" textLength="225.3037" x="517.1064" y="575.6216">images_to_scan = ["alpine:latest"]</text></g><path d="M10,608.6875 L86.624,608.6875 L86.624,615.8203 L76.624,625.8203 L10,625.8203 L10,608.6875" fill="#EEEEEE" style="stroke:#000000;stroke-width:1.5;"/><rect fill="none" height="260.0625" style="stroke:#000000;stroke-width:1.5;" width="890.8428" x="10" y="608.6875"/><text fill="#000000" font-family="sans-serif" font-size="13" font-weight="bold" lengthAdjust="spacing" textLength="31.624" x="25" y="621.7544">loop</text><text fill="#000000" font-family="sans-serif" font-size="11" font-weight="bold" lengthAdjust="spacing" textLength="221.3696" x="101.624" y="620.8979">[For each image in images_to_scan]</text><g class="message" data-participant-1="ImageScannerModule" data-participant-2="ImageScannerModule"><line style="stroke:#181818;stroke-width:1;" x1="510.1064" x2="552.1064" y1="646.9531" y2="646.9531"/><line style="stroke:#181818;stroke-width:1;" x1="552.1064" x2="552.1064" y1="646.9531" y2="659.9531"/><line style="stroke:#181818;stroke-width:1;" x1="511.1064" x2="552.1064" y1="659.9531" y2="659.9531"/><polygon fill="#181818" points="521.1064,655.9531,511.1064,659.9531,521.1064,663.9531,517.1064,659.9531" style="stroke:#181818;stroke-width:1;"/><text fill="#000000" font-family="sans-serif" font-size="13" lengthAdjust="spacing" textLength="203.5947" x="517.1064" y="641.8872">_run_trivy_scan("alpine:latest")</text></g><g class="message" data-participant-1="ImageScannerModule" data-participant-2="User"><polygon fill="#181818" points="49.9551,685.0859,39.9551,689.0859,49.9551,693.0859,45.9551,689.0859" style="stroke:#181818;stroke-width:1;"/><line style="stroke:#181818;stroke-width:1;" x1="43.9551" x2="499.1064" y1="689.0859" y2="689.0859"/><text fill="#000000" font-family="sans-serif" font-size="13" lengthAdjust="spacing" textLength="304.6304" x="55.9551" y="684.02">"Running Trivy scan for image: alpine:latest..."</text></g><g class="message" data-participant-1="ImageScannerModule" data-participant-2="TrivyCLI"><polygon fill="#181818" points="838.6069,714.2188,848.6069,718.2188,838.6069,722.2188,842.6069,718.2188" style="stroke:#181818;stroke-width:1;"/><line style="stroke:#181818;stroke-width:1;" x1="510.1064" x2="844.6069" y1="718.2188" y2="718.2188"/><text fill="#000000" font-family="sans-serif" font-size="13" lengthAdjust="spacing" textLength="246.6255" x="517.1064" y="713.1528">trivy image --format json alpine:latest</text></g><g class="message" data-participant-1="TrivyCLI" data-participant-2="ImageScannerModule"><polygon fill="#181818" points="521.1064,743.3516,511.1064,747.3516,521.1064,751.3516,517.1064,747.3516" style="stroke:#181818;stroke-width:1;"/><line style="stroke:#181818;stroke-width:1;stroke-dasharray:2.0,2.0;" x1="515.1064" x2="854.6069" y1="747.3516" y2="747.3516"/><text fill="#000000" font-family="sans-serif" font-size="13" lengthAdjust="spacing" textLength="79.0537" x="527.1064" y="742.2856">JSON output</text></g><g class="message" data-participant-1="ImageScannerModule" data-participant-2="ImageScannerModule"><line style="stroke:#181818;stroke-width:1;" x1="510.1064" x2="552.1064" y1="776.4844" y2="776.4844"/><line style="stroke:#181818;stroke-width:1;" x1="552.1064" x2="552.1064" y1="776.4844" y2="789.4844"/><line style="stroke:#181818;stroke-width:1;" x1="511.1064" x2="552.1064" y1="789.4844" y2="789.4844"/><polygon fill="#181818" points="521.1064,785.4844,511.1064,789.4844,521.1064,793.4844,517.1064,789.4844" style="stroke:#181818;stroke-width:1;"/><text fill="#000000" font-family="sans-serif" font-size="13" lengthAdjust="spacing" textLength="119.52" x="517.1064" y="771.4185">parse JSON output</text></g><g class="message" data-participant-1="ImageScannerModule" data-participant-2="ImageScannerModule"><line style="stroke:#181818;stroke-width:1;" x1="510.1064" x2="552.1064" y1="818.6172" y2="818.6172"/><line style="stroke:#181818;stroke-width:1;" x1="552.1064" x2="552.1064" y1="818.6172" y2="831.6172"/><line style="stroke:#181818;stroke-width:1;" x1="511.1064" x2="552.1064" y1="831.6172" y2="831.6172"/><polygon fill="#181818" points="521.1064,827.6172,511.1064,831.6172,521.1064,835.6172,517.1064,831.6172" style="stroke:#181818;stroke-width:1;"/><text fill="#000000" font-family="sans-serif" font-size="13" lengthAdjust="spacing" textLength="316.5005" x="517.1064" y="813.5513">_display_scan_results("alpine:latest", scan_data)</text></g><g class="message" data-participant-1="ImageScannerModule" data-participant-2="User"><polygon fill="#181818" points="49.9551,856.75,39.9551,860.75,49.9551,864.75,45.9551,860.75" style="stroke:#181818;stroke-width:1;"/><line style="stroke:#181818;stroke-width:1;" x1="43.9551" x2="499.1064" y1="860.75" y2="860.75"/><text fill="#000000" font-family="sans-serif" font-size="13" lengthAdjust="spacing" textLength="199.2275" x="55.9551" y="855.6841">Display formatted scan results</text></g><g class="message" data-participant-1="ImageScannerModule" data-participant-2="User"><polygon fill="#181818" points="49.9551,892.8828,39.9551,896.8828,49.9551,900.8828,45.9551,896.8828" style="stroke:#181818;stroke-width:1;"/><line style="stroke:#181818;stroke-width:1;" x1="43.9551" x2="499.1064" y1="896.8828" y2="896.8828"/><text fill="#000000" font-family="sans-serif" font-size="13" lengthAdjust="spacing" textLength="174.8398" x="55.9551" y="891.8169">"Image scanning finished."</text></g><g class="message" data-participant-1="ImageScannerModule" data-participant-2="K8sHardenerCLI"><polygon fill="#181818" points="359.7456,922.0156,349.7456,926.0156,359.7456,930.0156,355.7456,926.0156" style="stroke:#181818;stroke-width:1;"/><line style="stroke:#181818;stroke-width:1;stroke-dasharray:2.0,2.0;" x1="353.7456" x2="504.1064" y1="926.0156" y2="926.0156"/><text fill="#000000" font-family="sans-serif" font-size="13" lengthAdjust="spacing" textLength="96.8208" x="365.7456" y="920.9497">run() complete</text></g><!--SRC=[bLNRZjCm47tFLupoW1ffMyG-hI81MYr2bBs0A3nH59bacffrnv7jL9GFu0FuHBw4oMLtazHfwLiRUyuvS-PYaJfju8j54nJ2E9dAGf23wmlxJfWC2StLpRntDD-871Uf83wxrLcfi7VysSZjRXXpNNv7G-ZGNdwSBz1icIweI67wQi0LmvtOobmuX0rIQPSKrepm31PbKQWTNAs5f13-_lu3xL6h9Wn4wkIs2Xte3_h_AzRzD68m9KsY9n1Ffi7-jp6m95rZUf-uoez4adL2ASmOtm_nu5iCTGHCfsoIbPgUz3nQ-_23B_cvsr2GjD91Xli88o8yTU94SdJ9_OLDH26JL4aaPxis-Ohh-JOgje5ahT99eUGlpBgIlQtZLryrL0pX0XMcZ5UtXjMbIJ5Uqei8RgHri39wmvIbTMYMT1x1hQ2IIxC35i4gcp0I6vpOgDDHzOWqBJkIntbNTdqzK5eNBK4Bp2Hc5m0Sp63-g04cECjdPq2vf9-nOcJheZXaW3uJm45fGXMIi8tdoqEXH_HSPXa8qcwDvZLCTcYVauvE5a7QmuoKdJ9KjOasSJgnV00luMlOootyrfh-bhSQKwrRsoKDGaTJzeuoBuPsaAlOoO0pEkRVfv98KjwC7zJALxfjjK5nPhDPE0ett15DRjCfWss4Wn-MHtvOwltP1pYwFzulFjo1BbrH3hgb0_B_zl5BO760UOBvcRI54etrYK5RAju_WnASrQuccN3YM3NUD73GcEOmQmhI0XzgoDvqLa5rKLUykEmQCwwRByppmDNF3AHwKoZUQzsjuNbnkgkmX_CF]--></g></svg>