<svg xmlns="http://www.w3.org/2000/svg" xmlns:xlink="http://www.w3.org/1999/xlink" contentStyleType="text/css" data-diagram-type="SEQUENCE" height="1128px" preserveAspectRatio="none" style="width:2540px;height:1128px;background:#FFFFFF;" version="1.1" viewBox="0 0 2540 1128" width="2540px" zoomAndPan="magnify"><defs/><g><g><title>User</title><rect fill="#FFFFFF" height="43.1016" style="stroke:#181818;stroke-width:1;" width="10" x="46.4912" y="211.4063"/></g><g><title>User</title><rect fill="#FFFFFF" height="43.1016" style="stroke:#181818;stroke-width:1;" width="10" x="46.4912" y="931.1328"/></g><g><title>K8sHardenerCLI</title><rect fill="#FFFFFF" height="43.1016" style="stroke:#181818;stroke-width:1;" width="10" x="1026.1187" y="168.3047"/></g><g><title>K8sHardenerCLI</title><rect fill="#FFFFFF" height="762.8281" style="stroke:#181818;stroke-width:1;" width="10" x="1026.1187" y="254.5078"/></g><g><title>IstioInstallerModule</title><rect fill="#FFFFFF" height="719.7266" style="stroke:#181818;stroke-width:1;" width="10" x="1395.231" y="297.6094"/></g><g><title>IstioInstallTool</title><rect fill="#FFFFFF" height="129.3047" style="stroke:#181818;stroke-width:1;" width="10" x="1926.416" y="492.1172"/></g><g><title>IstioInstallTool</title><rect fill="#FFFFFF" height="86.2031" style="stroke:#181818;stroke-width:1;" width="10" x="1926.416" y="738.7266"/></g><g><title>KubernetesAPIServer</title><rect fill="#FFFFFF" height="43.1016" style="stroke:#181818;stroke-width:1;" width="10" x="2379.2319" y="535.2188"/></g><rect fill="none" height="464.2188" style="stroke:#000000;stroke-width:1.5;" width="2523.5989" x="10" y="368.7109"/><g><title>User</title><rect fill="#000000" fill-opacity="0.00000" height="941.2344" width="8" x="47.4912" y="94.1016"/><line style="stroke:#181818;stroke-width:0.5;stroke-dasharray:5.0,5.0;" x1="51" x2="51" y1="94.1016" y2="1035.3359"/></g><g><title>K8sHardenerCLI</title><rect fill="#000000" fill-opacity="0.00000" height="941.2344" width="8" x="1027.1187" y="94.1016"/><line style="stroke:#181818;stroke-width:0.5;stroke-dasharray:5.0,5.0;" x1="1030.5022" x2="1030.5022" y1="94.1016" y2="1035.3359"/></g><g><title>IstioInstallerModule</title><rect fill="#000000" fill-opacity="0.00000" height="941.2344" width="8" x="1396.231" y="94.1016"/><line style="stroke:#181818;stroke-width:0.5;stroke-dasharray:5.0,5.0;" x1="1400.0996" x2="1400.0996" y1="94.1016" y2="1035.3359"/></g><g><title>IstioInstallTool</title><rect fill="#000000" fill-opacity="0.00000" height="941.2344" width="8" x="1927.416" y="94.1016"/><line style="stroke:#181818;stroke-width:0.5;stroke-dasharray:5.0,5.0;" x1="1931.1633" x2="1931.1633" y1="94.1016" y2="1035.3359"/></g><g><title>KubernetesAPIServer</title><rect fill="#000000" fill-opacity="0.00000" height="941.2344" width="8" x="2380.2319" y="94.1016"/><line style="stroke:#181818;stroke-width:0.5;stroke-dasharray:5.0,5.0;" x1="2383.865" x2="2383.865" y1="94.1016" y2="1035.3359"/></g><g class="participant participant-head" data-participant="User"><text fill="#000000" font-family="Arial" font-size="25" lengthAdjust="spacing" textLength="56.9824" x="20" y="88.2056">User</text><ellipse cx="51.4912" cy="13.5" fill="#E2E2F0" rx="8" ry="8" style="stroke:#181818;stroke-width:0.5;"/><path d="M51.4912,21.5 L51.4912,48.5 M38.4912,29.5 L64.4912,29.5 M51.4912,48.5 L38.4912,63.5 M51.4912,48.5 L64.4912,63.5" fill="none" style="stroke:#181818;stroke-width:0.5;"/></g><g class="participant participant-tail" data-participant="User"><text fill="#000000" font-family="Arial" font-size="25" lengthAdjust="spacing" textLength="56.9824" x="20" y="1057.5415">User</text><ellipse cx="51.4912" cy="1071.9375" fill="#E2E2F0" rx="8" ry="8" style="stroke:#181818;stroke-width:0.5;"/><path d="M51.4912,1079.9375 L51.4912,1106.9375 M38.4912,1087.9375 L64.4912,1087.9375 M51.4912,1106.9375 L38.4912,1121.9375 M51.4912,1106.9375 L64.4912,1121.9375" fill="none" style="stroke:#181818;stroke-width:0.5;"/></g><g class="participant participant-head" data-participant="K8sHardenerCLI"><rect fill="#E2E2F0" height="43.1016" rx="2.5" ry="2.5" style="stroke:#181818;stroke-width:0.5;" width="215.2329" x="923.5022" y="50"/><text fill="#000000" font-family="Arial" font-size="25" lengthAdjust="spacing" textLength="201.2329" x="930.5022" y="80.2056">K8sHardenerCLI</text></g><g class="participant participant-tail" data-participant="K8sHardenerCLI"><rect fill="#E2E2F0" height="43.1016" rx="2.5" ry="2.5" style="stroke:#181818;stroke-width:0.5;" width="215.2329" x="923.5022" y="1034.3359"/><text fill="#000000" font-family="Arial" font-size="25" lengthAdjust="spacing" textLength="201.2329" x="930.5022" y="1064.5415">K8sHardenerCLI</text></g><g class="participant participant-head" data-participant="IstioInstallerModule"><rect fill="#E2E2F0" height="43.1016" rx="2.5" ry="2.5" style="stroke:#181818;stroke-width:0.5;" width="258.2627" x="1271.0996" y="50"/><text fill="#000000" font-family="Arial" font-size="25" lengthAdjust="spacing" textLength="244.2627" x="1278.0996" y="80.2056">IstioInstallerModule</text></g><g class="participant participant-tail" data-participant="IstioInstallerModule"><rect fill="#E2E2F0" height="43.1016" rx="2.5" ry="2.5" style="stroke:#181818;stroke-width:0.5;" width="258.2627" x="1271.0996" y="1034.3359"/><text fill="#000000" font-family="Arial" font-size="25" lengthAdjust="spacing" textLength="244.2627" x="1278.0996" y="1064.5415">IstioInstallerModule</text></g><g class="participant participant-head" data-participant="IstioInstallTool"><rect fill="#E2E2F0" height="43.1016" rx="2.5" ry="2.5" style="stroke:#181818;stroke-width:0.5;" width="194.5054" x="1834.1633" y="50"/><text fill="#000000" font-family="Arial" font-size="25" lengthAdjust="spacing" textLength="180.5054" x="1841.1633" y="80.2056">IstioInstallTool</text></g><g class="participant participant-tail" data-participant="IstioInstallTool"><rect fill="#E2E2F0" height="43.1016" rx="2.5" ry="2.5" style="stroke:#181818;stroke-width:0.5;" width="194.5054" x="1834.1633" y="1034.3359"/><text fill="#000000" font-family="Arial" font-size="25" lengthAdjust="spacing" textLength="180.5054" x="1841.1633" y="1064.5415">IstioInstallTool</text></g><g class="participant participant-head" data-participant="KubernetesAPIServer"><rect fill="#E2E2F0" height="43.1016" rx="2.5" ry="2.5" style="stroke:#181818;stroke-width:0.5;" width="278.7339" x="2244.865" y="50"/><text fill="#000000" font-family="Arial" font-size="25" lengthAdjust="spacing" textLength="264.7339" x="2251.865" y="80.2056">KubernetesAPIServer</text></g><g class="participant participant-tail" data-participant="KubernetesAPIServer"><rect fill="#E2E2F0" height="43.1016" rx="2.5" ry="2.5" style="stroke:#181818;stroke-width:0.5;" width="278.7339" x="2244.865" y="1034.3359"/><text fill="#000000" font-family="Arial" font-size="25" lengthAdjust="spacing" textLength="264.7339" x="2251.865" y="1064.5415">KubernetesAPIServer</text></g><g><title>User</title><rect fill="#FFFFFF" height="43.1016" style="stroke:#181818;stroke-width:1;" width="10" x="46.4912" y="211.4063"/></g><g><title>User</title><rect fill="#FFFFFF" height="43.1016" style="stroke:#181818;stroke-width:1;" width="10" x="46.4912" y="931.1328"/></g><g><title>K8sHardenerCLI</title><rect fill="#FFFFFF" height="43.1016" style="stroke:#181818;stroke-width:1;" width="10" x="1026.1187" y="168.3047"/></g><g><title>K8sHardenerCLI</title><rect fill="#FFFFFF" height="762.8281" style="stroke:#181818;stroke-width:1;" width="10" x="1026.1187" y="254.5078"/></g><g><title>IstioInstallerModule</title><rect fill="#FFFFFF" height="719.7266" style="stroke:#181818;stroke-width:1;" width="10" x="1395.231" y="297.6094"/></g><g><title>IstioInstallTool</title><rect fill="#FFFFFF" height="129.3047" style="stroke:#181818;stroke-width:1;" width="10" x="1926.416" y="492.1172"/></g><g><title>IstioInstallTool</title><rect fill="#FFFFFF" height="86.2031" style="stroke:#181818;stroke-width:1;" width="10" x="1926.416" y="738.7266"/></g><g><title>KubernetesAPIServer</title><rect fill="#FFFFFF" height="43.1016" style="stroke:#181818;stroke-width:1;" width="10" x="2379.2319" y="535.2188"/></g><g class="message" data-participant-1="User" data-participant-2="K8sHardenerCLI"><polygon fill="#181818" points="1014.1187,164.3047,1024.1187,168.3047,1014.1187,172.3047,1018.1187,168.3047" style="stroke:#181818;stroke-width:1;"/><line style="stroke:#181818;stroke-width:1;" x1="51.4912" x2="1020.1187" y1="168.3047" y2="168.3047"/><text fill="#000000" font-family="Arial" font-size="25" lengthAdjust="spacing" textLength="204.5288" x="58.4912" y="131.3071">Navigate menus</text><text fill="#000000" font-family="Arial" font-size="25" lengthAdjust="spacing" textLength="955.6274" x="58.4912" y="160.4087">"Istio and Zero Trust" &#8594; "Istio Installation Manager" &#8594; "Install/Upgrade Istio"</text></g><g class="message" data-participant-1="K8sHardenerCLI" data-participant-2="User"><polygon fill="#181818" points="67.4912,207.4063,57.4912,211.4063,67.4912,215.4063,63.4912,211.4063" style="stroke:#181818;stroke-width:1;"/><line style="stroke:#181818;stroke-width:1;" x1="61.4912" x2="1030.1187" y1="211.4063" y2="211.4063"/><text fill="#000000" font-family="Arial" font-size="25" lengthAdjust="spacing" textLength="517.5049" x="73.4912" y="203.5103">"Proceed with Istio installation/upgrade?"</text></g><g class="message" data-participant-1="User" data-participant-2="K8sHardenerCLI"><polygon fill="#181818" points="1014.1187,250.5078,1024.1187,254.5078,1014.1187,258.5078,1018.1187,254.5078" style="stroke:#181818;stroke-width:1;"/><line style="stroke:#181818;stroke-width:1;stroke-dasharray:2.0,2.0;" x1="51.4912" x2="1020.1187" y1="254.5078" y2="254.5078"/><text fill="#000000" font-family="Arial" font-size="25" lengthAdjust="spacing" textLength="43.2007" x="58.4912" y="246.6118">yes</text></g><g class="message" data-participant-1="K8sHardenerCLI" data-participant-2="IstioInstallerModule"><polygon fill="#181818" points="1383.231,293.6094,1393.231,297.6094,1383.231,301.6094,1387.231,297.6094" style="stroke:#181818;stroke-width:1;"/><line style="stroke:#181818;stroke-width:1;" x1="1036.1187" x2="1389.231" y1="297.6094" y2="297.6094"/><text fill="#000000" font-family="Arial" font-size="25" lengthAdjust="spacing" textLength="340.1123" x="1043.1187" y="289.7134">install_istio(confirm=False)</text></g><g class="message" data-participant-1="IstioInstallerModule" data-participant-2="IstioInstallerModule"><line style="stroke:#181818;stroke-width:1;" x1="1405.231" x2="1447.231" y1="340.7109" y2="340.7109"/><line style="stroke:#181818;stroke-width:1;" x1="1447.231" x2="1447.231" y1="340.7109" y2="353.7109"/><line style="stroke:#181818;stroke-width:1;" x1="1406.231" x2="1447.231" y1="353.7109" y2="353.7109"/><polygon fill="#181818" points="1416.231,349.7109,1406.231,353.7109,1416.231,357.7109,1412.231,353.7109" style="stroke:#181818;stroke-width:1;"/><text fill="#000000" font-family="Arial" font-size="25" lengthAdjust="spacing" textLength="451.4771" x="1412.231" y="332.8149">Determine Kubernetes environment</text></g><path d="M10,368.7109 L92.3901,368.7109 L92.3901,389.8125 L82.3901,399.8125 L10,399.8125 L10,368.7109" fill="#EEEEEE" style="stroke:#000000;stroke-width:1.5;"/><rect fill="none" height="464.2188" style="stroke:#000000;stroke-width:1.5;" width="2523.5989" x="10" y="368.7109"/><text fill="#000000" font-family="Arial" font-size="25" font-weight="bold" lengthAdjust="spacing" textLength="37.3901" x="25" y="392.9165">alt</text><text fill="#000000" font-family="Arial" font-size="25" font-weight="bold" lengthAdjust="spacing" textLength="490.8936" x="107.3901" y="393.9165">[Generic Kubernetes Environment]</text><g class="message" data-participant-1="IstioInstallerModule" data-participant-2="User"><polygon fill="#181818" points="62.4912,445.0156,52.4912,449.0156,62.4912,453.0156,58.4912,449.0156" style="stroke:#181818;stroke-width:1;"/><line style="stroke:#181818;stroke-width:1;" x1="56.4912" x2="1394.231" y1="449.0156" y2="449.0156"/><text fill="#000000" font-family="Arial" font-size="25" lengthAdjust="spacing" textLength="485.8276" x="68.4912" y="441.1196">"Running 'istioctl install' with profile..."</text></g><g class="message" data-participant-1="IstioInstallerModule" data-participant-2="IstioInstallTool"><polygon fill="#181818" points="1914.416,488.1172,1924.416,492.1172,1914.416,496.1172,1918.416,492.1172" style="stroke:#181818;stroke-width:1;"/><line style="stroke:#181818;stroke-width:1;" x1="1405.231" x2="1920.416" y1="492.1172" y2="492.1172"/><text fill="#000000" font-family="Arial" font-size="25" lengthAdjust="spacing" textLength="502.1851" x="1412.231" y="484.2212">Execute istioctl install -y --set profile=...</text></g><g class="message" data-participant-1="IstioInstallTool" data-participant-2="KubernetesAPIServer"><polygon fill="#181818" points="2367.2319,531.2188,2377.2319,535.2188,2367.2319,539.2188,2371.2319,535.2188" style="stroke:#181818;stroke-width:1;"/><line style="stroke:#181818;stroke-width:1;" x1="1936.416" x2="2373.2319" y1="535.2188" y2="535.2188"/><text fill="#000000" font-family="Arial" font-size="25" lengthAdjust="spacing" textLength="363.9038" x="1943.416" y="527.3228">Apply Istio CRDs &amp; manifests</text></g><g class="message" data-participant-1="KubernetesAPIServer" data-participant-2="IstioInstallTool"><line style="stroke:#181818;stroke-width:1;" x1="1937.416" x2="1947.416" y1="578.3203" y2="574.3203"/><line style="stroke:#181818;stroke-width:1;" x1="1937.416" x2="1947.416" y1="578.3203" y2="582.3203"/><line style="stroke:#181818;stroke-width:1;stroke-dasharray:2.0,2.0;" x1="1936.416" x2="2383.2319" y1="578.3203" y2="578.3203"/><text fill="#000000" font-family="Arial" font-size="25" lengthAdjust="spacing" textLength="76.8188" x="1953.416" y="570.4243">status</text></g><g class="message" data-participant-1="IstioInstallTool" data-participant-2="IstioInstallerModule"><line style="stroke:#181818;stroke-width:1;" x1="1406.231" x2="1416.231" y1="621.4219" y2="617.4219"/><line style="stroke:#181818;stroke-width:1;" x1="1406.231" x2="1416.231" y1="621.4219" y2="625.4219"/><line style="stroke:#181818;stroke-width:1;stroke-dasharray:2.0,2.0;" x1="1405.231" x2="1930.416" y1="621.4219" y2="621.4219"/><text fill="#000000" font-family="Arial" font-size="25" lengthAdjust="spacing" textLength="204.0039" x="1422.231" y="613.5259">command result</text></g><line style="stroke:#000000;stroke-width:1;stroke-dasharray:2.0,2.0;" x1="10" x2="2533.5989" y1="630.4219" y2="630.4219"/><text fill="#000000" font-family="Arial" font-size="25" font-weight="bold" lengthAdjust="spacing" textLength="340.7715" x="15" y="653.6274">[MicroK8s Environment]</text><g class="message" data-participant-1="IstioInstallerModule" data-participant-2="User"><polygon fill="#181818" points="62.4912,691.625,52.4912,695.625,62.4912,699.625,58.4912,695.625" style="stroke:#181818;stroke-width:1;"/><line style="stroke:#181818;stroke-width:1;" x1="56.4912" x2="1394.231" y1="695.625" y2="695.625"/><text fill="#000000" font-family="Arial" font-size="25" lengthAdjust="spacing" textLength="438.7695" x="68.4912" y="687.729">"Running 'microk8s enable istio'..."</text></g><g class="message" data-participant-1="IstioInstallerModule" data-participant-2="IstioInstallTool"><polygon fill="#181818" points="1914.416,734.7266,1924.416,738.7266,1914.416,742.7266,1918.416,738.7266" style="stroke:#181818;stroke-width:1;"/><line style="stroke:#181818;stroke-width:1;" x1="1405.231" x2="1920.416" y1="738.7266" y2="738.7266"/><text fill="#000000" font-family="Arial" font-size="25" lengthAdjust="spacing" textLength="375.3662" x="1412.231" y="730.8306">Execute microk8s.enable istio</text></g><g class="message" data-participant-1="IstioInstallTool" data-participant-2="KubernetesAPIServer"><polygon fill="#181818" points="2372.2319,777.8281,2382.2319,781.8281,2372.2319,785.8281,2376.2319,781.8281" style="stroke:#181818;stroke-width:1;"/><line style="stroke:#181818;stroke-width:1;" x1="1936.416" x2="2378.2319" y1="781.8281" y2="781.8281"/><text fill="#000000" font-family="Arial" font-size="25" lengthAdjust="spacing" textLength="423.8159" x="1943.416" y="773.9321">Enable/configure Istio in MicroK8s</text></g><g class="message" data-participant-1="IstioInstallTool" data-participant-2="IstioInstallerModule"><line style="stroke:#181818;stroke-width:1;" x1="1406.231" x2="1416.231" y1="824.9297" y2="820.9297"/><line style="stroke:#181818;stroke-width:1;" x1="1406.231" x2="1416.231" y1="824.9297" y2="828.9297"/><line style="stroke:#181818;stroke-width:1;stroke-dasharray:2.0,2.0;" x1="1405.231" x2="1930.416" y1="824.9297" y2="824.9297"/><text fill="#000000" font-family="Arial" font-size="25" lengthAdjust="spacing" textLength="204.0039" x="1422.231" y="817.0337">command result</text></g><g class="message" data-participant-1="IstioInstallerModule" data-participant-2="IstioInstallerModule"><line style="stroke:#181818;stroke-width:1;" x1="1405.231" x2="1447.231" y1="875.0313" y2="875.0313"/><line style="stroke:#181818;stroke-width:1;" x1="1447.231" x2="1447.231" y1="875.0313" y2="888.0313"/><line style="stroke:#181818;stroke-width:1;" x1="1406.231" x2="1447.231" y1="888.0313" y2="888.0313"/><polygon fill="#181818" points="1416.231,884.0313,1406.231,888.0313,1416.231,892.0313,1412.231,888.0313" style="stroke:#181818;stroke-width:1;"/><text fill="#000000" font-family="Arial" font-size="25" lengthAdjust="spacing" textLength="230.5176" x="1412.231" y="867.1353">Check return code</text></g><g class="message" data-participant-1="IstioInstallerModule" data-participant-2="User"><polygon fill="#181818" points="67.4912,927.1328,57.4912,931.1328,67.4912,935.1328,63.4912,931.1328" style="stroke:#181818;stroke-width:1;"/><line style="stroke:#181818;stroke-width:1;" x1="61.4912" x2="1394.231" y1="931.1328" y2="931.1328"/><text fill="#000000" font-family="Arial" font-size="25" lengthAdjust="spacing" textLength="371.9238" x="73.4912" y="923.2368">Print success/failure message</text></g><g class="message" data-participant-1="IstioInstallerModule" data-participant-2="User"><polygon fill="#181818" points="62.4912,970.2344,52.4912,974.2344,62.4912,978.2344,58.4912,974.2344" style="stroke:#181818;stroke-width:1;"/><line style="stroke:#181818;stroke-width:1;stroke-dasharray:2.0,2.0;" x1="56.4912" x2="1394.231" y1="974.2344" y2="974.2344"/><text fill="#000000" font-family="Arial" font-size="25" lengthAdjust="spacing" textLength="790.7227" x="68.4912" y="966.3384">"Please wait for pods to be ready in 'istio-system' namespace."</text></g><g class="message" data-participant-1="IstioInstallerModule" data-participant-2="K8sHardenerCLI"><line style="stroke:#181818;stroke-width:1;" x1="1032.1187" x2="1042.1187" y1="1017.3359" y2="1013.3359"/><line style="stroke:#181818;stroke-width:1;" x1="1032.1187" x2="1042.1187" y1="1017.3359" y2="1021.3359"/><line style="stroke:#181818;stroke-width:1;stroke-dasharray:2.0,2.0;" x1="1031.1187" x2="1399.231" y1="1017.3359" y2="1017.3359"/><text fill="#000000" font-family="Arial" font-size="25" lengthAdjust="spacing" textLength="283.5693" x="1048.1187" y="1009.4399">install_istio() complete</text></g><!--SRC=[jLN1Qjj04BthAmOTwkPW6mg5O9eMupYjQHrCcbnAeMnM8sVnQbVih9ow7z0Fo2VsIpehsOuiIu64zYRjZjwRUMzcH2jbSk541Wccej3-mXfFwXV2cxSHjLrUYWnXx9JGKIIajmvk25t4SLv9bGlZuVCfVH8kGODkycLsS3KZh-pCa1TQevlRfD3O6N1jhJu4BcxH6VH8uyNiAxer4qU17lhl6wmZk1HhjHGU8KDJq7SJbz0WJ0BVq5cuTWNv6FxyVe3jrPPMyBE1kJ1YYMuNK5qDR_Ab4mbMQSP10BKE78sIeyFta5v8SmJnmbc9cC2zydSL2gWQxR2e23x4KO9TwFlpKlcg_XO1DaXra3Bu6GctMJNQ9Vj3XTlNqffKkUpiGcZ2aqVqLfkZjjDkfdFssMNAOCrsGBDMpXgsr7FxQGyVGyPArcEcjHY0BjAj7rU5CSeieLSM9BtULTYhBCgTJPN6mM0GFm7MxDeHJ7-YB5Y99YpqDsmMeTyXdp4q8xTALmu071sLtNuy2YCOvxdURBjgSdLEy0eoOLIAvAdEqJP7q7OQ-ggjEdxqHO2iDsahw77kJSH7nwNDiZ2U3ecNpI7waImHSil1N4bdkNTVQ7eMFb-TXhuIjthhLk_5Pk_W1dMuVsNkjCGSbYEtB1pkjyTUXFyfDvhakGCykKEvOdHVECDa2KPFsx9mYdSy5L8YqJ0LIeSgCtxXHToszDxr-ntKyKAZuFQu5yf3ol-et2O4ti8jSa8YsGJPgf7lquOyPZqm_6EZN4WSn4ThioFpe6rpwnuko9EWSgxPogX3tVrwxDptVm40]--></g></svg>