<svg xmlns="http://www.w3.org/2000/svg" xmlns:xlink="http://www.w3.org/1999/xlink" contentStyleType="text/css" data-diagram-type="SEQUENCE" height="1196px" preserveAspectRatio="none" style="width:1326px;height:1196px;background:#FFFFFF;" version="1.1" viewBox="0 0 1326 1196" width="1326px" zoomAndPan="magnify"><defs/><g><g><title>K8sHardenerCLI</title><rect fill="#FFFFFF" height="985" style="stroke:#181818;stroke-width:1;" width="10" x="379.0625" y="118.25"/></g><g><title>RBACHardenerModule</title><rect fill="#FFFFFF" height="97.875" style="stroke:#181818;stroke-width:1;" width="10" x="829.1484" y="150.875"/></g><g><title>RBACHardenerModule</title><rect fill="#FFFFFF" height="265.625" style="stroke:#181818;stroke-width:1;" width="10" x="829.1484" y="346.625"/></g><g><title>RBACHardenerModule</title><rect fill="#FFFFFF" height="32.625" style="stroke:#181818;stroke-width:1;" width="10" x="829.1484" y="644.875"/></g><g><title>RBACHardenerModule</title><rect fill="#FFFFFF" height="393.125" style="stroke:#181818;stroke-width:1;" width="10" x="829.1484" y="710.125"/></g><g><title>KubernetesAPIServer</title><rect fill="#FFFFFF" height="32.625" style="stroke:#181818;stroke-width:1;" width="10" x="1101.2344" y="183.5"/></g><g><title>KubernetesAPIServer</title><rect fill="#FFFFFF" height="32.625" style="stroke:#181818;stroke-width:1;" width="10" x="1101.2344" y="1023"/></g><rect fill="none" height="173.375" style="stroke:#000000;stroke-width:1.5;" width="1071.2031" x="10" y="407.25"/><rect fill="none" height="69.875" style="stroke:#000000;stroke-width:1.5;" width="342.7383" x="728.4648" y="503.75"/><rect fill="none" height="371.125" style="stroke:#000000;stroke-width:1.5;" width="1309.5508" x="10" y="725.125"/><g><title>User</title><rect fill="#000000" fill-opacity="0.00000" height="1029.625" width="8" x="37.2344" y="83.625"/><line style="stroke:#181818;stroke-width:0.5;stroke-dasharray:5.0,5.0;" x1="41" x2="41" y1="83.625" y2="1113.25"/></g><g><title>K8sHardenerCLI</title><rect fill="#000000" fill-opacity="0.00000" height="1029.625" width="8" x="380.0625" y="83.625"/><line style="stroke:#181818;stroke-width:0.5;stroke-dasharray:5.0,5.0;" x1="383.668" x2="383.668" y1="83.625" y2="1113.25"/></g><g><title>RBACHardenerModule</title><rect fill="#000000" fill-opacity="0.00000" height="1029.625" width="8" x="830.1484" y="83.625"/><line style="stroke:#181818;stroke-width:0.5;stroke-dasharray:5.0,5.0;" x1="833.4648" x2="833.4648" y1="83.625" y2="1113.25"/></g><g><title>KubernetesAPIServer</title><rect fill="#000000" fill-opacity="0.00000" height="1029.625" width="8" x="1102.2344" y="83.625"/><line style="stroke:#181818;stroke-width:0.5;stroke-dasharray:5.0,5.0;" x1="1105.5195" x2="1105.5195" y1="83.625" y2="1113.25"/></g><g><title>FileSystem</title><rect fill="#000000" fill-opacity="0.00000" height="1029.625" width="8" x="1254.75" y="83.625"/><line style="stroke:#181818;stroke-width:0.5;stroke-dasharray:5.0,5.0;" x1="1257.9492" x2="1257.9492" y1="83.625" y2="1113.25"/></g><g class="participant participant-head" data-participant="User"><text fill="#000000" font-family="sans-serif" font-size="16" lengthAdjust="spacing" textLength="36.4688" x="20" y="79.8516">User</text><ellipse cx="41.2344" cy="13.5" fill="#E2E2F0" rx="8" ry="8" style="stroke:#181818;stroke-width:0.5;"/><path d="M41.2344,21.5 L41.2344,48.5 M28.2344,29.5 L54.2344,29.5 M41.2344,48.5 L28.2344,63.5 M41.2344,48.5 L54.2344,63.5" fill="none" style="stroke:#181818;stroke-width:0.5;"/></g><g class="participant participant-tail" data-participant="User"><text fill="#000000" font-family="sans-serif" font-size="16" lengthAdjust="spacing" textLength="36.4688" x="20" y="1127.1016">User</text><ellipse cx="41.2344" cy="1139.375" fill="#E2E2F0" rx="8" ry="8" style="stroke:#181818;stroke-width:0.5;"/><path d="M41.2344,1147.375 L41.2344,1174.375 M28.2344,1155.375 L54.2344,1155.375 M41.2344,1174.375 L28.2344,1189.375 M41.2344,1174.375 L54.2344,1189.375" fill="none" style="stroke:#181818;stroke-width:0.5;"/></g><g class="participant participant-head" data-participant="K8sHardenerCLI"><rect fill="#E2E2F0" height="32.625" rx="2.5" ry="2.5" style="stroke:#181818;stroke-width:0.5;" width="142.7891" x="312.668" y="50"/><text fill="#000000" font-family="sans-serif" font-size="16" lengthAdjust="spacing" textLength="128.7891" x="319.668" y="71.8516">K8sHardenerCLI</text></g><g class="participant participant-tail" data-participant="K8sHardenerCLI"><rect fill="#E2E2F0" height="32.625" rx="2.5" ry="2.5" style="stroke:#181818;stroke-width:0.5;" width="142.7891" x="312.668" y="1112.25"/><text fill="#000000" font-family="sans-serif" font-size="16" lengthAdjust="spacing" textLength="128.7891" x="319.668" y="1134.1016">K8sHardenerCLI</text></g><g class="participant participant-head" data-participant="RBACHardenerModule"><rect fill="#E2E2F0" height="32.625" rx="2.5" ry="2.5" style="stroke:#181818;stroke-width:0.5;" width="191.3672" x="738.4648" y="50"/><text fill="#000000" font-family="sans-serif" font-size="16" lengthAdjust="spacing" textLength="177.3672" x="745.4648" y="71.8516">RBACHardenerModule</text></g><g class="participant participant-tail" data-participant="RBACHardenerModule"><rect fill="#E2E2F0" height="32.625" rx="2.5" ry="2.5" style="stroke:#181818;stroke-width:0.5;" width="191.3672" x="738.4648" y="1112.25"/><text fill="#000000" font-family="sans-serif" font-size="16" lengthAdjust="spacing" textLength="177.3672" x="745.4648" y="1134.1016">RBACHardenerModule</text></g><g class="participant participant-head" data-participant="KubernetesAPIServer"><rect fill="#E2E2F0" height="32.625" rx="2.5" ry="2.5" style="stroke:#181818;stroke-width:0.5;" width="183.4297" x="1014.5195" y="50"/><text fill="#000000" font-family="sans-serif" font-size="16" lengthAdjust="spacing" textLength="169.4297" x="1021.5195" y="71.8516">KubernetesAPIServer</text></g><g class="participant participant-tail" data-participant="KubernetesAPIServer"><rect fill="#E2E2F0" height="32.625" rx="2.5" ry="2.5" style="stroke:#181818;stroke-width:0.5;" width="183.4297" x="1014.5195" y="1112.25"/><text fill="#000000" font-family="sans-serif" font-size="16" lengthAdjust="spacing" textLength="169.4297" x="1021.5195" y="1134.1016">KubernetesAPIServer</text></g><g class="participant participant-head" data-participant="FileSystem"><rect fill="#E2E2F0" height="32.625" rx="2.5" ry="2.5" style="stroke:#181818;stroke-width:0.5;" width="101.6016" x="1207.9492" y="50"/><text fill="#000000" font-family="sans-serif" font-size="16" lengthAdjust="spacing" textLength="87.6016" x="1214.9492" y="71.8516">FileSystem</text></g><g class="participant participant-tail" data-participant="FileSystem"><rect fill="#E2E2F0" height="32.625" rx="2.5" ry="2.5" style="stroke:#181818;stroke-width:0.5;" width="101.6016" x="1207.9492" y="1112.25"/><text fill="#000000" font-family="sans-serif" font-size="16" lengthAdjust="spacing" textLength="87.6016" x="1214.9492" y="1134.1016">FileSystem</text></g><g><title>K8sHardenerCLI</title><rect fill="#FFFFFF" height="985" style="stroke:#181818;stroke-width:1;" width="10" x="379.0625" y="118.25"/></g><g><title>RBACHardenerModule</title><rect fill="#FFFFFF" height="97.875" style="stroke:#181818;stroke-width:1;" width="10" x="829.1484" y="150.875"/></g><g><title>RBACHardenerModule</title><rect fill="#FFFFFF" height="265.625" style="stroke:#181818;stroke-width:1;" width="10" x="829.1484" y="346.625"/></g><g><title>RBACHardenerModule</title><rect fill="#FFFFFF" height="32.625" style="stroke:#181818;stroke-width:1;" width="10" x="829.1484" y="644.875"/></g><g><title>RBACHardenerModule</title><rect fill="#FFFFFF" height="393.125" style="stroke:#181818;stroke-width:1;" width="10" x="829.1484" y="710.125"/></g><g><title>KubernetesAPIServer</title><rect fill="#FFFFFF" height="32.625" style="stroke:#181818;stroke-width:1;" width="10" x="1101.2344" y="183.5"/></g><g><title>KubernetesAPIServer</title><rect fill="#FFFFFF" height="32.625" style="stroke:#181818;stroke-width:1;" width="10" x="1101.2344" y="1023"/></g><g class="message" data-participant-1="User" data-participant-2="K8sHardenerCLI"><polygon fill="#181818" points="367.0625,114.25,377.0625,118.25,367.0625,122.25,371.0625,118.25" style="stroke:#181818;stroke-width:1;"/><line style="stroke:#181818;stroke-width:1;" x1="41.2344" x2="373.0625" y1="118.25" y2="118.25"/><text fill="#000000" font-family="sans-serif" font-size="16" lengthAdjust="spacing" textLength="278.9063" x="48.2344" y="112.4766">Navigate menus &#8594; &#8220;Harden RBAC&#8221;</text></g><g class="message" data-participant-1="K8sHardenerCLI" data-participant-2="RBACHardenerModule"><polygon fill="#181818" points="817.1484,146.875,827.1484,150.875,817.1484,154.875,821.1484,150.875" style="stroke:#181818;stroke-width:1;"/><line style="stroke:#181818;stroke-width:1;" x1="389.0625" x2="823.1484" y1="150.875" y2="150.875"/><text fill="#000000" font-family="sans-serif" font-size="16" lengthAdjust="spacing" textLength="96.6406" x="396.0625" y="145.1016">audit_rbac()</text></g><g class="message" data-participant-1="RBACHardenerModule" data-participant-2="KubernetesAPIServer"><polygon fill="#181818" points="1089.2344,179.5,1099.2344,183.5,1089.2344,187.5,1093.2344,183.5" style="stroke:#181818;stroke-width:1;"/><line style="stroke:#181818;stroke-width:1;" x1="839.1484" x2="1095.2344" y1="183.5" y2="183.5"/><text fill="#000000" font-family="sans-serif" font-size="16" lengthAdjust="spacing" textLength="158.2969" x="846.1484" y="177.7266">Request RBAC Data</text></g><g class="message" data-participant-1="KubernetesAPIServer" data-participant-2="RBACHardenerModule"><polygon fill="#181818" points="850.1484,212.125,840.1484,216.125,850.1484,220.125,846.1484,216.125" style="stroke:#181818;stroke-width:1;"/><line style="stroke:#181818;stroke-width:1;stroke-dasharray:2.0,2.0;" x1="844.1484" x2="1105.2344" y1="216.125" y2="216.125"/><text fill="#000000" font-family="sans-serif" font-size="16" lengthAdjust="spacing" textLength="146.6797" x="856.1484" y="210.3516">Return RBAC Data</text></g><g class="message" data-participant-1="RBACHardenerModule" data-participant-2="K8sHardenerCLI"><polygon fill="#181818" points="400.0625,244.75,390.0625,248.75,400.0625,252.75,396.0625,248.75" style="stroke:#181818;stroke-width:1;"/><line style="stroke:#181818;stroke-width:1;stroke-dasharray:2.0,2.0;" x1="394.0625" x2="833.1484" y1="248.75" y2="248.75"/><text fill="#000000" font-family="sans-serif" font-size="16" lengthAdjust="spacing" textLength="112.2734" x="406.0625" y="242.9766">audit_findings</text></g><g class="message" data-participant-1="K8sHardenerCLI" data-participant-2="User"><polygon fill="#181818" points="52.2344,277.375,42.2344,281.375,52.2344,285.375,48.2344,281.375" style="stroke:#181818;stroke-width:1;"/><line style="stroke:#181818;stroke-width:1;" x1="46.2344" x2="378.0625" y1="281.375" y2="281.375"/><text fill="#000000" font-family="sans-serif" font-size="16" lengthAdjust="spacing" textLength="313.8281" x="58.2344" y="275.6016">Prompt to exclude system components</text></g><g class="message" data-participant-1="User" data-participant-2="K8sHardenerCLI"><polygon fill="#181818" points="367.0625,310,377.0625,314,367.0625,318,371.0625,314" style="stroke:#181818;stroke-width:1;"/><line style="stroke:#181818;stroke-width:1;stroke-dasharray:2.0,2.0;" x1="41.2344" x2="373.0625" y1="314" y2="314"/><text fill="#000000" font-family="sans-serif" font-size="16" lengthAdjust="spacing" textLength="241.1016" x="48.2344" y="308.2266">Provide exclusion preferences</text></g><g class="message" data-participant-1="K8sHardenerCLI" data-participant-2="RBACHardenerModule"><polygon fill="#181818" points="817.1484,342.625,827.1484,346.625,817.1484,350.625,821.1484,346.625" style="stroke:#181818;stroke-width:1;"/><line style="stroke:#181818;stroke-width:1;" x1="389.0625" x2="823.1484" y1="346.625" y2="346.625"/><text fill="#000000" font-family="sans-serif" font-size="16" lengthAdjust="spacing" textLength="407.1641" x="396.0625" y="340.8516">interactive_hardening(audit_findings, exclude_opt)</text></g><g class="message" data-participant-1="RBACHardenerModule" data-participant-2="RBACHardenerModule"><line style="stroke:#181818;stroke-width:1;" x1="839.1484" x2="881.1484" y1="379.25" y2="379.25"/><line style="stroke:#181818;stroke-width:1;" x1="881.1484" x2="881.1484" y1="379.25" y2="392.25"/><line style="stroke:#181818;stroke-width:1;" x1="840.1484" x2="881.1484" y1="392.25" y2="392.25"/><polygon fill="#181818" points="850.1484,388.25,840.1484,392.25,850.1484,396.25,846.1484,392.25" style="stroke:#181818;stroke-width:1;"/><text fill="#000000" font-family="sans-serif" font-size="16" lengthAdjust="spacing" textLength="109.3281" x="846.1484" y="373.4766">Filter findings</text></g><path d="M10,407.25 L93.9219,407.25 L93.9219,417.875 L83.9219,427.875 L10,427.875 L10,407.25" fill="#EEEEEE" style="stroke:#000000;stroke-width:1.5;"/><rect fill="none" height="173.375" style="stroke:#000000;stroke-width:1.5;" width="1071.2031" x="10" y="407.25"/><text fill="#000000" font-family="sans-serif" font-size="16" font-weight="bold" lengthAdjust="spacing" textLength="38.9219" x="25" y="423.1016">loop</text><text fill="#000000" font-family="sans-serif" font-size="16" font-weight="bold" lengthAdjust="spacing" textLength="215.75" x="108.9219" y="424.1016">[For each risky binding]</text><g class="message" data-participant-1="RBACHardenerModule" data-participant-2="User"><polygon fill="#181818" points="52.2344,452.125,42.2344,456.125,52.2344,460.125,48.2344,456.125" style="stroke:#181818;stroke-width:1;"/><line style="stroke:#181818;stroke-width:1;" x1="46.2344" x2="828.1484" y1="456.125" y2="456.125"/><text fill="#000000" font-family="sans-serif" font-size="16" lengthAdjust="spacing" textLength="302.4063" x="58.2344" y="450.3516">Display risky binding &amp; prompt action</text></g><g class="message" data-participant-1="User" data-participant-2="RBACHardenerModule"><polygon fill="#181818" points="817.1484,484.75,827.1484,488.75,817.1484,492.75,821.1484,488.75" style="stroke:#181818;stroke-width:1;"/><line style="stroke:#181818;stroke-width:1;stroke-dasharray:2.0,2.0;" x1="41.2344" x2="823.1484" y1="488.75" y2="488.75"/><text fill="#000000" font-family="sans-serif" font-size="16" lengthAdjust="spacing" textLength="186.9141" x="48.2344" y="482.9766">Select binding + action</text></g><path d="M728.4648,503.75 L797.3945,503.75 L797.3945,514.375 L787.3945,524.375 L728.4648,524.375 L728.4648,503.75" fill="#EEEEEE" style="stroke:#000000;stroke-width:1.5;"/><rect fill="none" height="69.875" style="stroke:#000000;stroke-width:1.5;" width="342.7383" x="728.4648" y="503.75"/><text fill="#000000" font-family="sans-serif" font-size="16" font-weight="bold" lengthAdjust="spacing" textLength="23.9297" x="743.4648" y="519.6016">alt</text><text fill="#000000" font-family="sans-serif" font-size="16" font-weight="bold" lengthAdjust="spacing" textLength="149.5469" x="812.3945" y="520.6016">[Modify binding]</text><g class="message" data-participant-1="RBACHardenerModule" data-participant-2="RBACHardenerModule"><line style="stroke:#181818;stroke-width:1;" x1="839.1484" x2="881.1484" y1="552.625" y2="552.625"/><line style="stroke:#181818;stroke-width:1;" x1="881.1484" x2="881.1484" y1="552.625" y2="565.625"/><line style="stroke:#181818;stroke-width:1;" x1="840.1484" x2="881.1484" y1="565.625" y2="565.625"/><polygon fill="#181818" points="850.1484,561.625,840.1484,565.625,850.1484,569.625,846.1484,565.625" style="stroke:#181818;stroke-width:1;"/><text fill="#000000" font-family="sans-serif" font-size="16" lengthAdjust="spacing" textLength="203.0547" x="846.1484" y="546.8516">Record proposed_change</text></g><g class="message" data-participant-1="RBACHardenerModule" data-participant-2="K8sHardenerCLI"><polygon fill="#181818" points="400.0625,608.25,390.0625,612.25,400.0625,616.25,396.0625,612.25" style="stroke:#181818;stroke-width:1;"/><line style="stroke:#181818;stroke-width:1;stroke-dasharray:2.0,2.0;" x1="394.0625" x2="833.1484" y1="612.25" y2="612.25"/><text fill="#000000" font-family="sans-serif" font-size="16" lengthAdjust="spacing" textLength="150.0234" x="406.0625" y="606.4766">proposed_changes</text></g><g class="message" data-participant-1="K8sHardenerCLI" data-participant-2="RBACHardenerModule"><polygon fill="#181818" points="817.1484,640.875,827.1484,644.875,817.1484,648.875,821.1484,644.875" style="stroke:#181818;stroke-width:1;"/><line style="stroke:#181818;stroke-width:1;" x1="389.0625" x2="823.1484" y1="644.875" y2="644.875"/><text fill="#000000" font-family="sans-serif" font-size="16" lengthAdjust="spacing" textLength="371.7031" x="396.0625" y="639.1016">generate_hardening_yaml(proposed_changes)</text></g><g class="message" data-participant-1="RBACHardenerModule" data-participant-2="K8sHardenerCLI"><polygon fill="#181818" points="400.0625,673.5,390.0625,677.5,400.0625,681.5,396.0625,677.5" style="stroke:#181818;stroke-width:1;"/><line style="stroke:#181818;stroke-width:1;stroke-dasharray:2.0,2.0;" x1="394.0625" x2="833.1484" y1="677.5" y2="677.5"/><text fill="#000000" font-family="sans-serif" font-size="16" lengthAdjust="spacing" textLength="182.6406" x="406.0625" y="671.7266">hardening_yaml_string</text></g><g class="message" data-participant-1="K8sHardenerCLI" data-participant-2="RBACHardenerModule"><polygon fill="#181818" points="817.1484,706.125,827.1484,710.125,817.1484,714.125,821.1484,710.125" style="stroke:#181818;stroke-width:1;"/><line style="stroke:#181818;stroke-width:1;" x1="389.0625" x2="823.1484" y1="710.125" y2="710.125"/><text fill="#000000" font-family="sans-serif" font-size="16" lengthAdjust="spacing" textLength="421.0859" x="396.0625" y="704.3516">apply_hardening_changes(hardening_yaml, dry_run)</text></g><path d="M10,725.125 L78.9297,725.125 L78.9297,735.75 L68.9297,745.75 L10,745.75 L10,725.125" fill="#EEEEEE" style="stroke:#000000;stroke-width:1.5;"/><rect fill="none" height="371.125" style="stroke:#000000;stroke-width:1.5;" width="1309.5508" x="10" y="725.125"/><text fill="#000000" font-family="sans-serif" font-size="16" font-weight="bold" lengthAdjust="spacing" textLength="23.9297" x="25" y="740.9766">alt</text><text fill="#000000" font-family="sans-serif" font-size="16" font-weight="bold" lengthAdjust="spacing" textLength="116.7891" x="93.9297" y="741.9766">[Save to file]</text><g class="message" data-participant-1="RBACHardenerModule" data-participant-2="User"><polygon fill="#181818" points="52.2344,770,42.2344,774,52.2344,778,48.2344,774" style="stroke:#181818;stroke-width:1;"/><line style="stroke:#181818;stroke-width:1;" x1="46.2344" x2="828.1484" y1="774" y2="774"/><text fill="#000000" font-family="sans-serif" font-size="16" lengthAdjust="spacing" textLength="156.0313" x="58.2344" y="768.2266">Prompt for file path</text></g><g class="message" data-participant-1="User" data-participant-2="RBACHardenerModule"><polygon fill="#181818" points="817.1484,802.625,827.1484,806.625,817.1484,810.625,821.1484,806.625" style="stroke:#181818;stroke-width:1;"/><line style="stroke:#181818;stroke-width:1;stroke-dasharray:2.0,2.0;" x1="41.2344" x2="823.1484" y1="806.625" y2="806.625"/><text fill="#000000" font-family="sans-serif" font-size="16" lengthAdjust="spacing" textLength="130.8438" x="48.2344" y="800.8516">Provide file path</text></g><g class="message" data-participant-1="RBACHardenerModule" data-participant-2="FileSystem"><polygon fill="#181818" points="1246.75,835.25,1256.75,839.25,1246.75,843.25,1250.75,839.25" style="stroke:#181818;stroke-width:1;"/><line style="stroke:#181818;stroke-width:1;" x1="839.1484" x2="1252.75" y1="839.25" y2="839.25"/><text fill="#000000" font-family="sans-serif" font-size="16" lengthAdjust="spacing" textLength="281.2891" x="846.1484" y="833.4766">Write hardening_yaml_string to file</text></g><g class="message" data-participant-1="FileSystem" data-participant-2="RBACHardenerModule"><polygon fill="#181818" points="850.1484,867.875,840.1484,871.875,850.1484,875.875,846.1484,871.875" style="stroke:#181818;stroke-width:1;"/><line style="stroke:#181818;stroke-width:1;stroke-dasharray:2.0,2.0;" x1="844.1484" x2="1257.75" y1="871.875" y2="871.875"/><text fill="#000000" font-family="sans-serif" font-size="16" lengthAdjust="spacing" textLength="117.8359" x="856.1484" y="866.1016">File written OK</text></g><g class="message" data-participant-1="RBACHardenerModule" data-participant-2="User"><polygon fill="#181818" points="52.2344,900.5,42.2344,904.5,52.2344,908.5,48.2344,904.5" style="stroke:#181818;stroke-width:1;"/><line style="stroke:#181818;stroke-width:1;" x1="46.2344" x2="828.1484" y1="904.5" y2="904.5"/><text fill="#000000" font-family="sans-serif" font-size="16" lengthAdjust="spacing" textLength="145.4922" x="58.2344" y="898.7266">Confirm file saved</text></g><line style="stroke:#000000;stroke-width:1;stroke-dasharray:2.0,2.0;" x1="10" x2="1319.5508" y1="913.5" y2="913.5"/><text fill="#000000" font-family="sans-serif" font-size="16" font-weight="bold" lengthAdjust="spacing" textLength="157.8828" x="15" y="928.3516">[Apply to cluster]</text><g class="message" data-participant-1="RBACHardenerModule" data-participant-2="User"><polygon fill="#181818" points="52.2344,953.75,42.2344,957.75,52.2344,961.75,48.2344,957.75" style="stroke:#181818;stroke-width:1;"/><line style="stroke:#181818;stroke-width:1;" x1="46.2344" x2="828.1484" y1="957.75" y2="957.75"/><text fill="#000000" font-family="sans-serif" font-size="16" lengthAdjust="spacing" textLength="201.6016" x="58.2344" y="951.9766">Confirm apply to cluster?</text></g><g class="message" data-participant-1="User" data-participant-2="RBACHardenerModule"><polygon fill="#181818" points="817.1484,986.375,827.1484,990.375,817.1484,994.375,821.1484,990.375" style="stroke:#181818;stroke-width:1;"/><line style="stroke:#181818;stroke-width:1;stroke-dasharray:2.0,2.0;" x1="41.2344" x2="823.1484" y1="990.375" y2="990.375"/><text fill="#000000" font-family="sans-serif" font-size="16" lengthAdjust="spacing" textLength="27.9531" x="48.2344" y="984.6016">Yes</text></g><g class="message" data-participant-1="RBACHardenerModule" data-participant-2="KubernetesAPIServer"><polygon fill="#181818" points="1089.2344,1019,1099.2344,1023,1089.2344,1027,1093.2344,1023" style="stroke:#181818;stroke-width:1;"/><line style="stroke:#181818;stroke-width:1;" x1="839.1484" x2="1095.2344" y1="1023" y2="1023"/><text fill="#000000" font-family="sans-serif" font-size="16" lengthAdjust="spacing" textLength="243.0859" x="846.1484" y="1017.2266">Apply changes (kubectl apply)</text></g><g class="message" data-participant-1="KubernetesAPIServer" data-participant-2="RBACHardenerModule"><polygon fill="#181818" points="850.1484,1051.625,840.1484,1055.625,850.1484,1059.625,846.1484,1055.625" style="stroke:#181818;stroke-width:1;"/><line style="stroke:#181818;stroke-width:1;stroke-dasharray:2.0,2.0;" x1="844.1484" x2="1105.2344" y1="1055.625" y2="1055.625"/><text fill="#000000" font-family="sans-serif" font-size="16" lengthAdjust="spacing" textLength="108.3438" x="856.1484" y="1049.8516">Return status</text></g><g class="message" data-participant-1="RBACHardenerModule" data-participant-2="User"><polygon fill="#181818" points="52.2344,1084.25,42.2344,1088.25,52.2344,1092.25,48.2344,1088.25" style="stroke:#181818;stroke-width:1;"/><line style="stroke:#181818;stroke-width:1;" x1="46.2344" x2="828.1484" y1="1088.25" y2="1088.25"/><text fill="#000000" font-family="sans-serif" font-size="16" lengthAdjust="spacing" textLength="162.3438" x="58.2344" y="1082.4766">Display apply status</text></g><!--SRC=[hLNDZjCm4BxdAUQ4kcBtm0MX7a1BLnMhvMVL2Y5EaPjCMgkERMod44vxuW4umylrIHWd_KbIDwqg3Zd4dldccszcF7R9fMQ6vP1YnWhXnaewotyYl7WPiSGf0vyjceXi74-uPjB1molxZfaK9PhH-_lMrUJjxMXxzq6bXS2sPp538z6XlNsydw9PTP37NE2qj0xpAF9XuUPr9zeGFh8LdpE7aACiBAn__ORrqv_Qf8g_VlhhcVELD-fmZTh_7l-GyX1OaN8NcnbB1bTxh41oqU5PnVampo5Cy5k1jjO8xfXZ3PO1NG9dS7E4xmHTOMG3ESLUx23jWDQr3XcNAPTpsqGDQN6ehQ_X41wDohK3fm1_9A984MnLOqZeN4caXjjKEq21d5USN2fNovK4RJ13Wp91UsOvkNHeAkeOBwexIcVGJkvwIovMsbrKz51aQcWA3Ji58w6KXZ5D5Kcv0CFjieHPVHi1X85h5U-urOALRHzuHd9Kwdh2IXB6JiaGdoaAJDpE-_dUZGa7PCMp9fzZZC8zc2YJUZfQMKpZPC7a70a4PHhvxzocwo1Sq7OXUdF_Gn3x1eXBbej1Drf_wSzCeHqZjivuFVzB7anhKJQIsD0Uj4DUGshAs1JoH2Vxga_P2lrmPlJuzjIyDSkPCfKzQEOMbLDlsss7kEqIZhFV0KFuOZWH3whPOhptEKh1cy1tmdEq9Zuzd4nqf6J6JLvJjYGHDR6m2BTUVn_SFqSqssS3iOxZczEoVQNcFmuVN38rlKrJm619DeaJTV2h2gntCNY32nQFTSmLDTSJc-UKMjjNhbPhWrkz7ltJqmpRcgD_]--></g></svg>