<svg xmlns="http://www.w3.org/2000/svg" xmlns:xlink="http://www.w3.org/1999/xlink" contentStyleType="text/css" data-diagram-type="SEQUENCE" height="1011px" preserveAspectRatio="none" style="width:1380px;height:1011px;background:#FFFFFF;" version="1.1" viewBox="0 0 1380 1011" width="1380px" zoomAndPan="magnify"><defs/><g><g><title>User</title><rect fill="#FFFFFF" height="32.625" style="stroke:#181818;stroke-width:1;" width="10" x="21.2344" y="812.625"/></g><g><title>K8sHardenerCLI</title><rect fill="#FFFFFF" height="773.625" style="stroke:#181818;stroke-width:1;" width="10" x="630.6719" y="136.875"/></g><g><title>RBACHardenerModule</title><rect fill="#FFFFFF" height="610.5" style="stroke:#181818;stroke-width:1;" width="10" x="949.2031" y="169.5"/></g><g><title>RBACHardenerModule</title><rect fill="#FFFFFF" height="32.625" style="stroke:#181818;stroke-width:1;" width="10" x="949.2031" y="877.875"/></g><g><title>KubernetesAPIServer</title><rect fill="#FFFFFF" height="32.625" style="stroke:#181818;stroke-width:1;" width="10" x="1257.7656" y="247.75"/></g><g><title>KubernetesAPIServer</title><rect fill="#FFFFFF" height="32.625" style="stroke:#181818;stroke-width:1;" width="10" x="1257.7656" y="344.25"/></g><g><title>KubernetesAPIServer</title><rect fill="#FFFFFF" height="32.625" style="stroke:#181818;stroke-width:1;" width="10" x="1257.7656" y="462.125"/></g><g><title>KubernetesAPIServer</title><rect fill="#FFFFFF" height="32.625" style="stroke:#181818;stroke-width:1;" width="10" x="1257.7656" y="558.625"/></g><g><title>KubernetesAPIServer</title><rect fill="#FFFFFF" height="32.625" style="stroke:#181818;stroke-width:1;" width="10" x="1257.7656" y="655.125"/></g><rect fill="none" height="135.125" style="stroke:#000000;stroke-width:1.5;" width="515.9609" x="848.5195" y="295.375"/><rect fill="none" height="238.625" style="stroke:#000000;stroke-width:1.5;" width="535.9609" x="838.5195" y="509.75"/><rect fill="none" height="135.125" style="stroke:#000000;stroke-width:1.5;" width="515.9609" x="848.5195" y="606.25"/><g><title>User</title><rect fill="#000000" fill-opacity="0.00000" height="844.875" width="8" x="22.2344" y="83.625"/><line style="stroke:#181818;stroke-width:0.5;stroke-dasharray:5.0,5.0;" x1="26" x2="26" y1="83.625" y2="928.5"/></g><g><title>K8sHardenerCLI</title><rect fill="#000000" fill-opacity="0.00000" height="844.875" width="8" x="631.6719" y="83.625"/><line style="stroke:#181818;stroke-width:0.5;stroke-dasharray:5.0,5.0;" x1="635.2773" x2="635.2773" y1="83.625" y2="928.5"/></g><g><title>RBACHardenerModule</title><rect fill="#000000" fill-opacity="0.00000" height="844.875" width="8" x="950.2031" y="83.625"/><line style="stroke:#181818;stroke-width:0.5;stroke-dasharray:5.0,5.0;" x1="953.5195" x2="953.5195" y1="83.625" y2="928.5"/></g><g><title>KubernetesAPIServer</title><rect fill="#000000" fill-opacity="0.00000" height="844.875" width="8" x="1258.7656" y="83.625"/><line style="stroke:#181818;stroke-width:0.5;stroke-dasharray:5.0,5.0;" x1="1262.0508" x2="1262.0508" y1="83.625" y2="928.5"/></g><g class="participant participant-head" data-participant="User"><text fill="#000000" font-family="sans-serif" font-size="16" lengthAdjust="spacing" textLength="36.4688" x="5" y="79.8516">User</text><ellipse cx="26.2344" cy="13.5" fill="#E2E2F0" rx="8" ry="8" style="stroke:#181818;stroke-width:0.5;"/><path d="M26.2344,21.5 L26.2344,48.5 M13.2344,29.5 L39.2344,29.5 M26.2344,48.5 L13.2344,63.5 M26.2344,48.5 L39.2344,63.5" fill="none" style="stroke:#181818;stroke-width:0.5;"/></g><g class="participant participant-tail" data-participant="User"><text fill="#000000" font-family="sans-serif" font-size="16" lengthAdjust="spacing" textLength="36.4688" x="5" y="942.3516">User</text><ellipse cx="26.2344" cy="954.625" fill="#E2E2F0" rx="8" ry="8" style="stroke:#181818;stroke-width:0.5;"/><path d="M26.2344,962.625 L26.2344,989.625 M13.2344,970.625 L39.2344,970.625 M26.2344,989.625 L13.2344,1004.625 M26.2344,989.625 L39.2344,1004.625" fill="none" style="stroke:#181818;stroke-width:0.5;"/></g><g class="participant participant-head" data-participant="K8sHardenerCLI"><rect fill="#E2E2F0" height="32.625" rx="2.5" ry="2.5" style="stroke:#181818;stroke-width:0.5;" width="142.7891" x="564.2773" y="50"/><text fill="#000000" font-family="sans-serif" font-size="16" lengthAdjust="spacing" textLength="128.7891" x="571.2773" y="71.8516">K8sHardenerCLI</text></g><g class="participant participant-tail" data-participant="K8sHardenerCLI"><rect fill="#E2E2F0" height="32.625" rx="2.5" ry="2.5" style="stroke:#181818;stroke-width:0.5;" width="142.7891" x="564.2773" y="927.5"/><text fill="#000000" font-family="sans-serif" font-size="16" lengthAdjust="spacing" textLength="128.7891" x="571.2773" y="949.3516">K8sHardenerCLI</text></g><g class="participant participant-head" data-participant="RBACHardenerModule"><rect fill="#E2E2F0" height="32.625" rx="2.5" ry="2.5" style="stroke:#181818;stroke-width:0.5;" width="191.3672" x="858.5195" y="50"/><text fill="#000000" font-family="sans-serif" font-size="16" lengthAdjust="spacing" textLength="177.3672" x="865.5195" y="71.8516">RBACHardenerModule</text></g><g class="participant participant-tail" data-participant="RBACHardenerModule"><rect fill="#E2E2F0" height="32.625" rx="2.5" ry="2.5" style="stroke:#181818;stroke-width:0.5;" width="191.3672" x="858.5195" y="927.5"/><text fill="#000000" font-family="sans-serif" font-size="16" lengthAdjust="spacing" textLength="177.3672" x="865.5195" y="949.3516">RBACHardenerModule</text></g><g class="participant participant-head" data-participant="KubernetesAPIServer"><rect fill="#E2E2F0" height="32.625" rx="2.5" ry="2.5" style="stroke:#181818;stroke-width:0.5;" width="183.4297" x="1171.0508" y="50"/><text fill="#000000" font-family="sans-serif" font-size="16" lengthAdjust="spacing" textLength="169.4297" x="1178.0508" y="71.8516">KubernetesAPIServer</text></g><g class="participant participant-tail" data-participant="KubernetesAPIServer"><rect fill="#E2E2F0" height="32.625" rx="2.5" ry="2.5" style="stroke:#181818;stroke-width:0.5;" width="183.4297" x="1171.0508" y="927.5"/><text fill="#000000" font-family="sans-serif" font-size="16" lengthAdjust="spacing" textLength="169.4297" x="1178.0508" y="949.3516">KubernetesAPIServer</text></g><g><title>User</title><rect fill="#FFFFFF" height="32.625" style="stroke:#181818;stroke-width:1;" width="10" x="21.2344" y="812.625"/></g><g><title>K8sHardenerCLI</title><rect fill="#FFFFFF" height="773.625" style="stroke:#181818;stroke-width:1;" width="10" x="630.6719" y="136.875"/></g><g><title>RBACHardenerModule</title><rect fill="#FFFFFF" height="610.5" style="stroke:#181818;stroke-width:1;" width="10" x="949.2031" y="169.5"/></g><g><title>RBACHardenerModule</title><rect fill="#FFFFFF" height="32.625" style="stroke:#181818;stroke-width:1;" width="10" x="949.2031" y="877.875"/></g><g><title>KubernetesAPIServer</title><rect fill="#FFFFFF" height="32.625" style="stroke:#181818;stroke-width:1;" width="10" x="1257.7656" y="247.75"/></g><g><title>KubernetesAPIServer</title><rect fill="#FFFFFF" height="32.625" style="stroke:#181818;stroke-width:1;" width="10" x="1257.7656" y="344.25"/></g><g><title>KubernetesAPIServer</title><rect fill="#FFFFFF" height="32.625" style="stroke:#181818;stroke-width:1;" width="10" x="1257.7656" y="462.125"/></g><g><title>KubernetesAPIServer</title><rect fill="#FFFFFF" height="32.625" style="stroke:#181818;stroke-width:1;" width="10" x="1257.7656" y="558.625"/></g><g><title>KubernetesAPIServer</title><rect fill="#FFFFFF" height="32.625" style="stroke:#181818;stroke-width:1;" width="10" x="1257.7656" y="655.125"/></g><g class="message" data-participant-1="User" data-participant-2="K8sHardenerCLI"><polygon fill="#181818" points="618.6719,132.875,628.6719,136.875,618.6719,140.875,622.6719,136.875" style="stroke:#181818;stroke-width:1;"/><line style="stroke:#181818;stroke-width:1;" x1="26.2344" x2="624.6719" y1="136.875" y2="136.875"/><text fill="#000000" font-family="sans-serif" font-size="16" lengthAdjust="spacing" textLength="130.8984" x="33.2344" y="112.4766">Navigate menus</text><text fill="#000000" font-family="sans-serif" font-size="16" lengthAdjust="spacing" textLength="585.4375" x="33.2344" y="131.1016">"General Kubernetes Hardening" &#8594; "RBAC Management" &#8594; "Audit RBAC"</text></g><g class="message" data-participant-1="K8sHardenerCLI" data-participant-2="RBACHardenerModule"><polygon fill="#181818" points="937.2031,165.5,947.2031,169.5,937.2031,173.5,941.2031,169.5" style="stroke:#181818;stroke-width:1;"/><line style="stroke:#181818;stroke-width:1;" x1="640.6719" x2="943.2031" y1="169.5" y2="169.5"/><text fill="#000000" font-family="sans-serif" font-size="16" lengthAdjust="spacing" textLength="96.6406" x="647.6719" y="163.7266">audit_rbac()</text></g><g class="message" data-participant-1="RBACHardenerModule" data-participant-2="RBACHardenerModule"><line style="stroke:#181818;stroke-width:1;" x1="959.2031" x2="1001.2031" y1="202.125" y2="202.125"/><line style="stroke:#181818;stroke-width:1;" x1="1001.2031" x2="1001.2031" y1="202.125" y2="215.125"/><line style="stroke:#181818;stroke-width:1;" x1="960.2031" x2="1001.2031" y1="215.125" y2="215.125"/><polygon fill="#181818" points="970.2031,211.125,960.2031,215.125,970.2031,219.125,966.2031,215.125" style="stroke:#181818;stroke-width:1;"/><text fill="#000000" font-family="sans-serif" font-size="16" lengthAdjust="spacing" textLength="175.2266" x="966.2031" y="196.3516">_get_k8s_api_clients()</text></g><g class="message" data-participant-1="RBACHardenerModule" data-participant-2="KubernetesAPIServer"><polygon fill="#181818" points="1245.7656,243.75,1255.7656,247.75,1245.7656,251.75,1249.7656,247.75" style="stroke:#181818;stroke-width:1;"/><line style="stroke:#181818;stroke-width:1;" x1="959.2031" x2="1251.7656" y1="247.75" y2="247.75"/><text fill="#000000" font-family="sans-serif" font-size="16" lengthAdjust="spacing" textLength="213.0313" x="966.2031" y="241.9766">list_cluster_role_bindings()</text></g><g class="message" data-participant-1="KubernetesAPIServer" data-participant-2="RBACHardenerModule"><polygon fill="#181818" points="970.2031,276.375,960.2031,280.375,970.2031,284.375,966.2031,280.375" style="stroke:#181818;stroke-width:1;"/><line style="stroke:#181818;stroke-width:1;stroke-dasharray:2.0,2.0;" x1="964.2031" x2="1261.7656" y1="280.375" y2="280.375"/><text fill="#000000" font-family="sans-serif" font-size="16" lengthAdjust="spacing" textLength="193.5156" x="976.2031" y="274.6016">[ClusterRoleBinding list]</text></g><path d="M848.5195,295.375 L932.4414,295.375 L932.4414,306 L922.4414,316 L848.5195,316 L848.5195,295.375" fill="#EEEEEE" style="stroke:#000000;stroke-width:1.5;"/><rect fill="none" height="135.125" style="stroke:#000000;stroke-width:1.5;" width="515.9609" x="848.5195" y="295.375"/><text fill="#000000" font-family="sans-serif" font-size="16" font-weight="bold" lengthAdjust="spacing" textLength="38.9219" x="863.5195" y="311.2266">loop</text><text fill="#000000" font-family="sans-serif" font-size="16" font-weight="bold" lengthAdjust="spacing" textLength="235.75" x="947.4414" y="312.2266">[each ClusterRoleBinding]</text><g class="message" data-participant-1="RBACHardenerModule" data-participant-2="KubernetesAPIServer"><polygon fill="#181818" points="1245.7656,340.25,1255.7656,344.25,1245.7656,348.25,1249.7656,344.25" style="stroke:#181818;stroke-width:1;"/><line style="stroke:#181818;stroke-width:1;" x1="959.2031" x2="1251.7656" y1="344.25" y2="344.25"/><text fill="#000000" font-family="sans-serif" font-size="16" lengthAdjust="spacing" textLength="195.3125" x="966.2031" y="338.4766">read_cluster_role(name)</text></g><g class="message" data-participant-1="KubernetesAPIServer" data-participant-2="RBACHardenerModule"><polygon fill="#181818" points="970.2031,372.875,960.2031,376.875,970.2031,380.875,966.2031,376.875" style="stroke:#181818;stroke-width:1;"/><line style="stroke:#181818;stroke-width:1;stroke-dasharray:2.0,2.0;" x1="964.2031" x2="1261.7656" y1="376.875" y2="376.875"/><text fill="#000000" font-family="sans-serif" font-size="16" lengthAdjust="spacing" textLength="172.3828" x="976.2031" y="371.1016">ClusterRole definition</text></g><g class="message" data-participant-1="RBACHardenerModule" data-participant-2="RBACHardenerModule"><line style="stroke:#181818;stroke-width:1;" x1="959.2031" x2="1001.2031" y1="409.5" y2="409.5"/><line style="stroke:#181818;stroke-width:1;" x1="1001.2031" x2="1001.2031" y1="409.5" y2="422.5"/><line style="stroke:#181818;stroke-width:1;" x1="960.2031" x2="1001.2031" y1="422.5" y2="422.5"/><polygon fill="#181818" points="970.2031,418.5,960.2031,422.5,970.2031,426.5,966.2031,422.5" style="stroke:#181818;stroke-width:1;"/><text fill="#000000" font-family="sans-serif" font-size="16" lengthAdjust="spacing" textLength="106.3359" x="966.2031" y="403.7266">analyze rules</text></g><g class="message" data-participant-1="RBACHardenerModule" data-participant-2="KubernetesAPIServer"><polygon fill="#181818" points="1245.7656,458.125,1255.7656,462.125,1245.7656,466.125,1249.7656,462.125" style="stroke:#181818;stroke-width:1;"/><line style="stroke:#181818;stroke-width:1;" x1="959.2031" x2="1251.7656" y1="462.125" y2="462.125"/><text fill="#000000" font-family="sans-serif" font-size="16" lengthAdjust="spacing" textLength="144.6328" x="966.2031" y="456.3516">list_namespaces()</text></g><g class="message" data-participant-1="KubernetesAPIServer" data-participant-2="RBACHardenerModule"><polygon fill="#181818" points="970.2031,490.75,960.2031,494.75,970.2031,498.75,966.2031,494.75" style="stroke:#181818;stroke-width:1;"/><line style="stroke:#181818;stroke-width:1;stroke-dasharray:2.0,2.0;" x1="964.2031" x2="1261.7656" y1="494.75" y2="494.75"/><text fill="#000000" font-family="sans-serif" font-size="16" lengthAdjust="spacing" textLength="135.2109" x="976.2031" y="488.9766">[Namespace list]</text></g><path d="M838.5195,509.75 L922.4414,509.75 L922.4414,520.375 L912.4414,530.375 L838.5195,530.375 L838.5195,509.75" fill="#EEEEEE" style="stroke:#000000;stroke-width:1.5;"/><rect fill="none" height="238.625" style="stroke:#000000;stroke-width:1.5;" width="535.9609" x="838.5195" y="509.75"/><text fill="#000000" font-family="sans-serif" font-size="16" font-weight="bold" lengthAdjust="spacing" textLength="38.9219" x="853.5195" y="525.6016">loop</text><text fill="#000000" font-family="sans-serif" font-size="16" font-weight="bold" lengthAdjust="spacing" textLength="166.5391" x="937.4414" y="526.6016">[each Namespace]</text><g class="message" data-participant-1="RBACHardenerModule" data-participant-2="KubernetesAPIServer"><polygon fill="#181818" points="1245.7656,554.625,1255.7656,558.625,1245.7656,562.625,1249.7656,558.625" style="stroke:#181818;stroke-width:1;"/><line style="stroke:#181818;stroke-width:1;" x1="959.2031" x2="1251.7656" y1="558.625" y2="558.625"/><text fill="#000000" font-family="sans-serif" font-size="16" lengthAdjust="spacing" textLength="279.5625" x="966.2031" y="552.8516">list_namespaced_role_bindings(ns)</text></g><g class="message" data-participant-1="KubernetesAPIServer" data-participant-2="RBACHardenerModule"><polygon fill="#181818" points="970.2031,587.25,960.2031,591.25,970.2031,595.25,966.2031,591.25" style="stroke:#181818;stroke-width:1;"/><line style="stroke:#181818;stroke-width:1;stroke-dasharray:2.0,2.0;" x1="964.2031" x2="1261.7656" y1="591.25" y2="591.25"/><text fill="#000000" font-family="sans-serif" font-size="16" lengthAdjust="spacing" textLength="136.7266" x="976.2031" y="585.4766">[RoleBinding list]</text></g><path d="M848.5195,606.25 L932.4414,606.25 L932.4414,616.875 L922.4414,626.875 L848.5195,626.875 L848.5195,606.25" fill="#EEEEEE" style="stroke:#000000;stroke-width:1.5;"/><rect fill="none" height="135.125" style="stroke:#000000;stroke-width:1.5;" width="515.9609" x="848.5195" y="606.25"/><text fill="#000000" font-family="sans-serif" font-size="16" font-weight="bold" lengthAdjust="spacing" textLength="38.9219" x="863.5195" y="622.1016">loop</text><text fill="#000000" font-family="sans-serif" font-size="16" font-weight="bold" lengthAdjust="spacing" textLength="171.2188" x="947.4414" y="623.1016">[each RoleBinding]</text><g class="message" data-participant-1="RBACHardenerModule" data-participant-2="KubernetesAPIServer"><polygon fill="#181818" points="1245.7656,651.125,1255.7656,655.125,1245.7656,659.125,1249.7656,655.125" style="stroke:#181818;stroke-width:1;"/><line style="stroke:#181818;stroke-width:1;" x1="959.2031" x2="1251.7656" y1="655.125" y2="655.125"/><text fill="#000000" font-family="sans-serif" font-size="16" lengthAdjust="spacing" textLength="272.0156" x="966.2031" y="649.3516">read_namespaced_role(name, ns)</text></g><g class="message" data-participant-1="KubernetesAPIServer" data-participant-2="RBACHardenerModule"><polygon fill="#181818" points="970.2031,683.75,960.2031,687.75,970.2031,691.75,966.2031,687.75" style="stroke:#181818;stroke-width:1;"/><line style="stroke:#181818;stroke-width:1;stroke-dasharray:2.0,2.0;" x1="964.2031" x2="1261.7656" y1="687.75" y2="687.75"/><text fill="#000000" font-family="sans-serif" font-size="16" lengthAdjust="spacing" textLength="212.9688" x="976.2031" y="681.9766">Role/ClusterRole definition</text></g><g class="message" data-participant-1="RBACHardenerModule" data-participant-2="RBACHardenerModule"><line style="stroke:#181818;stroke-width:1;" x1="959.2031" x2="1001.2031" y1="720.375" y2="720.375"/><line style="stroke:#181818;stroke-width:1;" x1="1001.2031" x2="1001.2031" y1="720.375" y2="733.375"/><line style="stroke:#181818;stroke-width:1;" x1="960.2031" x2="1001.2031" y1="733.375" y2="733.375"/><polygon fill="#181818" points="970.2031,729.375,960.2031,733.375,970.2031,737.375,966.2031,733.375" style="stroke:#181818;stroke-width:1;"/><text fill="#000000" font-family="sans-serif" font-size="16" lengthAdjust="spacing" textLength="106.3359" x="966.2031" y="714.6016">analyze rules</text></g><g class="message" data-participant-1="RBACHardenerModule" data-participant-2="K8sHardenerCLI"><polygon fill="#181818" points="651.6719,776,641.6719,780,651.6719,784,647.6719,780" style="stroke:#181818;stroke-width:1;"/><line style="stroke:#181818;stroke-width:1;stroke-dasharray:2.0,2.0;" x1="645.6719" x2="953.2031" y1="780" y2="780"/><text fill="#000000" font-family="sans-serif" font-size="16" lengthAdjust="spacing" textLength="112.2734" x="657.6719" y="774.2266">audit_findings</text></g><g class="message" data-participant-1="K8sHardenerCLI" data-participant-2="User"><polygon fill="#181818" points="42.2344,808.625,32.2344,812.625,42.2344,816.625,38.2344,812.625" style="stroke:#181818;stroke-width:1;"/><line style="stroke:#181818;stroke-width:1;" x1="36.2344" x2="629.6719" y1="812.625" y2="812.625"/><text fill="#000000" font-family="sans-serif" font-size="16" lengthAdjust="spacing" textLength="190.0234" x="48.2344" y="806.8516">Prompt to filter findings</text></g><g class="message" data-participant-1="User" data-participant-2="K8sHardenerCLI"><polygon fill="#181818" points="618.6719,841.25,628.6719,845.25,618.6719,849.25,622.6719,845.25" style="stroke:#181818;stroke-width:1;"/><line style="stroke:#181818;stroke-width:1;stroke-dasharray:2.0,2.0;" x1="26.2344" x2="624.6719" y1="845.25" y2="845.25"/><text fill="#000000" font-family="sans-serif" font-size="16" lengthAdjust="spacing" textLength="202.9141" x="33.2344" y="839.4766">Provide filter preferences</text></g><g class="message" data-participant-1="K8sHardenerCLI" data-participant-2="RBACHardenerModule"><polygon fill="#181818" points="937.2031,873.875,947.2031,877.875,937.2031,881.875,941.2031,877.875" style="stroke:#181818;stroke-width:1;"/><line style="stroke:#181818;stroke-width:1;" x1="640.6719" x2="943.2031" y1="877.875" y2="877.875"/><text fill="#000000" font-family="sans-serif" font-size="16" lengthAdjust="spacing" textLength="289.5313" x="647.6719" y="872.1016">print_audit_findings(findings, filters)</text></g><g class="message" data-participant-1="RBACHardenerModule" data-participant-2="User"><polygon fill="#181818" points="37.2344,906.5,27.2344,910.5,37.2344,914.5,33.2344,910.5" style="stroke:#181818;stroke-width:1;"/><line style="stroke:#181818;stroke-width:1;" x1="31.2344" x2="953.2031" y1="910.5" y2="910.5"/><text fill="#000000" font-family="sans-serif" font-size="16" lengthAdjust="spacing" textLength="244.2109" x="43.2344" y="904.7266">Display formatted audit report</text></g><!--SRC=[hLLBRjim4Dth50El7211qKqGU570SP4so0T1YgxIG1YB8tSGYYH8oa1oW1wWH-n9Ibgs8rcI7GNPIIJdpNipZnptnCgWnG84vLXAVw6LT_n2yFaqmSnh2pyTsIISyPonGUNXwinzHoj8aPrTNpQsxi-diytUZHQbf6PaEIUho9ERtbt-8BiCo4d4XvClEx0JkCKbBz0J5AHAzqkDliKjb3KKg09OBKRmxyzV6CNyS8CA5nIY_7frMWgkk8sY9bv6r1qLIVC_4cgBcG16gDJECHiVlM9ro4xQQtsOwO9y-dJcKZISPf83SHVGUn0wQZW1oSw7qD9vigdLaj8vAn7gukeqkyhViGOdFKGVPbM6-v3WlC9VPNvC1ErDaaYj3OGplw4DaG0CK6e9HKFfM651Hm5aBmE08K9h9EEzOCMUjGeW1tJsAUbqaaBv7EwP3Nyk8IM6DpmgTmOp-jWktsvW1pTt6pcifqqnOiV0odrmTn_Q_ZtOsN3YLMRJlCFjkoDrvU1Zg7GUL3fCQwJwgTVERp3q-oqD44tTQ-oE5xzwNFDru-k-wtfWsmzsd2GJkBEwC1wyXfnba0rRm2tSQgHLSwU3HW1Oig1DkB6KaoKLhbcTqWhZZLF3M5O-RSeRRpwErudS_e7ItOPAybTsHk8pvDeMw3s9gfJ1RKPRVw2GTGiqrFm7]--></g></svg>