<svg xmlns="http://www.w3.org/2000/svg" xmlns:xlink="http://www.w3.org/1999/xlink" contentStyleType="text/css" data-diagram-type="SEQUENCE" height="1632px" preserveAspectRatio="none" style="width:1703px;height:1632px;background:#FFFFFF;" version="1.1" viewBox="0 0 1703 1632" width="1703px" zoomAndPan="magnify"><defs/><g><g><title>User</title><rect fill="#FFFFFF" height="34.9531" style="stroke:#181818;stroke-width:1;" width="10" x="48.5137" y="443.4375"/></g><g><title>User</title><rect fill="#FFFFFF" height="34.9531" style="stroke:#181818;stroke-width:1;" width="10" x="48.5137" y="549.25"/></g><g><title>User</title><rect fill="#FFFFFF" height="34.9531" style="stroke:#181818;stroke-width:1;" width="10" x="48.5137" y="619.1563"/></g><g><title>User</title><rect fill="#FFFFFF" height="34.9531" style="stroke:#181818;stroke-width:1;" width="10" x="48.5137" y="779.9219"/></g><g><title>User</title><rect fill="#FFFFFF" height="34.9531" style="stroke:#181818;stroke-width:1;" width="10" x="48.5137" y="1024.5938"/></g><g><title>User</title><rect fill="#FFFFFF" height="34.9531" style="stroke:#181818;stroke-width:1;" width="10" x="48.5137" y="1094.5"/></g><g><title>User</title><rect fill="#FFFFFF" height="34.9531" style="stroke:#181818;stroke-width:1;" width="10" x="48.5137" y="1305.1719"/></g><g><title>K8sHardenerCLI</title><rect fill="#FFFFFF" height="1385.0313" style="stroke:#181818;stroke-width:1;" width="10" x="522.3027" y="143.8594"/></g><g><title>SupplyChainAuditorModule</title><rect fill="#FFFFFF" height="1350.0781" style="stroke:#181818;stroke-width:1;" width="10" x="740.6597" y="178.8125"/></g><g><title>FileSystem</title><rect fill="#FFFFFF" height="34.9531" style="stroke:#181818;stroke-width:1;" width="10" x="1192.6069" y="261.7188"/></g><g><title>FileSystem</title><rect fill="#FFFFFF" height="34.9531" style="stroke:#181818;stroke-width:1;" width="10" x="1192.6069" y="919.7344"/></g><g><title>KubernetesAPIServer</title><rect fill="#FFFFFF" height="34.9531" style="stroke:#181818;stroke-width:1;" width="10" x="1361.187" y="331.625"/></g><g><title>TrivyCLI</title><rect fill="#FFFFFF" height="34.9531" style="stroke:#181818;stroke-width:1;" width="10" x="1516.7944" y="849.8281"/></g><g><title>CosignCLI</title><rect fill="#FFFFFF" height="34.9531" style="stroke:#181818;stroke-width:1;" width="10" x="1621.4473" y="1164.4063"/></g><g><title>CosignCLI</title><rect fill="#FFFFFF" height="34.9531" style="stroke:#181818;stroke-width:1;" width="10" x="1621.4473" y="1375.0781"/></g><rect fill="none" height="168.7188" style="stroke:#000000;stroke-width:1.5;" width="864.5728" x="20" y="493.3906"/><rect fill="none" height="735.9219" style="stroke:#000000;stroke-width:1.5;" width="1687.7969" x="10" y="724.0625"/><rect fill="none" height="203.6719" style="stroke:#000000;stroke-width:1.5;" width="1667.7969" x="20" y="1249.3125"/><g><title>User</title><rect fill="#000000" fill-opacity="0.00000" height="1460.9375" width="8" x="49.5137" y="85.9531"/><line style="stroke:#181818;stroke-width:0.5;stroke-dasharray:5.0,5.0;" x1="53" x2="53" y1="85.9531" y2="1546.8906"/></g><g><title>K8sHardenerCLI</title><rect fill="#000000" fill-opacity="0.00000" height="1460.9375" width="8" x="523.3027" y="85.9531"/><line style="stroke:#181818;stroke-width:0.5;stroke-dasharray:5.0,5.0;" x1="526.8589" x2="526.8589" y1="85.9531" y2="1546.8906"/></g><g><title>SupplyChainAuditorModule</title><rect fill="#000000" fill-opacity="0.00000" height="1460.9375" width="8" x="741.6597" y="85.9531"/><line style="stroke:#181818;stroke-width:0.5;stroke-dasharray:5.0,5.0;" x1="744.7466" x2="744.7466" y1="85.9531" y2="1546.8906"/></g><g><title>FileSystem</title><rect fill="#000000" fill-opacity="0.00000" height="1460.9375" width="8" x="1193.6069" y="85.9531"/><line style="stroke:#181818;stroke-width:0.5;stroke-dasharray:5.0,5.0;" x1="1197.3311" x2="1197.3311" y1="85.9531" y2="1546.8906"/></g><g><title>KubernetesAPIServer</title><rect fill="#000000" fill-opacity="0.00000" height="1460.9375" width="8" x="1362.187" y="85.9531"/><line style="stroke:#181818;stroke-width:0.5;stroke-dasharray:5.0,5.0;" x1="1365.8828" x2="1365.8828" y1="85.9531" y2="1546.8906"/></g><g><title>TrivyCLI</title><rect fill="#000000" fill-opacity="0.00000" height="1460.9375" width="8" x="1517.7944" y="85.9531"/><line style="stroke:#181818;stroke-width:0.5;stroke-dasharray:5.0,5.0;" x1="1521.4912" x2="1521.4912" y1="85.9531" y2="1546.8906"/></g><g><title>CosignCLI</title><rect fill="#000000" fill-opacity="0.00000" height="1460.9375" width="8" x="1622.4473" y="85.9531"/><line style="stroke:#181818;stroke-width:0.5;stroke-dasharray:5.0,5.0;" x1="1626.0977" x2="1626.0977" y1="85.9531" y2="1546.8906"/></g><g class="participant participant-head" data-participant="User"><text fill="#000000" font-family="sans-serif" font-size="18" lengthAdjust="spacing" textLength="41.0273" x="30" y="81.708">User</text><ellipse cx="53.5137" cy="13.5" fill="#E2E2F0" rx="8" ry="8" style="stroke:#181818;stroke-width:0.5;"/><path d="M53.5137,21.5 L53.5137,48.5 M40.5137,29.5 L66.5137,29.5 M53.5137,48.5 L40.5137,63.5 M53.5137,48.5 L66.5137,63.5" fill="none" style="stroke:#181818;stroke-width:0.5;"/></g><g class="participant participant-tail" data-participant="User"><text fill="#000000" font-family="sans-serif" font-size="18" lengthAdjust="spacing" textLength="41.0273" x="30" y="1562.5986">User</text><ellipse cx="53.5137" cy="1575.3438" fill="#E2E2F0" rx="8" ry="8" style="stroke:#181818;stroke-width:0.5;"/><path d="M53.5137,1583.3438 L53.5137,1610.3438 M40.5137,1591.3438 L66.5137,1591.3438 M53.5137,1610.3438 L40.5137,1625.3438 M53.5137,1610.3438 L66.5137,1625.3438" fill="none" style="stroke:#181818;stroke-width:0.5;"/></g><g class="participant participant-head" data-participant="K8sHardenerCLI"><rect fill="#E2E2F0" height="34.9531" rx="2.5" ry="2.5" style="stroke:#181818;stroke-width:0.5;" width="158.8877" x="447.8589" y="50"/><text fill="#000000" font-family="sans-serif" font-size="18" lengthAdjust="spacing" textLength="144.8877" x="454.8589" y="73.708">K8sHardenerCLI</text></g><g class="participant participant-tail" data-participant="K8sHardenerCLI"><rect fill="#E2E2F0" height="34.9531" rx="2.5" ry="2.5" style="stroke:#181818;stroke-width:0.5;" width="158.8877" x="447.8589" y="1545.8906"/><text fill="#000000" font-family="sans-serif" font-size="18" lengthAdjust="spacing" textLength="144.8877" x="454.8589" y="1569.5986">K8sHardenerCLI</text></g><g class="participant participant-head" data-participant="SupplyChainAuditorModule"><rect fill="#E2E2F0" height="34.9531" rx="2.5" ry="2.5" style="stroke:#181818;stroke-width:0.5;" width="257.8262" x="616.7466" y="50"/><text fill="#000000" font-family="sans-serif" font-size="18" lengthAdjust="spacing" textLength="243.8262" x="623.7466" y="73.708">SupplyChainAuditorModule</text></g><g class="participant participant-tail" data-participant="SupplyChainAuditorModule"><rect fill="#E2E2F0" height="34.9531" rx="2.5" ry="2.5" style="stroke:#181818;stroke-width:0.5;" width="257.8262" x="616.7466" y="1545.8906"/><text fill="#000000" font-family="sans-serif" font-size="18" lengthAdjust="spacing" textLength="243.8262" x="623.7466" y="1569.5986">SupplyChainAuditorModule</text></g><g class="participant participant-head" data-participant="FileSystem"><rect fill="#E2E2F0" height="34.9531" rx="2.5" ry="2.5" style="stroke:#181818;stroke-width:0.5;" width="112.5518" x="1141.3311" y="50"/><text fill="#000000" font-family="sans-serif" font-size="18" lengthAdjust="spacing" textLength="98.5518" x="1148.3311" y="73.708">FileSystem</text></g><g class="participant participant-tail" data-participant="FileSystem"><rect fill="#E2E2F0" height="34.9531" rx="2.5" ry="2.5" style="stroke:#181818;stroke-width:0.5;" width="112.5518" x="1141.3311" y="1545.8906"/><text fill="#000000" font-family="sans-serif" font-size="18" lengthAdjust="spacing" textLength="98.5518" x="1148.3311" y="1569.5986">FileSystem</text></g><g class="participant participant-head" data-participant="KubernetesAPIServer"><rect fill="#E2E2F0" height="34.9531" rx="2.5" ry="2.5" style="stroke:#181818;stroke-width:0.5;" width="204.6084" x="1263.8828" y="50"/><text fill="#000000" font-family="sans-serif" font-size="18" lengthAdjust="spacing" textLength="190.6084" x="1270.8828" y="73.708">KubernetesAPIServer</text></g><g class="participant participant-tail" data-participant="KubernetesAPIServer"><rect fill="#E2E2F0" height="34.9531" rx="2.5" ry="2.5" style="stroke:#181818;stroke-width:0.5;" width="204.6084" x="1263.8828" y="1545.8906"/><text fill="#000000" font-family="sans-serif" font-size="18" lengthAdjust="spacing" textLength="190.6084" x="1270.8828" y="1569.5986">KubernetesAPIServer</text></g><g class="participant participant-head" data-participant="TrivyCLI"><rect fill="#E2E2F0" height="34.9531" rx="2.5" ry="2.5" style="stroke:#181818;stroke-width:0.5;" width="86.6064" x="1478.4912" y="50"/><text fill="#000000" font-family="sans-serif" font-size="18" lengthAdjust="spacing" textLength="72.6064" x="1485.4912" y="73.708">TrivyCLI</text></g><g class="participant participant-tail" data-participant="TrivyCLI"><rect fill="#E2E2F0" height="34.9531" rx="2.5" ry="2.5" style="stroke:#181818;stroke-width:0.5;" width="86.6064" x="1478.4912" y="1545.8906"/><text fill="#000000" font-family="sans-serif" font-size="18" lengthAdjust="spacing" textLength="72.6064" x="1485.4912" y="1569.5986">TrivyCLI</text></g><g class="participant participant-head" data-participant="CosignCLI"><rect fill="#E2E2F0" height="34.9531" rx="2.5" ry="2.5" style="stroke:#181818;stroke-width:0.5;" width="102.6992" x="1575.0977" y="50"/><text fill="#000000" font-family="sans-serif" font-size="18" lengthAdjust="spacing" textLength="88.6992" x="1582.0977" y="73.708">CosignCLI</text></g><g class="participant participant-tail" data-participant="CosignCLI"><rect fill="#E2E2F0" height="34.9531" rx="2.5" ry="2.5" style="stroke:#181818;stroke-width:0.5;" width="102.6992" x="1575.0977" y="1545.8906"/><text fill="#000000" font-family="sans-serif" font-size="18" lengthAdjust="spacing" textLength="88.6992" x="1582.0977" y="1569.5986">CosignCLI</text></g><g><title>User</title><rect fill="#FFFFFF" height="34.9531" style="stroke:#181818;stroke-width:1;" width="10" x="48.5137" y="443.4375"/></g><g><title>User</title><rect fill="#FFFFFF" height="34.9531" style="stroke:#181818;stroke-width:1;" width="10" x="48.5137" y="549.25"/></g><g><title>User</title><rect fill="#FFFFFF" height="34.9531" style="stroke:#181818;stroke-width:1;" width="10" x="48.5137" y="619.1563"/></g><g><title>User</title><rect fill="#FFFFFF" height="34.9531" style="stroke:#181818;stroke-width:1;" width="10" x="48.5137" y="779.9219"/></g><g><title>User</title><rect fill="#FFFFFF" height="34.9531" style="stroke:#181818;stroke-width:1;" width="10" x="48.5137" y="1024.5938"/></g><g><title>User</title><rect fill="#FFFFFF" height="34.9531" style="stroke:#181818;stroke-width:1;" width="10" x="48.5137" y="1094.5"/></g><g><title>User</title><rect fill="#FFFFFF" height="34.9531" style="stroke:#181818;stroke-width:1;" width="10" x="48.5137" y="1305.1719"/></g><g><title>K8sHardenerCLI</title><rect fill="#FFFFFF" height="1385.0313" style="stroke:#181818;stroke-width:1;" width="10" x="522.3027" y="143.8594"/></g><g><title>SupplyChainAuditorModule</title><rect fill="#FFFFFF" height="1350.0781" style="stroke:#181818;stroke-width:1;" width="10" x="740.6597" y="178.8125"/></g><g><title>FileSystem</title><rect fill="#FFFFFF" height="34.9531" style="stroke:#181818;stroke-width:1;" width="10" x="1192.6069" y="261.7188"/></g><g><title>FileSystem</title><rect fill="#FFFFFF" height="34.9531" style="stroke:#181818;stroke-width:1;" width="10" x="1192.6069" y="919.7344"/></g><g><title>KubernetesAPIServer</title><rect fill="#FFFFFF" height="34.9531" style="stroke:#181818;stroke-width:1;" width="10" x="1361.187" y="331.625"/></g><g><title>TrivyCLI</title><rect fill="#FFFFFF" height="34.9531" style="stroke:#181818;stroke-width:1;" width="10" x="1516.7944" y="849.8281"/></g><g><title>CosignCLI</title><rect fill="#FFFFFF" height="34.9531" style="stroke:#181818;stroke-width:1;" width="10" x="1621.4473" y="1164.4063"/></g><g><title>CosignCLI</title><rect fill="#FFFFFF" height="34.9531" style="stroke:#181818;stroke-width:1;" width="10" x="1621.4473" y="1375.0781"/></g><g class="message" data-participant-1="User" data-participant-2="K8sHardenerCLI"><polygon fill="#181818" points="510.3027,139.8594,520.3027,143.8594,510.3027,147.8594,514.3027,143.8594" style="stroke:#181818;stroke-width:1;"/><line style="stroke:#181818;stroke-width:1;" x1="53.5137" x2="516.3027" y1="143.8594" y2="143.8594"/><text fill="#000000" font-family="sans-serif" font-size="18" lengthAdjust="spacing" textLength="147.2607" x="60.5137" y="116.6611">Navigate menus</text><text fill="#000000" font-family="sans-serif" font-size="18" lengthAdjust="spacing" textLength="449.7891" x="60.5137" y="137.6143">"Image &amp; Supply Chain" &#8594; "Supply Chain Auditor"</text></g><g class="message" data-participant-1="K8sHardenerCLI" data-participant-2="SupplyChainAuditorModule"><polygon fill="#181818" points="728.6597,174.8125,738.6597,178.8125,728.6597,182.8125,732.6597,178.8125" style="stroke:#181818;stroke-width:1;"/><line style="stroke:#181818;stroke-width:1;" x1="532.3027" x2="734.6597" y1="178.8125" y2="178.8125"/><text fill="#000000" font-family="sans-serif" font-size="18" lengthAdjust="spacing" textLength="83.4961" x="539.3027" y="172.5674">run(args)</text></g><g class="message" data-participant-1="SupplyChainAuditorModule" data-participant-2="SupplyChainAuditorModule"><line style="stroke:#181818;stroke-width:1;" x1="750.6597" x2="792.6597" y1="213.7656" y2="213.7656"/><line style="stroke:#181818;stroke-width:1;" x1="792.6597" x2="792.6597" y1="213.7656" y2="226.7656"/><line style="stroke:#181818;stroke-width:1;" x1="751.6597" x2="792.6597" y1="226.7656" y2="226.7656"/><polygon fill="#181818" points="761.6597,222.7656,751.6597,226.7656,761.6597,230.7656,757.6597,226.7656" style="stroke:#181818;stroke-width:1;"/><text fill="#000000" font-family="sans-serif" font-size="18" lengthAdjust="spacing" textLength="268.4531" x="757.6597" y="207.5205">determine effective_sbom_dir</text></g><g class="message" data-participant-1="SupplyChainAuditorModule" data-participant-2="FileSystem"><polygon fill="#181818" points="1180.6069,257.7188,1190.6069,261.7188,1180.6069,265.7188,1184.6069,261.7188" style="stroke:#181818;stroke-width:1;"/><line style="stroke:#181818;stroke-width:1;" x1="750.6597" x2="1186.6069" y1="261.7188" y2="261.7188"/><text fill="#000000" font-family="sans-serif" font-size="18" lengthAdjust="spacing" textLength="331.1807" x="757.6597" y="255.4736">create_directory(effective_sbom_dir)</text></g><g class="message" data-participant-1="FileSystem" data-participant-2="SupplyChainAuditorModule"><polygon fill="#181818" points="761.6597,292.6719,751.6597,296.6719,761.6597,300.6719,757.6597,296.6719" style="stroke:#181818;stroke-width:1;"/><line style="stroke:#181818;stroke-width:1;stroke-dasharray:2.0,2.0;" x1="755.6597" x2="1196.6069" y1="296.6719" y2="296.6719"/><text fill="#000000" font-family="sans-serif" font-size="18" lengthAdjust="spacing" textLength="138.2256" x="767.6597" y="290.4268">directory ready</text></g><g class="message" data-participant-1="SupplyChainAuditorModule" data-participant-2="KubernetesAPIServer"><polygon fill="#181818" points="1349.187,327.625,1359.187,331.625,1349.187,335.625,1353.187,331.625" style="stroke:#181818;stroke-width:1;"/><line style="stroke:#181818;stroke-width:1;" x1="750.6597" x2="1355.187" y1="331.625" y2="331.625"/><text fill="#000000" font-family="sans-serif" font-size="18" lengthAdjust="spacing" textLength="187.752" x="757.6597" y="325.3799">_get_k8s_api_client()</text></g><g class="message" data-participant-1="KubernetesAPIServer" data-participant-2="SupplyChainAuditorModule"><polygon fill="#181818" points="761.6597,362.5781,751.6597,366.5781,761.6597,370.5781,757.6597,366.5781" style="stroke:#181818;stroke-width:1;"/><line style="stroke:#181818;stroke-width:1;stroke-dasharray:2.0,2.0;" x1="755.6597" x2="1365.187" y1="366.5781" y2="366.5781"/><text fill="#000000" font-family="sans-serif" font-size="18" lengthAdjust="spacing" textLength="141.6094" x="767.6597" y="360.333">client initialized</text></g><g class="message" data-participant-1="SupplyChainAuditorModule" data-participant-2="User"><polygon fill="#181818" points="69.5137,439.4375,59.5137,443.4375,69.5137,447.4375,65.5137,443.4375" style="stroke:#181818;stroke-width:1;"/><line style="stroke:#181818;stroke-width:1;" x1="63.5137" x2="739.6597" y1="443.4375" y2="443.4375"/><text fill="#000000" font-family="sans-serif" font-size="18" lengthAdjust="spacing" textLength="197.5518" x="75.5137" y="395.2861">"Select image source:</text><text fill="#000000" font-family="sans-serif" font-size="18" lengthAdjust="spacing" textLength="137.4346" x="75.5137" y="416.2393">1) From cluster</text><text fill="#000000" font-family="sans-serif" font-size="18" lengthAdjust="spacing" textLength="309.252" x="75.5137" y="437.1924">2) Manually enter image name(s)"</text></g><g class="message" data-participant-1="User" data-participant-2="SupplyChainAuditorModule"><polygon fill="#181818" points="728.6597,474.3906,738.6597,478.3906,728.6597,482.3906,732.6597,478.3906" style="stroke:#181818;stroke-width:1;"/><line style="stroke:#181818;stroke-width:1;stroke-dasharray:2.0,2.0;" x1="53.5137" x2="734.6597" y1="478.3906" y2="478.3906"/><text fill="#000000" font-family="sans-serif" font-size="18" lengthAdjust="spacing" textLength="11.4521" x="60.5137" y="472.1455">2</text></g><path d="M20,493.3906 L108.7871,493.3906 L108.7871,506.3438 L98.7871,516.3438 L20,516.3438 L20,493.3906" fill="#EEEEEE" style="stroke:#000000;stroke-width:1.5;"/><rect fill="none" height="168.7188" style="stroke:#000000;stroke-width:1.5;" width="864.5728" x="20" y="493.3906"/><text fill="#000000" font-family="sans-serif" font-size="18" font-weight="bold" lengthAdjust="spacing" textLength="43.7871" x="35" y="511.0986">loop</text><text fill="#000000" font-family="sans-serif" font-size="18" font-weight="bold" lengthAdjust="spacing" textLength="219.3926" x="123.7871" y="512.0986">[Manual image entry]</text><g class="message" data-participant-1="SupplyChainAuditorModule" data-participant-2="User"><polygon fill="#181818" points="69.5137,545.25,59.5137,549.25,69.5137,553.25,65.5137,549.25" style="stroke:#181818;stroke-width:1;"/><line style="stroke:#181818;stroke-width:1;" x1="63.5137" x2="739.6597" y1="549.25" y2="549.25"/><text fill="#000000" font-family="sans-serif" font-size="18" lengthAdjust="spacing" textLength="307.4766" x="75.5137" y="543.0049">"Image name (e.g., nginx:latest):"</text></g><g class="message" data-participant-1="User" data-participant-2="SupplyChainAuditorModule"><polygon fill="#181818" points="728.6597,580.2031,738.6597,584.2031,728.6597,588.2031,732.6597,584.2031" style="stroke:#181818;stroke-width:1;"/><line style="stroke:#181818;stroke-width:1;stroke-dasharray:2.0,2.0;" x1="53.5137" x2="734.6597" y1="584.2031" y2="584.2031"/><text fill="#000000" font-family="sans-serif" font-size="18" lengthAdjust="spacing" textLength="111.6035" x="60.5137" y="577.958">alpine:latest</text></g><g class="message" data-participant-1="SupplyChainAuditorModule" data-participant-2="User"><polygon fill="#181818" points="69.5137,615.1563,59.5137,619.1563,69.5137,623.1563,65.5137,619.1563" style="stroke:#181818;stroke-width:1;"/><line style="stroke:#181818;stroke-width:1;" x1="63.5137" x2="739.6597" y1="619.1563" y2="619.1563"/><text fill="#000000" font-family="sans-serif" font-size="18" lengthAdjust="spacing" textLength="216.7471" x="75.5137" y="612.9111">"Add another? (yes/no)"</text></g><g class="message" data-participant-1="User" data-participant-2="SupplyChainAuditorModule"><polygon fill="#181818" points="728.6597,650.1094,738.6597,654.1094,728.6597,658.1094,732.6597,654.1094" style="stroke:#181818;stroke-width:1;"/><line style="stroke:#181818;stroke-width:1;stroke-dasharray:2.0,2.0;" x1="53.5137" x2="734.6597" y1="654.1094" y2="654.1094"/><text fill="#000000" font-family="sans-serif" font-size="18" lengthAdjust="spacing" textLength="22.4209" x="60.5137" y="647.8643">no</text></g><g class="message" data-participant-1="SupplyChainAuditorModule" data-participant-2="SupplyChainAuditorModule"><line style="stroke:#181818;stroke-width:1;" x1="750.6597" x2="792.6597" y1="696.0625" y2="696.0625"/><line style="stroke:#181818;stroke-width:1;" x1="792.6597" x2="792.6597" y1="696.0625" y2="709.0625"/><line style="stroke:#181818;stroke-width:1;" x1="751.6597" x2="792.6597" y1="709.0625" y2="709.0625"/><polygon fill="#181818" points="761.6597,705.0625,751.6597,709.0625,761.6597,713.0625,757.6597,709.0625" style="stroke:#181818;stroke-width:1;"/><text fill="#000000" font-family="sans-serif" font-size="18" lengthAdjust="spacing" textLength="316.1689" x="757.6597" y="689.8174">images_to_audit = ["alpine:latest"]</text></g><path d="M10,724.0625 L98.7871,724.0625 L98.7871,737.0156 L88.7871,747.0156 L10,747.0156 L10,724.0625" fill="#EEEEEE" style="stroke:#000000;stroke-width:1.5;"/><rect fill="none" height="735.9219" style="stroke:#000000;stroke-width:1.5;" width="1687.7969" x="10" y="724.0625"/><text fill="#000000" font-family="sans-serif" font-size="18" font-weight="bold" lengthAdjust="spacing" textLength="43.7871" x="25" y="741.7705">loop</text><text fill="#000000" font-family="sans-serif" font-size="18" font-weight="bold" lengthAdjust="spacing" textLength="368.5166" x="113.7871" y="742.7705">[For each image in images_to_audit]</text><g class="message" data-participant-1="SupplyChainAuditorModule" data-participant-2="User"><polygon fill="#181818" points="69.5137,775.9219,59.5137,779.9219,69.5137,783.9219,65.5137,779.9219" style="stroke:#181818;stroke-width:1;"/><line style="stroke:#181818;stroke-width:1;" x1="63.5137" x2="739.6597" y1="779.9219" y2="779.9219"/><text fill="#000000" font-family="sans-serif" font-size="18" lengthAdjust="spacing" textLength="327.0674" x="75.5137" y="773.6768">"Generate SBOM for 'alpine:latest'?"</text></g><g class="message" data-participant-1="User" data-participant-2="SupplyChainAuditorModule"><polygon fill="#181818" points="728.6597,810.875,738.6597,814.875,728.6597,818.875,732.6597,814.875" style="stroke:#181818;stroke-width:1;"/><line style="stroke:#181818;stroke-width:1;stroke-dasharray:2.0,2.0;" x1="53.5137" x2="734.6597" y1="814.875" y2="814.875"/><text fill="#000000" font-family="sans-serif" font-size="18" lengthAdjust="spacing" textLength="31.1045" x="60.5137" y="808.6299">yes</text></g><g class="message" data-participant-1="SupplyChainAuditorModule" data-participant-2="TrivyCLI"><polygon fill="#181818" points="1504.7944,845.8281,1514.7944,849.8281,1504.7944,853.8281,1508.7944,849.8281" style="stroke:#181818;stroke-width:1;"/><line style="stroke:#181818;stroke-width:1;" x1="750.6597" x2="1510.7944" y1="849.8281" y2="849.8281"/><text fill="#000000" font-family="sans-serif" font-size="18" lengthAdjust="spacing" textLength="102.5508" x="757.6597" y="843.583">trivy image</text><text fill="#000000" font-family="sans-serif" font-size="18" lengthAdjust="spacing" text-decoration="line-through" textLength="102.8936" x="865.9321" y="843.583">format json</text><text fill="#000000" font-family="sans-serif" font-size="18" lengthAdjust="spacing" textLength="513.9756" x="974.5474" y="843.583">output effective_sbom_dir/alpine_sbom.json alpine:latest</text></g><g class="message" data-participant-1="TrivyCLI" data-participant-2="SupplyChainAuditorModule"><line style="stroke:#181818;stroke-width:1;" x1="751.6597" x2="761.6597" y1="884.7813" y2="880.7813"/><line style="stroke:#181818;stroke-width:1;" x1="751.6597" x2="761.6597" y1="884.7813" y2="888.7813"/><line style="stroke:#181818;stroke-width:1;stroke-dasharray:2.0,2.0;" x1="750.6597" x2="1520.7944" y1="884.7813" y2="884.7813"/><text fill="#000000" font-family="sans-serif" font-size="18" lengthAdjust="spacing" textLength="152.165" x="767.6597" y="878.5361">SBOM generated</text></g><g class="message" data-participant-1="SupplyChainAuditorModule" data-participant-2="FileSystem"><polygon fill="#181818" points="1180.6069,915.7344,1190.6069,919.7344,1180.6069,923.7344,1184.6069,919.7344" style="stroke:#181818;stroke-width:1;"/><line style="stroke:#181818;stroke-width:1;" x1="750.6597" x2="1186.6069" y1="919.7344" y2="919.7344"/><text fill="#000000" font-family="sans-serif" font-size="18" lengthAdjust="spacing" textLength="422.9473" x="757.6597" y="913.4893">read_file(effective_sbom_dir/alpine_sbom.json)</text></g><g class="message" data-participant-1="FileSystem" data-participant-2="SupplyChainAuditorModule"><polygon fill="#181818" points="761.6597,950.6875,751.6597,954.6875,761.6597,958.6875,757.6597,954.6875" style="stroke:#181818;stroke-width:1;"/><line style="stroke:#181818;stroke-width:1;stroke-dasharray:2.0,2.0;" x1="755.6597" x2="1196.6069" y1="954.6875" y2="954.6875"/><text fill="#000000" font-family="sans-serif" font-size="18" lengthAdjust="spacing" textLength="127.2656" x="767.6597" y="948.4424">sbom_content</text></g><g class="message" data-participant-1="SupplyChainAuditorModule" data-participant-2="User"><polygon fill="#181818" points="64.5137,985.6406,54.5137,989.6406,64.5137,993.6406,60.5137,989.6406" style="stroke:#181818;stroke-width:1;"/><line style="stroke:#181818;stroke-width:1;" x1="58.5137" x2="739.6597" y1="989.6406" y2="989.6406"/><text fill="#000000" font-family="sans-serif" font-size="18" lengthAdjust="spacing" textLength="216.2021" x="70.5137" y="983.3955">Display SBOM summary</text></g><g class="message" data-participant-1="SupplyChainAuditorModule" data-participant-2="User"><polygon fill="#181818" points="69.5137,1020.5938,59.5137,1024.5938,69.5137,1028.5938,65.5137,1024.5938" style="stroke:#181818;stroke-width:1;"/><line style="stroke:#181818;stroke-width:1;" x1="63.5137" x2="739.6597" y1="1024.5938" y2="1024.5938"/><text fill="#000000" font-family="sans-serif" font-size="18" lengthAdjust="spacing" textLength="241.2422" x="75.5137" y="1018.3486">"View full SBOM? (yes/no)"</text></g><g class="message" data-participant-1="User" data-participant-2="SupplyChainAuditorModule"><polygon fill="#181818" points="728.6597,1055.5469,738.6597,1059.5469,728.6597,1063.5469,732.6597,1059.5469" style="stroke:#181818;stroke-width:1;"/><line style="stroke:#181818;stroke-width:1;stroke-dasharray:2.0,2.0;" x1="53.5137" x2="734.6597" y1="1059.5469" y2="1059.5469"/><text fill="#000000" font-family="sans-serif" font-size="18" lengthAdjust="spacing" textLength="22.4209" x="60.5137" y="1053.3018">no</text></g><g class="message" data-participant-1="SupplyChainAuditorModule" data-participant-2="User"><polygon fill="#181818" points="69.5137,1090.5,59.5137,1094.5,69.5137,1098.5,65.5137,1094.5" style="stroke:#181818;stroke-width:1;"/><line style="stroke:#181818;stroke-width:1;" x1="63.5137" x2="739.6597" y1="1094.5" y2="1094.5"/><text fill="#000000" font-family="sans-serif" font-size="18" lengthAdjust="spacing" textLength="440.5078" x="75.5137" y="1088.2549">"Check signature for 'alpine:latest' with Cosign?"</text></g><g class="message" data-participant-1="User" data-participant-2="SupplyChainAuditorModule"><polygon fill="#181818" points="728.6597,1125.4531,738.6597,1129.4531,728.6597,1133.4531,732.6597,1129.4531" style="stroke:#181818;stroke-width:1;"/><line style="stroke:#181818;stroke-width:1;stroke-dasharray:2.0,2.0;" x1="53.5137" x2="734.6597" y1="1129.4531" y2="1129.4531"/><text fill="#000000" font-family="sans-serif" font-size="18" lengthAdjust="spacing" textLength="31.1045" x="60.5137" y="1123.208">yes</text></g><g class="message" data-participant-1="SupplyChainAuditorModule" data-participant-2="CosignCLI"><polygon fill="#181818" points="1609.4473,1160.4063,1619.4473,1164.4063,1609.4473,1168.4063,1613.4473,1164.4063" style="stroke:#181818;stroke-width:1;"/><line style="stroke:#181818;stroke-width:1;" x1="750.6597" x2="1615.4473" y1="1164.4063" y2="1164.4063"/><text fill="#000000" font-family="sans-serif" font-size="18" lengthAdjust="spacing" textLength="232.2861" x="757.6597" y="1158.1611">cosign verify alpine:latest</text></g><g class="message" data-participant-1="CosignCLI" data-participant-2="SupplyChainAuditorModule"><line style="stroke:#181818;stroke-width:1;" x1="751.6597" x2="761.6597" y1="1199.3594" y2="1195.3594"/><line style="stroke:#181818;stroke-width:1;" x1="751.6597" x2="761.6597" y1="1199.3594" y2="1203.3594"/><line style="stroke:#181818;stroke-width:1;stroke-dasharray:2.0,2.0;" x1="750.6597" x2="1625.4473" y1="1199.3594" y2="1199.3594"/><text fill="#000000" font-family="sans-serif" font-size="18" lengthAdjust="spacing" textLength="163.8457" x="767.6597" y="1193.1143">verification failure</text></g><g class="message" data-participant-1="SupplyChainAuditorModule" data-participant-2="User"><polygon fill="#181818" points="64.5137,1230.3125,54.5137,1234.3125,64.5137,1238.3125,60.5137,1234.3125" style="stroke:#181818;stroke-width:1;"/><line style="stroke:#181818;stroke-width:1;" x1="58.5137" x2="739.6597" y1="1234.3125" y2="1234.3125"/><text fill="#000000" font-family="sans-serif" font-size="18" lengthAdjust="spacing" textLength="218.2852" x="70.5137" y="1228.0674">Display signature status</text></g><path d="M20,1249.3125 L98.8555,1249.3125 L98.8555,1262.2656 L88.8555,1272.2656 L20,1272.2656 L20,1249.3125" fill="#EEEEEE" style="stroke:#000000;stroke-width:1.5;"/><rect fill="none" height="203.6719" style="stroke:#000000;stroke-width:1.5;" width="1667.7969" x="20" y="1249.3125"/><text fill="#000000" font-family="sans-serif" font-size="18" font-weight="bold" lengthAdjust="spacing" textLength="33.8555" x="35" y="1267.0205">opt</text><text fill="#000000" font-family="sans-serif" font-size="18" font-weight="bold" lengthAdjust="spacing" textLength="263.1445" x="113.8555" y="1268.0205">[Retry with experimental]</text><g class="message" data-participant-1="SupplyChainAuditorModule" data-participant-2="User"><polygon fill="#181818" points="69.5137,1301.1719,59.5137,1305.1719,69.5137,1309.1719,65.5137,1305.1719" style="stroke:#181818;stroke-width:1;"/><line style="stroke:#181818;stroke-width:1;" x1="63.5137" x2="739.6597" y1="1305.1719" y2="1305.1719"/><text fill="#000000" font-family="sans-serif" font-size="18" lengthAdjust="spacing" textLength="404.2793" x="75.5137" y="1298.9268">"Try again with COSIGN_EXPERIMENTAL=1?"</text></g><g class="message" data-participant-1="User" data-participant-2="SupplyChainAuditorModule"><polygon fill="#181818" points="728.6597,1336.125,738.6597,1340.125,728.6597,1344.125,732.6597,1340.125" style="stroke:#181818;stroke-width:1;"/><line style="stroke:#181818;stroke-width:1;stroke-dasharray:2.0,2.0;" x1="53.5137" x2="734.6597" y1="1340.125" y2="1340.125"/><text fill="#000000" font-family="sans-serif" font-size="18" lengthAdjust="spacing" textLength="31.1045" x="60.5137" y="1333.8799">yes</text></g><g class="message" data-participant-1="SupplyChainAuditorModule" data-participant-2="CosignCLI"><polygon fill="#181818" points="1609.4473,1371.0781,1619.4473,1375.0781,1609.4473,1379.0781,1613.4473,1375.0781" style="stroke:#181818;stroke-width:1;"/><line style="stroke:#181818;stroke-width:1;" x1="750.6597" x2="1615.4473" y1="1375.0781" y2="1375.0781"/><text fill="#000000" font-family="sans-serif" font-size="18" lengthAdjust="spacing" textLength="481.8779" x="757.6597" y="1368.833">COSIGN_EXPERIMENTAL=1 cosign verify alpine:latest</text></g><g class="message" data-participant-1="CosignCLI" data-participant-2="SupplyChainAuditorModule"><line style="stroke:#181818;stroke-width:1;" x1="751.6597" x2="761.6597" y1="1410.0313" y2="1406.0313"/><line style="stroke:#181818;stroke-width:1;" x1="751.6597" x2="761.6597" y1="1410.0313" y2="1414.0313"/><line style="stroke:#181818;stroke-width:1;stroke-dasharray:2.0,2.0;" x1="750.6597" x2="1625.4473" y1="1410.0313" y2="1410.0313"/><text fill="#000000" font-family="sans-serif" font-size="18" lengthAdjust="spacing" textLength="177.0029" x="767.6597" y="1403.7861">verification success</text></g><g class="message" data-participant-1="SupplyChainAuditorModule" data-participant-2="User"><polygon fill="#181818" points="64.5137,1440.9844,54.5137,1444.9844,64.5137,1448.9844,60.5137,1444.9844" style="stroke:#181818;stroke-width:1;"/><line style="stroke:#181818;stroke-width:1;" x1="58.5137" x2="739.6597" y1="1444.9844" y2="1444.9844"/><text fill="#000000" font-family="sans-serif" font-size="18" lengthAdjust="spacing" textLength="298.8545" x="70.5137" y="1438.7393">Display updated signature status</text></g><g class="message" data-participant-1="SupplyChainAuditorModule" data-participant-2="User"><polygon fill="#181818" points="64.5137,1489.9375,54.5137,1493.9375,64.5137,1497.9375,60.5137,1493.9375" style="stroke:#181818;stroke-width:1;"/><line style="stroke:#181818;stroke-width:1;" x1="58.5137" x2="739.6597" y1="1493.9375" y2="1493.9375"/><text fill="#000000" font-family="sans-serif" font-size="18" lengthAdjust="spacing" textLength="266.4844" x="70.5137" y="1487.6924">"Supply chain audit finished."</text></g><g class="message" data-participant-1="SupplyChainAuditorModule" data-participant-2="K8sHardenerCLI"><line style="stroke:#181818;stroke-width:1;" x1="528.3027" x2="538.3027" y1="1528.8906" y2="1524.8906"/><line style="stroke:#181818;stroke-width:1;" x1="528.3027" x2="538.3027" y1="1528.8906" y2="1532.8906"/><line style="stroke:#181818;stroke-width:1;stroke-dasharray:2.0,2.0;" x1="527.3027" x2="744.6597" y1="1528.8906" y2="1528.8906"/><text fill="#000000" font-family="sans-serif" font-size="18" lengthAdjust="spacing" textLength="134.0596" x="544.3027" y="1522.6455">run() complete</text></g><!--SRC=[lLRRJjj047tFLupoK1AfWE09MQA8Kg1HkGbeLQbKrcAFdIthjRMNWFi1_O1-Oh-aixP9xCH935BxvFNQS-RCdDdPqGzSPaon14ACc1Nc99L6yvy8Etiz5fXKmMUDgaV_61xmZ4a3d_RqHwP2bAYEpaQDJpSsoqH-D6PS7jgGa_bv6bg1ZPzEkC2RN1jCch3s7fL4W_hmQdI3QZBdzbRnIJxly2ZLF9Pkj-TumkQxENeUNB09Zvb1I51QVIVxeuJ526ygib2mxSEVNx-XNz-2AeA-omEVE8Ivo7lDT-TyMG8yK5OEc8hrS0QtD5kzPLzMkmWfUIhX4W6Z29qNzFLzclWXLoiXPufu42WaRiu4dVpvO16h5a9DozaIDbVJV8O6SXNclH3Ru5OIRgaL3_mOZV-mftsMSJyG7AKPrAYsrLVBtXho9IvmoGrdWWvAMEVVvcDb8AveFQex59GIu4LbwjIg0BqxkJE44vKcvDDIIjITt1t2EPEM2QfHOa5aIml94XpeOQrIYqDRdeYLuUpMsHT6FP6cMUMcWYTNAky1T0XaDEK30zoAjzw2ZBbyyWJXQpFq-WJJz0VGWIOJ6PLrXK8c2wGxaJiCGs0oDMDK1p38KM_BTFXAHZ9jeO4oVEtPBJAjVPFwp7s0VVZMRqJT_rv9Sq8zcVoEAt6eKStPTal6gUjQHHTwVtaE4O5kDFnj7BmoCvJNbolqtDmzC6vLnRQvIRmIPk27JYMzfTParhHqj-sIUl6-LVmyNp5JDjDh1APB5z2gY8eCnLM-mcPmKxWr0TPRh6jxVaGRWmwH3ElaQ_qHe7F3BR03kjZf83VPr_jjbwhvm7KcM5vcHDiaOLqRmnUEZn1P8GhRVtFykZ4v6cFm06viOCOgR2jzUEHcNCqM__KOJCSPkcYA9T0DmgDyUJdF1Y2OhTSLT07A0sOudPI8SK5vQ9AjpLKlgOjPLhMXftRMQMRW6ka6AREAJnbvfrdCC45VEqbsIyOiTZDPASpbpUZqmZ_-UdLyFJe_lhWzFDlVANHQLEe5MhMgrLclLb9hL5oYuskLr3O8K2-4qj3o9MhQB7GDRr5L07VJhRtjdeURSgWEYg6wlDqYcf_q6CEj_We05_dyCE-cw25bDSa4JLdruMNfC5qVpnfeVm40]--></g></svg>