<svg xmlns="http://www.w3.org/2000/svg" xmlns:xlink="http://www.w3.org/1999/xlink" contentStyleType="text/css" data-diagram-type="DESCRIPTION" height="727px" preserveAspectRatio="none" style="width:1112px;height:727px;background:#FFFFFF;" version="1.1" viewBox="0 0 1112 727" width="1112px" zoomAndPan="magnify"><defs/><g><!--cluster K8sHardener Utility--><g class="cluster" data-entity="K8sHardener Utility" data-source-line="12" data-uid="ent0003" id="cluster_K8sHardener Utility"><rect fill="none" height="714" rx="2.5" ry="2.5" style="stroke:#181818;stroke-width:1;" width="817.92" x="288.08" y="7"/><text fill="#000000" font-family="sans-serif" font-size="16" font-weight="bold" lengthAdjust="spacing" textLength="178.3125" x="607.8838" y="23.8516">K8sHardener Utility</text></g><g class="entity" data-entity="Authentication" data-source-line="13" data-uid="ent0004" id="entity_Authentication"><ellipse cx="999.6616" cy="375.9983" fill="#F1F1F1" rx="90.3416" ry="20.4683" style="stroke:#181818;stroke-width:0.5;"/><text fill="#000000" font-family="sans-serif" font-size="16" font-weight="bold" lengthAdjust="spacing" textLength="133.9844" x="929.6694" y="380.6741">Authentication</text></g><g class="entity" data-entity="Manage Application Settings" data-source-line="14" data-uid="ent0005" id="entity_Manage Application Settings"><ellipse cx="537.1968" cy="76.0034" fill="#F1F1F1" rx="146.7168" ry="31.7434" style="stroke:#181818;stroke-width:0.5;"/><text fill="#000000" font-family="sans-serif" font-size="16" font-weight="bold" lengthAdjust="spacing" textLength="259.9297" x="407.2319" y="79.5424">Manage Application Settings</text></g><g class="entity" data-entity="Perform General Kubernetes Security Hardening" data-source-line="15" data-uid="ent0006" id="entity_Perform General Kubernetes Security Hardening"><ellipse cx="537.1993" cy="192.0039" fill="#F1F1F1" rx="233.1193" ry="49.0239" style="stroke:#181818;stroke-width:0.5;"/><text fill="#000000" font-family="sans-serif" font-size="16" font-weight="bold" lengthAdjust="spacing" textLength="438.7188" x="317.84" y="195.5429">Perform General Kubernetes Security Hardening</text></g><g class="entity" data-entity="Manage Service Mesh (Istio) Security" data-source-line="16" data-uid="ent0007" id="entity_Manage Service Mesh (Istio) Security"><ellipse cx="537.2043" cy="315.0049" fill="#F1F1F1" rx="183.4243" ry="39.0849" style="stroke:#181818;stroke-width:0.5;"/><text fill="#000000" font-family="sans-serif" font-size="16" font-weight="bold" lengthAdjust="spacing" textLength="336.625" x="368.8918" y="318.5439">Manage Service Mesh (Istio) Security</text></g><g class="entity" data-entity="Administer Intrusion Detection System (Falco)" data-source-line="17" data-uid="ent0008" id="entity_Administer Intrusion Detection System (Falco)"><ellipse cx="537.1995" cy="435.9959" fill="#F1F1F1" rx="223.6295" ry="47.1259" style="stroke:#181818;stroke-width:0.5;"/><text fill="#000000" font-family="sans-serif" font-size="16" font-weight="bold" lengthAdjust="spacing" textLength="419.3203" x="327.5393" y="439.535">Administer Intrusion Detection System (Falco)</text></g><g class="entity" data-entity="Audit Image &amp; Configuration Security" data-source-line="18" data-uid="ent0009" id="entity_Audit Image &amp; Configuration Security"><ellipse cx="537.1981" cy="556.9996" fill="#F1F1F1" rx="184.3981" ry="39.2796" style="stroke:#181818;stroke-width:0.5;"/><text fill="#000000" font-family="sans-serif" font-size="16" font-weight="bold" lengthAdjust="spacing" textLength="338.6406" x="367.8778" y="560.5387">Audit Image &amp; Configuration Security</text></g><g class="entity" data-entity="Backup Kubernetes Configurations" data-source-line="19" data-uid="ent0010" id="entity_Backup Kubernetes Configurations"><ellipse cx="537.1967" cy="668.0013" fill="#F1F1F1" rx="172.7567" ry="36.9513" style="stroke:#181818;stroke-width:0.5;"/><text fill="#000000" font-family="sans-serif" font-size="16" font-weight="bold" lengthAdjust="spacing" textLength="314.4922" x="379.9507" y="671.5404">Backup Kubernetes Configurations</text></g><!--entity Admin--><g class="entity" data-entity="Admin" data-source-line="10" data-uid="ent0002" id="entity_Admin"><ellipse cx="123.5391" cy="355.88" fill="#F1F1F1" rx="8" ry="8" style="stroke:#181818;stroke-width:0.5;"/><path d="M123.5391,363.88 L123.5391,390.88 M110.5391,371.88 L136.5391,371.88 M123.5391,390.88 L110.5391,405.88 M123.5391,390.88 L136.5391,405.88" fill="none" style="stroke:#181818;stroke-width:0.5;"/><text fill="#000000" font-family="sans-serif" font-size="16" font-weight="bold" lengthAdjust="spacing" textLength="235.0781" x="6" y="422.2316">Kubernetes Administrator</text><text fill="#000000" font-family="sans-serif" font-size="16" font-weight="bold" lengthAdjust="spacing" textLength="160.5156" x="6" y="440.8566">Security Engineer</text></g><!--link Admin to Manage Application Settings--><g class="link" data-entity-1="Admin" data-entity-2="Manage Application Settings" data-source-line="22" data-uid="lnk11" id="link_Admin_Manage Application Settings"><path d="M138.62,347 C159.11,285 203.33,179.72 280.08,125 C312.61,101.81 347.2465,89.8519 386.4065,82.7419" fill="none" id="Admin-to-Manage Application Settings" style="stroke:#181818;stroke-width:1;"/><polygon fill="#181818" points="392.31,81.67,382.7402,79.3421,387.3904,82.5632,384.1693,87.2134,392.31,81.67" style="stroke:#181818;stroke-width:1;"/></g><!--link Admin to Perform General Kubernetes Security Hardening--><g class="link" data-entity-1="Admin" data-entity-2="Perform General Kubernetes Security Hardening" data-source-line="23" data-uid="lnk12" id="link_Admin_Perform General Kubernetes Security Hardening"><path d="M168.07,346.99 C197.06,317.19 237.53,280.64 280.08,258 C305.62,244.41 328.3628,235.2663 356.7828,226.5663" fill="none" id="Admin-to-Perform General Kubernetes Security Hardening" style="stroke:#181818;stroke-width:1;"/><polygon fill="#181818" points="362.52,224.81,352.7433,223.6196,357.739,226.2736,355.0851,231.2692,362.52,224.81" style="stroke:#181818;stroke-width:1;"/></g><!--link Admin to Manage Service Mesh (Istio) Security--><g class="link" data-entity-1="Admin" data-entity-2="Manage Service Mesh (Istio) Security" data-source-line="24" data-uid="lnk13" id="link_Admin_Manage Service Mesh (Istio) Security"><path d="M241.4,373.01 C291.2,363.21 343.7129,352.8785 395.3429,342.7185" fill="none" id="Admin-to-Manage Service Mesh (Istio) Security" style="stroke:#181818;stroke-width:1;"/><polygon fill="#181818" points="401.23,341.56,391.627,339.373,396.3241,342.5254,393.1717,347.2225,401.23,341.56" style="stroke:#181818;stroke-width:1;"/></g><!--link Admin to Administer Intrusion Detection System (Falco)--><g class="link" data-entity-1="Admin" data-entity-2="Administer Intrusion Detection System (Falco)" data-source-line="25" data-uid="lnk14" id="link_Admin_Administer Intrusion Detection System (Falco)"><path d="M241.4,407.36 C270.16,410.15 295.8282,412.6387 327.3682,415.7087" fill="none" id="Admin-to-Administer Intrusion Detection System (Falco)" style="stroke:#181818;stroke-width:1;"/><polygon fill="#181818" points="333.34,416.29,324.7698,411.4369,328.3635,415.8056,323.9948,419.3993,333.34,416.29" style="stroke:#181818;stroke-width:1;"/></g><!--link Admin to Audit Image & Configuration Security--><g class="link" data-entity-1="Admin" data-entity-2="Audit Image &amp; Configuration Security" data-source-line="26" data-uid="lnk15" id="link_Admin_Audit Image &amp; Configuration Security"><path d="M185.34,444.93 C212.87,464.94 246.68,486.7 280.08,501 C313.34,515.24 344.8001,524.7064 380.4201,532.8264" fill="none" id="Admin-to-Audit Image &amp; Configuration Security" style="stroke:#181818;stroke-width:1;"/><polygon fill="#181818" points="386.27,534.16,378.3842,528.2597,381.3951,533.0487,376.6061,536.0596,386.27,534.16" style="stroke:#181818;stroke-width:1;"/></g><!--link Admin to Backup Kubernetes Configurations--><g class="link" data-entity-1="Admin" data-entity-2="Backup Kubernetes Configurations" data-source-line="27" data-uid="lnk16" id="link_Admin_Backup Kubernetes Configurations"><path d="M146.1,444.98 C170.95,495.47 216.66,572.5 280.08,614 C309.07,632.97 337.6846,644.0341 371.7546,652.1841" fill="none" id="Admin-to-Backup Kubernetes Configurations" style="stroke:#181818;stroke-width:1;"/><polygon fill="#181818" points="377.59,653.58,369.7676,647.5959,372.7272,652.4168,367.9064,655.3764,377.59,653.58" style="stroke:#181818;stroke-width:1;"/></g><!--link Manage Application Settings to Authentication--><g class="link" data-entity-1="Manage Application Settings" data-entity-2="Authentication" data-source-line="29" data-uid="lnk17" id="link_Manage Application Settings_Authentication"><path d="M671.05,89.41 C704.95,96.68 740.27,107.85 770.32,125 C873.92,184.13 953.3532,301.6614 983.3332,350.3314" fill="none" id="Manage Application Settings-to-Authentication" style="stroke:#181818;stroke-width:1;stroke-dasharray:7.0,7.0;"/><polygon fill="#181818" points="986.48,355.44,985.1655,345.6793,983.8577,351.1829,978.3541,349.875,986.48,355.44" style="stroke:#181818;stroke-width:1;"/><text fill="#000000" font-family="sans-serif" font-size="16" lengthAdjust="spacing" textLength="77.5469" x="801.32" y="140.6016">&#171;include&#187;</text></g><!--link Perform General Kubernetes Security Hardening to Authentication--><g class="link" data-entity-1="Perform General Kubernetes Security Hardening" data-entity-2="Authentication" data-source-line="30" data-uid="lnk18" id="link_Perform General Kubernetes Security Hardening_Authentication"><path d="M687.96,229.81 C715.67,238.15 744.12,247.63 770.32,258 C842.92,286.75 917.7891,328.3037 961.1691,353.6437" fill="none" id="Perform General Kubernetes Security Hardening-to-Authentication" style="stroke:#181818;stroke-width:1;stroke-dasharray:7.0,7.0;"/><polygon fill="#181818" points="966.35,356.67,960.5963,348.6766,962.0326,354.148,956.5612,355.5844,966.35,356.67" style="stroke:#181818;stroke-width:1;"/><text fill="#000000" font-family="sans-serif" font-size="16" lengthAdjust="spacing" textLength="77.5469" x="801.32" y="267.3716">&#171;include&#187;</text></g><!--link Manage Service Mesh (Istio) Security to Authentication--><g class="link" data-entity-1="Manage Service Mesh (Istio) Security" data-entity-2="Authentication" data-source-line="31" data-uid="lnk19" id="link_Manage Service Mesh (Istio) Security_Authentication"><path d="M694.09,335.65 C770.4,345.76 852.982,356.7017 914.852,364.9017" fill="none" id="Manage Service Mesh (Istio) Security-to-Authentication" style="stroke:#181818;stroke-width:1;stroke-dasharray:7.0,7.0;"/><polygon fill="#181818" points="920.8,365.69,912.4036,360.5422,915.8433,365.0331,911.3525,368.4728,920.8,365.69" style="stroke:#181818;stroke-width:1;"/><text fill="#000000" font-family="sans-serif" font-size="16" lengthAdjust="spacing" textLength="77.5469" x="801.32" y="346.8116">&#171;include&#187;</text></g><!--link Administer Intrusion Detection System (Falco) to Authentication--><g class="link" data-entity-1="Administer Intrusion Detection System (Falco)" data-entity-2="Authentication" data-source-line="32" data-uid="lnk20" id="link_Administer Intrusion Detection System (Falco)_Authentication"><path d="M733.14,412.93 C780.98,407.01 832.02,400.48 879.32,394 C893.85,392.01 903.4253,390.6426 918.2853,388.4326" fill="none" id="Administer Intrusion Detection System (Falco)-to-Authentication" style="stroke:#181818;stroke-width:1;stroke-dasharray:7.0,7.0;"/><polygon fill="#181818" points="924.22,387.55,914.7295,384.9174,919.2744,388.2855,915.9063,392.8304,924.22,387.55" style="stroke:#181818;stroke-width:1;"/><text fill="#000000" font-family="sans-serif" font-size="16" lengthAdjust="spacing" textLength="77.5469" x="801.32" y="389.8516">&#171;include&#187;</text></g><!--link Audit Image & Configuration Security to Authentication--><g class="link" data-entity-1="Audit Image &amp; Configuration Security" data-entity-2="Authentication" data-source-line="33" data-uid="lnk21" id="link_Audit Image &amp; Configuration Security_Authentication"><path d="M674.45,530.49 C706.4,522.53 739.96,512.73 770.32,501 C845.35,472 921.3906,426.1409 963.8306,398.9009" fill="none" id="Audit Image &amp; Configuration Security-to-Authentication" style="stroke:#181818;stroke-width:1;stroke-dasharray:7.0,7.0;"/><polygon fill="#181818" points="968.88,395.66,959.1453,397.1551,964.6722,398.3608,963.4665,403.8877,968.88,395.66" style="stroke:#181818;stroke-width:1;"/><text fill="#000000" font-family="sans-serif" font-size="16" lengthAdjust="spacing" textLength="77.5469" x="801.32" y="448.1316">&#171;include&#187;</text></g><!--link Backup Kubernetes Configurations to Authentication--><g class="link" data-entity-1="Backup Kubernetes Configurations" data-entity-2="Authentication" data-source-line="34" data-uid="lnk22" id="link_Backup Kubernetes Configurations_Authentication"><path d="M680.4,646.96 C711.12,639.15 742.65,628.51 770.32,614 C872.5,560.42 952.027,448.7652 982.647,401.5152" fill="none" id="Backup Kubernetes Configurations-to-Authentication" style="stroke:#181818;stroke-width:1;stroke-dasharray:7.0,7.0;"/><polygon fill="#181818" points="985.91,396.48,977.6587,401.8574,983.1908,400.676,984.3723,406.2081,985.91,396.48" style="stroke:#181818;stroke-width:1;"/><text fill="#000000" font-family="sans-serif" font-size="16" lengthAdjust="spacing" textLength="77.5469" x="801.32" y="528.4216">&#171;include&#187;</text></g><!--SRC=[bPBBQiCm44Nt-eh1Yv8i4kYcb182wIDj2862wQuRLHux8h9if54XBVttoddAnAtjzPtxqB7jHkgI6vv3WYbtYkQ5fbX-8LpVC7iIdKN1BJQBN51XcgKmbBOAuQDGoH-vJVev-gmoXIa15M1ajYP8f451ij2CxQuXMheFD1e9BSoIN6ffoN2llEiOXJEIjl2aCwaHJGJySCHO5SDrvckYvQrzuIP1ZGRUI2flYU2RmN4lH3D7QzGa1Q-ger1QSSqpX5bPgeCCCH99dTdQtIkQj30vF5SrN44m-xHply9RcnfYD9zI8ApGhc6miBvgUBBM34SC_ZaBJSRPQjIZhnBxULilvJ2OSoMAOTtf4acmoAk-AtWeT2epPuwlQgYwvsBZol0nDPD7yCFORW-CHjCMMi5TJrgN3Isq0aDFMg6p4wt0q4wB_Ki8nkFfnSy8Tp2PI2sKIt0wPJtHTOhinBHJKZ_OtIAxV8LEIQsVfqFABm00]--></g></svg>